<?xml version="1.0" encoding="UTF-8" standalone="no"?>
<svg
   width="939"
   height="927"
   viewBox="0 0 939 927"
   fill="none"
   version="1.1"
   id="svg402"
   xmlns:svg="http://www.w3.org/2000/svg">
  <defs
     id="defs406" />
   <g
     id="g638"
     style="fill:#ffffff" opacity="0.3" cursor="pointer">
    <path
       d="M262.682 230.18L247.476 207.571L257.23 201.011C259.749 199.316 262.038 198.512 264.097 198.597C266.177 198.668 267.84 199.629 269.086 201.481C269.911 202.708 270.316 203.937 270.299 205.168C270.304 206.384 269.956 207.541 269.255 208.637C268.576 209.72 267.655 210.652 266.492 211.434L266.52 210.289C267.962 209.319 269.353 208.713 270.69 208.47C272.035 208.191 273.295 208.297 274.47 208.789C275.631 209.259 276.645 210.14 277.514 211.432C278.803 213.349 279.092 215.312 278.38 217.323C277.69 219.319 275.924 221.273 273.082 223.185L262.682 230.18ZM263.747 226.602L271.725 221.237C273.706 219.904 274.999 218.55 275.605 217.172C276.197 215.774 275.993 214.332 274.994 212.846C274.009 211.382 272.765 210.671 271.261 210.713C269.742 210.733 267.993 211.41 266.012 212.742L257.776 218.281L256.45 216.311L263.911 211.293C265.72 210.077 266.888 208.791 267.415 207.436C267.964 206.066 267.782 204.703 266.869 203.346C265.943 201.968 264.749 201.286 263.288 201.299C261.834 201.276 260.202 201.873 258.394 203.09L251.191 207.934L263.747 226.602Z"
       fill="white"
       id="path302"
       style="fill:#ffffff" />
    <path
       d="M281.472 200.288L294.092 193.35L295.274 195.499L282.653 202.437L281.472 200.288ZM287.802 211.155L302.162 203.261L303.362 205.444L286.478 214.726L273.351 190.85L289.724 181.849L290.924 184.032L277.076 191.645L287.802 211.155Z"
       fill="white"
       id="path304"
       style="fill:#ffffff" />
    <path
       d="M304.464 204.783L304.78 174.826L307.376 173.672L329.825 193.511L327.05 194.745L306.207 176.024L307.274 175.55L307.203 203.566L304.464 204.783ZM305.99 196.14L305.824 193.658L320.3 187.224L322.031 189.01L305.99 196.14Z"
       fill="white"
       id="path306"
       style="fill:#ffffff" />
    <path
       d="M344.433 188.813C342.495 189.479 340.594 189.776 338.73 189.704C336.858 189.606 335.119 189.176 333.511 188.411C331.904 187.647 330.482 186.585 329.247 185.226C328.036 183.859 327.105 182.231 326.456 180.341C325.806 178.452 325.538 176.596 325.652 174.773C325.791 172.942 326.259 171.23 327.056 169.639C327.878 168.039 329.001 166.638 330.426 165.434C331.842 164.206 333.52 163.259 335.458 162.593C337.323 161.951 339.188 161.667 341.051 161.74C342.906 161.788 344.613 162.243 346.172 163.107L345.037 165.432C343.611 164.715 342.179 164.343 340.743 164.315C339.298 164.263 337.84 164.49 336.367 164.997C334.821 165.528 333.479 166.292 332.339 167.287C331.191 168.258 330.295 169.403 329.651 170.722C328.999 172.017 328.614 173.411 328.497 174.906C328.396 176.368 328.611 177.872 329.143 179.417C329.674 180.963 330.434 182.294 331.421 183.409C332.424 184.491 333.585 185.354 334.904 185.998C336.215 186.617 337.625 186.969 339.136 187.053C340.638 187.113 342.163 186.877 343.709 186.345C345.181 185.839 346.471 185.121 347.578 184.192C348.685 183.262 349.581 182.076 350.265 180.634L352.59 181.769C351.891 183.408 350.829 184.83 349.405 186.033C347.98 187.236 346.323 188.163 344.433 188.813Z"
       fill="white"
       id="path308"
       style="fill:#ffffff" />
    <path
       d="M371.379 152.825L374.138 152.146L380.649 178.603L377.89 179.282L371.379 152.825ZM361.336 183.356L358.539 184.045L352.027 157.588L354.824 156.899L361.336 183.356ZM375.15 167.009L358.029 171.223L357.424 168.766L374.545 164.552L375.15 167.009Z"
       fill="white"
       id="path310"
       style="fill:#ffffff" />
    <path
       d="M397.921 175.686L394.472 148.659L397.329 148.294L400.462 172.85L415.598 170.919L415.913 173.39L397.921 175.686Z"
       fill="white"
       id="path312"
       style="fill:#ffffff" />
    <path
       d="M431.621 172.749C429.573 172.841 427.653 172.589 425.86 171.994C424.092 171.372 422.532 170.468 421.18 169.282C419.853 168.069 418.789 166.649 417.989 165.022C417.213 163.369 416.781 161.544 416.691 159.548C416.602 157.552 416.87 155.708 417.495 154.018C418.145 152.3 419.078 150.791 420.292 149.49C421.531 148.161 423.004 147.121 424.711 146.369C426.416 145.591 428.306 145.156 430.38 145.063C432.428 144.971 434.336 145.236 436.104 145.858C437.871 146.454 439.418 147.346 440.744 148.534C442.096 149.72 443.16 151.14 443.935 152.793C444.736 154.446 445.182 156.27 445.271 158.266C445.361 160.262 445.08 162.119 444.43 163.837C443.806 165.553 442.873 167.062 441.633 168.365C440.419 169.666 438.959 170.706 437.253 171.483C435.547 172.235 433.669 172.657 431.621 172.749ZM431.506 170.183C433.139 170.109 434.631 169.77 435.98 169.164C437.355 168.531 438.525 167.686 439.49 166.63C440.481 165.546 441.231 164.318 441.741 162.944C442.249 161.545 442.467 160.028 442.394 158.395C442.321 156.762 441.969 155.284 441.338 153.962C440.706 152.613 439.849 151.457 438.767 150.492C437.709 149.501 436.468 148.764 435.044 148.283C433.645 147.774 432.128 147.556 430.495 147.629C428.862 147.703 427.358 148.056 425.984 148.689C424.608 149.296 423.426 150.141 422.435 151.225C421.469 152.281 420.719 153.51 420.185 154.91C419.675 156.284 419.456 157.787 419.53 159.42C419.602 161.028 419.954 162.505 420.586 163.854C421.243 165.201 422.101 166.37 423.159 167.362C424.241 168.326 425.495 169.062 426.92 169.57C428.344 170.052 429.873 170.256 431.506 170.183Z"
       fill="white"
       id="path314"
       style="fill:#ffffff" />
    <path
       d="M462.083 172.844C458.61 172.676 455.924 171.547 454.024 169.455C452.125 167.363 451.269 164.36 451.458 160.446L452.21 144.856L455.087 144.994L454.341 160.468C454.186 163.682 454.797 166.089 456.175 167.688C457.552 169.287 459.563 170.15 462.207 170.278C464.877 170.407 466.974 169.742 468.499 168.282C470.024 166.823 470.865 164.487 471.02 161.273L471.766 145.799L474.565 145.934L473.813 161.524C473.624 165.438 472.484 168.345 470.392 170.244C468.326 172.145 465.556 173.011 462.083 172.844Z"
       fill="white"
       id="path316"
       style="fill:#ffffff" />
    <path
       d="M480.83 173.882L484.675 146.908L487.026 147.243L502.298 173.325L501.065 173.149L504.405 149.721L507.218 150.122L503.373 177.096L501.022 176.761L485.788 150.684L487.021 150.86L483.682 174.289L480.83 173.882Z"
       fill="white"
       id="path318"
       style="fill:#ffffff" />
    <path
       d="M522.702 181.553C520.68 181.084 518.886 180.321 517.32 179.264C515.785 178.189 514.526 176.897 513.544 175.391C512.587 173.89 511.946 172.235 511.62 170.428C511.319 168.627 511.394 166.753 511.846 164.807C512.299 162.86 513.057 161.145 514.121 159.66C515.21 158.182 516.527 156.983 518.073 156.063C519.619 155.143 521.314 154.551 523.161 154.287C525.038 154.004 526.988 154.097 529.01 154.567C531.032 155.037 532.804 155.781 534.325 156.801C535.872 157.826 537.09 159.121 537.978 160.686L535.82 162.063C534.966 160.692 533.925 159.611 532.697 158.82C531.469 158.029 530.084 157.454 528.542 157.096C526.899 156.714 525.318 156.64 523.799 156.873C522.311 157.087 520.931 157.579 519.66 158.35C518.42 159.1 517.354 160.078 516.461 161.283C515.6 162.468 514.984 163.857 514.614 165.449C514.25 167.016 514.191 168.534 514.436 170.003C514.706 171.478 515.229 172.838 516.005 174.084C516.813 175.311 517.834 176.36 519.07 177.233C520.337 178.087 521.779 178.702 523.397 179.078C524.914 179.43 526.395 179.534 527.84 179.39C529.311 179.252 530.741 178.772 532.131 177.949L533.23 180.442C531.708 181.261 530.032 181.764 528.204 181.952C526.381 182.115 524.547 181.982 522.702 181.553ZM530.617 179.476L532.889 169.694L535.581 170.319L533.23 180.442L530.617 179.476Z"
       fill="white"
       id="path320"
       style="fill:#ffffff" />
    <path
       d="M546.317 172.087L560.042 176.452L559.299 178.789L545.574 174.424L546.317 172.087ZM542.804 184.163L558.42 189.129L557.665 191.503L539.304 185.664L547.562 159.699L565.366 165.361L564.611 167.735L549.552 162.946L542.804 184.163Z"
       fill="white"
       id="path322"
       style="fill:#ffffff" />
  </g>
  <g
     id="g625"  opacity="0.3">
    <path
       d="M695.967 268.334L716.512 250.437L723.21 258.127C724.727 259.868 725.747 261.612 726.271 263.359C726.814 265.088 726.847 266.746 726.37 268.331C725.929 269.92 724.965 271.361 723.478 272.657C722.031 273.918 720.48 274.666 718.827 274.902C717.21 275.14 715.573 274.88 713.915 274.122C712.256 273.364 710.669 272.115 709.152 270.373L703.502 263.887L705.373 263.96L697.859 270.506L695.967 268.334ZM705.196 264.114L705.409 262.225L711.008 268.653C712.798 270.707 714.593 271.879 716.394 272.169C718.232 272.461 719.962 271.9 721.587 270.485C723.23 269.053 724.033 267.407 723.996 265.547C723.975 263.706 723.071 261.759 721.281 259.704L715.682 253.277L717.553 253.35L705.196 264.114Z"
       fill="white"
       id="path324" />
    <path
       d="M710.714 285.314L740.042 279.198L741.726 281.487L727.162 307.667L725.363 305.222L739.178 280.848L739.87 281.789L712.49 287.728L710.714 285.314ZM719.483 284.95L721.872 284.256L731.261 297.016L729.887 299.09L719.483 284.95Z"
       fill="white"
       id="path326" />
    <path
       d="M732.935 317.27L749.802 292.704L751.435 295.355L735.519 318.421L734.621 316.963L762.421 313.183L763.952 315.668L734.426 319.689L732.935 317.27Z"
       fill="white"
       id="path328" />
    <path
       d="M742.386 333.595L766.407 320.736L767.766 323.275L743.745 336.135L742.386 333.595Z"
       fill="white"
       id="path330" />
    <path
       d="M747.516 342.889L772.396 331.781L773.364 333.95L759.035 353.987L758.528 352.85L782.964 355.453L783.932 357.621L759.052 368.728L757.926 366.205L778.86 356.859L779.13 357.463L756.725 355.019L756.17 353.775L769.276 335.391L769.577 336.066L748.643 345.413L747.516 342.889Z"
       fill="white"
       id="path332" />
    <path
       d="M776.574 373.55L781.141 387.209L778.815 387.987L774.249 374.328L776.574 373.55ZM764.749 377.832L769.945 393.373L767.582 394.163L761.474 375.89L787.314 367.251L793.238 384.971L790.876 385.76L785.865 370.773L764.749 377.832Z"
       fill="white"
       id="path334" />
    <path
       d="M769.108 399.563L795.628 393.309L796.173 395.62L777.454 419.35L777.168 418.138L800.202 412.706L800.854 415.472L774.335 421.725L773.79 419.414L792.518 395.722L792.803 396.934L769.77 402.366L769.108 399.563Z"
       fill="white"
       id="path336" />
    <path
       d="M776.34 434.621L800.829 431.003L799.43 421.53L801.894 421.166L805.115 442.96L802.65 443.324L801.251 433.852L776.761 437.471L776.34 434.621Z"
       fill="white"
       id="path338" />
    <path
       d="M778.97 462.389C778.854 460.342 779.083 458.419 779.656 456.619C780.257 454.843 781.143 453.273 782.313 451.907C783.51 450.565 784.917 449.484 786.534 448.665C788.178 447.87 789.998 447.415 791.993 447.302C793.988 447.189 795.834 447.435 797.532 448.04C799.257 448.67 800.777 449.584 802.093 450.783C803.436 452.006 804.494 453.467 805.266 455.164C806.064 456.86 806.522 458.745 806.64 460.817C806.756 462.864 806.514 464.775 805.913 466.55C805.338 468.325 804.464 469.882 803.293 471.222C802.123 472.588 800.716 473.668 799.072 474.463C797.429 475.285 795.61 475.752 793.615 475.865C791.62 475.978 789.76 475.72 788.035 475.09C786.311 474.487 784.791 473.572 783.474 472.348C782.158 471.149 781.101 469.701 780.303 468.005C779.531 466.308 779.087 464.436 778.97 462.389ZM781.535 462.243C781.628 463.875 781.985 465.363 782.607 466.705C783.257 468.071 784.116 469.231 785.183 470.184C786.278 471.162 787.516 471.897 788.895 472.39C790.301 472.882 791.82 473.082 793.452 472.989C795.084 472.897 796.557 472.527 797.872 471.881C799.213 471.233 800.359 470.362 801.311 469.268C802.29 468.199 803.011 466.949 803.476 465.519C803.968 464.114 804.167 462.595 804.075 460.963C803.982 459.331 803.611 457.831 802.962 456.465C802.338 455.097 801.479 453.924 800.384 452.946C799.316 451.993 798.078 451.258 796.671 450.74C795.292 450.247 793.786 450.046 792.154 450.139C790.548 450.23 789.074 450.6 787.733 451.248C786.394 451.922 785.235 452.793 784.256 453.862C783.305 454.956 782.584 456.219 782.093 457.65C781.629 459.08 781.443 460.611 781.535 462.243Z"
       fill="white"
       id="path340" />
    <path
       d="M779.109 496.421L803.811 498.048L804.441 488.494L806.926 488.658L805.478 510.641L802.993 510.477L803.622 500.923L778.92 499.296L779.109 496.421Z"
       fill="white"
       id="path342" />
    <path
       d="M792.305 517.242L790.183 531.487L787.758 531.126L789.879 516.881L792.305 517.242ZM779.824 515.698L777.41 531.906L774.946 531.54L777.784 512.482L804.733 516.496L801.981 534.975L799.517 534.609L801.845 518.978L779.824 515.698ZM805.919 523.599L809.907 529.584L809.363 533.241L805.517 526.293L805.919 523.599Z"
       fill="white"
       id="path344" />
    <path
       d="M773.85 536.813L800.321 543.268L797.905 553.175C797.358 555.419 796.522 557.258 795.397 558.694C794.298 560.135 792.963 561.118 791.393 561.643C789.842 562.2 788.108 562.245 786.192 561.777C784.326 561.323 782.82 560.488 781.674 559.274C780.547 558.091 779.815 556.603 779.477 554.811C779.165 553.026 779.282 551.011 779.829 548.767L781.867 540.41L782.848 541.972L773.168 539.611L773.85 536.813ZM769.442 554.889L780.707 550.424L779.969 553.449L768.695 557.952L769.442 554.889ZM782.621 541.916L784.249 540.991L782.23 549.273C781.584 551.92 781.675 554.066 782.503 555.71C783.325 557.379 784.782 558.469 786.874 558.979C788.992 559.495 790.8 559.202 792.297 558.098C793.789 557.019 794.858 555.157 795.503 552.51L797.523 544.228L798.542 545.799L782.621 541.916Z"
       fill="white"
       id="path346" />
    <path
       d="M767.091 562.919L792.814 571.901L789.453 581.529C788.691 583.709 787.682 585.459 786.424 586.779C785.19 588.107 783.767 588.957 782.153 589.328C780.555 589.732 778.825 589.609 776.963 588.959C775.15 588.326 773.732 587.35 772.709 586.031C771.701 584.744 771.116 583.193 770.953 581.377C770.814 579.57 771.126 577.576 771.887 575.395L774.723 567.274L775.549 568.923L766.141 565.638L767.091 562.919ZM760.957 580.485L772.601 577.129L771.575 580.069L759.918 583.461L760.957 580.485ZM775.328 568.846L777.038 568.082L774.228 576.13C773.33 578.703 773.213 580.847 773.878 582.563C774.535 584.304 775.879 585.53 777.913 586.24C779.971 586.958 781.798 586.841 783.396 585.887C784.985 584.957 786.228 583.206 787.126 580.634L789.936 572.586L790.799 574.248L775.328 568.846Z"
       fill="white"
       id="path348" />
    <path
       d="M770.326 597.122L764.327 610.215L762.098 609.194L768.097 596.101L770.326 597.122ZM758.767 592.168L751.941 607.066L749.676 606.028L757.702 588.512L782.472 599.862L774.689 616.847L772.425 615.809L779.008 601.443L758.767 592.168Z"
       fill="white"
       id="path350" />
    <path
       d="M740.495 621.935C741.535 620.169 742.794 618.696 744.27 617.518C745.756 616.375 747.365 615.561 749.097 615.075C750.837 614.624 752.608 614.507 754.407 614.723C756.216 614.975 757.982 615.608 759.704 616.622C761.425 617.636 762.824 618.866 763.9 620.312C764.985 621.794 765.741 623.399 766.17 625.126C766.607 626.89 766.675 628.691 766.375 630.532C766.096 632.386 765.431 634.207 764.377 635.996C763.337 637.762 762.074 639.217 760.588 640.36C759.125 641.516 757.534 642.325 755.816 642.789C754.084 643.275 752.314 643.392 750.505 643.14C748.683 642.911 746.911 642.289 745.189 641.275C743.467 640.262 742.064 639.014 740.979 637.532C739.881 636.072 739.124 634.468 738.709 632.718C738.281 630.99 738.206 629.199 738.484 627.346C738.785 625.505 739.455 623.702 740.495 621.935ZM742.709 623.238C741.88 624.647 741.351 626.082 741.123 627.544C740.904 629.041 740.974 630.483 741.332 631.868C741.7 633.289 742.321 634.588 743.194 635.765C744.089 636.954 745.241 637.964 746.65 638.793C748.059 639.623 749.49 640.134 750.942 640.326C752.417 640.532 753.853 640.445 755.252 640.064C756.66 639.718 757.954 639.08 759.135 638.149C760.325 637.253 761.334 636.101 762.164 634.692C762.993 633.284 763.517 631.831 763.736 630.333C763.977 628.849 763.914 627.397 763.546 625.976C763.188 624.59 762.567 623.292 761.685 622.079C760.812 620.903 759.671 619.9 758.262 619.07C756.876 618.254 755.445 617.743 753.97 617.537C752.482 617.354 751.034 617.435 749.626 617.78C748.228 618.161 746.927 618.811 745.724 619.729C744.544 620.66 743.539 621.83 742.709 623.238Z"
       fill="white"
       id="path352" />
  </g>
  <g
     id="g647"  opacity="0.3">
    <path
       d="M625.973 730.279L637.643 754.9L628.428 759.268C626.341 760.257 624.386 760.767 622.563 760.798C620.751 760.853 619.147 760.436 617.749 759.548C616.339 758.694 615.212 757.376 614.367 755.594C613.545 753.859 613.244 752.164 613.465 750.509C613.673 748.888 614.366 747.382 615.544 745.991C616.734 744.623 618.372 743.444 620.459 742.455L628.232 738.771L627.638 740.517L623.37 731.512L625.973 730.279ZM609.161 738.248L619.726 744.181L616.912 745.514L606.312 739.598L609.161 738.248ZM627.538 740.306L629.283 740.986L621.58 744.638C619.118 745.805 617.509 747.227 616.754 748.906C615.976 750.596 616.048 752.414 616.97 754.36C617.904 756.33 619.271 757.549 621.072 758.016C622.85 758.494 624.969 758.15 627.431 756.983L635.134 753.332L634.557 755.113L627.538 740.306Z"
       fill="white"
       id="path354"
       style="fill:#ffffff" />
    <path
       d="M590.569 745.295C592.497 744.6 594.406 744.27 596.295 744.305C598.168 744.375 599.926 744.775 601.569 745.506C603.197 746.271 604.634 747.311 605.881 748.627C607.112 749.975 608.067 751.59 608.745 753.469C609.423 755.349 609.715 757.188 609.619 758.988C609.508 760.822 609.066 762.54 608.292 764.143C607.503 765.779 606.406 767.21 604.999 768.434C603.601 769.683 601.926 770.66 599.973 771.364C598.045 772.06 596.144 772.373 594.271 772.304C592.407 772.26 590.665 771.867 589.046 771.127C587.403 770.396 585.966 769.356 584.735 768.007C583.479 766.667 582.512 765.057 581.834 763.177C581.156 761.298 580.872 759.441 580.983 757.608C581.07 755.784 581.512 754.066 582.31 752.454C583.084 750.851 584.169 749.425 585.567 748.176C586.973 746.951 588.641 745.991 590.569 745.295ZM591.441 747.712C589.903 748.266 588.58 749.033 587.471 750.013C586.347 751.025 585.48 752.179 584.871 753.475C584.247 754.803 583.896 756.199 583.817 757.662C583.746 759.149 583.988 760.662 584.543 762.2C585.098 763.738 585.873 765.044 586.868 766.12C587.871 767.22 589.033 768.07 590.353 768.669C591.657 769.302 593.061 769.637 594.564 769.675C596.051 769.745 597.564 769.503 599.102 768.948C600.639 768.393 601.971 767.61 603.095 766.597C604.228 765.609 605.107 764.451 605.731 763.122C606.339 761.827 606.691 760.431 606.786 758.935C606.865 757.472 606.627 755.971 606.072 754.433C605.526 752.92 604.752 751.613 603.748 750.513C602.72 749.422 601.554 748.56 600.249 747.927C598.93 747.327 597.514 746.997 596.002 746.935C594.499 746.898 592.979 747.157 591.441 747.712Z"
       fill="white"
       id="path356" />
    <path
       d="M560.624 754.435C562.613 753.939 564.545 753.806 566.421 754.034C568.277 754.294 569.985 754.871 571.545 755.767C573.086 756.693 574.41 757.875 575.516 759.311C576.604 760.778 577.389 762.481 577.871 764.42C578.354 766.359 578.456 768.219 578.178 770C577.88 771.812 577.265 773.476 576.332 774.992C575.38 776.539 574.142 777.85 572.618 778.925C571.1 780.025 569.334 780.826 567.32 781.327C565.33 781.822 563.408 781.94 561.551 781.68C559.701 781.446 558.009 780.878 556.474 779.976C554.914 779.081 553.59 777.9 552.503 776.432C551.39 774.971 550.593 773.271 550.11 771.332C549.627 769.393 549.535 767.518 549.832 765.705C550.104 763.899 550.72 762.235 551.678 760.713C552.611 759.197 553.836 757.889 555.354 756.79C556.878 755.715 558.635 754.93 560.624 754.435ZM561.245 756.927C559.658 757.322 558.264 757.95 557.061 758.811C555.839 759.704 554.859 760.763 554.122 761.99C553.365 763.248 552.873 764.601 552.645 766.048C552.423 767.52 552.51 769.05 552.905 770.636C553.3 772.223 553.937 773.602 554.817 774.773C555.704 775.97 556.773 776.934 558.024 777.665C559.257 778.428 560.619 778.904 562.111 779.094C563.583 779.316 565.113 779.229 566.699 778.834C568.285 778.439 569.689 777.796 570.911 776.903C572.139 776.036 573.132 774.973 573.888 773.715C574.626 772.489 575.118 771.136 575.365 769.657C575.593 768.21 575.509 766.693 575.114 765.107C574.725 763.545 574.088 762.167 573.202 760.97C572.29 759.78 571.218 758.803 569.985 758.04C568.734 757.309 567.359 756.836 565.861 756.62C564.37 756.43 562.831 756.532 561.245 756.927Z"
       fill="white"
       id="path358" />
    <path
       d="M542.142 773.049L527.919 775.306L527.528 772.846L541.752 770.588L542.142 773.049ZM539.632 759.22L542.477 758.768L546.748 785.678L528.296 788.607L527.905 786.147L543.513 783.669L539.632 759.22Z"
       fill="white"
       id="path360" />
    <path
       d="M513.593 762.696L515.712 787.361L525.253 786.541L525.466 789.023L503.516 790.909L503.303 788.427L512.843 787.607L510.723 762.942L513.593 762.696Z"
       fill="white"
       id="path362" />
    <path
       d="M486.052 763.828C488.102 763.82 490.01 764.151 491.777 764.819C493.518 765.514 495.039 766.482 496.341 767.723C497.617 768.99 498.621 770.452 499.354 772.11C500.061 773.795 500.417 775.636 500.424 777.634C500.431 779.632 500.088 781.463 499.393 783.126C498.672 784.815 497.678 786.285 496.411 787.535C495.118 788.811 493.604 789.789 491.868 790.47C490.131 791.177 488.225 791.534 486.15 791.541C484.1 791.548 482.204 791.205 480.463 790.51C478.722 789.842 477.214 788.887 475.938 787.646C474.636 786.405 473.632 784.942 472.925 783.258C472.192 781.574 471.823 779.733 471.816 777.735C471.809 775.737 472.165 773.893 472.886 772.204C473.581 770.515 474.574 769.045 475.868 767.795C477.135 766.545 478.636 765.567 480.372 764.86C482.109 764.179 484.002 763.835 486.052 763.828ZM486.061 766.397C484.426 766.402 482.922 766.68 481.548 767.23C480.149 767.806 478.945 768.602 477.937 769.617C476.903 770.659 476.102 771.855 475.536 773.207C474.97 774.584 474.69 776.09 474.696 777.725C474.702 779.36 474.992 780.851 475.568 782.198C476.144 783.571 476.952 784.762 477.994 785.77C479.01 786.805 480.219 787.592 481.622 788.132C483 788.698 484.506 788.978 486.14 788.972C487.775 788.967 489.292 788.676 490.692 788.1C492.091 787.55 493.308 786.754 494.342 785.713C495.35 784.697 496.151 783.501 496.743 782.123C497.309 780.772 497.589 779.279 497.583 777.644C497.577 776.035 497.287 774.544 496.711 773.171C496.109 771.798 495.3 770.594 494.285 769.559C493.243 768.551 492.021 767.764 490.618 767.198C489.214 766.658 487.695 766.391 486.061 766.397Z"
       fill="white"
       id="path364" />
    <path
       d="M464.817 763.648L462.387 790.786L452.23 789.876C449.929 789.671 447.986 789.119 446.399 788.221C444.809 787.349 443.638 786.176 442.884 784.702C442.102 783.251 441.799 781.543 441.975 779.579C442.146 777.667 442.746 776.053 443.776 774.738C444.777 773.447 446.139 772.501 447.86 771.899C449.581 771.298 451.592 771.1 453.892 771.306L462.46 772.073L461.059 773.316L461.948 763.391L464.817 763.648ZM461.08 773.083L462.234 774.593L453.744 773.833C451.03 773.59 448.924 773.988 447.424 775.026C445.896 776.087 445.036 777.691 444.844 779.836C444.649 782.007 445.21 783.751 446.525 785.067C447.814 786.381 449.815 787.159 452.529 787.402L461.02 788.162L459.619 789.405L461.08 773.083Z"
       fill="white"
       id="path366" />
  </g>
  <g
     id="g392"  opacity="0.3">
    <path
       d="M283.939 701.676L268.369 716.823L262.7 710.995C261.416 709.675 260.527 708.332 260.034 706.964C259.526 705.611 259.427 704.293 259.737 703.01C260.018 701.727 260.722 700.537 261.849 699.44C262.947 698.373 264.148 697.709 265.454 697.449C266.73 697.189 268.045 697.324 269.398 697.855C270.751 698.385 272.07 699.31 273.354 700.63L278.136 705.546L276.643 705.569L282.338 700.03L283.939 701.676ZM276.777 705.439L276.69 706.952L271.951 702.081C270.437 700.524 268.956 699.67 267.51 699.518C266.034 699.366 264.681 699.889 263.451 701.086C262.205 702.298 261.638 703.643 261.749 705.123C261.846 706.587 262.652 708.098 264.166 709.655L268.905 714.526L267.413 714.549L276.777 705.439Z"
       fill="white"
       id="path368" />
    <path
       d="M267.255 681.731L250.697 695.792L249.211 694.041L264.254 681.266L256.38 671.994L257.894 670.708L267.255 681.731Z"
       fill="white"
       id="path370" />
    <path
       d="M251.807 662.197L228.436 667.122L227.089 665.301L238.656 644.404L240.094 646.35L229.122 665.805L228.568 665.057L250.386 660.275L251.807 662.197ZM244.816 662.502L242.913 663.059L235.406 652.903L236.498 651.247L244.816 662.502Z"
       fill="white"
       id="path372" />
    <path
       d="M231.334 635.089L213.034 646.792L212.014 645.197L219.834 622.405L220.369 623.242L204.474 633.406L203.254 631.498L221.554 619.795L222.574 621.39L214.737 644.156L214.202 643.319L230.097 633.155L231.334 635.089Z"
       fill="white"
       id="path374" />
    <path
       d="M212.327 602.561L195.02 612.047L198.689 618.741L196.947 619.695L188.506 604.293L190.247 603.339L193.916 610.033L211.223 600.547L212.327 602.561Z"
       fill="white"
       id="path376" />
    <path
       d="M205.031 587.476L181.147 587.597L180.195 585.541L195.731 567.4L196.748 569.597L182.084 586.444L181.692 585.6L204.026 585.308L205.031 587.476ZM198.122 586.368L196.145 586.531L190.837 575.071L192.239 573.669L198.122 586.368Z"
       fill="white"
       id="path378" />
    <path
       d="M183.035 535.907L162.275 542.299L159.882 534.528C159.34 532.769 159.161 531.168 159.345 529.726C159.509 528.29 160.021 527.072 160.882 526.071C161.717 525.056 162.886 524.317 164.388 523.855C165.852 523.404 167.223 523.361 168.504 523.724C169.759 524.073 170.868 524.793 171.831 525.882C172.794 526.97 173.546 528.395 174.088 530.154L176.106 536.709L174.767 536.05L182.359 533.712L183.035 535.907ZM174.945 535.995L174.179 537.302L172.179 530.807C171.54 528.731 170.611 527.296 169.392 526.503C168.148 525.695 166.705 525.544 165.064 526.049C163.403 526.561 162.286 527.5 161.711 528.868C161.13 530.215 161.159 531.927 161.799 534.003L163.798 540.498L162.459 539.839L174.945 535.995Z"
       fill="white"
       id="path380" />
    <path
       d="M176.234 514.451L152.815 509.761L152.296 507.555L171.166 492.913L171.72 495.269L153.965 508.821L153.751 507.914L175.687 512.125L176.234 514.451ZM169.69 511.974L167.721 511.736L164.828 499.442L166.484 498.351L169.69 511.974Z"
       fill="white"
       id="path382" />
    <path
       d="M168.849 481.983L147.417 485.52L145.977 476.794C145.6 474.508 145.729 472.432 146.364 470.566C146.976 468.682 148.009 467.128 149.463 465.903C150.918 464.677 152.696 463.891 154.798 463.544C156.901 463.197 158.837 463.37 160.608 464.063C162.379 464.756 163.867 465.895 165.072 467.478C166.253 469.044 167.032 470.971 167.409 473.257L168.849 481.983ZM166.516 480.04L165.47 473.703C165.157 471.804 164.518 470.222 163.554 468.955C162.566 467.671 161.355 466.75 159.921 466.189C158.466 465.633 156.882 465.496 155.167 465.779C153.432 466.065 151.975 466.704 150.797 467.695C149.619 468.687 148.778 469.947 148.276 471.477C147.75 472.989 147.643 474.695 147.957 476.593L149.003 482.931L166.516 480.04Z"
       fill="white"
       id="path384" />
    <path
       d="M164.095 450.55L142.473 452.633L141.693 444.54C141.517 442.707 141.664 441.103 142.134 439.728C142.583 438.354 143.331 437.264 144.375 436.457C145.397 435.631 146.691 435.142 148.256 434.992C149.78 434.845 151.132 435.078 152.314 435.692C153.472 436.287 154.414 437.215 155.138 438.475C155.841 439.738 156.281 441.285 156.458 443.118L157.115 449.944L155.967 449.026L163.874 448.265L164.095 450.55ZM162.673 435.786L155.362 442.101L155.124 439.63L162.432 433.284L162.673 435.786ZM156.152 449.008L155.169 450.132L154.518 443.367C154.31 441.205 153.678 439.613 152.624 438.593C151.568 437.551 150.185 437.113 148.476 437.277C146.746 437.444 145.462 438.139 144.624 439.363C143.784 440.566 143.468 442.249 143.676 444.411L144.327 451.176L143.148 450.261L156.152 449.008Z"
       fill="white"
       id="path386" />
    <path
       d="M161.49 421.861L139.494 412.553L139.43 410.288L160.86 399.744L160.929 402.164L140.809 411.863L140.783 410.933L161.422 419.473L161.49 421.861ZM155.578 418.118L153.697 417.488L153.338 404.863L155.18 404.128L155.578 418.118ZM137.447 409.351C137.461 409.827 137.369 410.254 137.173 410.632C136.977 411.01 136.749 411.358 136.489 411.676C136.208 411.974 135.968 412.27 135.769 412.566C135.55 412.862 135.445 413.165 135.453 413.475C135.467 413.95 135.654 414.328 136.013 414.608C136.373 414.866 136.863 415.008 137.485 415.031L137.522 416.365C136.487 416.353 135.653 416.108 135.018 415.629C134.383 415.13 134.054 414.477 134.031 413.671C134.017 413.195 134.119 412.768 134.336 412.389C134.532 411.99 134.77 411.642 135.051 411.344C135.311 411.026 135.541 410.73 135.74 410.455C135.939 410.16 136.033 409.857 136.025 409.547C136.011 409.071 135.835 408.694 135.496 408.413C135.136 408.134 134.656 407.992 134.056 407.989L134.018 406.655C135.011 406.647 135.825 406.893 136.46 407.393C137.095 407.892 137.424 408.545 137.447 409.351Z"
       fill="white"
       id="path388" />
    <path
       d="M166.138 376.859C166.074 378.492 165.746 380.001 165.154 381.385C164.541 382.749 163.719 383.928 162.686 384.922C161.633 385.896 160.434 386.646 159.089 387.173C157.723 387.678 156.245 387.9 154.653 387.838C153.061 387.775 151.615 387.439 150.314 386.829C148.992 386.198 147.856 385.356 146.903 384.305C145.931 383.231 145.203 381.992 144.719 380.586C144.216 379.179 143.996 377.649 144.061 375.995C144.125 374.362 144.463 372.864 145.075 371.5C145.667 370.136 146.478 368.967 147.51 367.993C148.543 366.999 149.742 366.248 151.108 365.743C152.474 365.217 153.953 364.985 155.545 365.047C157.137 365.109 158.593 365.456 159.914 366.087C161.236 366.698 162.373 367.54 163.324 368.612C164.277 369.664 165.005 370.893 165.509 372.3C165.992 373.706 166.202 375.226 166.138 376.859ZM164.092 376.779C164.143 375.476 163.973 374.269 163.581 373.156C163.17 372.022 162.577 371.036 161.803 370.199C161.008 369.339 160.082 368.661 159.025 368.164C157.947 367.667 156.757 367.392 155.455 367.342C154.153 367.291 152.955 367.471 151.862 367.884C150.749 368.296 149.773 368.9 148.934 369.695C148.076 370.469 147.408 371.405 146.93 372.505C146.432 373.582 146.158 374.773 146.107 376.075C146.056 377.377 146.236 378.595 146.647 379.73C147.038 380.863 147.63 381.859 148.425 382.718C149.199 383.556 150.125 384.234 151.202 384.752C152.259 385.249 153.439 385.523 154.741 385.574C156.023 385.624 157.221 385.443 158.334 385.032C159.448 384.599 160.435 383.996 161.293 383.222C162.132 382.427 162.8 381.48 163.299 380.381C163.776 379.282 164.041 378.081 164.092 376.779Z"
       fill="white"
       id="path390" />
  </g>
  <path
     d="M679.085 700.364C676.799 705.036 678.733 710.677 683.405 712.963C688.077 715.249 693.717 713.315 696.004 708.643C698.29 703.971 696.356 698.331 691.684 696.044C687.012 693.758 681.371 695.692 679.085 700.364Z"
     fill="#5F8DB1"
     id="path394" />
  <path
     d="M631.327 207.848C629.04 212.52 630.974 218.161 635.646 220.447C640.318 222.734 645.959 220.8 648.245 216.128C650.532 211.456 648.598 205.815 643.926 203.529C639.254 201.242 633.613 203.176 631.327 207.848Z"
     fill="#5F8DB1"
     id="path396" />
  <path
     d="M348.312 747.919C346.026 752.591 347.96 758.232 352.632 760.518C357.304 762.805 362.944 760.871 365.231 756.199C367.517 751.527 365.583 745.886 360.911 743.599C356.239 741.313 350.598 743.247 348.312 747.919Z"
     fill="#5F8DB1"
     id="path398" />
  <path
     d="M194.113 276.568C191.826 281.24 193.76 286.881 198.432 289.168C203.104 291.454 208.745 289.52 211.031 284.848C213.318 280.176 211.384 274.535 206.712 272.249C202.04 269.962 196.399 271.896 194.113 276.568Z"
     fill="#5F8DB1"
     id="path400" />
</svg>
