<?xml version="1.0" encoding="UTF-8" standalone="no"?>
<!-- Uploaded to: SVG Repo, www.svgrepo.com, Generator: SVG Repo Mixer Tools -->

<svg
   fill="#000000"
   version="1.1"
   id="Capa_1"
   width="800px"
   height="800px"
   viewBox="0 0 576.58 576.58"
   xml:space="preserve"
   sodipodi:docname="carro-eletrico.svg"
   inkscape:version="1.3 (1:1.3+202307231459+0e150ed6c4)"
   xmlns:inkscape="http://www.inkscape.org/namespaces/inkscape"
   xmlns:sodipodi="http://sodipodi.sourceforge.net/DTD/sodipodi-0.dtd"
   xmlns="http://www.w3.org/2000/svg"
   xmlns:svg="http://www.w3.org/2000/svg"><defs
   id="defs6" /><sodipodi:namedview
   id="namedview6"
   pagecolor="#ffffff"
   bordercolor="#000000"
   borderopacity="0.25"
   inkscape:showpageshadow="2"
   inkscape:pageopacity="0.0"
   inkscape:pagecheckerboard="0"
   inkscape:deskcolor="#d1d1d1"
   inkscape:zoom="0.63"
   inkscape:cx="399.20635"
   inkscape:cy="400"
   inkscape:window-width="1366"
   inkscape:window-height="704"
   inkscape:window-x="0"
   inkscape:window-y="27"
   inkscape:window-maximized="1"
   inkscape:current-layer="Capa_1" />&#10;<g
   id="g6"
   transform="matrix(0.82933304,0,0,0.88554577,51.86562,13.424505)">&#10;	<path
   d="m 57.814,461.416 h -4.781 -24.48 -4.208 c -6.588,0 -11.953,5.364 -11.953,11.953 v 23.906 c 0,6.589 5.365,11.953 11.953,11.953 h 4.15 29.319 c 6.588,0 11.953,-5.364 11.953,-11.953 v -19.125 -4.781 c 0.001,-6.589 -5.364,-11.953 -11.953,-11.953 z"
   id="path1" />&#10;	<path
   d="m 509.346,509.229 0.297,-31.078 v -4.781 c 0,-11.857 9.658,-21.516 21.516,-21.516 h 26.297 v -9.562 -10.032 l -0.153,-1.176 C 557.093,430.232 542.51,362.205 455.08,354.65 l -92.633,-107.3 c 0,0 -208.797,-20.617 -282.725,64.557 C 64.795,329.1 54.333,345.863 46.846,362.138 41.319,358.362 35.486,351.753 30.704,345.672 19.946,324.079 16.657,303.024 20.97,282.856 30.704,237.31 76.098,210.2 76.547,209.932 l -9.639,-16.524 c -2.161,1.262 -53.005,31.441 -64.604,85.288 -6.684,31.031 1.214,63.131 23.17,95.491 l 10.146,19.221 c -6.56,22.52 -7.315,41.674 -7.191,58.446 h 29.386 c 11.857,0 21.516,9.658 21.516,21.516 v 23.906 c 0,4.418 -1.348,8.529 -3.644,11.953 h 33.211 c 4.819,30.466 31.126,53.789 62.95,53.789 31.824,0 58.13,-23.323 62.95,-53.789 h 19.689 88.73 c 4.819,30.466 31.126,53.789 62.95,53.789 31.824,0 58.13,-23.323 62.95,-53.789 z M 88.893,341.397 c 0,0 38.25,-48.1 143.438,-61.43 V 365.79 H 88.893 Z m 82.954,195.467 c -17.308,0 -31.729,-11.733 -36.137,-27.636 -0.889,-3.213 -1.521,-6.531 -1.521,-10.021 0,-20.799 16.859,-37.657 37.657,-37.657 20.798,0 37.657,16.858 37.657,37.657 0,3.49 -0.631,6.809 -1.521,10.021 -4.406,15.903 -18.836,27.636 -36.135,27.636 z M 526.08,397.739 c 0.02,0.02 0.029,0.028 0.039,0.048 15.28,16.295 20.636,31.499 21.716,34.941 h -42.018 -5.345 c 0.65,-18.79 6.847,-27.1 25.608,-34.989 z M 261.018,277.874 c 76.5,-6.79 84.867,-3.863 84.867,-3.863 l 49.008,56.428 -11.656,35.353 H 261.018 Z m 145.149,258.99 c -17.309,0 -31.729,-11.733 -36.137,-27.636 -0.89,-3.213 -1.521,-6.531 -1.521,-10.021 0,-20.799 16.858,-37.657 37.657,-37.657 20.798,0 37.657,16.858 37.657,37.657 0,3.49 -0.632,6.809 -1.521,10.021 -4.406,15.903 -18.837,27.636 -36.135,27.636 z"
   id="path2" />&#10;	<path
   d="m 559.846,461.416 h -2.391 -26.297 c -6.589,0 -11.953,5.364 -11.953,11.953 v 23.906 c 0,6.589 5.364,11.953 11.953,11.953 h 26.297 7.172 c 6.589,0 11.953,-5.364 11.953,-11.953 V 478.15 c 0,-9.237 -7.497,-16.734 -16.734,-16.734 z"
   id="path3" />&#10;	<path
   d="m 109.242,232.413 c 5.049,8.014 17.614,9.18 25.627,4.131 l 116.567,-53.703 2.305,3.663 c 3.107,4.934 9.629,6.416 14.573,3.309 l 1.224,-0.775 c 4.935,-3.108 6.417,-9.629 3.309,-14.573 L 261.63,156.67 v 0 l -34.3,-54.439 -45.518,-72.235 c -3.108,-4.934 -9.629,-6.417 -14.573,-3.309 l -1.214,0.784 c -4.935,3.108 -6.417,9.629 -3.309,14.573 l 2.305,3.663 -98.752,81.97 c -8.013,5.049 -12.383,16.887 -7.334,24.901 z m 88.405,-92.88 c -7.344,4.628 -17.06,2.429 -21.688,-4.925 -4.628,-7.344 -2.429,-17.06 4.925,-21.688 7.354,-4.628 17.06,-2.429 21.688,4.924 4.628,7.345 2.419,17.06 -4.925,21.689 z m -71.881,-19.986 8.214,-5.173 c 3.002,-1.894 6.98,-0.995 8.874,2.018 l 35.257,55.959 c 1.893,3.003 0.994,6.981 -2.018,8.874 l -8.214,5.173 c -3.003,1.894 -6.98,0.995 -8.874,-2.018 l -35.257,-55.96 c -1.884,-3.011 -0.985,-6.98 2.018,-8.873 z m -28.65,18.044 8.214,-5.173 c 3.002,-1.893 6.98,-0.994 8.874,2.018 l 35.257,55.959 c 1.894,3.003 0.995,6.981 -2.018,8.874 l -8.214,5.173 c -3.002,1.894 -6.98,0.995 -8.874,-2.018 l -35.257,-55.96 c -1.883,-3.001 -0.984,-6.979 2.018,-8.873 z"
   id="path4" />&#10;	<path
   d="m 221.84,72.347 61.621,-38.833 c 4.006,-2.524 3.768,-10.117 1.243,-14.124 -2.525,-4.007 -9.266,-7.497 -13.273,-4.973 l -61.62,38.833 z"
   id="path5" />&#10;	<path
   d="m 325.584,100.365 c 4.006,-2.524 3.768,-10.117 1.243,-14.124 -2.525,-4.006 -9.267,-7.497 -13.273,-4.972 l -61.621,38.833 12.039,19.097 z"
   id="path6" />&#10;</g>&#10;</svg>
