<svg width="36" height="30" viewBox="0 0 36 30" fill="none" xmlns="http://www.w3.org/2000/svg">
<path d="M0.507523 7.12107C0.715856 6.70502 1.07465 6.48545 1.51447 6.33521C6.82697 4.47455 12.1279 2.60233 17.4404 0.73011C17.7992 0.602984 18.1348 0.602984 18.4936 0.73011C23.8524 2.62544 29.2112 4.50921 34.57 6.39298C35.1603 6.601 35.4265 6.93616 35.4149 7.44466C35.4149 7.93005 35.1372 8.25365 34.57 8.46167C34.0376 8.65814 33.5052 8.84306 32.9612 9.02797V9.6867C32.9612 12.6568 32.9612 15.6269 32.9612 18.6086C32.9612 18.8513 33.0191 18.9784 33.2506 19.094C34.3848 19.6487 35.0098 20.5848 35.0098 21.8561C35.0098 23.1274 34.408 24.0635 33.2737 24.6298C33.0307 24.7453 32.9612 24.8724 32.9612 25.1383C32.9728 26.2824 32.9612 27.4265 32.9612 28.5707C32.9612 29.2178 32.533 29.6917 31.9427 29.7032C31.3524 29.7032 30.9126 29.2294 30.9126 28.5822C30.9126 27.4034 30.9126 26.2246 30.9126 25.0458C30.9126 24.8493 30.8547 24.7569 30.6696 24.676C29.5237 24.1213 28.8756 23.1967 28.864 21.9139C28.8524 20.608 29.4774 19.6719 30.6348 19.094C30.7969 19.0131 30.9126 18.9669 30.9126 18.7357C30.9126 15.8003 30.9126 12.8648 30.9126 9.91784C30.9126 9.88316 30.9126 9.8485 30.8895 9.77916C30.3918 9.95251 29.9057 10.1259 29.4196 10.2992C29.026 10.4379 28.5052 10.4957 28.2969 10.7731C28.1001 11.0389 28.239 11.5589 28.239 11.9634C28.239 13.6738 28.2274 15.3842 28.239 17.1062C28.239 17.8459 27.9497 18.4237 27.3941 18.8744C26.526 19.5678 25.5075 19.9492 24.4543 20.2497C21.9311 20.9778 19.3617 21.232 16.7459 21.1049C14.5469 20.9893 12.3941 20.6773 10.3339 19.8568C9.68576 19.6025 9.07234 19.2327 8.49363 18.8513C7.90336 18.4584 7.64873 17.8574 7.6603 17.1293C7.67187 15.1184 7.6603 13.1191 7.67188 11.1082C7.67188 10.8077 7.57928 10.6921 7.28993 10.5881C5.35706 9.91784 3.42419 9.21286 1.49132 8.54256C1.0515 8.39232 0.704282 8.17275 0.484375 7.7567V7.14419L0.507523 7.12107ZM4.62789 7.43311C4.78993 7.49089 4.87095 7.52557 4.96354 7.56024C9.21123 9.07419 13.4705 10.5881 17.7182 12.0905C17.8802 12.1483 18.1001 12.1252 18.2622 12.0674C21.4913 10.9348 24.7321 9.77915 27.9612 8.63502C29.0492 8.25364 30.1372 7.86072 31.2714 7.45623C31.1441 7.39844 31.0631 7.36377 30.9821 7.34065C26.746 5.84981 22.5098 4.34742 18.2622 2.86814C18.0654 2.7988 17.8108 2.81036 17.614 2.86814C14.8247 3.83892 12.0469 4.82125 9.25752 5.80358C7.72975 6.34676 6.20197 6.87838 4.61632 7.43311H4.62789ZM9.75521 11.4434V11.8594C9.75521 13.2925 9.75521 14.7139 9.75521 16.147C9.75521 16.9791 10.1487 17.5569 10.9358 17.8805C12.4751 18.5046 14.0839 18.8051 15.7274 18.9553C18.077 19.1749 20.4265 19.0709 22.7297 18.5508C23.8177 18.3081 24.8825 18.0077 25.8547 17.4298C26.0747 17.3027 26.1672 17.1524 26.1672 16.8866C26.1557 15.1993 26.1672 13.5005 26.1672 11.8132C26.1672 11.6976 26.1672 11.5936 26.1672 11.4318C26.0052 11.4896 25.8895 11.5243 25.7737 11.5705C23.3547 12.4257 20.9358 13.2809 18.5168 14.1477C18.1464 14.2748 17.7992 14.2863 17.4288 14.1477C15.2066 13.3502 12.9959 12.5759 10.7737 11.7901C10.4612 11.6745 10.1372 11.5705 9.76678 11.4318L9.75521 11.4434ZM31.9196 20.8622C31.3524 20.8622 30.9126 21.3245 30.9126 21.8792C30.9126 22.4224 31.3872 22.8962 31.9311 22.8962C32.4867 22.8962 32.9728 22.3993 32.9612 21.8446C32.9497 21.2898 32.4867 20.8507 31.9196 20.8622Z" fill="white"/>
</svg>
