<svg width="36" height="31" viewBox="0 0 36 31" fill="none" xmlns="http://www.w3.org/2000/svg">
<path d="M0.680664 14.0027C1.30566 12.9048 2.20844 12.0611 3.19224 11.2984C6.61817 8.62871 10.4723 6.82583 14.7084 5.83193C14.9284 5.78571 14.9978 5.69325 14.9978 5.47367C14.9862 4.94205 14.9978 4.41044 14.9978 3.89038C14.9978 3.38188 15.2061 3.01206 15.6575 2.76936C16.9191 2.08751 18.2848 1.7177 19.6737 1.4519C22.1506 0.978064 24.6621 0.88559 27.1737 1.03583C29.2339 1.1514 31.2709 1.44031 33.227 2.14528C33.7362 2.33019 34.2223 2.56134 34.7084 2.80403C35.1483 3.01206 35.3334 3.37034 35.3334 3.86728C35.3334 7.13788 35.3334 10.42 35.3334 13.6906C35.3219 19.342 31.1668 24.3345 25.6228 25.444C24.9746 25.5711 24.4075 25.3284 23.8057 25.2129C23.7015 25.1897 23.5858 25.1435 23.4584 25.1089C23.4122 25.2013 23.3543 25.3053 23.308 25.3978C22.4978 27.0735 21.3404 28.4719 19.9052 29.6622C19.3265 30.1476 18.6552 30.321 17.9608 30.4135C13.5973 31.0144 9.89363 29.72 6.89594 26.4957C6.06261 25.6058 5.42603 24.5657 4.9052 23.4562C3.56261 20.5901 2.20844 17.724 0.865849 14.8579C0.819553 14.777 0.761682 14.6961 0.715386 14.6152C0.715386 14.4072 0.715386 14.2107 0.715386 14.0027H0.680664ZM15.9006 28.5413C16.4909 28.4835 17.0117 28.4603 17.5325 28.3794C17.9376 28.3217 18.3311 28.2408 18.6784 27.9634C22.2547 25.0164 23.4121 20.1394 21.4909 15.9095C20.2409 13.1821 18.9446 10.4778 17.6714 7.76195C17.5904 7.57704 17.4978 7.50768 17.2895 7.5308C16.5834 7.63481 15.8774 7.68105 15.183 7.83129C12.3126 8.4438 9.65057 9.62261 7.11585 11.0903C5.6228 11.9455 4.23391 12.9394 3.05335 14.1991C2.90289 14.3609 2.89131 14.4765 2.98391 14.6614C4.24548 17.3195 5.44918 20.0007 6.74548 22.6472C8.60891 26.4494 11.7339 28.3217 15.8774 28.5413H15.9006ZM24.1876 23.1673C24.6274 23.2828 25.0788 23.5024 25.5881 23.3175C26.0626 23.1557 26.5603 23.0402 27.0233 22.8321C31.0742 20.9715 33.1575 17.8049 33.2501 13.3555C33.308 10.4894 33.2501 7.61169 33.2733 4.74558C33.2733 4.43355 33.1691 4.29489 32.8913 4.19087C30.9932 3.46279 29.0024 3.17387 26.9885 3.06985C24.7779 2.95429 22.5788 3.01207 20.3913 3.39345C19.2455 3.58991 18.1344 3.86726 17.0696 4.35265V5.48524C17.4284 5.48524 17.764 5.48524 18.0996 5.48524C18.6552 5.48524 19.0256 5.7395 19.2571 6.248C19.558 6.92986 19.8821 7.58859 20.1946 8.25889C20.3219 8.53625 20.4723 8.77896 20.7617 8.96388C21.5371 9.47238 21.7686 9.50705 22.4978 8.96388C22.9492 8.62873 23.5395 8.68649 23.8983 9.09098C24.2571 9.49548 24.2686 10.1427 23.8404 10.4894C23.4353 10.813 22.9608 11.0556 22.4978 11.2868C22.2663 11.4024 21.9885 11.4023 21.6992 11.4601C22.2663 12.6736 22.8334 13.8524 23.3774 15.0543C23.47 15.2624 23.551 15.2971 23.7825 15.2508C25.8659 14.8001 27.7061 15.2855 29.2571 16.7648C29.6853 17.1693 29.6737 17.8164 29.2918 18.2209C28.9098 18.6139 28.2964 18.637 27.8566 18.2672C27.6946 18.1285 27.5441 17.9783 27.3705 17.8511C26.3983 17.1577 25.3334 16.9843 24.2571 17.2501C24.3381 18.2672 24.4885 19.2379 24.477 20.2087C24.477 21.1795 24.3034 22.1503 24.1992 23.1673H24.1876Z" fill="white"/>
<path d="M13.7247 24.369C13.1113 24.2418 12.4863 24.1494 11.8844 23.976C11.271 23.8027 10.9816 23.2364 11.1553 22.6932C11.3404 22.1153 11.8844 21.8264 12.4978 22.0345C14.5465 22.7279 16.6066 21.63 17.3011 19.7809C17.5326 19.1799 18.1228 18.9372 18.6668 19.1684C19.2108 19.3995 19.4191 19.9889 19.1877 20.5899C18.2965 22.8435 16.1553 24.2996 13.7131 24.369H13.7247Z" fill="white"/>
<path d="M7.30064 18.4988C7.41638 17.9094 7.79832 17.3431 8.37703 16.9039C9.24508 16.2452 10.2057 16.0718 11.2474 16.3838C11.8377 16.5688 12.1617 17.1119 12.0113 17.6551C11.8492 18.2098 11.3053 18.5103 10.7034 18.3716C9.96267 18.1983 9.60388 18.3716 9.25666 19.065C9.02517 19.5389 8.55064 19.7816 8.05295 19.6545C7.58999 19.5389 7.28906 19.1228 7.28906 18.4988H7.30064Z" fill="white"/>
<path d="M17.069 13.0321C17.4047 13.1014 17.7519 13.1592 18.0875 13.2632C18.6431 13.4481 18.9324 13.9913 18.7704 14.5114C18.6084 15.0545 18.0991 15.3434 17.532 15.2163C16.6986 15.0314 16.4093 15.1701 16.0158 15.9329C15.7611 16.4298 15.2056 16.6378 14.6963 16.4298C14.1871 16.2218 13.944 15.6555 14.1292 15.1123C14.5459 13.9104 15.7727 13.0552 17.069 13.0205V13.0321Z" fill="white"/>
<path d="M29.095 11.4373C28.2732 11.4026 27.544 11.1368 26.9422 10.5474C26.5139 10.1314 26.4677 9.51886 26.8496 9.10281C27.2315 8.6752 27.8334 8.62896 28.2964 9.01033C28.8982 9.49572 29.3149 9.49572 29.9167 9.01033C30.3681 8.65207 30.97 8.67519 31.3403 9.09124C31.7223 9.50729 31.6991 10.1429 31.2825 10.5474C30.669 11.1368 29.9283 11.4142 29.0834 11.4373H29.095Z" fill="white"/>
</svg>
