<svg width="31" height="30" viewBox="0 0 31 30" fill="none" xmlns="http://www.w3.org/2000/svg">
<path d="M15.4943 29.998C14.279 29.998 13.249 29.5935 12.4388 28.8076C11.617 28.0102 11.2003 26.9932 11.2003 25.7681V19.2963H4.38321C3.30682 19.2963 2.40404 18.9264 1.67488 18.2099C0.957284 17.4934 0.586914 16.5804 0.586914 15.5056C0.586914 14.4308 0.957285 13.5294 1.69803 12.8475C2.41562 12.1772 3.3184 11.8305 4.38321 11.8305H11.2003V4.36474C11.2003 3.13971 11.6286 2.12274 12.4735 1.32531C13.3068 0.539441 14.3369 0.146484 15.5522 0.146484C16.7675 0.146484 17.8439 0.550985 18.6193 1.34841C19.3948 2.14584 19.7883 3.16283 19.7883 4.36474V11.8305H26.7675C27.8323 11.8305 28.7466 12.1888 29.4642 12.8822C30.1934 13.5872 30.5638 14.4886 30.5638 15.5634C30.5638 16.6382 30.1934 17.5396 29.4642 18.2446C28.7466 18.938 27.8323 19.2963 26.7675 19.2963H19.7883V25.7681C19.7883 26.9816 19.3832 27.9986 18.5846 28.796C17.786 29.5935 16.7443 29.998 15.4943 29.998ZM4.39478 13.252C3.70034 13.252 3.13321 13.46 2.68182 13.8761C2.24201 14.2921 2.03367 14.8237 2.03367 15.494C2.03367 16.1643 2.25358 16.7306 2.70497 17.1813C3.15636 17.6321 3.71191 17.8517 4.39478 17.8517H12.6355V25.7566C12.6355 26.5887 12.9017 27.2474 13.4341 27.7675C13.9781 28.2991 14.6494 28.5533 15.4943 28.5533C16.3392 28.5533 17.0452 28.2991 17.5777 27.779C18.1101 27.259 18.3531 26.5887 18.3531 25.7566V17.8517H26.7675C27.4619 17.8517 28.0175 17.6436 28.4689 17.2045C28.9202 16.7769 29.1286 16.2337 29.1286 15.5518C29.1286 14.87 28.9087 14.3268 28.4689 13.8992C28.0175 13.46 27.4619 13.252 26.7675 13.252H18.3531V4.36474C18.3531 3.52109 18.1101 2.86235 17.5892 2.34229C17.08 1.82223 16.4202 1.56799 15.5406 1.56799C14.661 1.56799 14.0128 1.82225 13.4457 2.36542C12.8902 2.88548 12.624 3.54421 12.624 4.37631V13.2636H4.38321L4.39478 13.252Z" fill="white"/>
</svg>
