<svg width="21" height="36" viewBox="0 0 21 36" fill="none" xmlns="http://www.w3.org/2000/svg">
<path d="M6.45342 23.8991C6.36083 21.7842 6.27981 19.6808 6.18722 17.5659C6.16407 16.9881 6.16407 16.3987 6.1062 15.8208C6.05991 15.3701 6.22194 15.0927 6.63861 14.8963C6.99741 14.7229 7.34463 14.5033 7.68028 14.2722C8.31685 13.8446 8.61778 13.2321 8.58305 12.4578C8.49046 10.5624 8.37472 8.6671 8.28213 6.78332C8.18954 5.09602 8.10852 3.39715 8.01592 1.70985C7.99277 1.30536 8.18953 1.07422 8.50203 1.07422C8.80296 1.07422 8.98815 1.31691 9.01129 1.70985C9.15018 4.29859 9.30065 6.88733 9.45111 9.47608C9.50898 10.4237 9.56685 11.3714 9.60157 12.3191C9.64787 13.729 9.01129 14.7922 7.76129 15.4163C7.26361 15.6706 7.12472 15.9479 7.15944 16.5142C7.3099 19.2532 7.39092 21.9922 7.50667 24.7427C7.61083 27.1928 7.72657 29.6429 7.80759 32.0929C7.85389 33.6184 6.81222 34.7394 5.20342 34.9821C3.86083 35.1902 2.4025 34.2656 2.02055 32.9481C1.93954 32.6592 1.89324 32.3472 1.90481 32.0582C2.06685 28.2214 2.22889 24.3845 2.4025 20.536C2.46037 19.0567 2.50667 17.5775 2.57611 16.0982C2.58768 15.8439 2.50667 15.7168 2.28676 15.6012C1.34926 15.139 0.527499 14.538 0.284443 13.4632C0.145555 12.8738 0.145554 12.2382 0.168702 11.6257C0.261295 9.41829 0.400183 7.21093 0.527498 5.00356C0.585368 3.8941 0.654813 2.78464 0.724257 1.67518C0.747405 1.25913 0.967312 1.06266 1.26824 1.09733C1.56916 1.132 1.74278 1.3747 1.71963 1.76763C1.58074 4.26392 1.43028 6.76021 1.29139 9.26805C1.23352 10.2735 1.18722 11.2905 1.11778 12.296C1.04833 13.2552 1.43028 13.9602 2.25203 14.4455C2.57611 14.642 2.90018 14.8385 3.23583 15.0118C3.51361 15.1621 3.62935 15.3817 3.6062 15.6937C3.40944 20.1315 3.21268 24.5578 3.0275 28.9957C2.9812 30.0358 2.94648 31.0644 2.91176 32.1045C2.87703 33.1677 3.73352 33.9998 4.84463 34.0114C5.94416 34.0229 6.84694 33.2024 6.81222 32.1391C6.74278 30.0242 6.63861 27.9209 6.55759 25.806C6.53444 25.1703 6.55759 24.5463 6.55759 23.9106C6.53444 23.9106 6.49972 23.9106 6.47657 23.9106L6.45342 23.8991Z" fill="white"/>
<path d="M13.3407 17.4275C13.3407 12.6545 13.3407 7.86992 13.3407 3.09693C13.3407 2.71555 13.387 2.31106 13.4911 1.94124C13.7921 0.854889 14.7411 0.415727 15.7712 0.88956C16.6161 1.27094 17.1948 1.97591 17.7388 2.68088C19.2087 4.57621 20.0189 6.73735 20.2388 9.11807C20.4703 11.5912 20.343 14.0413 19.556 16.4105C19.2435 17.3697 18.7689 18.2365 18.1208 19.0108C18.0398 19.1032 17.9819 19.2535 17.9935 19.3806C18.2018 22.3969 18.4333 25.4017 18.6532 28.4065C18.7458 29.5738 18.8384 30.7526 18.931 31.9198C19.0467 33.3644 18.0629 34.5086 16.593 34.5895C16.0953 34.6126 15.5745 34.5779 15.0999 34.4277C13.9541 34.0925 13.3291 33.1795 13.3291 31.9776C13.3291 27.1237 13.3291 22.2698 13.3291 17.4159L13.3407 17.4275ZM19.3476 11.0596C19.3823 9.82304 19.255 8.60956 18.9541 7.4192C18.4564 5.44298 17.5305 3.69788 16.049 2.27639C15.806 2.04525 15.4935 1.8719 15.1925 1.74477C14.8337 1.60609 14.5907 1.73321 14.4865 2.10303C14.3939 2.43818 14.336 2.79645 14.336 3.14315C14.336 12.7123 14.336 22.2814 14.336 31.862C14.336 31.9545 14.336 32.0354 14.336 32.1278C14.3708 32.7288 14.637 33.1911 15.2041 33.3875C15.6208 33.5262 16.0953 33.6302 16.5235 33.5956C17.38 33.5147 18.0745 33.0062 17.9356 31.8851C17.7967 30.7063 17.762 29.516 17.6694 28.3372C17.5536 26.8232 17.4379 25.3093 17.3222 23.8069C17.2064 22.2929 17.0907 20.779 16.9981 19.2766C16.9865 19.0801 17.1023 18.849 17.2064 18.6641C17.5999 17.9938 18.1092 17.3812 18.4101 16.6647C19.1856 14.885 19.3129 12.9781 19.336 11.0712L19.3476 11.0596Z" fill="white"/>
<path d="M4.12717 5.76677C4.12717 7.13048 4.12717 8.4942 4.12717 9.85791C4.12717 10.1468 4.0693 10.3895 3.7568 10.482C3.46745 10.5744 3.18967 10.4011 3.14337 10.089C3.12023 9.96192 3.1318 9.8348 3.1318 9.70767C3.1318 7.09581 3.1318 4.48396 3.1318 1.86054C3.1318 1.76809 3.1318 1.68719 3.1318 1.59473C3.1318 1.2827 3.28226 1.08623 3.59476 1.06312C3.87254 1.04 4.10402 1.27114 4.1156 1.58318C4.12717 1.99922 4.1156 2.41527 4.1156 2.83132C4.1156 3.8021 4.1156 4.77288 4.1156 5.74366L4.12717 5.76677Z" fill="white"/>
<path d="M5.5625 5.76693C5.5625 4.39166 5.5625 3.01639 5.5625 1.64112C5.5625 1.31752 5.70139 1.09794 6.03704 1.07483C6.33796 1.05172 6.55787 1.28285 6.55787 1.64112C6.55787 4.39166 6.55787 7.15376 6.55787 9.9043C6.55787 10.2741 6.37269 10.4821 6.06019 10.4821C5.74769 10.4821 5.57407 10.2857 5.5625 9.9043C5.5625 8.52903 5.5625 7.15375 5.5625 5.77848V5.76693Z" fill="white"/>
</svg>
