<svg width="28" height="37" viewBox="0 0 28 37" fill="none" xmlns="http://www.w3.org/2000/svg">
<path d="M14.8054 0.969558C15.2452 1.08513 15.6851 1.16603 16.1133 1.31627C18.5554 2.22926 20.0369 3.9628 20.4536 6.53999C20.5577 7.19873 20.5114 7.89214 20.5346 8.56244C20.5346 8.72424 20.5346 8.88603 20.5346 9.0825C21.1364 9.0825 21.7036 9.10561 22.2707 9.0825C24.0994 9.0016 25.5114 10.4693 25.6619 12.2838C25.8239 14.2369 26.0207 16.2016 26.1943 18.1547C26.3448 19.842 26.4837 21.5408 26.6341 23.2281C26.7846 24.9039 26.9466 26.5796 27.0971 28.2669C27.2591 30.1045 27.4559 31.9536 27.5253 33.7911C27.5832 35.3744 26.1133 36.7497 24.5161 36.7497C22.6642 36.7497 20.8124 36.7497 18.9605 36.7497C13.8679 36.7497 8.77534 36.7497 3.68275 36.7497C1.92349 36.7497 0.511451 35.3629 0.557747 33.6062C0.580896 32.6008 0.70821 31.5838 0.800803 30.5783C0.928118 29.1453 1.05543 27.7122 1.19432 26.2676C1.32164 24.8114 1.46053 23.3553 1.58784 21.8875C1.71516 20.4892 1.84247 19.0908 1.95821 17.6808C2.08553 16.2247 2.21284 14.7569 2.35173 13.3008C2.4096 12.6998 2.44432 12.0873 2.59478 11.5095C2.9883 9.9955 4.2383 9.07095 5.8008 9.07095C6.37951 9.07095 6.95821 9.07095 7.60636 9.07095C7.60636 8.31975 7.56006 7.61477 7.60636 6.9098C7.82627 4.13615 9.70127 1.90566 12.398 1.16602C12.6874 1.08513 12.9767 1.02735 13.2777 0.958008C13.7869 0.958008 14.3077 0.958008 14.817 0.958008L14.8054 0.969558ZM18.4744 11.0934H9.50451C9.50451 11.2899 9.50451 11.4401 9.50451 11.6019C9.50451 12.8154 9.50451 14.0289 9.50451 15.2308C9.50451 15.6006 9.44664 15.9588 9.12256 16.19C8.81006 16.4211 8.46284 16.4674 8.10404 16.294C7.68738 16.086 7.54849 15.7277 7.54849 15.2885C7.54849 14.0288 7.54849 12.7691 7.54849 11.521C7.54849 11.3823 7.54849 11.2436 7.54849 11.0587C6.95821 11.0587 6.40265 11.0819 5.8471 11.0587C4.93275 11.0125 4.44664 11.7406 4.38877 12.3531C4.22673 13.9595 4.09941 15.5775 3.96053 17.1839C3.83321 18.5707 3.7059 19.9575 3.59016 21.3559C3.46284 22.8005 3.32395 24.2451 3.19664 25.7013C3.06932 27.1344 2.93043 28.5674 2.80312 30.012C2.69895 31.2024 2.58321 32.3928 2.49062 33.5947C2.44432 34.1841 2.7221 34.5539 3.28923 34.7504C3.48599 34.8197 3.69432 34.8428 3.90266 34.8428C10.6272 34.8428 17.3517 34.8428 24.0878 34.8428C25.1064 34.8428 25.604 34.2765 25.4999 33.2826C25.3378 31.6069 25.1758 29.9311 25.0369 28.2438C24.817 25.7822 24.6087 23.309 24.3888 20.8474C24.1341 18.0507 23.8795 15.2423 23.6249 12.4456C23.567 11.8215 23.1272 11.1743 22.6064 11.1281C21.9003 11.0703 21.1943 11.1165 20.4536 11.1165C20.4536 11.2552 20.4536 11.3708 20.4536 11.4979C20.4536 12.7229 20.4536 13.9479 20.4536 15.1614C20.4536 15.3232 20.4536 15.485 20.4073 15.6468C20.3147 16.1207 19.898 16.4327 19.4235 16.4096C18.9605 16.3865 18.5786 16.0513 18.5091 15.6006C18.486 15.4272 18.486 15.2539 18.486 15.0805C18.486 13.763 18.486 12.4571 18.486 11.105L18.4744 11.0934ZM9.49293 9.05938H18.5323C18.5323 8.27351 18.6133 7.4992 18.5207 6.748C18.2545 4.67932 16.4142 3.01514 14.4119 2.93424C12.1318 2.84179 10.1758 4.22861 9.71284 6.37819C9.52765 7.24496 9.56238 8.14639 9.50451 9.05938H9.49293Z" fill="white"/>
</svg>
