<svg width="40" height="22" viewBox="0 0 40 22" fill="none" xmlns="http://www.w3.org/2000/svg">
<path d="M39.0346 14.2832C38.8147 14.7917 38.6642 15.358 38.3517 15.8087C37.6457 16.8604 36.5809 17.2649 35.3425 17.2649C35.1457 17.2649 34.949 17.2649 34.7291 17.2649C34.7059 17.6694 34.6828 18.0276 34.6596 18.3859C34.567 20.1194 33.074 21.5525 31.3263 21.5756C29.9258 21.5987 28.5138 21.5756 27.1133 21.5756C26.3957 21.5756 26.0948 21.2751 26.0948 20.5355C26.0948 19.1718 26.0948 17.808 26.0948 16.4328C26.0948 16.2941 26.0948 16.167 26.0948 16.0052H13.4212C13.4212 16.1439 13.4212 16.2825 13.4212 16.4097C13.4212 17.7618 13.4212 19.114 13.4212 20.4661C13.4212 21.2635 13.1318 21.5525 12.3448 21.5525C11.0254 21.5525 9.70591 21.5525 8.39804 21.5525C6.65035 21.5525 5.34248 20.547 4.92582 18.8597C4.7985 18.3628 4.82165 17.8196 4.77535 17.2649C4.41656 17.2418 4.04619 17.2186 3.67582 17.1955C1.93971 17.1031 0.516095 15.6122 0.492947 13.8556C0.469799 11.9487 0.469799 10.0418 0.492947 8.1465C0.516095 6.35518 1.986 4.76032 4.04619 4.77187C4.27767 4.77187 4.52072 4.77187 4.77535 4.77187C4.7985 4.52918 4.83323 4.32115 4.8448 4.11312C4.91424 2.3218 6.47674 0.86565 8.29387 0.877207C9.67119 0.877207 11.0601 0.877207 12.4374 0.877207C13.1087 0.877207 13.4212 1.18923 13.4212 1.87108C13.4212 3.24635 13.4212 4.6332 13.4212 6.00847C13.4212 6.14715 13.4212 6.27427 13.4212 6.43607H26.0948V6.03157C26.0948 4.67941 26.0948 3.32725 26.0948 1.97509C26.0948 1.15455 26.3726 0.877207 27.2059 0.877207C28.5254 0.877207 29.8448 0.86565 31.1527 0.877207C32.8888 0.90032 34.1619 1.8942 34.5902 3.56995C34.6828 3.93977 34.6828 4.33271 34.7406 4.77187C34.9721 4.77187 35.2036 4.77187 35.4351 4.77187C37.2175 4.7372 38.6758 5.96224 38.9767 7.62643C38.9767 7.6611 39.0115 7.6842 39.0346 7.71887V14.2601V14.2832ZM11.7777 19.9229V2.52983C10.5624 2.52983 9.37026 2.52983 8.16656 2.52983C8.03924 2.52983 7.91193 2.55293 7.79619 2.5876C6.95128 2.8303 6.4536 3.5353 6.4536 4.52919C6.4536 6.725 6.4536 8.90925 6.4536 11.1051C6.4536 13.3818 6.4536 15.6585 6.4536 17.9467C6.4536 19.0331 7.11332 19.8883 8.05082 19.9229C9.27767 19.9692 10.5045 19.9229 11.7777 19.9229ZM27.7615 19.9229C27.8425 19.9229 27.9004 19.9461 27.9582 19.9461C29.023 19.9461 30.0879 19.9461 31.1527 19.9461C31.3379 19.9461 31.5346 19.9345 31.7082 19.8767C32.5879 19.6456 33.074 18.9175 33.074 17.8774C33.074 14.7455 33.074 11.6135 33.074 8.48163C33.074 7.15258 33.074 5.82356 33.074 4.49452C33.074 3.31572 32.3911 2.55296 31.2337 2.50673C30.111 2.46051 28.9767 2.50673 27.8541 2.50673C27.8193 2.50673 27.7846 2.54138 27.7615 2.55294V19.9114V19.9229ZM13.4559 8.12337V14.3294H26.0716V8.12337H13.4559ZM4.7985 6.4014C4.52073 6.4014 4.28924 6.4014 4.05776 6.4014C2.84248 6.44763 2.13647 7.16414 2.12489 8.37762C2.12489 10.1458 2.11332 11.9025 2.12489 13.6707C2.12489 14.0174 2.21748 14.3988 2.37952 14.6992C2.78461 15.462 3.73369 15.7856 4.78693 15.566V6.38983L4.7985 6.4014ZM34.7406 15.6353C34.9953 15.6353 35.2499 15.6353 35.4929 15.6353C36.6388 15.6007 37.3911 14.861 37.4027 13.7169C37.4142 11.914 37.4142 10.1112 37.4027 8.30828C37.4027 7.45307 36.9629 6.7712 36.2337 6.56318C35.7707 6.4245 35.2615 6.42452 34.7291 6.36673V15.6469L34.7406 15.6353Z" fill="white"/>
</svg>
