<svg width="33" height="29" viewBox="0 0 33 29" fill="none" xmlns="http://www.w3.org/2000/svg">
<path d="M0.15918 1.2338C0.390661 0.70218 0.78418 0.51727 1.36288 0.528826C2.77492 0.55194 4.19853 0.528826 5.61057 0.528826C6.25872 0.528826 6.52492 0.736854 6.71011 1.37248C6.98788 2.33171 7.26566 3.30248 7.55501 4.29638C7.68233 4.29638 7.80964 4.29638 7.94853 4.29638C15.7263 4.29638 23.5041 4.29637 31.2819 4.28482C31.9879 4.28482 32.5897 4.80487 32.3351 5.67164C31.0851 9.95925 29.8698 14.27 28.6314 18.5576C28.4462 19.1816 28.18 19.3897 27.5203 19.3897C22.2078 19.3897 16.8953 19.3897 11.5828 19.3897C11.2934 19.3897 11.1661 19.4821 11.0157 19.7364C10.5758 20.476 11.0157 21.2966 11.9995 21.2966C17.2078 21.2734 22.4161 21.2966 27.6245 21.2966C28.3883 21.2966 28.8629 22.0015 28.5388 22.6487C28.3536 23.007 28.0527 23.1803 27.6476 23.1803C26.5828 23.1803 25.5296 23.1803 24.4647 23.2035C25.2055 23.3884 25.8073 23.7697 26.2471 24.3938C26.687 25.0294 26.8606 25.7228 26.7101 26.4856C26.4323 27.9533 25.2749 28.8663 23.7819 28.8432C22.474 28.8201 21.2934 27.7684 21.1083 26.4047C20.9462 25.2837 21.4439 23.7466 23.4115 23.1919H14.974C15.7032 23.3884 16.305 23.7697 16.7448 24.3938C17.1846 25.0179 17.3467 25.7113 17.2194 26.4509C16.9532 27.9302 15.7842 28.8663 14.2796 28.8432C12.9717 28.8201 11.7911 27.7684 11.6059 26.4047C11.4439 25.2606 11.9647 23.7351 13.8629 23.1803C13.1916 23.1803 12.5319 23.1803 11.8606 23.1803C9.68464 23.1803 8.30733 21.0192 9.27955 19.0776C9.53418 18.5576 9.5689 18.13 9.40687 17.5752C7.97168 12.6289 6.55964 7.68254 5.15918 2.72464C5.10131 2.50506 5.00872 2.4126 4.75409 2.4126C3.6314 2.42415 2.50872 2.40104 1.38603 2.42416C0.818901 2.43571 0.413809 2.2508 0.182327 1.71918V1.21068L0.15918 1.2338ZM11.3397 17.5059H26.9763C28.0527 13.7384 29.1291 9.98236 30.2055 6.21481H8.11057C9.18696 9.99392 10.2633 13.7384 11.3397 17.5059ZM15.3444 26.0233C15.3444 25.5264 14.9046 25.0757 14.4069 25.0757C13.9208 25.0757 13.4809 25.5033 13.4578 25.9887C13.4346 26.4856 13.8745 26.9479 14.3837 26.9594C14.8814 26.971 15.3328 26.5318 15.3444 26.0233ZM24.8583 26.0002C24.8583 25.5033 24.3953 25.0526 23.8976 25.0641C23.4115 25.0757 22.9717 25.5148 22.9717 26.0002C22.9717 26.4972 23.4231 26.9479 23.9208 26.9479C24.4184 26.9479 24.8698 26.4972 24.8583 26.0002Z" fill="white"/>
</svg>
