<?xml version="1.0" encoding="UTF-8" standalone="no"?>
<!-- Uploaded to: SVG Repo, www.svgrepo.com, Generator: SVG Repo Mixer Tools -->

<svg
   fill="#000000"
   width="800px"
   height="800px"
   viewBox="0 0 32 32"
   version="1.1"
   id="svg1"
   sodipodi:docname="diamante.svg"
   inkscape:version="1.3 (1:1.3+202307231459+0e150ed6c4)"
   xmlns:inkscape="http://www.inkscape.org/namespaces/inkscape"
   xmlns:sodipodi="http://sodipodi.sourceforge.net/DTD/sodipodi-0.dtd"
   xmlns="http://www.w3.org/2000/svg"
   xmlns:svg="http://www.w3.org/2000/svg">
  <defs
     id="defs1" />
  <sodipodi:namedview
     id="namedview1"
     pagecolor="#ffffff"
     bordercolor="#000000"
     borderopacity="0.25"
     inkscape:showpageshadow="2"
     inkscape:pageopacity="0.0"
     inkscape:pagecheckerboard="0"
     inkscape:deskcolor="#d1d1d1"
     inkscape:zoom="0.63"
     inkscape:cx="399.20635"
     inkscape:cy="400"
     inkscape:window-width="1366"
     inkscape:window-height="704"
     inkscape:window-x="0"
     inkscape:window-y="27"
     inkscape:window-maximized="1"
     inkscape:current-layer="svg1" />
  <path
     d="M 28.565953,12.885621 25.263754,6.8399499 C 25.071107,6.4876836 24.57249,6.1990711 24.157733,6.1990711 h -7.60012 c -0.0083,-7.233e-4 -0.01662,-0.00217 -0.02493,-0.00289 -0.0068,0 -0.0136,0.00217 -0.0204,0.00289 H 9.0481522 c -0.4155134,0 -0.9148851,0.2878891 -1.1105541,0.6387088 L 4.644465,12.766993 c -0.1956691,0.351543 -0.1563842,0.902728 0.085369,1.226784 L 16.062775,29.119529 c 0.121632,0.162028 0.283304,0.244489 0.444221,0.244489 0.160162,0 0.320323,-0.07957 0.443467,-0.239425 L 28.469251,14.109512 c 0.245531,-0.321163 0.289349,-0.870901 0.0967,-1.223168 z M 26.76338,12.708403 H 22.715523 L 24.336781,8.2642052 Z M 18.098035,7.6464732 h 4.862263 l -1.508691,4.1346088 z m 2.193156,5.0619298 h -7.02671 L 16.585566,8.1397912 Z M 11.925772,12.018337 10.410281,7.6464732 h 4.693791 z m 8.660811,2.136745 -4.061455,11.133641 -3.858987,-11.133641 z M 14.830588,24.992877 6.7107001,14.155082 H 11.074347 Z M 22.187443,14.155082 H 26.5594 L 18.226467,25.018194 Z M 8.9650496,8.0696272 10.572709,12.708403 H 6.3881106 Z"
     id="path1"
     style="stroke-width:0.739235" />
</svg>
