<?xml version="1.0" encoding="UTF-8" standalone="no"?>
<!-- Uploaded to: SVG Repo, www.svgrepo.com, Generator: SVG Repo Mixer Tools -->

<svg
   fill="#000000"
   width="800px"
   height="800px"
   viewBox="0 0 32 32"
   version="1.1"
   id="svg1"
   sodipodi:docname="diamante.svg"
   inkscape:version="1.3 (1:1.3+202307231459+0e150ed6c4)"
   xmlns:inkscape="http://www.inkscape.org/namespaces/inkscape"
   xmlns:sodipodi="http://sodipodi.sourceforge.net/DTD/sodipodi-0.dtd"
   xmlns="http://www.w3.org/2000/svg"
   xmlns:svg="http://www.w3.org/2000/svg">
  <defs
     id="defs1" />
  <sodipodi:namedview
     id="namedview1"
     pagecolor="#ffffff"
     bordercolor="#000000"
     borderopacity="0.25"
     inkscape:showpageshadow="2"
     inkscape:pageopacity="0.0"
     inkscape:pagecheckerboard="0"
     inkscape:deskcolor="#d1d1d1"
     inkscape:zoom="0.63"
     inkscape:cx="399.20635"
     inkscape:cy="400"
     inkscape:window-width="1366"
     inkscape:window-height="704"
     inkscape:window-x="0"
     inkscape:window-y="27"
     inkscape:window-maximized="1"
     inkscape:current-layer="svg1" />
  <path
     d="M31.835 9.233l-4.371-8.358c-0.255-0.487-0.915-0.886-1.464-0.886h-10.060c-0.011-0.001-0.022-0.003-0.033-0.004-0.009 0-0.018 0.003-0.027 0.004h-9.88c-0.55 0-1.211 0.398-1.47 0.883l-4.359 8.197c-0.259 0.486-0.207 1.248 0.113 1.696l15.001 20.911c0.161 0.224 0.375 0.338 0.588 0.338 0.212 0 0.424-0.11 0.587-0.331l15.247-20.758c0.325-0.444 0.383-1.204 0.128-1.691zM29.449 8.988h-5.358l2.146-6.144zM17.979 1.99h6.436l-1.997 5.716zM20.882 8.988h-9.301l4.396-6.316zM9.809 8.034l-2.006-6.044h6.213zM21.273 10.988l-5.376 15.392-5.108-15.392h10.484zM13.654 25.971l-10.748-14.983h5.776zM23.392 10.988h5.787l-11.030 15.018zM5.89 2.575l2.128 6.413h-5.539z"
     id="path1" />
</svg>
