<?xml version="1.0" encoding="UTF-8" standalone="no"?>
<!-- Uploaded to: SVG Repo, www.svgrepo.com, Transformed by: SVG Repo Mixer Tools -->

<svg
   width="800px"
   height="800px"
   viewBox="0 0 1024 1024"
   class="icon"
   version="1.1"
   fill="#000000"
   id="svg6"
   sodipodi:docname="fechadura-eletronica.svg"
   xml:space="preserve"
   inkscape:version="1.3 (1:1.3+202307231459+0e150ed6c4)"
   xmlns:inkscape="http://www.inkscape.org/namespaces/inkscape"
   xmlns:sodipodi="http://sodipodi.sourceforge.net/DTD/sodipodi-0.dtd"
   xmlns="http://www.w3.org/2000/svg"
   xmlns:svg="http://www.w3.org/2000/svg"><defs
     id="defs6" /><sodipodi:namedview
     id="namedview6"
     pagecolor="#ffffff"
     bordercolor="#000000"
     borderopacity="0.25"
     inkscape:showpageshadow="2"
     inkscape:pageopacity="0.0"
     inkscape:pagecheckerboard="0"
     inkscape:deskcolor="#d1d1d1"
     inkscape:zoom="0.63"
     inkscape:cx="384.92063"
     inkscape:cy="377.77778"
     inkscape:window-width="1366"
     inkscape:window-height="704"
     inkscape:window-x="0"
     inkscape:window-y="27"
     inkscape:window-maximized="1"
     inkscape:current-layer="svg6" /><g
     id="SVGRepo_bgCarrier"
     stroke-width="0" /><g
     id="SVGRepo_tracerCarrier"
     stroke-linecap="round"
     stroke-linejoin="round" /><g
     id="SVGRepo_iconCarrier"><path
       d="M706.4 482.2v362.1c0 61.5-49.9 111.3-111.4 111.3H260.8c-61.5 0-111.4-49.8-111.4-111.5V176c0-61.6 49.9-111.5 111.4-111.5H595c61.5 0 111.4 50.1 111.4 111.3v139.3h83.5c46.2 0 83.5 37.2 83.5 83.5 0 46.2-37.3 83.5-83.5 83.5h-83.5v0.1z"
       fill="#000000"
       id="path1" /><path
       d="M400.1 398.7c0 15.5 12.4 27.8 27.9 27.8h362c15.5 0 27.9-12.4 27.9-27.8 0-15.5-12.4-27.8-27.9-27.8H428c-15.6-0.1-27.9 12.3-27.9 27.8z"
       fill="#FFFFFF"
       id="path2" /><path
       d="M539.3 315.1c-25.7-34.2-66.5-55.7-111.4-55.7-76.9 0-139.2 62.3-139.2 139.2S351 537.9 427.9 537.9c44.9 0 85.7-21.5 111.4-55.7H427.9c-46.2 0-83.5-37.2-83.5-83.5 0-46.2 37.3-83.5 83.5-83.5h111.4v-0.1z"
       fill="#FFFFFF"
       id="path3" /><path
       d="M650.7 315.1V175.8c0-30.6-25-55.6-55.7-55.6H260.8c-30.7 0-55.7 25-55.7 55.8v668.1c0 30.9 24.9 55.8 55.7 55.8H595c30.7 0 55.7-24.9 55.7-55.6V482.2h-78c-28.9 49.9-82.9 83.5-144.7 83.5-92.3 0-167.1-74.8-167.1-167.1S335.7 231.5 428 231.5c61.8 0 115.8 33.6 144.7 83.5h78v0.1z"
       fill="#FFFFFF"
       id="path4" /></g><g
     style="fill:none"
     id="g6"
     transform="matrix(17.376198,0,0,18.702391,215.05652,460.79033)"><path
       d="m 12.0002,19 c -0.5523,0 -1,0.4477 -1,1 0,0.5523 0.4477,1 1,1 z m 0.01,2 c 0.5523,0 1,-0.4477 1,-1 0,-0.5523 -0.4477,-1 -1,-1 z m 2.6805,-3.96 c 0.4086,0.3716 1.041,0.3417 1.4126,-0.0668 0.3717,-0.4086 0.3417,-1.041 -0.0668,-1.4127 z m 3.3634,-3.6997 c 0.4085,0.3716 1.041,0.3417 1.4126,-0.0669 0.3717,-0.4085 0.3417,-1.041 -0.0668,-1.4126 z M 7.96394,15.5605 c -0.40855,0.3717 -0.43848,1.0041 -0.06686,1.4127 0.37163,0.4085 1.00409,0.4384 1.41263,0.0668 z M 4.60055,11.8608 C 4.192,12.2324 4.16207,12.8649 4.53369,13.2734 4.90532,13.682 5.53778,13.7119 5.94633,13.3403 Z M 12.0002,21 h 0.01 v -2 h -0.01 z m 0,-5 c 1.0367,0 1.9793,0.3931 2.6905,1.04 l 1.3458,-1.4795 C 14.9715,14.5918 13.5538,14 12.0002,14 Z m 0,-5 c 2.3319,0 4.4546,0.8855 6.0539,2.3403 l 1.3458,-1.4795 C 17.4468,10.0842 14.8489,9 12.0002,9 Z M 9.30971,17.04 C 10.0209,16.3931 10.9635,16 12.0002,16 v -2 c -1.5536,0 -2.97127,0.5918 -4.03626,1.5605 z M 5.94633,13.3403 C 7.54565,11.8855 9.66836,11 12.0002,11 V 9 C 9.15148,9 6.55365,10.0842 4.60055,11.8608 Z"
       fill="#000000"
       id="path1-3" /></g><ellipse
     style="fill:#000000;stroke-width:1.01651"
     id="path6"
     cx="531.25372"
     cy="176.01073"
     rx="26.098684"
     ry="31.417349" /><rect
     style="fill:#000000;stroke-width:1.01651"
     id="rect6"
     width="59.171528"
     height="39.085644"
     x="578.83905"
     y="155.95164" /></svg>
