<svg viewBox="0 0 27 32" fill="none" xmlns="http://www.w3.org/2000/svg">
<g clip-path="url(#clip0_979_1800)">
<path d="M0.00168515 16.3108C0.00168515 12.3834 0.00355775 8.45587 -0.000187443 4.52838C-0.000187443 3.74482 0.0363281 2.97096 0.413656 2.2679C0.882741 1.39512 1.51755 0.875334 2.57088 0.865637C3.55493 0.856909 4.38168 1.2099 5.18971 1.68023C6.6494 2.53167 8.09223 3.41511 9.54349 4.28207C12.1951 5.86664 14.8448 7.45606 17.502 9.03093C19.3343 10.1171 21.1873 11.1654 23.0112 12.265C23.9915 12.8566 24.998 13.4346 25.8734 14.1706C27.3659 15.4255 27.3856 17.203 25.866 18.4472C24.8285 19.2967 23.6423 19.9571 22.4972 20.6592C20.8512 21.6687 19.1845 22.6414 17.5236 23.6247C16.1762 24.4218 14.8233 25.2073 13.4769 26.0064C11.6885 27.0683 9.91426 28.1573 8.1147 29.1988C6.65782 30.0415 5.2178 30.9444 3.68601 31.6145C1.83776 32.4232 0.405229 31.148 0.112168 29.3744C0.0344556 28.905 0.00449404 28.4221 0.00355775 27.9449C-0.00486893 24.0659 -0.00112374 20.1869 -0.00112374 16.3079L0.00168515 16.3108Z" fill="white"/>
</g>
<defs>
<clipPath id="clip0_979_1800">
<rect width="27" height="31" fill="white" transform="translate(0 0.865723)"/>
</clipPath>
</defs>
</svg>
