<svg viewBox="0 0 48 49" fill="none" xmlns="http://www.w3.org/2000/svg">
<path d="M1.26455 0.978271C1.49555 1.19726 1.7348 1.41624 1.9658 1.64365C13.8127 13.7384 25.6597 25.8332 37.5066 37.9279C37.6469 38.0711 37.7954 38.2143 37.9109 38.3743C38.1501 38.7112 38.1171 39.065 37.8366 39.3513C37.5479 39.6377 37.2096 39.6545 36.8796 39.4103C36.7311 39.3008 36.6074 39.166 36.4754 39.0313C25.0492 27.3745 13.6395 15.7261 2.2298 4.06934C2.10605 3.943 2.02355 3.77455 1.92455 3.62295C1.87505 3.66506 1.8338 3.69875 1.7843 3.74086V9.14812C2.3783 9.14812 2.95579 9.14812 3.53329 9.14812C3.71479 9.14812 3.90454 9.1397 4.08604 9.16497C4.49028 9.23235 4.77078 9.56083 4.76253 9.93142C4.76253 10.3104 4.48203 10.6305 4.06129 10.6558C3.51679 10.6894 2.96404 10.6726 2.4113 10.681C2.2133 10.681 2.02355 10.681 1.79255 10.681V13.7384C2.35355 13.7384 2.91454 13.7384 3.47554 13.7384C3.63229 13.7384 3.78079 13.7384 3.93754 13.7384C4.43253 13.7721 4.76253 14.0753 4.77078 14.4964C4.77078 14.926 4.45728 15.246 3.95404 15.2629C3.34354 15.2881 2.73304 15.2629 2.12255 15.2797C2.00705 15.2797 1.79255 15.4313 1.79255 15.5156C1.7678 16.4336 1.77605 17.3517 1.77605 18.3203C2.4443 18.3203 3.07129 18.3203 3.69004 18.3203C3.87154 18.3203 4.06129 18.3287 4.23454 18.3792C4.58928 18.4719 4.77903 18.7414 4.77078 19.1036C4.76253 19.4826 4.55628 19.7774 4.16854 19.811C3.62404 19.8532 3.07129 19.8447 2.51854 19.8532C2.2958 19.8532 2.0648 19.8532 1.80905 19.8532V22.9105C2.22155 22.9105 2.62579 22.9105 3.03829 22.9105C3.36004 22.9105 3.68179 22.8937 4.00354 22.9105C4.46553 22.9442 4.77903 23.2643 4.78728 23.6686C4.78728 24.0813 4.49028 24.4097 4.01179 24.435C3.29404 24.4603 2.57629 24.435 1.82555 24.435V27.4924C2.45254 27.4924 3.05479 27.4924 3.66529 27.4924C3.83029 27.4924 4.00354 27.4924 4.16854 27.5261C4.56453 27.6103 4.79553 27.8798 4.77903 28.2841C4.76253 28.6884 4.53153 28.9663 4.12729 29C3.59104 29.0337 3.05479 29.0253 2.52679 29.0337C2.30405 29.0337 2.07305 29.0337 1.82555 29.0337V32.0827C2.2463 32.0827 2.65054 32.0827 3.06304 32.0827C3.38479 32.0827 3.70654 32.0658 4.02829 32.0911C4.49028 32.1248 4.80378 32.4533 4.80378 32.8575C4.80378 33.2618 4.49028 33.5987 4.02004 33.6156C3.30229 33.6408 2.58454 33.6156 1.8338 33.6156V36.673C2.38655 36.673 2.94754 36.673 3.50029 36.673C3.73129 36.673 3.96229 36.673 4.18504 36.7151C4.57278 36.7824 4.78728 37.0435 4.78728 37.431C4.78728 37.8353 4.58103 38.1385 4.16854 38.1722C3.64879 38.2227 3.12904 38.2059 2.60929 38.2143C2.35355 38.2143 2.0978 38.2143 1.8173 38.2143V41.2632C2.2463 41.2632 2.65054 41.2632 3.06304 41.2632C3.27754 41.2632 3.49204 41.2632 3.70654 41.2632C4.42428 41.2632 4.80378 41.5412 4.79553 42.0465C4.79553 42.5519 4.41603 42.8046 3.69004 42.8046C3.07954 42.8046 2.46904 42.8046 1.8338 42.8046V47.3611H44.6181C44.6676 47.3022 44.7088 47.2516 44.7583 47.1927C44.6098 47.1085 44.4366 47.0579 44.3211 46.94C42.6133 45.2134 40.9221 43.4784 39.2226 41.7433C39.1071 41.6254 38.9751 41.4991 38.8926 41.3559C38.6864 41.0274 38.7111 40.6989 38.9751 40.4126C39.2474 40.1346 39.5691 40.1093 39.8908 40.3115C40.0228 40.3873 40.1301 40.5052 40.2373 40.6147C42.4566 42.8804 44.6758 45.146 46.8951 47.4033C47.1756 47.6896 47.4313 47.976 47.2581 48.4224C47.0766 48.8856 46.6888 48.9193 46.2681 48.9193C31.3026 48.9193 16.3455 48.9193 1.38005 48.9193C0.901553 48.9193 0.538555 48.793 0.315806 48.3466C0.258057 32.5964 0.258057 16.7874 0.258057 0.978271C0.596305 0.978271 0.934553 0.978271 1.26455 0.978271Z" fill="currentColor"/>
<path d="M9.78676 23.4665V39.2334H25.3297C25.1729 39.065 25.0739 38.9471 24.9584 38.8376C22.9537 36.7909 20.9572 34.7527 18.9525 32.706C18.8535 32.6049 18.7545 32.5123 18.6637 32.4028C18.3585 32.0406 18.3502 31.6111 18.639 31.3078C18.936 30.9962 19.3402 30.9962 19.7115 31.3078C19.761 31.35 19.8022 31.3921 19.8435 31.4342C22.4257 34.0704 25.0162 36.7151 27.5984 39.3514C27.8707 39.6293 28.0274 39.9325 27.8789 40.3199C27.7222 40.7074 27.4004 40.8085 27.0209 40.8085C21.0892 40.8085 15.1492 40.8085 9.21751 40.8085C8.54101 40.8085 8.26051 40.5305 8.26051 39.8399C8.26051 33.7756 8.26051 27.7198 8.26051 21.6556C8.26051 21.2682 8.35951 20.9313 8.73076 20.7713C9.10201 20.6112 9.40726 20.7713 9.67951 21.0492C12.2617 23.6939 14.8522 26.3301 17.4345 28.9748C17.517 29.059 17.5995 29.1601 17.6655 29.2612C17.88 29.5981 17.8387 29.9265 17.5665 30.1961C17.2777 30.4824 16.9395 30.5077 16.6095 30.2634C16.4775 30.1624 16.3537 30.036 16.2382 29.9181C14.2335 27.8714 12.237 25.8332 10.2405 23.7865C10.125 23.6686 10.026 23.5254 9.927 23.3907C9.88575 23.4159 9.8445 23.4412 9.80325 23.4665H9.78676Z" fill="currentColor"/>
</svg>
