<svg width="38" height="6" viewBox="0 0 38 6" fill="none" xmlns="http://www.w3.org/2000/svg">
<g clip-path="url(#clip0_1537_414)">
<path d="M18.7622 2.63059C18.7622 2.63059 19.009 2.63059 19.1657 2.63059C27.9453 2.62309 36.5878 2.60435 36.7484 2.60435H37.0148L36.8072 2.44316C36.7876 2.42816 34.9776 1.05239 31.91 0.370134C30.9345 0.15271 29.7592 -0.00848389 28.4115 -0.00848389C25.8572 -0.00848389 22.6956 0.568814 19.1422 2.43191C19.1344 2.43566 18.7583 2.62684 18.7583 2.62684L18.7622 2.63059ZM34.1706 1.97082C34.1706 1.97082 27.3577 2.10203 19.5183 2.45066C27.7769 -1.11435 34.1706 1.97082 34.1706 1.97082Z" fill="white"/>
<path d="M9.29298 5.25838C7.91003 5.25838 6.69946 5.09344 5.69261 4.86852C2.53494 4.16751 0.670109 2.75051 0.654439 2.73552L0.438965 2.57057H0.713204C0.877748 2.57057 9.77486 2.55183 18.8091 2.54433C24.3605 -0.345905 29.0147 -0.18846 31.9452 0.456314C35.1381 1.15732 37.0382 2.57432 37.0578 2.58932L37.2811 2.75801H36.9951C34.5073 2.72427 26.6367 2.72052 18.86 2.72802C18.8522 2.73177 18.8404 2.73926 18.8287 2.74301C15.1695 4.66234 11.9178 5.25463 9.28906 5.25838H9.29298ZM1.01095 2.75426C1.59861 3.14412 3.26755 4.14127 5.74746 4.68858C8.57212 5.31461 13.054 5.47206 18.4487 2.72802C10.433 2.73552 2.61721 2.75051 1.01095 2.75426ZM25.1832 2.53684C30.2762 2.53684 34.7032 2.54433 36.6895 2.56308C36.0822 2.16946 34.3898 1.17981 31.8942 0.632502C29.0539 0.0139687 24.5759 -0.147225 19.2244 2.54058C21.242 2.54058 23.2596 2.54058 25.1832 2.54058V2.53684Z" fill="white"/>
</g>
<defs>
<clipPath id="clip0_1537_414">
<rect width="36.8421" height="5.26316" fill="white" transform="translate(0.438965 -0.00476074)"/>
</clipPath>
</defs>
</svg>
