<svg width="37" height="37" viewBox="0 0 37 37" fill="none" xmlns="http://www.w3.org/2000/svg">
<g clip-path="url(#clip0_3532_12846)">
<path d="M32.3023 -1.30209e-05C32.8082 -1.30209e-05 33.3141 -1.30209e-05 33.82 -1.30209e-05C33.8489 0.0192578 33.876 0.0481641 33.9078 0.0558724C35.8888 0.502956 36.999 1.88564 36.999 3.91486C36.999 12.8344 37.001 21.7529 36.999 30.6724C36.999 32.9425 35.408 34.5304 33.1365 34.5362C31.8843 34.5391 30.6332 34.5362 29.381 34.5362C29.2546 34.5362 29.1281 34.5362 28.9997 34.5362C28.9823 34.8773 28.9987 35.1702 28.9476 35.4506C28.795 36.287 28.2264 36.7427 27.4609 36.999H8.31018C8.04469 36.8661 7.75025 36.7716 7.51952 36.5934C6.85339 36.0779 6.67576 35.3745 6.85532 34.5372C6.70279 34.5372 6.57246 34.5372 6.44213 34.5372C5.51631 34.5372 4.59049 34.5497 3.66467 34.5324C2.04858 34.5015 0.678678 33.486 0.182461 31.9742C0.116814 31.7718 0.0608203 31.5666 0 31.3633C0 21.9687 0 12.5742 0 3.17967C0.0251005 3.10355 0.0569587 3.0284 0.0753013 2.95035C0.4074 1.57634 1.23765 0.650378 2.57087 0.179206C2.7707 0.108867 2.97633 0.0597266 3.18003 -1.30209e-05C3.6859 -1.30209e-05 4.19178 -1.30209e-05 4.69765 -1.30209e-05C5.81944 0.383477 6.22588 1.18707 6.17278 2.34043C6.12065 3.4697 6.1612 4.60379 6.1612 5.73499C6.1612 5.8641 6.1612 5.99322 6.1612 6.13582C6.29828 6.14642 6.39193 6.15895 6.48557 6.15991C10.1821 6.16087 13.8777 6.16376 17.5742 6.15124C17.7402 6.15124 17.9449 6.05296 18.0656 5.93348C19.7174 4.29931 21.3634 2.65936 22.9968 1.00592C23.4342 0.563659 23.885 0.165716 24.499 -0.000976562C24.7404 -0.000976562 24.9807 -0.000976562 25.2221 -0.000976562C25.5861 0.197513 26.005 0.336263 26.3043 0.607018C27.0264 1.25934 27.7051 1.96176 28.3799 2.66514C29.1995 3.52077 29.188 4.72038 28.3732 5.58564C28.2119 5.75715 28.0285 5.9065 27.8547 6.06644C27.8721 6.09053 27.8895 6.11366 27.9069 6.13775H30.8417C30.8417 5.98743 30.8417 5.85832 30.8417 5.72921C30.8417 4.45348 30.8436 3.17871 30.8417 1.90298C30.8407 1.19574 31.1284 0.646523 31.7289 0.273633C31.9085 0.161862 32.1131 0.0895964 32.3052 -0.000976562L32.3023 -1.30209e-05ZM28.9804 33.2971C30.5086 33.2971 31.978 33.3366 33.4444 33.2846C34.6483 33.2422 35.5519 32.3548 35.745 31.1638C35.9139 30.1261 35.2536 28.9679 34.1955 28.5767C33.7794 28.4235 33.3044 28.4023 32.8536 28.3763C32.3593 28.3483 31.8978 28.2693 31.5088 27.9417C30.9991 27.513 30.834 26.956 30.834 26.3027C30.8417 20.1611 30.8388 14.0186 30.8388 7.87694C30.8388 7.72663 30.8388 7.57631 30.8388 7.39421C30.6477 7.39421 30.5173 7.39421 30.387 7.39421C29.243 7.39421 28.099 7.40191 26.955 7.38842C26.6808 7.38553 26.4868 7.46551 26.2918 7.66111C22.4388 11.523 18.583 15.3829 14.7118 19.2265C14.4347 19.5021 14.0591 19.7439 13.6875 19.848C12.3108 20.2334 10.9158 20.5581 9.52659 20.8992C8.54381 21.1401 7.84196 20.4492 8.08041 19.4732C8.40769 18.13 8.75716 16.7916 9.07478 15.4465C9.18677 14.9705 9.40977 14.588 9.75539 14.245C11.9333 12.0799 14.1007 9.90423 16.2767 7.73819C16.3645 7.65051 16.5103 7.62064 16.63 7.56379C16.5856 7.51658 16.5422 7.46936 16.4978 7.42215H6.16023V7.91355C6.16023 13.9954 6.16023 20.0773 6.16023 26.1592C6.16023 26.3153 6.1612 26.4723 6.15347 26.6284C6.10617 27.5216 5.43232 28.2443 4.54029 28.3406C4.18212 28.3792 3.81817 28.3609 3.45904 28.3956C2.18181 28.5189 1.15752 29.7185 1.23571 30.9856C1.31584 32.2835 2.38358 33.2846 3.73611 33.3009C4.97665 33.3164 6.21719 33.2971 7.45676 33.3106C7.72032 33.3135 7.90085 33.2335 8.08621 33.0485C13.8979 27.2277 19.7154 21.4128 25.532 15.5968C25.6594 15.4696 25.7743 15.3078 25.9288 15.2326C26.2686 15.0688 26.6229 14.8597 26.984 14.8289C28.1241 14.7316 28.9775 15.5968 28.9785 16.7936C28.9814 22.1402 28.9794 27.4879 28.9794 32.8346C28.9794 32.9762 28.9794 33.1179 28.9794 33.2961L28.9804 33.2971ZM27.7341 24.0538C27.5159 24.0538 27.3344 24.0635 27.1548 24.0519C26.7619 24.0269 26.5061 23.7609 26.5206 23.4073C26.535 23.0643 26.7822 22.8388 27.1712 22.8253C27.3576 22.8186 27.5448 22.8244 27.7292 22.8244V21.6113C27.2446 21.5438 26.565 21.7433 26.5408 20.9965C26.5138 20.1746 27.2475 20.4136 27.7234 20.3346V19.1436C26.7416 19.0473 26.5177 18.9336 26.5283 18.5106C26.5312 18.3767 26.5785 18.1647 26.6673 18.1252C26.9936 17.9806 27.345 17.893 27.7437 17.7658C27.7437 17.4353 27.765 17.0152 27.737 16.598C27.7128 16.2405 27.3711 15.9755 27.0226 16.0536C26.8391 16.095 26.6528 16.2251 26.5157 16.3619C20.4733 22.3946 14.4366 28.4331 8.399 34.4717C8.32273 34.5478 8.24164 34.622 8.17406 34.7058C7.87092 35.0874 8.03601 35.6183 8.50326 35.7397C8.64035 35.7753 8.78998 35.7676 8.93383 35.7676C14.8952 35.7686 20.8565 35.7686 26.8179 35.7676C26.9386 35.7676 27.0612 35.7763 27.178 35.757C27.4831 35.7069 27.7061 35.5258 27.7302 35.2203C27.765 34.7954 27.7389 34.3647 27.7389 33.9089C27.5313 33.9089 27.3643 33.9138 27.1973 33.9089C26.7822 33.8955 26.5302 33.6719 26.5206 33.3154C26.5109 32.9502 26.7774 32.6978 27.2012 32.6795C27.3759 32.6718 27.5516 32.6785 27.7186 32.6785V31.4625C26.7667 31.3999 26.5331 31.2891 26.5292 30.8719C26.5283 30.7283 26.5794 30.498 26.6741 30.4546C26.9965 30.3072 27.3489 30.2253 27.7283 30.1068V28.9968C27.2436 28.938 26.5611 29.1481 26.5408 28.3956C26.5186 27.5852 27.235 27.7943 27.7263 27.7384V26.5157C27.5004 26.5157 27.2967 26.5301 27.095 26.5128C26.7503 26.482 26.5138 26.2131 26.5206 25.8865C26.5283 25.557 26.7696 25.3122 27.123 25.293C27.3228 25.2824 27.5236 25.291 27.7341 25.291V24.0558V24.0538ZM1.23089 28.121C2.08623 27.405 2.99564 27.1237 4.00738 27.1285C4.78453 27.1324 4.92645 26.9801 4.92645 26.1948C4.92645 18.1878 4.92645 10.1808 4.92645 2.17374C4.92645 2.06582 4.93031 1.95694 4.92355 1.84902C4.90038 1.49059 4.68992 1.26801 4.33852 1.23428C2.09782 1.01652 1.20579 2.55819 1.21254 4.0247C1.2502 11.8872 1.22992 19.7497 1.22992 27.6122C1.22992 27.7529 1.22992 27.8936 1.22992 28.121H1.23089ZM35.7546 28.1123C35.7614 27.961 35.7681 27.8916 35.7681 27.8213C35.7681 19.8017 35.7691 11.7831 35.7633 3.76358C35.7633 3.50246 35.7237 3.23267 35.6504 2.98215C35.3327 1.90395 34.3857 1.23717 33.1934 1.23043C32.1701 1.22368 32.0726 1.31908 32.0726 2.32694C32.0726 6.6253 32.0726 10.9237 32.0726 15.223C32.0726 18.9317 32.0726 22.6403 32.0726 26.349C32.0726 26.9079 32.2628 27.1362 32.7822 27.1266C33.8653 27.1054 34.8568 27.3472 35.7537 28.1132L35.7546 28.1123ZM20.9743 4.84178C17.5539 8.26332 14.1441 11.6752 10.7961 15.0245C11.1581 15.3906 11.5404 15.7789 11.8793 16.122C15.2591 12.7438 18.6689 9.33478 22.0652 5.93926C21.7186 5.59046 21.347 5.2166 20.9743 4.84178ZM13.8941 18.2023C17.2903 14.8029 20.705 11.3842 24.0733 8.01184C23.7296 7.65918 23.3569 7.27665 23.0239 6.93556C19.6305 10.3292 16.2207 13.7382 12.8302 17.1289C13.1826 17.4844 13.56 17.865 13.8941 18.2023ZM23.719 2.00608C24.8108 3.10452 25.8766 4.17694 26.9714 5.27827C27.1384 5.09905 27.3228 4.90923 27.4985 4.71171C27.8277 4.34267 27.8461 3.89269 27.5072 3.54197C26.8295 2.84147 26.1402 2.15061 25.4393 1.47324C25.1043 1.14949 24.6448 1.16202 24.2934 1.46746C24.0848 1.64861 23.8898 1.84517 23.7199 2.00608H23.719ZM21.933 3.85512C23.0133 4.93814 24.0713 5.99996 25.1227 7.05311C25.3978 6.78139 25.7038 6.47884 25.9683 6.21772C24.9035 5.14145 23.8406 4.06806 22.8134 3.02936C22.5132 3.31072 22.1994 3.60556 21.933 3.85512ZM9.29199 19.6948C10.4659 19.3999 11.5549 19.1263 12.5821 18.8681C11.7586 18.0385 10.9351 17.2088 10.1155 16.384C9.85289 17.4372 9.58161 18.5279 9.29199 19.6948Z" fill="white"/>
<path d="M19.4208 33.9108C17.9157 33.9108 16.4106 33.904 14.9046 33.9146C14.3302 33.9185 13.8832 33.7238 13.6621 33.1765C13.4411 32.6302 13.6293 32.1793 14.0338 31.7756C17.069 28.7481 20.0985 25.7149 23.1308 22.6845C23.6193 22.196 24.0836 22.0785 24.5895 22.3155C25.0655 22.539 25.2836 22.9331 25.2846 23.4457C25.2875 26.5165 25.2894 29.5873 25.2846 32.6582C25.2836 33.4328 24.7971 33.9069 24.0083 33.9098C22.4791 33.9156 20.95 33.9117 19.4208 33.9117V33.9108ZM24.0354 23.7232C21.0561 26.7025 18.0315 29.7271 15.089 32.6697H24.0354V23.7232Z" fill="white"/>
</g>
<defs>
<clipPath id="clip0_3532_12846">
<rect width="37" height="37" fill="white"/>
</clipPath>
</defs>
</svg>
