<svg width="35" height="35" viewBox="0 0 35 35" fill="none" xmlns="http://www.w3.org/2000/svg">
<g clip-path="url(#clip0_3532_12828)">
<path d="M0.613836 0H29.5128C29.9854 0.169789 30.1632 0.509367 30.1559 1.00095C30.1405 2.13934 30.151 3.27855 30.151 4.41775C30.151 4.53822 30.151 4.6595 30.151 4.81473C30.3248 4.81473 30.449 4.81473 30.5732 4.81473C31.7059 4.81473 32.8378 4.81231 33.9704 4.81554C34.698 4.81716 34.9976 5.11065 34.9976 5.827C34.9992 12.8086 34.9976 19.7893 35 26.7709C35 27.1202 34.8904 27.4072 34.6444 27.6611C32.405 29.9718 30.1689 32.2866 27.936 34.6038C27.6738 34.8763 27.3758 35.0008 26.9942 35.0008C19.9488 34.996 12.9035 34.9976 5.85823 34.9968C5.14696 34.9968 4.85304 34.713 4.8506 34.0112C4.84573 32.872 4.84898 31.7336 4.84898 30.5944C4.84898 30.4723 4.84898 30.3494 4.84898 30.182C4.68659 30.182 4.56479 30.182 4.44219 30.182C3.3217 30.182 2.20039 30.1828 1.0799 30.182C0.283371 30.1812 0.00405976 29.9055 0.00405976 29.1172C0.00405976 19.7667 0.00568366 10.4162 0 1.06644C0 0.577283 0.140468 0.20213 0.613836 0ZM33.3566 6.45118H6.47532V33.3619H26.3633V32.9641C26.3633 31.0625 26.3633 29.1601 26.3633 27.2584C26.3633 26.4596 26.6523 26.1718 27.4586 26.1718C29.3001 26.171 31.1416 26.1718 32.9823 26.1718C33.1041 26.1718 33.2251 26.1718 33.3574 26.1718V6.45118H33.3566ZM4.84898 28.5634V28.0896C4.84898 20.7434 4.84898 13.398 4.84898 6.05177C4.84898 5.91513 4.84492 5.77849 4.85304 5.64185C4.88389 5.14704 5.14453 4.87456 5.64225 4.82282C5.77785 4.80907 5.91669 4.81473 6.05391 4.81473C13.385 4.81473 20.717 4.81473 28.0481 4.81473H28.5255V1.63159H1.65313V28.5634H4.84898ZM27.9993 32.1758C29.4584 30.6857 30.8542 29.2595 32.2881 27.7945H27.9993V32.1758Z" fill="white"/>
<path d="M19.6458 18.8644C16.7066 18.8644 13.7681 18.8644 10.8288 18.8653C10.4862 18.8653 10.1655 18.8248 9.94869 18.516C9.6166 18.0422 9.86668 17.4034 10.435 17.2935C10.5909 17.2636 10.7525 17.2563 10.9117 17.2563C16.7553 17.2547 22.5989 17.2539 28.4425 17.2571C28.6349 17.2571 28.8347 17.2684 29.019 17.3186C29.3202 17.401 29.5362 17.7285 29.5403 18.0503C29.5451 18.389 29.3316 18.7068 29.0028 18.799C28.8298 18.8475 28.6431 18.8612 28.462 18.8612C25.5227 18.8644 22.5843 18.8636 19.645 18.8636L19.6458 18.8644Z" fill="white"/>
<path d="M19.699 22.2276C22.6042 22.2276 25.5093 22.2268 28.4137 22.2301C28.5948 22.2301 28.7807 22.2438 28.9561 22.2834C29.3028 22.3618 29.5366 22.6755 29.5399 23.0305C29.5431 23.3854 29.3125 23.6991 28.9683 23.7889C28.8367 23.8228 28.6987 23.8431 28.5631 23.8439C22.6383 23.8463 16.7143 23.8471 10.7895 23.8422C10.61 23.8422 10.42 23.8148 10.2544 23.7501C9.94098 23.6288 9.77047 23.2908 9.80782 22.9416C9.84354 22.6117 10.0676 22.3513 10.4046 22.2794C10.5702 22.2438 10.744 22.2301 10.9137 22.2301C13.8416 22.2268 16.7695 22.2276 19.6974 22.2276H19.699Z" fill="white"/>
<path d="M15.9395 13.7315C14.2238 13.7315 12.509 13.7315 10.7933 13.7315C10.4629 13.7315 10.1568 13.6749 9.94891 13.379C9.62575 12.9189 9.85553 12.294 10.4036 12.1646C10.5359 12.1331 10.674 12.1161 10.8096 12.1161C14.2287 12.1137 17.6478 12.1137 21.067 12.1161C21.2139 12.1161 21.3641 12.1339 21.507 12.167C21.8497 12.2471 22.0925 12.564 22.0973 12.9133C22.1022 13.2609 21.8659 13.5876 21.5241 13.6725C21.3601 13.7129 21.1863 13.7283 21.0166 13.7291C19.3245 13.7331 17.6316 13.7315 15.9395 13.7315Z" fill="white"/>
</g>
<defs>
<clipPath id="clip0_3532_12828">
<rect width="35" height="35" fill="white"/>
</clipPath>
</defs>
</svg>
