<svg width="41" height="42" viewBox="0 0 41 42" fill="none" xmlns="http://www.w3.org/2000/svg">
<g clip-path="url(#clip0_3532_12849)">
<path d="M2.79495 35.367C2.79495 35.1785 2.79495 34.99 2.79495 34.8031C2.79495 25.5192 2.79495 16.2337 2.79495 6.94983C2.79495 5.89105 3.08139 5.60605 4.14135 5.60605C5.37746 5.60605 6.61511 5.60605 7.85122 5.60605C8.00899 5.60605 8.16522 5.60605 8.3812 5.60605C8.3812 5.41298 8.3812 5.25976 8.3812 5.105C8.3812 3.79492 8.37813 2.48485 8.3812 1.17631C8.38733 0.374938 8.7335 0.0179234 9.52234 0.0179234C16.841 0.0148589 24.1596 0.0148589 31.4798 0.0179234C32.2656 0.0179234 32.6087 0.37647 32.6117 1.18244C32.6163 2.47719 32.6117 3.77347 32.6117 5.06823C32.6117 5.22605 32.6117 5.38387 32.6117 5.60605C32.7986 5.60605 32.9518 5.60605 33.1065 5.60605C34.387 5.60605 35.6676 5.60605 36.9481 5.60605C37.884 5.60605 38.201 5.92629 38.201 6.87015C38.201 16.1832 38.201 25.4977 38.201 34.8108C38.201 34.9977 38.201 35.1831 38.201 35.4267C38.7908 35.4267 39.3391 35.4221 39.8875 35.4267C40.6442 35.4344 40.9873 35.7638 40.9919 36.5162C40.9995 37.6516 41.0011 38.787 40.9919 39.9208C40.9857 40.6395 40.6288 40.9903 39.9181 41.0133C39.817 41.0164 39.7144 41.0133 39.6133 41.0133C26.8662 41.0133 14.1206 41.0133 1.3735 41.0133C0.276778 41.0133 0.00106575 40.7391 0.00106575 39.6512C0.00106575 38.6184 -0.00352946 37.5841 0.00106575 36.5514C0.00566096 35.7638 0.336516 35.4344 1.11464 35.4252C1.62318 35.4191 2.13324 35.4191 2.64178 35.416C2.66935 35.416 2.69539 35.3992 2.79342 35.3654L2.79495 35.367ZM16.7659 35.4084C16.7659 35.2061 16.7659 35.0483 16.7659 34.8904C16.7659 32.9843 16.7659 31.0782 16.7659 29.1721C16.7659 28.2941 17.0998 27.9631 17.9837 27.9616C19.6563 27.9601 21.3305 27.9601 23.0032 27.9616C23.9084 27.9616 24.2301 28.2895 24.2301 29.2058C24.2301 31.0981 24.2301 32.9889 24.2301 34.8813V35.4007H30.7001V1.92098H10.2974V35.4084H16.7644H16.7659ZM4.69278 35.3961H8.3475V7.51217H4.69278V35.3961ZM36.2971 35.4022V7.5183H32.6393V35.4022H36.2971ZM1.90042 39.1087H39.0895V37.316H1.90042V39.1087ZM22.3307 29.8647H18.6775V35.3992H22.3307V29.8647Z" fill="white"/>
<path d="M13.5344 5.61206C13.6937 5.61206 13.8546 5.59981 14.0123 5.61513C14.5607 5.66876 14.9007 6.0365 14.8946 6.55593C14.8885 7.05851 14.5607 7.42472 14.0338 7.46915C13.6891 7.49827 13.3384 7.49827 12.9937 7.46915C12.4683 7.42472 12.139 7.05698 12.1329 6.55593C12.1268 6.03956 12.4699 5.66876 13.0152 5.61666C13.1867 5.59981 13.3629 5.6136 13.536 5.6136L13.5344 5.61206Z" fill="white"/>
<path d="M18.1558 5.5957C18.3672 5.60643 18.5725 5.6003 18.7731 5.63094C19.2556 5.70756 19.539 6.05078 19.5405 6.53804C19.5421 7.02529 19.2663 7.39457 18.7838 7.4482C18.3825 7.49263 17.969 7.49263 17.5677 7.44973C17.0775 7.39916 16.8033 7.04215 16.8018 6.54876C16.7987 6.05538 17.0729 5.71215 17.5569 5.63401C17.7561 5.60183 17.9613 5.60796 18.1574 5.5957H18.1558Z" fill="white"/>
<path d="M22.8214 5.59528C23.0251 5.60601 23.2304 5.59988 23.4295 5.63052C23.9166 5.70714 24.1923 6.04423 24.1938 6.53762C24.1954 7.03253 23.9258 7.39415 23.4387 7.44624C23.0374 7.49068 22.6238 7.49068 22.2225 7.44777C21.7369 7.39568 21.4581 7.03253 21.4551 6.54528C21.4536 6.05802 21.7339 5.70867 22.2118 5.63052C22.4109 5.59835 22.6161 5.60448 22.8199 5.59375L22.8214 5.59528Z" fill="white"/>
<path d="M27.4673 7.49438C27.2652 7.48213 27.0614 7.48672 26.8623 7.45301C26.3951 7.37334 26.0995 7.00866 26.1026 6.53979C26.1056 6.07092 26.4013 5.69399 26.873 5.63883C27.2437 5.59592 27.6251 5.59439 27.9989 5.62197C28.5273 5.66028 28.8551 6.02649 28.8658 6.52907C28.8765 7.04697 28.5365 7.4193 27.9897 7.47447C27.8181 7.49132 27.6435 7.47753 27.4689 7.47753C27.4689 7.48366 27.4689 7.48979 27.4689 7.49592L27.4673 7.49438Z" fill="white"/>
<path d="M13.537 13.0788C13.3348 13.0696 13.1296 13.0788 12.9304 13.0481C12.4372 12.9761 12.1278 12.6068 12.1309 12.1226C12.1355 11.6354 12.4464 11.2646 12.9458 11.214C13.3042 11.1788 13.6703 11.1788 14.0287 11.2063C14.5556 11.2477 14.8849 11.6139 14.8926 12.1165C14.9003 12.6344 14.5602 13.0037 14.0134 13.0588C13.8556 13.0742 13.6948 13.0619 13.537 13.0619C13.537 13.0665 13.537 13.0711 13.537 13.0772V13.0788Z" fill="white"/>
<path d="M18.1804 13.0563C17.992 13.0563 17.8005 13.0762 17.6152 13.0533C17.1005 12.9874 16.8064 12.6503 16.8018 12.1431C16.7972 11.6191 17.102 11.2605 17.6381 11.21C17.969 11.1793 18.3075 11.1808 18.6399 11.2023C19.2051 11.2375 19.5375 11.5915 19.5421 12.1216C19.5467 12.6549 19.2204 13.0088 18.6613 13.0625C18.5036 13.0778 18.3412 13.0655 18.1819 13.0655C18.1819 13.0625 18.1819 13.0594 18.1819 13.0563H18.1804Z" fill="white"/>
<path d="M22.831 13.0565C22.6426 13.0565 22.4511 13.0764 22.2658 13.0519C21.7557 12.9845 21.4586 12.6382 21.457 12.1371C21.4555 11.6192 21.7664 11.2576 22.301 11.2117C22.6472 11.181 22.9995 11.181 23.3457 11.2101C23.8864 11.2546 24.1943 11.6054 24.1958 12.1295C24.1973 12.6535 23.891 12.9983 23.3549 13.0596C23.1833 13.0795 23.0072 13.0626 22.8325 13.0626C22.8325 13.0611 22.8325 13.0596 22.8325 13.0565H22.831Z" fill="white"/>
<path d="M27.4978 11.2114C27.6862 11.2114 27.8761 11.1899 28.0615 11.2159C28.5578 11.2834 28.8672 11.6496 28.8656 12.1368C28.8641 12.6241 28.5547 12.9964 28.0554 13.0485C27.6969 13.0853 27.3308 13.0853 26.9724 13.0577C26.4302 13.0148 26.0901 12.621 26.1039 12.1077C26.1177 11.6082 26.4532 11.2558 26.9785 11.2037C27.1501 11.1868 27.3247 11.2006 27.4993 11.2006C27.4993 11.2037 27.4993 11.2068 27.4993 11.2114H27.4978Z" fill="white"/>
<path d="M13.4926 18.672C13.2904 18.6598 13.0867 18.6644 12.8876 18.6307C12.4204 18.5495 12.1263 18.1832 12.1309 17.7144C12.1355 17.2455 12.4311 16.8701 12.9029 16.8149C13.2736 16.772 13.655 16.772 14.0287 16.7981C14.5557 16.8364 14.885 17.2041 14.8926 17.7067C14.9003 18.2246 14.5602 18.5954 14.0134 18.6506C13.8419 18.6674 13.6672 18.6537 13.4926 18.6537C13.4926 18.6598 13.4926 18.6659 13.4926 18.672Z" fill="white"/>
<path d="M18.1661 18.6715C17.9639 18.6593 17.7571 18.6654 17.558 18.6317C17.0725 18.552 16.7998 18.2118 16.7998 17.7185C16.7998 17.2251 17.074 16.8711 17.5641 16.8144C17.9364 16.7715 18.3208 16.7715 18.6946 16.8006C19.2291 16.842 19.5416 17.2082 19.5401 17.7246C19.5401 18.241 19.2245 18.5888 18.6884 18.647C18.5169 18.6654 18.3407 18.6501 18.1661 18.6501V18.67V18.6715Z" fill="white"/>
<path d="M22.8123 18.6492C22.6377 18.6492 22.4615 18.666 22.29 18.6461C21.7585 18.5833 21.449 18.2293 21.4552 17.7099C21.4613 17.1951 21.7768 16.8411 22.316 16.7982C22.6622 16.7706 23.0145 16.7691 23.3606 16.8013C23.8952 16.8503 24.2 17.2104 24.1939 17.736C24.1878 18.2416 23.8937 18.5802 23.379 18.6431C23.1937 18.666 23.0022 18.6461 22.8138 18.6461L22.8123 18.6492Z" fill="white"/>
<path d="M27.4673 18.6721C27.2652 18.6599 27.0614 18.6645 26.8623 18.6307C26.3951 18.5511 26.0995 18.1864 26.1026 17.7175C26.1056 17.2487 26.4013 16.8717 26.873 16.8166C27.2437 16.7737 27.6251 16.7721 27.9989 16.7997C28.5273 16.838 28.8551 17.2042 28.8658 17.7068C28.8765 18.2247 28.5365 18.597 27.9897 18.6522C27.8181 18.6691 27.6435 18.6553 27.4689 18.6553C27.4689 18.6614 27.4689 18.6675 27.4689 18.6737L27.4673 18.6721Z" fill="white"/>
<path d="M13.4957 24.2601C13.2935 24.2478 13.0898 24.2524 12.8906 24.2187C12.4219 24.139 12.1278 23.7744 12.1309 23.3055C12.1324 22.8366 12.428 22.4597 12.8998 22.403C13.2705 22.3586 13.6519 22.3586 14.0256 22.3861C14.5541 22.4244 14.8819 22.7891 14.8926 23.2932C14.9033 23.8096 14.5618 24.1835 14.0165 24.2386C13.8449 24.2555 13.6703 24.2417 13.4957 24.2417C13.4957 24.2478 13.4957 24.254 13.4957 24.2601Z" fill="white"/>
<path d="M18.1769 24.2444C18.0176 24.2444 17.8567 24.2566 17.6974 24.2428C17.1276 24.1938 16.8044 23.8552 16.7998 23.3189C16.7968 22.7795 17.1169 22.4256 17.6821 22.3842C18.0007 22.3597 18.3224 22.3612 18.641 22.3827C19.2047 22.421 19.537 22.7734 19.5401 23.3051C19.5432 23.8383 19.2154 24.1907 18.6563 24.2428C18.4985 24.2582 18.3362 24.2444 18.1769 24.2459V24.2444Z" fill="white"/>
<path d="M22.8399 22.3643C23.0283 22.3735 23.2197 22.3658 23.4051 22.3934C23.9136 22.4669 24.2 22.8132 24.1939 23.3234C24.1878 23.8138 23.9105 24.1647 23.4204 24.2198C23.0466 24.2612 22.6637 24.2627 22.29 24.2305C21.7569 24.1846 21.449 23.8168 21.4552 23.2974C21.4613 22.7826 21.7784 22.4393 22.316 22.3842C22.4891 22.3673 22.6637 22.3811 22.8383 22.3811C22.8383 22.375 22.8383 22.3704 22.8383 22.3643H22.8399Z" fill="white"/>
<path d="M27.5072 22.3644C27.6956 22.3736 27.8856 22.3659 28.0694 22.3935C28.5626 22.4671 28.872 22.8363 28.8643 23.3221C28.8567 23.8108 28.5473 24.1755 28.0449 24.2261C27.6864 24.2613 27.3204 24.2613 26.9619 24.2322C26.4365 24.1893 26.1087 23.82 26.1026 23.3175C26.0965 22.8011 26.4411 22.4303 26.9864 22.3782C27.158 22.3613 27.3341 22.3751 27.5072 22.3751C27.5072 22.3705 27.5072 22.3659 27.5072 22.3613V22.3644Z" fill="white"/>
<path d="M13.5295 29.825C13.3411 29.825 13.1511 29.8434 12.9658 29.8219C12.4481 29.7591 12.1233 29.3837 12.131 28.8842C12.1402 28.3832 12.471 28.0185 12.9964 27.9756C13.3273 27.948 13.6627 27.9495 13.9936 27.9725C14.5481 28.0108 14.8881 28.3755 14.8927 28.8949C14.8958 29.4144 14.5557 29.7775 14.0058 29.8311C13.8481 29.8465 13.6872 29.8342 13.5279 29.8342C13.5279 29.8311 13.5279 29.8296 13.5279 29.8265L13.5295 29.825Z" fill="white"/>
<path d="M27.4643 29.8498C27.2621 29.8375 27.0584 29.8421 26.8593 29.8084C26.3921 29.7272 26.098 29.361 26.1026 28.8921C26.1072 28.4232 26.4028 28.0478 26.8746 27.9927C27.2453 27.9498 27.6267 27.9498 28.0004 27.9758C28.5273 28.0141 28.8567 28.3819 28.8643 28.8845C28.872 29.4024 28.5319 29.7732 27.9851 29.8283C27.8135 29.8452 27.6389 29.8314 27.4643 29.8314C27.4643 29.8375 27.4643 29.8436 27.4643 29.8498Z" fill="white"/>
</g>
<defs>
<clipPath id="clip0_3532_12849">
<rect width="41" height="41" fill="white" transform="translate(0 0.0166016)"/>
</clipPath>
</defs>
</svg>
