<svg width="39" height="43" viewBox="0 0 39 43" fill="none" xmlns="http://www.w3.org/2000/svg">
<g clip-path="url(#clip0_3532_12833)">
<path d="M18.9124 42.9998C18.1221 42.8041 17.3184 42.5975 16.7215 42.0171C16.2667 41.5754 15.9119 41.0312 15.5025 40.5407C15.3873 40.4021 15.257 40.2367 15.099 40.1787C13.8934 39.742 13.2023 38.7888 13.1973 37.4988C13.1923 36.3087 13.1864 35.1195 13.199 33.9294C13.2133 32.6571 12.708 31.6585 11.6765 30.9169C9.50579 29.3556 7.93453 27.3299 6.9341 24.8507C4.95089 19.9376 6.17242 13.895 10.001 10.2458C10.3381 9.92418 10.7357 10.0258 11.009 10.2937C11.2822 10.5616 11.2544 10.9488 10.9123 11.2889C9.16783 13.0224 7.95891 15.0724 7.52511 17.4912C6.64322 22.4127 8.16656 26.4993 12.0792 29.6236C13.241 30.5507 14.1708 31.5502 14.4096 33.1056H14.8787C16.434 33.1056 22.8653 33.1056 24.4206 33.1056C24.519 33.1056 24.6173 33.1014 24.7149 33.1072C25.1461 33.1299 25.4017 33.3676 25.4009 33.7413C25.4 34.1201 25.1487 34.3569 24.7098 34.3586C23.2949 34.3645 17.004 34.3611 15.5882 34.3611C15.2267 34.3611 14.8661 34.3611 14.4735 34.3611C14.4735 35.5428 14.4314 36.6875 14.4895 37.8272C14.5239 38.5158 15.1612 39.0348 15.8842 39.039C18.2936 39.0542 20.7039 39.0558 23.1133 39.039C23.9044 39.0332 24.5173 38.431 24.535 37.6625C24.5593 36.5859 24.5408 35.5083 24.5408 34.362C24.1424 34.362 23.7565 34.362 23.3706 34.362C23.1041 34.362 22.8384 34.3645 22.5719 34.362C22.0826 34.3561 21.7926 34.1176 21.7993 33.7304C21.8061 33.3491 22.102 33.1123 22.5921 33.1089C23.2479 33.1047 23.9036 33.1081 24.5879 33.1081C24.8275 31.5115 25.7716 30.4483 27.0142 29.5597C27.5892 29.1482 28.118 28.6443 28.5796 28.1068C31.6994 24.4703 32.609 20.3198 30.984 15.8199C29.3656 11.341 26.0482 8.68709 21.3311 7.89344C18.3836 7.39709 15.6336 8.23357 13.0804 9.58068C12.0186 10.0812 10.1691 12.0129 10.1691 12.0129C9.83282 11.6769 7.89922 11.173 12.2793 8.60059C13.4167 7.86908 14.6383 7.3215 15.9439 6.96709C23.5404 4.90611 31.3076 9.65879 32.7309 17.3912C33.707 22.6957 31.96 27.1149 27.7977 30.5642C27.5606 30.7607 27.3025 30.9312 27.0663 31.1286C26.2576 31.803 25.8221 32.6672 25.8103 33.722C25.796 34.9532 25.8078 36.1853 25.8053 37.4173C25.8027 38.8014 25.1529 39.721 23.8616 40.193C23.7439 40.2358 23.6068 40.3248 23.5547 40.4307C22.8561 41.8324 21.7447 42.6747 20.2003 42.9468C20.1616 42.9536 20.1263 42.9846 20.0902 43.0039H18.9132L18.9124 42.9998ZM16.8241 40.324C17.6513 41.3839 18.6484 41.8576 19.8876 41.7131C20.8199 41.6048 21.5824 41.1664 22.139 40.324H16.8241Z" fill="white"/>
<path d="M19.7531 -0.000136719C20.0558 0.23166 20.1407 0.540723 20.1348 0.913613C20.1188 1.96258 20.1306 3.01238 20.1281 4.06135C20.1281 4.20076 20.16 4.38385 20.0869 4.46951C19.9288 4.65512 19.7313 4.87516 19.5144 4.92471C19.221 4.99189 18.9191 4.78529 18.9133 4.47539C18.8855 3.135 18.8922 1.79293 18.92 0.451699C18.9233 0.298848 19.1344 0.149355 19.2487 -0.000976562C19.4168 -0.000976562 19.585 -0.000976562 19.7531 -0.000976562V-0.000136719Z" fill="white"/>
<path d="M14.3201 13.2137C14.5093 13.3103 14.6673 13.3682 14.7993 13.4623C15.1642 13.7218 15.508 14.0115 15.8821 14.2568C15.9923 14.329 16.1814 14.3273 16.3226 14.3005C17.165 14.1375 17.5652 13.6286 17.5047 12.761C17.4937 12.5972 17.545 12.4284 17.5744 12.2638C17.6425 11.8809 17.862 11.6701 18.2638 11.6709C19.0902 11.6717 19.9166 11.6709 20.743 11.6709C21.1466 11.6709 21.3635 11.8893 21.4257 12.2705C21.4887 12.6569 21.572 13.044 21.5846 13.4329C21.5963 13.8058 21.804 13.9049 22.094 14.0762C22.7355 14.4525 23.1802 14.282 23.7107 13.8469C24.701 13.0356 24.7271 13.0676 25.6216 13.9612C26.0277 14.3668 26.4371 14.7691 26.8398 15.1789C27.1971 15.5434 27.2131 15.7954 26.907 16.2128C26.6506 16.563 26.3724 16.8981 26.1353 17.2601C26.0621 17.3718 26.0546 17.5565 26.0798 17.6959C26.2353 18.5727 26.7986 18.9238 27.6569 18.8944C27.8217 18.8885 27.989 18.9397 28.1546 18.9649C28.5346 19.0221 28.7238 19.2622 28.7288 19.6267C28.7414 20.4523 28.7398 21.2779 28.7305 22.1034C28.7263 22.4898 28.5254 22.73 28.1294 22.7879C27.6586 22.8576 27.1862 22.9172 26.7204 23.0113C26.6019 23.0357 26.4808 23.1558 26.4051 23.2633C25.8932 23.9914 26.0327 24.6381 26.6666 25.2218C26.7877 25.3335 26.8751 25.4846 26.9718 25.6215C27.187 25.9281 27.1727 26.2271 26.9096 26.495C26.3194 27.093 25.7267 27.6884 25.1256 28.2746C24.8583 28.535 24.5556 28.5467 24.2521 28.3216C23.8814 28.0462 23.5224 27.7522 23.1357 27.5028C23.0154 27.4247 22.8187 27.4516 22.6573 27.4558C22.58 27.4574 22.506 27.5364 22.4261 27.5481C21.6922 27.6556 21.5694 28.1713 21.5114 28.797C21.3929 30.066 21.3618 30.0727 20.0831 30.0727C19.4946 30.0727 18.9061 30.0769 18.3185 30.071C17.8359 30.0668 17.6392 29.888 17.5677 29.4084C17.5467 29.2698 17.4979 29.1304 17.5064 28.9944C17.5568 28.1402 17.1902 27.6027 16.3336 27.4482C16.1806 27.4205 15.9796 27.4297 15.8569 27.5095C15.4819 27.7522 15.1339 28.0369 14.7749 28.3048C14.4428 28.5534 14.1309 28.5316 13.8367 28.2368C13.2726 27.6724 12.7026 27.1139 12.1427 26.5454C11.8031 26.201 11.793 25.9482 12.0872 25.5451C12.3512 25.184 12.6362 24.8363 12.885 24.4651C12.9523 24.3643 12.9212 24.198 12.9338 24.062C12.9346 24.0502 12.9178 24.0376 12.9161 24.025C12.7572 23.0945 12.1217 22.8299 11.2776 22.8433C11.1397 22.8459 11.001 22.8064 10.8623 22.7854C10.4647 22.7266 10.2747 22.4797 10.2713 22.0934C10.2637 21.2821 10.2637 20.4699 10.2713 19.6587C10.2747 19.2513 10.4815 19.0103 10.8985 18.9549C11.3558 18.8936 11.8157 18.8373 12.2663 18.7424C12.3941 18.7155 12.5017 18.566 12.6051 18.4594C12.6496 18.4132 12.6446 18.3225 12.6849 18.2687C13.1423 17.6556 12.8766 17.187 12.4546 16.6688C11.6526 15.6845 11.6778 15.6635 12.5841 14.759C12.9901 14.3534 13.3895 13.9402 13.8081 13.548C13.9527 13.4127 14.1452 13.3279 14.3235 13.2154L14.3201 13.2137ZM18.7539 12.9483C18.6875 13.4262 18.6203 13.8814 18.5614 14.3374C18.5135 14.7078 18.3286 14.9278 17.9578 15.0513C17.4433 15.2234 16.9414 15.4393 16.4521 15.6736C16.1226 15.8315 15.846 15.8298 15.5576 15.603C15.1843 15.3108 14.8001 15.0336 14.4445 14.7674C14.0738 15.1218 13.724 15.4544 13.3617 15.8004C13.6602 16.1977 13.9527 16.5882 14.247 16.9779C14.4336 17.2248 14.4487 17.4759 14.3218 17.7631C14.078 18.3099 13.8468 18.8625 13.6316 19.4218C13.5181 19.7158 13.334 19.8779 13.0221 19.9156C12.6194 19.9644 12.2142 20.0089 11.8199 20.0962C11.7055 20.1214 11.5508 20.2852 11.5408 20.3969C11.5063 20.784 11.5273 21.1754 11.5273 21.6012C12.0174 21.676 12.4823 21.7667 12.9514 21.8137C13.3625 21.8548 13.5525 22.0808 13.6795 22.4511C13.8468 22.9374 14.0435 23.417 14.273 23.8772C14.4521 24.2358 14.4437 24.5314 14.1923 24.8439C13.904 25.2016 13.6375 25.577 13.3836 25.9163C13.7434 26.2825 14.0822 26.6268 14.4328 26.9838C14.7859 26.7217 15.1549 26.4681 15.5004 26.1851C15.8233 25.9197 16.1234 25.8987 16.4992 26.0952C16.9422 26.327 17.4088 26.5319 17.8872 26.6722C18.3344 26.8032 18.532 27.0594 18.5757 27.5011C18.6178 27.9294 18.6943 28.3544 18.7573 28.792H20.2479C20.3143 28.3141 20.3807 27.8589 20.4404 27.4029C20.4883 27.0308 20.6766 26.8158 21.0482 26.6949C21.5501 26.5311 22.0444 26.327 22.5152 26.0885C22.8767 25.9063 23.1676 25.9172 23.4795 26.1691C23.8368 26.4572 24.2134 26.7209 24.5405 26.9645C24.9146 26.6075 25.2643 26.2749 25.6275 25.9289C25.3475 25.556 25.0684 25.1722 24.7767 24.7977C24.5632 24.5239 24.5489 24.2602 24.6977 23.9427C24.9398 23.4262 25.1592 22.8971 25.356 22.3613C25.4703 22.0505 25.6468 21.8691 25.9798 21.8296C26.3824 21.7818 26.7868 21.7364 27.1819 21.6474C27.2963 21.6222 27.451 21.4593 27.4611 21.3476C27.4955 20.9604 27.4745 20.5682 27.4745 20.1399C26.9852 20.0651 26.5195 19.9786 26.0495 19.9282C25.6636 19.8871 25.461 19.6931 25.3349 19.332C25.1559 18.8205 24.944 18.3174 24.7095 17.8278C24.5514 17.4986 24.5564 17.2231 24.7843 16.935C25.0777 16.563 25.3543 16.1783 25.6225 15.8197C25.2626 15.4578 24.9222 15.1151 24.5682 14.7582C24.1941 15.0378 23.8091 15.3158 23.435 15.6081C23.1441 15.8348 22.8666 15.8264 22.5396 15.6677C22.0638 15.4368 21.5779 15.2117 21.0743 15.0563C20.6598 14.9287 20.4782 14.6885 20.4311 14.2853C20.3799 13.8436 20.3084 13.4043 20.2437 12.9466H18.7548L18.7539 12.9483Z" fill="white"/>
<path d="M2.4633 20.0826C1.87565 20.0826 1.28884 20.0884 0.701191 20.08C0.274957 20.0742 0.0042522 19.8281 4.87065e-05 19.4661C-0.00415479 19.1042 0.264028 18.832 0.685218 18.8278C1.87397 18.8161 3.06271 18.8169 4.25146 18.8278C4.6777 18.8312 4.94756 19.0907 4.95344 19.451C4.95933 19.8264 4.67938 20.0759 4.2254 20.0809C3.63775 20.0876 3.05094 20.0826 2.4633 20.0826Z" fill="white"/>
<path d="M36.5259 20.0828C35.9382 20.0828 35.3514 20.0878 34.7638 20.0811C34.3308 20.0761 34.0618 19.8426 34.0483 19.4815C34.0349 19.1027 34.3106 18.8314 34.7596 18.8272C35.934 18.818 37.1093 18.818 38.2838 18.8272C38.731 18.8306 39.0118 19.1027 39 19.4773C38.9891 19.8351 38.715 20.0752 38.288 20.0803C37.7003 20.0878 37.1135 20.082 36.5259 20.082V20.0828Z" fill="white"/>
<path d="M33.5545 6.09095C33.4183 6.32527 33.3527 6.51675 33.2258 6.64609C32.4044 7.48342 31.573 8.3115 30.7365 9.13455C30.4103 9.45537 30.0412 9.46293 29.7747 9.18074C29.5191 8.91031 29.5351 8.56765 29.8462 8.25355C30.6818 7.40951 31.5116 6.56043 32.3783 5.74914C32.5356 5.60217 32.8718 5.54422 33.0913 5.59545C33.267 5.6366 33.3905 5.90367 33.5553 6.09011L33.5545 6.09095Z" fill="white"/>
<path d="M9.45725 8.80124C9.33451 8.96081 9.23615 9.21528 9.06801 9.27407C8.8654 9.34629 8.51819 9.34377 8.382 9.21612C7.45555 8.34688 6.55852 7.44657 5.67579 6.53282C5.43535 6.28422 5.46393 5.95417 5.72035 5.70389C5.97508 5.4553 6.30043 5.42926 6.5518 5.67114C7.46564 6.55381 8.35846 7.45833 9.2496 8.36368C9.34039 8.45522 9.36898 8.60807 9.45725 8.8004V8.80124Z" fill="white"/>
<path d="M25.3992 3.43362C25.9759 3.43026 26.2727 3.80063 26.1373 4.23651C25.9885 4.71354 25.7977 5.18049 25.5909 5.63653C25.4455 5.95651 25.0697 6.0766 24.7729 5.92375C24.4602 5.7625 24.3307 5.49627 24.4526 5.1553C24.6165 4.69674 24.7763 4.23231 24.9932 3.79811C25.084 3.61586 25.3168 3.50416 25.3992 3.43362Z" fill="white"/>
<path d="M13.8322 5.97957C13.7389 5.90062 13.4967 5.78304 13.3959 5.59072C13.1832 5.18591 13.0327 4.74668 12.8797 4.31332C12.746 3.93539 12.8914 3.59861 13.2092 3.47011C13.5505 3.33238 13.8851 3.48187 14.0499 3.8724C14.229 4.29568 14.4055 4.72148 14.5468 5.1582C14.6872 5.59072 14.4089 5.96865 13.8322 5.97873V5.97957Z" fill="white"/>
<path d="M33.5628 14.6548C33.3712 14.4575 33.1442 14.3105 33.0467 14.1022C32.9264 13.8452 33.0198 13.5463 33.293 13.4211C33.7865 13.1969 34.2951 12.9987 34.8121 12.8357C35.0921 12.7476 35.3334 12.8987 35.467 13.1658C35.6015 13.4362 35.5721 13.7461 35.3233 13.8788C34.7869 14.1644 34.2119 14.3752 33.5637 14.654L33.5628 14.6548Z" fill="white"/>
<path d="M4.0305 12.7178C4.68121 12.9991 5.26213 13.2049 5.78588 13.5081C5.92376 13.5879 5.98933 14.0237 5.89938 14.2018C5.81026 14.3781 5.45213 14.5638 5.26717 14.5184C4.74426 14.3916 4.22639 14.19 3.75644 13.9288C3.59502 13.839 3.48237 13.4661 3.52609 13.2612C3.56896 13.0604 3.84135 12.9093 4.0305 12.7178Z" fill="white"/>
<path d="M19.4609 24.946C17.2339 24.9309 15.4029 23.085 15.4121 20.8644C15.4222 18.6161 17.2667 16.7895 19.519 16.7979C21.7661 16.8054 23.6174 18.6733 23.5863 20.9022C23.5551 23.1647 21.7216 24.9612 19.4601 24.946H19.4609ZM19.5122 23.6863C21.0574 23.6821 22.3185 22.4248 22.3269 20.882C22.3353 19.3292 21.0524 18.0534 19.4895 18.0576C17.9477 18.0618 16.6816 19.3233 16.674 20.8636C16.6656 22.4156 17.9477 23.6905 19.5131 23.6863H19.5122Z" fill="white"/>
</g>
<defs>
<clipPath id="clip0_3532_12833">
<rect width="39" height="43" fill="white"/>
</clipPath>
</defs>
</svg>
