<?xml version="1.0" encoding="UTF-8" standalone="no"?>
<!-- Uploaded to: SVG Repo, www.svgrepo.com, Generator: SVG Repo Mixer Tools -->

<svg
   fill="#000000"
   version="1.1"
   id="Layer_1"
   viewBox="0 0 512 512"
   xml:space="preserve"
   sodipodi:docname="infraestrutura.svg"
   inkscape:version="1.3 (1:1.3+202307231459+0e150ed6c4)"
   xmlns:inkscape="http://www.inkscape.org/namespaces/inkscape"
   xmlns:sodipodi="http://sodipodi.sourceforge.net/DTD/sodipodi-0.dtd"
   xmlns="http://www.w3.org/2000/svg"
   xmlns:svg="http://www.w3.org/2000/svg"><defs
   id="defs38" /><sodipodi:namedview
   id="namedview38"
   pagecolor="#ffffff"
   bordercolor="#000000"
   borderopacity="0.25"
   inkscape:showpageshadow="2"
   inkscape:pageopacity="0.0"
   inkscape:pagecheckerboard="0"
   inkscape:deskcolor="#d1d1d1"
   inkscape:zoom="0.984375"
   inkscape:cx="255.49206"
   inkscape:cy="256"
   inkscape:window-width="1366"
   inkscape:window-height="704"
   inkscape:window-x="0"
   inkscape:window-y="27"
   inkscape:window-maximized="1"
   inkscape:current-layer="Layer_1" />&#10;<g
   id="g2"
   transform="matrix(0.71910277,0,0,0.75935945,66.21565,62.860795)">&#10;	<g
   id="g1">&#10;		<path
   d="m 127.387,336.999 c -5.653,1.417 -11.129,3.519 -16.276,6.249 l 7.802,14.71 c 3.96,-2.099 8.172,-3.716 12.522,-4.807 z"
   id="path1" />&#10;	</g>&#10;</g>&#10;<g
   id="g4"
   transform="matrix(0.71910277,0,0,0.75935945,66.21565,62.860795)">&#10;	<g
   id="g3">&#10;		<path
   d="m 85.307,366.314 c -3.296,4.824 -5.993,10.041 -8.015,15.505 l 15.616,5.779 c 1.549,-4.188 3.618,-8.189 6.147,-11.892 z"
   id="path2" />&#10;	</g>&#10;</g>&#10;<g
   id="g6"
   transform="matrix(0.71910277,0,0,0.75935945,66.21565,62.860795)">&#10;	<g
   id="g5">&#10;		<path
   d="m 74.766,390.191 c -1.274,5.4 -1.92,10.978 -1.92,16.578 v 0.646 h 16.65 v -0.646 c 0,-4.315 0.496,-8.606 1.475,-12.754 z"
   id="path4" />&#10;	</g>&#10;</g>&#10;<g
   id="g8"
   transform="matrix(0.71910277,0,0,0.75935945,66.21565,62.860795)">&#10;	<g
   id="g7">&#10;		<path
   d="m 103.658,347.801 c -4.782,3.331 -9.155,7.239 -12.996,11.615 l 12.511,10.987 c 2.956,-3.368 6.323,-6.375 10.004,-8.94 z"
   id="path6" />&#10;	</g>&#10;</g>&#10;<g
   id="g10"
   transform="matrix(0.71910277,0,0,0.75935945,66.21565,62.860795)">&#10;	<g
   id="g9">&#10;		<path
   d="m 224.273,103.377 v 128.298 h 64.498 V 103.377 Z m 47.848,111.647 h -31.198 v -94.997 h 31.198 z"
   id="path8" />&#10;	</g>&#10;</g>&#10;<g
   id="g12"
   transform="matrix(0.71910277,0,0,0.75935945,66.21565,62.860795)">&#10;	<g
   id="g11">&#10;		<rect
   x="199.80499"
   y="110.829"
   width="16.65"
   height="16.65"
   id="rect10" />&#10;	</g>&#10;</g>&#10;<g
   id="g14"
   transform="matrix(0.71910277,0,0,0.75935945,66.21565,62.860795)">&#10;	<g
   id="g13">&#10;		<rect
   x="199.80499"
   y="159.74001"
   width="16.65"
   height="15.61"
   id="rect12" />&#10;	</g>&#10;</g>&#10;<g
   id="g16"
   transform="matrix(0.71910277,0,0,0.75935945,66.21565,62.860795)">&#10;	<g
   id="g15">&#10;		<rect
   x="199.80499"
   y="207.61"
   width="16.65"
   height="15.61"
   id="rect14" />&#10;	</g>&#10;</g>&#10;<g
   id="g18"
   transform="matrix(0.71910277,0,0,0.75935945,66.21565,62.860795)">&#10;	<g
   id="g17">&#10;		<rect
   x="295.54501"
   y="110.829"
   width="16.65"
   height="16.65"
   id="rect16" />&#10;	</g>&#10;</g>&#10;<g
   id="g20"
   transform="matrix(0.71910277,0,0,0.75935945,66.21565,62.860795)">&#10;	<g
   id="g19">&#10;		<rect
   x="295.54501"
   y="159.74001"
   width="16.65"
   height="15.61"
   id="rect18" />&#10;	</g>&#10;</g>&#10;<g
   id="g22"
   transform="matrix(0.71910277,0,0,0.75935945,66.21565,62.860795)">&#10;	<g
   id="g21">&#10;		<rect
   x="295.54501"
   y="207.61"
   width="16.65"
   height="15.61"
   id="rect20" />&#10;	</g>&#10;</g>&#10;<g
   id="g24"
   transform="matrix(0.71910277,0,0,0.75935945,66.21565,62.860795)">&#10;	<g
   id="g23">&#10;		<path
   d="m 409.244,213.857 -11.632,11.913 c 4.613,4.504 9.963,8.022 15.902,10.455 l 6.313,-15.407 c -3.948,-1.618 -7.509,-3.96 -10.583,-6.961 z"
   id="path22" />&#10;	</g>&#10;</g>&#10;<g
   id="g26"
   transform="matrix(0.71910277,0,0,0.75935945,66.21565,62.860795)">&#10;	<g
   id="g25">&#10;		<path
   d="m 400.219,197.507 -16.315,3.323 c 1.285,6.314 3.821,12.244 7.535,17.628 l 13.705,-9.456 c -2.433,-3.527 -4.091,-7.394 -4.925,-11.495 z"
   id="path24" />&#10;	</g>&#10;</g>&#10;<g
   id="g28"
   transform="matrix(0.71910277,0,0,0.75935945,66.21565,62.860795)">&#10;	<g
   id="g27">&#10;		<path
   d="m 392.912,331.568 -15.229,6.733 c 2.584,5.845 6.252,11.094 10.901,15.6 l 11.59,-11.955 c -3.103,-3.008 -5.548,-6.501 -7.262,-10.378 z"
   id="path26" />&#10;	</g>&#10;</g>&#10;<g
   id="g30"
   transform="matrix(0.71910277,0,0,0.75935945,66.21565,62.860795)">&#10;	<g
   id="g29">&#10;		<path
   d="m 405.156,345.935 -9.124,13.928 c 5.445,3.567 11.398,5.981 17.694,7.174 l 3.1,-16.36 c -4.136,-0.783 -8.063,-2.379 -11.67,-4.742 z"
   id="path28" />&#10;	</g>&#10;</g>&#10;<g
   id="g32"
   transform="matrix(0.71910277,0,0,0.75935945,66.21565,62.860795)">&#10;	<g
   id="g31">&#10;		<rect
   x="471.41501"
   y="342.89401"
   width="16.65"
   height="23.934999"
   id="rect30" />&#10;	</g>&#10;</g>&#10;<g
   id="g34"
   transform="matrix(0.71910277,0,0,0.75935945,66.21565,62.860795)">&#10;	<g
   id="g33">&#10;		<path
   d="m 0,0.52 v 311.154 h 143.61 v 22.987 c -2.718,0.037 -5.266,0.213 -7.891,0.54 l 2.113,16.522 c 1.916,-0.238 3.942,-0.372 5.779,-0.411 v 7.191 h 16.65 v -63.48 H 16.65 V 17.171 h 136.298 l -0.528,56.195 h 190.994 v 110.309 h 39.545 v 7.285 h 16.65 v -7.285 h 8.325 v -16.65 h -47.87 V 152.456 H 384 v -9.897 c 2.533,0.899 5.256,1.392 8.093,1.392 13.385,0 24.274,-10.889 24.274,-24.275 0,-13.385 -10.889,-24.274 -24.274,-24.274 -2.838,0 -5.56,0.494 -8.093,1.392 V 87.935 H 360.065 V 17.171 h 7.754 V 73.219 H 488.141 V 17.171 h 7.209 v 63.176 c -17.999,3.883 -31.898,20.039 -31.898,39.33 0,19.291 13.899,35.449 31.898,39.33 v 8.017 h -64.52 v 56.168 c -1.659,-0.059 -3.317,-0.242 -4.943,-0.559 l -3.181,16.343 c 2.672,0.52 5.4,0.801 8.124,0.866 v 0.027 h 1.138 8.227 7.285 v -56.195 h 47.87 v 111.35 h -64.52 v 56.195 h -7.285 v 16.65 h 7.285 8.325 8.325 v -56.195 h 47.87 v 70.819 H 375.793 v 96.398 H 495.35 v 15.938 H 303.87 V 480.26 h 40.585 V 342.894 H 303.87 v -31.219 h 69.724 v 7.374 c 0.001,3.39 0.368,6.788 1.094,10.101 l 16.266,-3.559 c -0.469,-2.147 -0.709,-4.35 -0.71,-6.545 v -7.371 h 10.406 v -16.65 H 287.22 V 494.83 h -14.57 v -31.22 h -96.78 v 31.22 H 160.26 V 414.7 H 72.846 v 16.65 h 70.764 v 80.13 H 512 V 478.892 382.494 0.52 Z m 192.52,16.651 h 46.829 V 31.74 H 192.52 Z M 343.415,56.715 H 169.229 l 0.37,-39.545 h 6.271 V 48.39 H 256 V 17.171 h 87.415 z m 48.678,55.338 c 4.204,0 7.624,3.421 7.624,7.624 0,4.204 -3.42,7.625 -7.624,7.625 -4.204,0 -7.624,-3.421 -7.624,-7.625 0,-4.204 3.42,-7.624 7.624,-7.624 z m -24.743,-7.468 v 31.219 h -7.285 V 104.585 Z M 471.491,56.569 H 384.47 V 17.397 h 87.021 z M 303.87,359.545 h 23.935 V 463.61 H 303.87 Z M 256,494.829 H 192.52 V 480.26 H 256 Z m 207.089,-32.588 h -70.646 v -63.097 h 70.646 z m 32.261,0 h -15.61 v -63.097 h 15.61 z m 0,-320.595 c -8.699,-3.427 -15.248,-11.979 -15.248,-21.969 0,-9.989 6.549,-18.541 15.248,-21.968 z"
   id="path32" />&#10;	</g>&#10;</g>&#10;<g
   id="g36"
   transform="matrix(0.71910277,0,0,0.75935945,66.21565,62.860795)">&#10;	<g
   id="g35">&#10;		<rect
   x="24.976"
   y="271.08899"
   width="128"
   height="16.65"
   id="rect34" />&#10;	</g>&#10;</g>&#10;<g
   id="g38"
   transform="matrix(0.71910277,0,0,0.75935945,66.21565,62.860795)">&#10;	<g
   id="g37">&#10;		<path
   d="M 161.175,135.978 V 119.328 95.403 H 24.904 v 23.924 16.65 39.874 h 136.272 v -39.874 h -10e-4 z M 144.526,159.2 H 144.525 41.554 V 135.977 H 144.525 V 159.2 Z m 0,-39.873 H 144.525 41.554 v -7.274 h 102.971 v 7.274 z"
   id="path36" />&#10;	</g>&#10;</g>&#10;</svg>
