<?xml version="1.0" encoding="UTF-8" standalone="no"?>
<!-- Uploaded to: SVG Repo, www.svgrepo.com, Generator: SVG Repo Mixer Tools -->

<svg
   fill="#000000"
   height="800px"
   width="800px"
   version="1.1"
   id="Layer_1"
   viewBox="0 0 512 512"
   xml:space="preserve"
   sodipodi:docname="iptu-verde.svg"
   inkscape:version="1.3 (1:1.3+202307231459+0e150ed6c4)"
   xmlns:inkscape="http://www.inkscape.org/namespaces/inkscape"
   xmlns:sodipodi="http://sodipodi.sourceforge.net/DTD/sodipodi-0.dtd"
   xmlns="http://www.w3.org/2000/svg"
   xmlns:svg="http://www.w3.org/2000/svg"><defs
   id="defs20" /><sodipodi:namedview
   id="namedview20"
   pagecolor="#ffffff"
   bordercolor="#000000"
   borderopacity="0.25"
   inkscape:showpageshadow="2"
   inkscape:pageopacity="0.0"
   inkscape:pagecheckerboard="0"
   inkscape:deskcolor="#d1d1d1"
   inkscape:zoom="0.63"
   inkscape:cx="467.46032"
   inkscape:cy="382.53968"
   inkscape:window-width="1366"
   inkscape:window-height="704"
   inkscape:window-x="0"
   inkscape:window-y="27"
   inkscape:window-maximized="1"
   inkscape:current-layer="Layer_1" />&#10;<g
   id="g2">&#10;	<g
   id="g1">&#10;		<path
   d="M256,120.447c-75.148,0-136.284,61.136-136.284,136.284S180.853,393.015,256,393.015s136.284-61.136,136.284-136.284    S331.148,120.447,256,120.447z M256.001,136.483c35.751-0.002,67.903,15.687,89.948,40.536l-3.021,7.552l-14.259,21.389h-21.363    c-5.375,0-9.309,5.442-7.605,10.552l7.311,21.935l-8.257,12.385l-10.432-15.648c-1.487-2.23-3.989-3.57-6.67-3.57h-29.249    l-12.806-25.612l14.522-21.782c2.638-3.956,1.159-9.495-3.085-11.617l-33.93-16.965l-12.596-7.557    C220.127,140.649,237.586,136.483,256.001,136.483z M197.523,320.174l7.065,14.132l-8.823,26.468    c-35.855-20.838-60.016-59.67-60.016-104.043c0-0.703,0.015-1.405,0.027-2.106l13.163,8.776c1.316,0.878,2.865,1.347,4.447,1.347    h22.333l23.305,23.305c1.504,1.504,3.542,2.348,5.669,2.348h29.249l9.086,18.171h-38.336    C198.846,308.573,194.901,314.935,197.523,320.174z M256,376.983c-16.18-0.001-31.619-3.221-45.723-9.041l10.572-31.716    c1.385-4.155-1.4-8.05-3.185-11.621H256c5.847,0,9.792-6.362,7.17-11.602l-17.102-34.205c-1.359-2.716-4.133-4.432-7.17-4.432    h-30.885l-23.305-23.305c-1.504-1.504-3.542-2.348-5.669-2.348h-23.226l-18.35-12.233c5.597-32.865,24.571-61.229,51.108-79.267    c0.002,0.001,0.004,0.002,0.005,0.004l20.543,12.325c0.175,0.106,0.356,0.204,0.539,0.296l26.082,13.042l-12.065,18.097    c-1.596,2.393-1.787,5.459-0.5,8.032l17.102,34.205c1.359,2.716,4.133,4.432,7.17,4.432h29.914l14.722,22.083    c3.118,4.677,10.222,4.679,13.34,0l17.102-25.653c1.372-2.059,1.717-4.635,0.935-6.982l-5.034-15.101h14.534    c2.681,0,5.184-1.339,6.67-3.57l17.102-25.653c0.187-0.28,0.349-0.575,0.499-0.877c11.479,17.859,18.363,38.94,18.972,61.558    l-27.275,3.896c-2.019,0.289-3.852,1.336-5.126,2.929l-34.205,42.756c-2.181,2.726-2.346,6.55-0.41,9.454l16.223,24.334    l3.148,15.739C308.376,367.877,283.232,376.983,256,376.983z M342.444,340.232l-1.623-8.113c-0.205-1.027-0.609-2.004-1.191-2.874    l-13.851-20.776l28.56-35.699l21.206-3.029C372.6,296.981,360.523,321.522,342.444,340.232z"
   id="path1" />&#10;	</g>&#10;</g>&#10;<g
   id="g4">&#10;	<g
   id="g3">&#10;		<path
   d="M443.158,431.388C487.613,383.83,512,322.121,512,256.731c0-68.38-26.628-132.668-74.98-181.019    c-3.132-3.131-8.207-3.131-11.338,0l-36.344,36.345c-3.131,3.131-3.131,8.207,0,11.337c35.674,35.675,55.322,83.03,55.322,133.338    c0,13.799-1.504,27.571-4.472,40.932c-0.96,4.322,1.765,8.604,6.087,9.564c4.325,0.96,8.605-1.767,9.563-6.088    c3.222-14.501,4.854-29.442,4.854-44.408c0-51.919-19.276-100.93-54.457-138.898l25.023-25.023    c41.791,44.607,64.709,102.504,64.709,163.921c0,63.798-24.763,123.856-69.728,169.112c-3.114,3.134-3.105,8.195,0.018,11.319    l17.206,17.205l-79.835,7.284l7.284-79.835l19,19.001c3.098,3.097,8.276,3.087,11.361-0.023    c18.794-18.949,33.509-40.981,43.734-65.483c1.706-4.086-0.224-8.781-4.31-10.486c-4.085-1.704-8.78,0.224-10.487,4.311    c-8.394,20.112-20.073,38.423-34.771,54.534l-25.287-25.288c-4.715-4.714-13.047-1.685-13.652,4.94l-9.714,106.46    c-0.448,4.908,3.801,9.165,8.711,8.711l106.46-9.714c6.625-0.604,9.654-8.937,4.94-13.652L443.158,431.388z"
   id="path2" />&#10;	</g>&#10;</g>&#10;<g
   id="g6">&#10;	<g
   id="g5">&#10;		<path
   d="M410.064,52.281c-3.536-2.664-8.563-1.957-11.228,1.578l-30.932,41.049c-2.664,3.536-1.957,8.563,1.579,11.227    c3.49,2.631,8.599,1.909,11.228-1.578l30.932-41.049C414.306,59.971,413.6,54.944,410.064,52.281z"
   id="path4" />&#10;	</g>&#10;</g>&#10;<g
   id="g8">&#10;	<g
   id="g7">&#10;		<path
   d="M380.11,32.829c-3.87-2.146-8.752-0.748-10.897,3.124l-24.919,44.954c-2.145,3.873-0.747,8.752,3.125,10.898    c3.823,2.121,8.782,0.694,10.897-3.124l24.919-44.954C385.382,39.855,383.983,34.975,380.11,32.829z"
   id="path6" />&#10;	</g>&#10;</g>&#10;<g
   id="g10">&#10;	<g
   id="g9">&#10;		<path
   d="M142.517,407.328c-3.535-2.665-8.562-1.957-11.228,1.578l-30.932,41.049c-2.423,3.216-2.036,7.885,0.895,10.65    c3.43,3.236,9.074,2.763,11.911-1.002l30.932-41.049C146.759,415.019,146.053,409.992,142.517,407.328z"
   id="path8" />&#10;	</g>&#10;</g>&#10;<g
   id="g12">&#10;	<g
   id="g11">&#10;		<path
   d="M164.581,421.656c-3.868-2.147-8.752-0.749-10.897,3.124l-24.919,44.954c-1.981,3.575-0.884,8.201,2.491,10.506    c3.849,2.629,9.277,1.338,11.532-2.732l24.919-44.954C169.851,428.681,168.453,423.802,164.581,421.656z"
   id="path10" />&#10;	</g>&#10;</g>&#10;<g
   id="g14">&#10;	<g
   id="g13">&#10;		<path
   d="M152.658,31.123l-106.46,9.714c-6.625,0.604-9.654,8.937-4.94,13.652l27.585,27.584    c-16.451,17.597-30.256,37.238-41.1,58.49c-2.013,3.944-0.447,8.772,3.496,10.785c3.942,2.012,8.773,0.447,10.785-3.496    c11.285-22.114,26-42.38,43.738-60.231c3.114-3.134,3.105-8.195-0.018-11.319L64.693,55.25l79.835-7.285l-7.284,79.835    l-15.155-15.155c-3.098-3.097-8.276-3.087-11.361,0.024c-38.318,38.636-59.42,89.799-59.42,144.062    c0,51.919,19.276,100.93,54.457,138.898l-25.023,25.023c-41.789-44.607-64.708-102.504-64.708-163.921    c0-25.128,3.832-49.837,11.388-73.443c1.351-4.217-0.974-8.73-5.189-10.08c-4.217-1.348-8.729,0.975-10.08,5.191    C4.089,203.588,0,229.943,0,256.731c0,68.38,26.628,132.668,74.98,181.019c3.089,3.088,8.249,3.088,11.338,0l36.344-36.345    c3.132-3.131,3.132-8.207,0.001-11.338C86.988,354.393,67.34,307.04,67.34,256.731c0-47.32,17.421-92.088,49.221-126.939    l21.442,21.442c4.715,4.714,13.047,1.685,13.652-4.94l9.714-106.46C161.817,34.927,157.569,30.67,152.658,31.123z"
   id="path12" />&#10;	</g>&#10;</g>&#10;<g
   id="g16">&#10;	<g
   id="g15">&#10;		&#10;	</g>&#10;</g>&#10;&#10;<g
   id="g20">&#10;	&#10;<path
   fill="#231f20"
   d="m 354.68295,13.718894 c -0.23089,-0.390094 -0.65531,-0.669975 -1.15274,-0.761339 -5.05915,-0.945504 -11.83299,-1.424069 -20.12796,-1.424069 -8.3561,0 -17.93454,0.511919 -26.28214,1.402319 -25.86621,2.759674 -43.93147,18.260525 -43.93147,37.691339 v 27.086253 l -6.61595,21.095614 c -0.72662,2.317379 0.8879,4.704349 3.60252,5.327919 2.71294,0.61777 5.50906,-0.76134 6.23567,-3.07581 l 3.993,-12.729582 h 33.52964 c 24.33997,0 44.14027,-16.913324 44.14027,-37.704394 0,-9.662476 0,-22.895265 6.64482,-35.665453 0.20712,-0.397346 0.19353,-0.855597 -0.0356,-1.242797 z m -91.55203,86.591046 c -0.24277,0.77149 -1.17311,1.23119 -2.07799,1.02527 -0.90657,-0.21028 -1.44474,-1.00206 -1.20197,-1.776469 l 4.33253,-14.046331 c 0.68758,0.974513 1.69431,1.757602 2.90647,2.247763 z m 77.04346,-75.875747 c -0.12392,0.03916 -10.20999,3.336841 -24.69309,13.517022 9.4596,-0.852696 17.37259,1.032524 17.78005,1.129691 0.90148,0.220426 1.42268,1.022363 1.16632,1.790955 -0.21391,0.638071 -0.89299,1.054274 -1.63319,1.054274 -0.15449,0 -0.31068,-0.01886 -0.46517,-0.05509 -0.10865,-0.02751 -10.97396,-2.587098 -21.92754,-0.195769 -2.24945,1.721348 -4.57021,3.581918 -6.96567,5.626652 -2.78764,2.382627 -5.28834,4.681141 -7.56497,6.891207 17.33525,-2.930799 33.25292,0.667073 33.97444,0.835298 0.90488,0.211723 1.43796,1.006408 1.19179,1.780809 -0.20542,0.645316 -0.8913,1.068771 -1.63828,1.068771 -0.14771,0 -0.29711,-0.01736 -0.44651,-0.05073 -0.18165,-0.04209 -18.471,-4.189537 -36.45816,0 -0.0866,0.02029 -0.17487,0.02322 -0.26145,0.03044 -4.58721,4.788461 -7.96563,8.995395 -10.36957,12.355436 17.31657,-3.067106 32.08149,0.606176 32.74359,0.777287 0.89809,0.230579 1.4074,1.038326 1.13917,1.804016 -0.22071,0.629369 -0.89469,1.035418 -1.6264,1.035418 -0.16129,0 -0.32427,-0.02029 -0.48725,-0.06088 -0.16468,-0.04058 -16.38792,-4.067727 -34.11025,-0.114564 -2.01007,3.141064 -2.83686,4.979885 -2.85893,5.029186 -0.25296,0.584419 -0.90148,0.946961 -1.59075,0.946961 -0.19523,0 -0.39386,-0.03044 -0.5891,-0.08991 -0.87941,-0.276972 -1.3276,-1.110827 -1.00505,-1.860562 0.0968,-0.220427 1.06447,-2.395681 3.4124,-6.00515 3.11867,-13.84476 -0.0475,-26.407575 -0.0815,-26.533736 -0.20203,-0.781646 0.37519,-1.556032 1.29025,-1.7286 0.92185,-0.184172 1.82164,0.319036 2.02535,1.100674 0.11715,0.452456 2.41414,9.508756 1.21047,20.965088 2.40056,-3.075808 5.43944,-6.620021 9.27625,-10.529677 2.87422,-14.928036 -0.18844,-27.084802 -0.2207,-27.209512 -0.20203,-0.781646 0.37518,-1.556032 1.29025,-1.730058 0.91506,-0.168217 1.82164,0.320494 2.02536,1.102132 0.12394,0.478557 2.66369,10.549983 0.9694,23.866878 1.95914,-1.851867 4.05411,-3.757387 6.35789,-5.725262 2.18154,-1.86347 4.29349,-3.558717 6.3562,-5.158255 v -0.01157 c 3.1798,-9.507313 0.0883,-16.404314 0.056,-16.472471 -0.34293,-0.74394 0.0832,-1.586483 0.95411,-1.880869 0.86583,-0.298736 1.85389,0.06381 2.20192,0.807747 0.12733,0.272628 2.71462,5.95439 1.11539,14.303011 15.72922,-11.385274 26.72694,-14.952694 27.28039,-15.126705 0.87942,-0.272636 1.85389,0.105854 2.17816,0.858498 0.32596,0.749735 -0.12393,1.583582 -1.00165,1.862012 z"
   id="path1-6"
   style="fill:#000000;stroke-width:1.56907" /><path
   fill="#231f20"
   d="m 167.40965,14.072988 c 0.23089,-0.390094 0.65531,-0.669975 1.15274,-0.761339 5.05915,-0.945504 11.83299,-1.424069 20.12796,-1.424069 8.3561,0 17.93454,0.511919 26.28214,1.402319 25.86621,2.759674 43.93147,18.260525 43.93147,37.691339 v 27.086253 l 6.61595,21.095619 c 0.72662,2.31737 -0.8879,4.70434 -3.60252,5.32791 -2.71294,0.61777 -5.50906,-0.76134 -6.23567,-3.07581 l -3.993,-12.72958 h -33.52964 c -24.33997,0 -44.14027,-16.913322 -44.14027,-37.704392 0,-9.662476 0,-22.895265 -6.64482,-35.665453 -0.20712,-0.397346 -0.19353,-0.855597 0.0356,-1.242797 z m 91.55203,86.591042 c 0.24277,0.77149 1.17311,1.23119 2.07799,1.02527 0.90657,-0.21028 1.44474,-1.00206 1.20197,-1.77647 L 257.90911,85.8665 c -0.68758,0.97452 -1.69431,1.75761 -2.90647,2.24777 z M 181.91822,24.788287 c 0.12392,0.03916 10.20999,3.336841 24.69309,13.517022 -9.4596,-0.852696 -17.37259,1.032524 -17.78005,1.129691 -0.90148,0.220426 -1.42268,1.022363 -1.16632,1.790955 0.21391,0.638071 0.89299,1.054274 1.63319,1.054274 0.15449,0 0.31068,-0.01886 0.46517,-0.05509 0.10865,-0.02751 10.97396,-2.587098 21.92754,-0.195769 2.24945,1.721348 4.57021,3.581918 6.96567,5.626652 2.78764,2.382627 5.28834,4.681141 7.56497,6.891207 -17.33525,-2.930799 -33.25292,0.667073 -33.97444,0.835298 -0.90488,0.211723 -1.43796,1.006408 -1.19179,1.780809 0.20542,0.645316 0.8913,1.068771 1.63828,1.068771 0.14771,0 0.29711,-0.01736 0.44651,-0.05073 0.18165,-0.04209 18.471,-4.189537 36.45816,0 0.0866,0.02029 0.17487,0.02322 0.26145,0.03044 4.58721,4.788461 7.96563,8.995395 10.36957,12.355436 -17.31657,-3.067106 -32.08149,0.606176 -32.74359,0.777287 -0.89809,0.230579 -1.4074,1.038326 -1.13917,1.804016 0.22071,0.629369 0.89469,1.035418 1.6264,1.035418 0.16129,0 0.32427,-0.02029 0.48725,-0.06088 0.16468,-0.04058 16.38792,-4.067727 34.11025,-0.114564 2.01007,3.141064 2.83686,4.979885 2.85893,5.029186 0.25296,0.584419 0.90148,0.946961 1.59075,0.946961 0.19523,0 0.39386,-0.03044 0.5891,-0.08991 0.87941,-0.276972 1.3276,-1.110827 1.00505,-1.860562 -0.0968,-0.220427 -1.06447,-2.395681 -3.4124,-6.00515 -3.11867,-13.84476 0.0475,-26.407575 0.0815,-26.533736 0.20203,-0.781646 -0.37519,-1.556032 -1.29025,-1.7286 -0.92185,-0.184172 -1.82164,0.319036 -2.02535,1.100674 -0.11715,0.452456 -2.41414,9.508756 -1.21047,20.965088 -2.40056,-3.075808 -5.43944,-6.620021 -9.27625,-10.529677 -2.87422,-14.928036 0.18844,-27.084802 0.2207,-27.209512 0.20203,-0.781646 -0.37518,-1.556032 -1.29025,-1.730058 -0.91506,-0.168217 -1.82164,0.320494 -2.02536,1.102132 -0.12394,0.478557 -2.66369,10.549983 -0.9694,23.866878 -1.95914,-1.851867 -4.05411,-3.757387 -6.35789,-5.725262 -2.18154,-1.86347 -4.29349,-3.558717 -6.3562,-5.158255 v -0.01157 c -3.1798,-9.507313 -0.0883,-16.404314 -0.056,-16.472471 0.34293,-0.74394 -0.0832,-1.586483 -0.95411,-1.880869 -0.86583,-0.298736 -1.85389,0.06381 -2.20192,0.807747 -0.12733,0.272628 -2.71462,5.95439 -1.11539,14.303011 -15.72922,-11.385274 -26.72694,-14.952694 -27.28039,-15.126705 -0.87942,-0.272636 -1.85389,0.105854 -2.17816,0.858498 -0.32596,0.749735 0.12393,1.583582 1.00165,1.862012 z"
   id="path1-6-5"
   style="fill:#000000;stroke-width:1.56907" /><path
   style="fill:#000000;fill-rule:evenodd;stroke-width:0.654167;paint-order:stroke fill markers"
   d="m 408.08532,158.38221 c -0.91659,-0.18934 -1.42878,-0.51508 -1.84711,-1.17472 -0.46458,-0.73256 -0.42146,-1.04046 0.62322,-4.45032 0.50497,-1.64824 0.92949,-2.98543 0.94339,-2.97153 0.0139,0.0139 0.47331,1.47337 1.02093,3.2433 1.04472,3.37652 1.13902,3.88107 0.84229,4.50638 -0.19976,0.42096 -0.62567,0.82112 -0.93788,0.88117 -0.13641,0.0262 -0.42659,0.0108 -0.64484,-0.0343 z"
   id="path20"
   transform="scale(0.64)" /><path
   style="fill:#000000;fill-rule:evenodd;stroke-width:0.462566;paint-order:stroke fill markers"
   d="m 413.2506,149.85679 c 0,-0.0225 -0.61556,-2.00255 -1.36791,-4.40005 -0.75236,-2.39749 -1.3679,-4.39673 -1.36788,-4.44275 2e-5,-0.046 0.42749,-1.47264 0.94992,-3.17026 0.52243,-1.69761 1.03129,-3.35319 1.13079,-3.67904 0.16635,-0.5448 0.18884,-0.58149 0.27953,-0.45597 0.88583,1.22599 2.21772,2.32034 3.72519,3.0608 0.39547,0.19425 0.71892,0.37336 0.71878,0.39803 -5.5e-4,0.0973 -3.97671,12.63849 -4.02105,12.68284 -0.026,0.026 -0.0474,0.0289 -0.0474,0.006 z"
   id="path21"
   transform="scale(0.64)" /><path
   style="fill:#000000;fill-rule:evenodd;stroke-width:0.462566;paint-order:stroke fill markers"
   d="m 400.38344,143.89228 c -1.03699,-3.28812 -1.89899,-6.02927 -1.91556,-6.09146 -0.0224,-0.084 0.14033,-0.19597 0.63367,-0.43596 1.31625,-0.64032 2.59462,-1.62597 3.41588,-2.63373 0.25063,-0.30753 0.46465,-0.55018 0.47561,-0.53921 0.011,0.011 0.49175,1.54737 1.06842,3.41423 l 1.04848,3.39431 -1.37272,4.38434 c -0.755,2.41139 -1.39424,4.40719 -1.42053,4.43511 -0.0263,0.0279 -0.89625,-2.63951 -1.93325,-5.92763 z"
   id="path22"
   transform="scale(0.64)" /><ellipse
   style="fill:#000000;fill-rule:evenodd;stroke-width:4.22016;paint-order:stroke fill markers"
   id="path23"
   cx="261.81384"
   cy="92.974266"
   rx="4.560874"
   ry="4.6788402" /><ellipse
   style="fill:#000000;fill-rule:evenodd;stroke-width:4.22016;paint-order:stroke fill markers"
   id="path24"
   cx="265.16345"
   cy="88.270096"
   rx="1.5930839"
   ry="4.3861308" /><ellipse
   style="fill:#000000;fill-rule:evenodd;stroke-width:4.22016;paint-order:stroke fill markers"
   id="path25"
   cx="264.85529"
   cy="91.441818"
   rx="2.6089983"
   ry="4.8184609" /><ellipse
   style="fill:#000000;fill-rule:evenodd;stroke-width:4.22016;paint-order:stroke fill markers"
   id="path26"
   cx="267.53064"
   cy="87.543915"
   rx="2.2070534"
   ry="2.5706894" /><ellipse
   style="fill:#000000;fill-rule:evenodd;stroke-width:4.22016;paint-order:stroke fill markers"
   id="path27"
   cx="257.53842"
   cy="90.435989"
   rx="3.6492603"
   ry="4.8218961" /><ellipse
   style="fill:#000000;fill-rule:evenodd;stroke-width:4.22016;paint-order:stroke fill markers"
   id="path28"
   cx="260.92627"
   cy="98.282082"
   rx="3.5409775"
   ry="4.0884304" /><ellipse
   style="fill:#000000;fill-rule:evenodd;stroke-width:4.22016;paint-order:stroke fill markers"
   id="path29"
   cx="258.08411"
   cy="93.797318"
   rx="2.0835955"
   ry="3.1287615" /></g>&#10;<g
   id="g19"
   transform="matrix(1.0063083,0,0,1.1577126,-1.711806,389.63304)">&#10;		<path
   d="M 298.294,11.446 C 291.332,7.767 276.913,3.841 256,16.335 235.085,3.841 220.669,7.768 213.706,11.446 c -10.663,5.633 -17.03,17.411 -17.03,31.507 0,37.582 54.245,57.98 56.554,58.83 1.775,0.653 3.763,0.653 5.539,0 2.309,-0.85 56.554,-21.247 56.554,-58.83 0.001,-14.096 -6.366,-25.874 -17.029,-31.507 z M 256.001,85.644 C 241.736,79.723 212.71,63.439 212.71,42.952 c 0,-8.165 3.093,-14.481 8.485,-17.33 2.231,-1.179 4.82,-1.758 7.684,-1.758 6.449,0 14.298,2.939 22.603,8.608 2.727,1.859 6.311,1.859 9.037,0 11.995,-8.185 23.035,-10.68 30.287,-6.849 5.391,2.849 8.485,9.165 8.485,17.329 0,20.488 -29.033,36.775 -43.29,42.692 z"
   id="path18" />&#10;	</g></svg>
