<svg width="26" height="31" viewBox="0 0 27 35" fill="none" xmlns="http://www.w3.org/2000/svg">
<g clip-path="url(#clip0_2256_535)">
<path d="M13.5002 35C13.3503 35 13.2086 34.9347 13.114 34.8226C13.0408 34.7358 5.76578 26.0956 3.35191 22.6502C2.15054 20.9354 1.25829 19.1855 0.700844 17.4487C0.154533 15.7505 -0.0740956 14.0575 0.0209522 12.4176C0.207194 9.19131 1.65603 6.18211 4.21076 3.7153C6.69228 1.3196 9.99112 0 13.5002 0C17.0092 0 20.3081 1.3196 22.7896 3.7153C25.3443 6.18211 26.7932 9.19131 26.9794 12.4176C27.074 14.0575 26.8454 15.7505 26.3 17.4491C25.7421 19.1859 24.8503 20.9358 23.6489 22.6507C21.235 26.096 13.96 34.7362 13.8868 34.8231C13.7922 34.9351 13.6505 35.0004 13.5006 35.0004L13.5002 35ZM13.5002 0.961588C10.2574 0.961588 7.20819 2.18114 4.91506 4.39536C3.72568 5.54381 2.79018 6.81463 2.13427 8.17226C1.47792 9.53031 1.10159 10.9768 1.01553 12.4713C0.927331 13.9964 1.1414 15.5756 1.65175 17.1643C2.18051 18.8105 3.02994 20.4753 4.17651 22.1116C6.24616 25.0654 11.9597 31.9176 13.5002 33.7556C15.0406 31.9172 20.7542 25.065 22.8239 22.1116C23.9704 20.4753 24.8199 18.8105 25.3486 17.1643C25.859 15.5756 26.073 13.9964 25.9848 12.4713C25.8984 10.9768 25.522 9.53072 24.8661 8.17226C24.2102 6.81463 23.2747 5.54381 22.0853 4.39536C19.7922 2.18114 16.7429 0.961588 13.5002 0.961588Z" fill="white"/>
<path d="M13.5004 20.8606C9.03185 20.8606 5.39648 17.3503 5.39648 13.0356C5.39648 8.72082 9.03185 5.21057 13.5004 5.21057C17.9689 5.21057 21.6043 8.72082 21.6043 13.0356C21.6043 17.3503 17.9689 20.8606 13.5004 20.8606ZM13.5004 6.17216C9.58116 6.17216 6.39235 9.25123 6.39235 13.0356C6.39235 16.8199 9.58116 19.899 13.5004 19.899C17.4196 19.899 20.6084 16.8199 20.6084 13.0356C20.6084 9.25123 17.4196 6.17216 13.5004 6.17216Z" fill="white"/>
</g>
<defs>
<clipPath id="clip0_2256_535">
<rect width="27" height="35" fill="white"/>
</clipPath>
</defs>
</svg>
