<svg width="31" height="26" viewBox="0 0 41 36" fill="none" xmlns="http://www.w3.org/2000/svg">
<g clip-path="url(#clip0_2256_531)">
<path d="M0 34.9744C0.0791919 34.332 0.173366 33.6907 0.236506 33.0463C0.558624 29.7542 0.873251 26.4621 1.18788 23.169C1.46612 20.2518 1.75185 17.3357 2.00869 14.4176C2.05899 13.8421 2.27195 13.488 2.82522 13.2154C5.23951 12.0237 7.63239 10.7871 10.0242 9.55253C10.3988 9.3593 10.7359 9.32902 11.1233 9.49822C11.8039 9.79588 12.5005 10.0601 13.1855 10.3484C13.6328 10.5364 13.7997 10.8842 13.6381 11.2445C13.4755 11.6059 13.1127 11.7208 12.6579 11.5443C12.1902 11.3626 11.7258 11.1704 11.2142 10.9646C11.1607 11.6978 11.1061 12.3819 11.0633 13.0671C10.7862 17.4475 10.5122 21.8279 10.2339 26.2094C10.143 27.6392 10.051 29.0691 9.93965 30.4979C9.91718 30.7924 9.99102 30.9261 10.2907 31.0305C13.3246 32.0959 16.3531 33.18 19.3828 34.2579C19.5058 34.3017 19.6332 34.3331 19.8151 34.3863C19.8258 34.1942 19.8429 34.0333 19.8429 33.8714C19.844 29.5589 19.8429 25.2464 19.8451 20.9349C19.8451 20.7657 19.8386 20.5934 19.8665 20.4284C19.9264 20.0837 20.165 19.902 20.5086 19.903C20.8532 19.903 21.0907 20.0858 21.1496 20.4315C21.1774 20.5965 21.1721 20.7688 21.1721 20.938C21.1721 25.237 21.1721 29.537 21.1721 33.8359C21.1721 34.0009 21.1721 34.167 21.1721 34.3863C21.3411 34.3414 21.4535 34.3195 21.5595 34.2819C24.603 33.203 27.6433 32.1189 30.6901 31.0504C31.0101 30.9376 31.0957 30.7851 31.0732 30.4592C30.8517 27.211 30.6505 23.9607 30.4397 20.7114C30.2363 17.5791 30.0298 14.4468 29.8243 11.3145C29.8179 11.2142 29.7997 11.114 29.7826 10.9772C29.3021 11.1683 28.8494 11.3521 28.3935 11.5297C27.9044 11.7208 27.5449 11.6174 27.3769 11.2445C27.2088 10.8727 27.3886 10.5333 27.867 10.3359C28.5786 10.0424 29.2957 9.76142 30.0052 9.46062C30.3123 9.33006 30.5927 9.34886 30.8838 9.49717C33.4115 10.7892 35.9392 12.079 38.4701 13.3658C38.7687 13.5183 38.926 13.7355 38.9571 14.0687C39.1262 15.884 39.3081 17.6982 39.4836 19.5124C39.7158 21.9104 39.947 24.3085 40.177 26.7065C40.4018 29.0524 40.6244 31.3992 40.8491 33.7461C40.893 34.1994 40.9347 34.6537 40.9893 35.106C41.0257 35.4089 40.9893 35.6846 40.7207 35.8757C40.4489 36.07 40.1685 36.0042 39.8902 35.8726C37.2962 34.6537 34.7 33.439 32.1102 32.2129C31.8619 32.0959 31.6543 32.0792 31.3953 32.1721C27.943 33.4077 24.4842 34.6307 21.0319 35.8674C20.6712 35.9969 20.3502 35.9979 19.9895 35.8684C16.5383 34.6297 13.0816 33.4056 9.62931 32.169C9.36819 32.075 9.16058 32.098 8.91337 32.2139C6.34605 33.4275 3.77339 34.6297 1.20179 35.8339C0.59822 36.1159 0.369206 36.0543 0.00214032 35.5206C0.00214032 35.3378 0.00214032 35.1561 0.00214032 34.9733L0 34.9744ZM9.84548 11.185C9.7588 11.1975 9.71599 11.1923 9.68282 11.209C7.63774 12.2503 5.59159 13.2896 3.554 14.3444C3.44699 14.3998 3.36673 14.5836 3.35174 14.7152C3.18908 16.2433 3.03819 17.7723 2.8905 19.3024C2.46137 23.7487 2.03438 28.1949 1.60952 32.6411C1.56029 33.1529 1.52284 33.6646 1.47682 34.2182C1.58598 34.1858 1.63735 34.1764 1.68229 34.1555C3.90609 33.1142 6.12988 32.076 8.34618 31.0211C8.46497 30.9647 8.5752 30.7726 8.58483 30.6368C8.7796 27.8168 8.95832 24.9957 9.14131 22.1757C9.29007 19.8748 9.44203 17.5749 9.59078 15.274C9.67747 13.9235 9.75987 12.5731 9.84548 11.185ZM39.5114 34.237C39.5114 34.0772 39.5189 33.9863 39.5103 33.8975C39.2171 30.8248 38.9217 27.7531 38.6264 24.6813C38.3085 21.3757 37.9875 18.071 37.6804 14.7643C37.6568 14.5105 37.568 14.3758 37.339 14.2599C35.4084 13.2875 33.4832 12.3015 31.5569 11.3218C31.4445 11.2644 31.3268 11.2184 31.1684 11.1474C31.2016 11.7271 31.2284 12.2451 31.2615 12.7632C31.4638 15.8829 31.6693 19.0016 31.8715 22.1214C32.0545 24.9414 32.2386 27.7625 32.4088 30.5835C32.4248 30.8425 32.519 30.97 32.7555 31.0775C34.0108 31.652 35.2565 32.2452 36.5064 32.8312C37.4888 33.2918 38.4723 33.7503 39.5114 34.237Z" fill="white"/>
<path d="M13.6946 6.49751C13.6967 3.38819 15.9023 0.82825 19.0871 0.152493C22.4806 -0.567132 25.9575 1.33585 27.0084 4.51828C27.5863 6.26877 27.414 7.966 26.4498 9.55669C24.7055 12.4341 22.945 15.3022 21.1889 18.1713C20.7844 18.8314 20.2365 18.8377 19.8373 18.1859C18.0726 15.3053 16.31 12.4237 14.5518 9.53894C13.9664 8.57805 13.6721 7.53569 13.6956 6.49751H13.6946ZM20.4922 16.7049C20.5725 16.5994 20.6153 16.5524 20.6485 16.4991C22.2195 13.9298 23.7958 11.3625 25.3583 8.78798C25.9458 7.81978 26.1138 6.75549 25.918 5.65986C25.4663 3.13648 23.2982 1.36196 20.6142 1.32958C18.5017 1.30452 16.8173 2.15574 15.7407 3.93861C14.6866 5.68493 14.7968 7.45318 15.8852 9.18383C16.8965 10.7912 17.8714 12.4206 18.8613 14.0405C19.3932 14.9105 19.9261 15.7806 20.4922 16.7049Z" fill="white"/>
<path d="M20.563 9.98388C18.6934 10.0277 17.1395 8.55508 17.1032 6.70223C17.0678 4.9016 18.5661 3.39969 20.4517 3.34433C22.3031 3.29002 23.873 4.78149 23.9104 6.63225C23.9479 8.43497 22.4454 9.93897 20.563 9.98388ZM22.5749 6.67299C22.5781 5.57736 21.6342 4.65303 20.5105 4.64989C19.3879 4.64676 18.4409 5.56587 18.4366 6.66359C18.4323 7.75921 19.3751 8.68355 20.5009 8.68668C21.6235 8.68981 22.5717 7.76861 22.5749 6.67299Z" fill="white"/>
</g>
<defs>
<clipPath id="clip0_2256_531">
<rect width="41" height="36" fill="white"/>
</clipPath>
</defs>
</svg>
