<svg width="30" height="28" viewBox="0 0 35 33" fill="none" xmlns="http://www.w3.org/2000/svg">
<g clip-path="url(#clip0_2256_538)">
<path d="M16.5947 19.204C15.4851 20.2659 14.3836 21.3163 13.2911 22.3757C13.2228 22.4418 13.1937 22.5827 13.2049 22.6828C13.2575 23.1491 13.0971 23.5229 12.7579 23.8524C9.91699 26.6112 7.08202 29.3759 4.24221 32.1359C3.62544 32.7351 2.92025 32.7355 2.30087 32.141C1.6744 31.5399 1.05241 30.9338 0.435267 30.3237C-0.153889 29.7415 -0.14568 29.053 0.456162 28.4668C3.29187 25.7028 6.13131 22.9425 8.96516 20.1771C9.30395 19.8462 9.69274 19.6941 10.1733 19.7458C10.267 19.7559 10.3987 19.7364 10.4606 19.6783C11.5781 18.6286 12.6874 17.571 13.8583 16.4581C13.0523 15.6967 12.3053 14.9833 11.5438 14.2851C11.4774 14.2244 11.3005 14.2302 11.1942 14.263C8.21295 15.1874 5.59141 14.5849 3.51574 12.3364C1.5897 10.25 1.21509 7.79926 2.24079 5.17112C2.44788 4.64087 2.89189 4.56285 3.31389 4.97029C4.37429 5.99503 5.42836 7.02628 6.48317 8.05644C6.59324 8.16372 6.69286 8.28111 6.76338 8.35732C7.44693 7.71401 8.10064 7.09888 8.7827 6.45738C8.71815 6.39092 8.63234 6.29845 8.54204 6.21031C7.42567 5.1238 6.3078 4.03874 5.1918 2.95187C4.69853 2.47146 4.75413 2.12398 5.37127 1.79998C9.66364 -0.451779 15.1257 2.31578 15.6809 7.01508C15.8127 8.1294 15.6966 9.20471 15.3127 10.2602C15.2761 10.3602 15.2742 10.5343 15.3373 10.5968C16.063 11.3145 16.8048 12.0174 17.5671 12.7481C17.66 12.6647 17.7566 12.5831 17.8469 12.4953C19.2454 11.1357 20.6557 9.7877 22.0311 8.40681C22.3848 8.05174 22.6822 7.61866 22.9086 7.17546C23.4191 6.17708 23.2265 5.30368 22.393 4.5354C21.5699 3.77686 20.5599 3.33258 19.5069 2.97318C19.0413 2.81425 18.5614 2.69252 18.0827 2.57369C17.8029 2.50433 17.585 2.392 17.5271 2.09653C17.4686 1.79854 17.6353 1.60818 17.8697 1.45611C20.1931 -0.0512015 22.693 -0.436609 25.3168 0.530702C27.8017 1.44708 29.7282 3.07323 31.0576 5.30332C31.4165 5.90545 31.568 6.62751 31.7833 7.30368C31.8445 7.49585 31.8982 7.62696 32.1042 7.71149C32.6706 7.94338 33.228 8.19731 33.7847 8.45124C34.9474 8.98149 35.1578 10.0658 34.2627 10.958C33.547 11.6714 32.8213 12.375 32.0885 13.0721C31.202 13.9156 30.0759 13.7227 29.5431 12.6373C29.248 12.0362 28.9524 11.4334 28.7002 10.8146C28.4801 10.2742 28.0502 10.0749 27.5141 10.0604C26.5361 10.0337 25.6578 10.3877 24.9754 11.0176C23.4374 12.4386 21.965 13.9264 20.467 15.3878C20.4345 15.4193 20.4106 15.4586 20.3289 15.5634C21.3833 16.5589 22.4493 17.5439 23.4911 18.5527C26.4208 21.3911 29.333 24.2468 32.2676 27.0808C33.8843 28.642 33.0221 30.9154 31.1796 31.4767C30.1479 31.791 29.2506 31.5042 28.498 30.7731C26.5962 28.9248 24.6978 27.0732 22.7975 25.2235C20.7949 23.2744 18.792 21.3257 16.7884 19.377C16.7216 19.312 16.6492 19.2528 16.5943 19.2044L16.5947 19.204ZM6.4313 2.55021C6.56264 2.68313 6.65219 2.77668 6.7451 2.86699C7.80923 3.90365 8.87524 4.9385 9.93788 5.97661C10.3252 6.35516 10.3244 6.61595 9.93863 6.99341C9.08941 7.8249 8.23832 8.65423 7.38537 9.48212C6.97979 9.87583 6.72159 9.87475 6.31265 9.47779C5.33172 8.52601 4.35153 7.57314 3.37657 6.61559C3.28516 6.52564 3.23255 6.3985 3.16203 6.28869C3.03666 6.44726 3.00196 6.52203 2.98629 6.60041C2.69712 8.04632 2.91539 9.4171 3.68178 10.6904C5.20784 13.2253 8.35138 14.2161 11.1569 13.0602C11.6322 12.8645 11.7527 12.8854 12.1169 13.2379C12.5441 13.6512 12.9691 14.0666 13.3952 14.4805C13.7937 14.8681 14.1929 15.2549 14.5463 15.5981C15.2783 14.9064 15.9843 14.2388 16.7063 13.5565C16.6305 13.4771 16.5533 13.3904 16.4701 13.3091C15.7477 12.6033 15.0231 11.899 14.3011 11.1928C13.8799 10.781 13.8627 10.6925 14.09 10.1764C15.2399 7.56231 14.3015 4.5614 11.8221 3.03892C10.1435 2.0084 8.35548 1.8538 6.4313 2.54948V2.55021ZM17.4096 18.3725C17.4965 18.461 17.5764 18.5462 17.66 18.6275C19.8132 20.7258 21.9661 22.824 24.1205 24.9208C25.8574 26.6116 27.5973 28.3003 29.3334 29.9921C29.717 30.366 30.1658 30.5556 30.7083 30.439C31.3135 30.3089 31.7102 29.9228 31.8967 29.3676C32.0922 28.7872 31.8792 28.2988 31.443 27.8751C27.5402 24.0817 23.6415 20.2844 19.7409 16.4888C19.6767 16.4263 19.6073 16.3692 19.561 16.3277C18.8338 17.0187 18.1282 17.6891 17.4096 18.3718V18.3725ZM24.8063 9.73171C24.8828 9.69054 24.9974 9.62588 25.1145 9.56664C25.8835 9.17798 26.6839 8.87349 27.5674 8.93814C28.5521 9.01038 29.3562 9.36762 29.7487 10.3418C29.9893 10.9396 30.286 11.5161 30.5632 12.0998C30.7751 12.5455 30.9542 12.5798 31.3124 12.2352C32.0068 11.5674 32.6956 10.8941 33.3836 10.2201C33.7802 9.83177 33.7444 9.66525 33.2183 9.43191C32.5165 9.12055 31.8143 8.80955 31.1098 8.50397C30.8315 8.38333 30.7061 8.19911 30.658 7.89209C30.5718 7.34414 30.4878 6.77452 30.2647 6.27172C29.6379 4.85868 28.5312 3.80901 27.2965 2.88468C25.6212 1.63058 23.7646 0.922972 21.6027 1.20869C20.9147 1.29971 20.2494 1.46948 19.5838 1.80504C19.789 1.87728 19.9367 1.92713 20.0826 1.98058C21.3572 2.44907 22.5743 3.01255 23.4896 4.03404C24.3653 5.01147 24.5854 6.12109 24.1045 7.3333C23.9414 7.74436 23.7082 8.12904 23.5075 8.52456C23.9235 8.91105 24.3481 9.30585 24.806 9.73135L24.8063 9.73171ZM12.0482 22.9493C11.2994 22.2345 10.6002 21.567 10.005 20.9988C7.07978 23.779 4.12057 26.591 1.17367 29.3915C1.89529 30.0799 2.59638 30.7492 3.21314 31.338C6.1496 28.5498 9.11068 25.7382 12.0482 22.949V22.9493ZM23.8332 10.5762C23.4112 10.1695 23.0381 9.81009 22.759 9.54136C18.9513 13.1632 15.1153 16.8124 11.2994 20.4422C11.7158 20.837 12.0919 21.1932 12.3811 21.4673C16.1888 17.8462 20.0207 14.202 23.8332 10.5766V10.5762Z" fill="white"/>
<path d="M11.6067 8.52661C11.6123 8.21995 11.3582 7.96711 11.0385 7.96205C10.7209 7.95663 10.4564 8.20406 10.4527 8.51C10.4486 8.81811 10.7012 9.06806 11.0213 9.0724C11.3429 9.07673 11.6015 8.83581 11.6071 8.52661H11.6067ZM12.6283 7.50585C12.6231 7.19268 12.3712 6.96006 12.0436 6.96656C11.7228 6.9727 11.4672 7.22627 11.4761 7.52932C11.4851 7.82443 11.7672 8.0863 12.0686 8.07908C12.3806 8.07149 12.6335 7.81251 12.6283 7.50585ZM9.55531 10.514C9.55009 10.2084 9.29114 9.97216 8.96503 9.97577C8.63408 9.97939 8.40088 10.2116 8.40647 10.5324C8.41207 10.8448 8.66803 11.0887 8.98369 11.0821C9.29114 11.076 9.56053 10.808 9.55568 10.514H9.55531ZM10.006 8.97523C9.67508 8.97415 9.43106 9.20424 9.43031 9.51885C9.42919 9.82732 9.68068 10.0719 10.0001 10.0733C10.3176 10.0744 10.5803 9.82804 10.5836 9.52499C10.587 9.22338 10.3277 8.97632 10.006 8.97559V8.97523ZM7.96358 12.0823C8.27887 12.0733 8.52624 11.8172 8.51841 11.508C8.51057 11.1995 8.25014 10.9604 7.93075 10.9691C7.60725 10.9778 7.36957 11.223 7.37815 11.5391C7.38674 11.8468 7.65016 12.0914 7.96358 12.0823Z" fill="white"/>
<path d="M11.6066 8.52669C11.601 8.83588 11.3425 9.07681 11.0208 9.07247C10.7007 9.06814 10.4481 8.81818 10.4522 8.51007C10.4563 8.20413 10.7205 7.95671 11.038 7.96212C11.3578 7.96754 11.6122 8.22002 11.6063 8.52669H11.6066Z" fill="white"/>
<path d="M12.628 7.50585C12.6329 7.81251 12.3803 8.07149 12.0683 8.07908C11.7668 8.0863 11.4848 7.82443 11.4758 7.52932C11.4669 7.22627 11.7224 6.97307 12.0433 6.96656C12.3709 6.96006 12.6232 7.19268 12.628 7.50585Z" fill="white"/>
<path d="M9.55556 10.5139C9.56078 10.8083 9.29102 11.076 8.98357 11.0821C8.66791 11.0886 8.41195 10.8448 8.40635 10.5324C8.40075 10.2116 8.63395 9.97899 8.96491 9.97574C9.29102 9.97249 9.54996 10.2084 9.55518 10.5139H9.55556Z" fill="white"/>
<path d="M10.0064 8.97522C10.328 8.9763 10.5873 9.223 10.584 9.52461C10.5806 9.82766 10.3179 10.074 10.0004 10.0729C9.68103 10.0718 9.42955 9.8273 9.43067 9.51847C9.43179 9.20386 9.67543 8.97413 10.0064 8.97486V8.97522Z" fill="white"/>
<path d="M7.96358 12.0823C7.64979 12.0914 7.38636 11.8468 7.37815 11.5391C7.36957 11.223 7.60725 10.9778 7.93075 10.9691C8.25014 10.9604 8.51057 11.1996 8.51841 11.508C8.52624 11.8172 8.27887 12.0733 7.96358 12.0823Z" fill="white"/>
<path d="M28.5163 4.94197C28.4025 5.08609 28.3133 5.31076 28.1607 5.3635C27.976 5.42707 27.6783 5.42021 27.5331 5.31257C27.0287 4.93836 26.5634 4.51358 26.0955 4.09567C25.8552 3.88111 25.8433 3.56866 26.0492 3.34183C26.2604 3.10885 26.5455 3.04167 26.7899 3.23202C27.3227 3.64705 27.8271 4.09639 28.3301 4.54573C28.417 4.62375 28.4387 4.77004 28.5163 4.94197Z" fill="white"/>
<path d="M24.0461 1.85229C24.5065 2.03795 24.8972 2.1604 25.2498 2.34895C25.496 2.48079 25.5315 2.75134 25.4203 2.99949C25.2998 3.26859 25.0576 3.38598 24.7699 3.3094C24.4479 3.22343 24.13 3.10857 23.8285 2.96914C23.573 2.85103 23.4506 2.6018 23.5711 2.35546C23.6655 2.16293 23.8771 2.02423 24.0457 1.85229H24.0461Z" fill="white"/>
</g>
<defs>
<clipPath id="clip0_2256_538">
<rect width="34.8173" height="32.5859" fill="white"/>
</clipPath>
</defs>
</svg>
