<svg viewBox="0 0 335 83" fill="none" xmlns="http://www.w3.org/2000/svg">
<path d="M86.6758 32.9015H88.1412V55.1445H86.6758V32.9015Z" fill="white"/>
<path d="M107.34 32.5784H107.536L123.092 51.8954L124.003 53.1316L123.775 51.344L123.709 32.8719H125.142V55.1801H124.297L122.639 53.4903L109.458 37.1972L108.58 35.6022L108.711 37.1616V55.1446H107.343V32.5754L107.34 32.5784Z" fill="white"/>
<path d="M144.273 32.9015H158.331V34.2355H145.738V43.0165H155.338V44.2854H145.738V55.1475H144.273V32.9045V32.9015Z" fill="white"/>
<path d="M175.317 32.9015H176.783V55.1445H175.317V32.9015Z" fill="white"/>
<path d="M195.982 32.5784H196.178L211.734 51.8954L212.645 53.1316L212.416 51.344L212.351 32.8719H213.784V55.1801H212.938L211.28 53.4903L198.1 37.1972L197.222 35.6022L197.352 37.1616V55.1446H195.985V32.5754L195.982 32.5784Z" fill="white"/>
<path d="M232.951 32.9015H234.416V55.1445H232.951V32.9015Z" fill="white"/>
<path d="M259.21 34.2355H251.399V32.9015H268.45V34.2355H260.672V55.1445H259.207V34.2355H259.21Z" fill="white"/>
<path d="M298.682 32.8689H296.991L290.954 43.8703L284.917 32.8689H283.227L286.935 39.4294L290.287 45.4238V55.1475H291.622V45.4238L294.971 39.4383L298.682 32.8689Z" fill="white"/>
<path d="M41.4035 25.5464C34.9841 25.5464 29.3685 24.7401 24.7081 23.6491C10.0596 20.2132 1.41229 13.2791 1.32626 13.211L0.335449 12.4046H1.61401C2.38233 12.3987 43.6462 12.3038 85.5597 12.2682C111.306 -1.85488 132.89 -1.0841 146.491 2.06721C161.306 5.50016 170.12 12.4313 170.206 12.5024L171.244 13.3295L169.915 13.3117C158.369 13.1606 121.864 13.1487 85.7941 13.1783C85.7496 13.2021 85.7021 13.2287 85.6576 13.2554C68.6923 22.6382 53.5988 25.5435 41.4065 25.5435L41.4035 25.5464ZM2.99639 13.3088C5.72853 15.2239 13.4681 20.0857 24.9662 22.7687C38.0751 25.831 58.8554 26.5989 83.8896 13.1783C46.6987 13.211 10.4512 13.291 2.99936 13.3058L2.99639 13.3088ZM115.118 12.2534C138.743 12.2534 159.268 12.286 168.491 12.3838C165.679 10.4539 157.823 5.61874 146.242 2.94176C133.071 -0.099871 112.303 -0.879548 87.485 12.2653C96.8413 12.2593 106.204 12.2534 115.121 12.2534H115.118Z" fill="white"/>
<path d="M87.3664 12.0847C87.3664 12.0847 86.1858 12.0847 85.4323 12.0758C43.5187 12.1114 2.25485 12.2062 1.48653 12.2092H0.210938L1.20175 13.0185C1.28777 13.0867 9.93509 20.0208 24.5866 23.4537C29.247 24.5447 34.8596 25.3511 41.282 25.3511C53.4713 25.3511 68.5678 22.4428 85.5331 13.063C85.5776 13.0393 87.3694 12.0847 87.3694 12.0847H87.3664ZM13.8034 15.4109C13.8034 15.4109 46.325 14.7469 83.7622 12.9889C44.3345 30.9303 13.8034 15.4109 13.8034 15.4109Z" fill="white"/>
<path d="M94.1842 71.0137C94.4809 71.4791 94.6292 72.0009 94.6292 72.5819C94.6292 73.2371 94.4453 73.8241 94.0833 74.3399C93.7185 74.8587 93.1934 75.2263 92.5052 75.4486C92.0513 75.5969 91.4313 75.671 90.6481 75.671C89.5268 75.671 88.7348 75.6443 88.269 75.5909L87.4443 75.4961V64.4946H90.9329C91.4194 64.4946 91.8525 64.5628 92.2323 64.7021C92.8345 64.9126 93.3032 65.2506 93.6354 65.716C93.9676 66.1815 94.1338 66.7299 94.1338 67.3643C94.1338 67.8505 94.0359 68.2774 93.8401 68.648C93.6443 69.0185 93.3417 69.3031 92.9294 69.5047C92.8226 69.5581 92.6654 69.6144 92.4547 69.6796C92.7188 69.7419 92.8878 69.7952 92.962 69.8397C93.4811 70.1569 93.8876 70.5482 94.1842 71.0137ZM88.3936 65.387V69.3328H90.9151C91.5915 69.3328 92.1403 69.1579 92.5556 68.811C92.9739 68.4612 93.1815 67.9602 93.1815 67.305C93.1815 66.724 93.0035 66.2734 92.6505 65.9502C92.2975 65.6271 91.7962 65.4403 91.1524 65.387H88.3936ZM92.9145 74.2302C93.4218 73.8507 93.6769 73.2993 93.6769 72.5819C93.6769 71.8645 93.4455 71.3131 92.9798 70.8714C92.5141 70.4267 91.8644 70.2073 91.0279 70.2073H88.3936V74.7253L89.7404 74.7727L90.8024 74.8053C91.7013 74.8053 92.4043 74.6156 92.9116 74.2332L92.9145 74.2302Z" fill="white"/>
<path d="M100.274 64.6725H101.227V74.6274H106.73V75.5138H100.274V64.6725Z" fill="white"/>
<path d="M113.71 75.1018C113.095 74.7223 112.621 74.1976 112.283 73.5335C111.944 72.8665 111.775 72.1165 111.775 71.2834V64.6725H112.728V71.2834C112.728 71.992 112.861 72.6086 113.131 73.1392C113.401 73.6669 113.775 74.076 114.258 74.3666C114.739 74.6571 115.276 74.8023 115.869 74.8023C116.462 74.8023 117.011 74.6571 117.486 74.3666C117.961 74.076 118.331 73.664 118.595 73.1303C118.859 72.5967 118.993 71.9801 118.993 71.2834V64.6725H119.945V71.2834C119.945 72.1609 119.767 72.9317 119.414 73.5958C119.058 74.2628 118.572 74.7757 117.946 75.1344C117.323 75.4931 116.62 75.6739 115.837 75.6739C115.053 75.6739 114.324 75.4842 113.713 75.1018H113.71Z" fill="white"/>
<path d="M126.032 64.6724H132.995V65.5588H126.982V69.3297H131.408V70.2161H126.982V74.6215H133.309V75.5079H126.029V64.6665L126.032 64.6724Z" fill="white"/>
<path d="M331.642 57.7948V64.8208L334.436 62.0282V55.0022L331.642 57.7948Z" fill="white"/>
<path d="M326.682 54.691L323.888 57.4836H331.331L334.125 54.691H326.682Z" fill="white"/>
<path d="M306.269 60.0538C304.107 60.0538 302.182 60.8009 300.725 62.1942C299.271 63.6083 298.485 65.5323 298.485 67.6757C298.485 69.8191 299.271 71.7608 300.725 73.1749C302.14 74.589 304.107 75.3568 306.269 75.3568C308.432 75.3568 310.357 74.592 311.814 73.1749C313.267 71.7608 314.036 69.8368 314.036 67.6757C314.036 65.5145 313.25 63.6083 311.796 62.1942C310.381 60.8009 308.435 60.0538 306.272 60.0538H306.269ZM309.868 71.3488C308.945 72.2915 307.684 72.8014 306.269 72.8014C304.854 72.8014 303.576 72.2915 302.653 71.3488C301.749 70.4268 301.259 69.1283 301.259 67.7142C301.259 66.3001 301.751 64.9839 302.653 64.0619C303.576 63.1192 304.816 62.6093 306.269 62.6093C307.723 62.6093 308.942 63.1192 309.868 64.0619C310.773 64.9839 311.262 66.2616 311.262 67.7142C311.262 69.1669 310.77 70.406 309.868 71.3488Z" fill="white"/>
<path d="M329.459 75.1019L325.463 69.5019C327.536 68.909 328.996 67.4504 328.996 65.0225V64.981C328.996 61.0826 325.463 60.3088 323.496 60.3088H316.691C316.391 60.3088 316.231 60.4689 316.231 60.7683V75.0397H318.895V62.5649H323.285C325.213 62.5649 326.353 63.5402 326.353 65.1233V65.1648C326.353 66.6648 325.169 67.6105 323.306 67.6105H321.031L326.391 75.096H329.459V75.1019Z" fill="white"/>
<path d="M280.618 65.7101C280.669 65.6005 280.793 64.9957 281.001 64.6814C281.122 64.4384 281.262 64.2101 281.401 64.053C281.419 64.0352 281.455 64.0174 281.487 63.9996C281.523 63.9818 281.541 63.9818 281.573 63.9818C281.627 63.9818 281.659 63.9996 281.713 64.0352L281.731 64.053C281.766 64.0707 281.784 64.1063 281.784 64.1389C281.802 64.1567 281.802 64.1745 281.802 64.2071C281.802 64.2397 281.784 64.2753 281.766 64.3109C281.748 64.382 281.731 64.4502 281.698 64.5036C281.28 65.4433 280.965 66.8722 280.758 68.3367C280.496 70.1481 280.357 71.9772 280.339 73.0237C280.393 72.9199 280.461 72.7984 280.514 72.6739C281.001 71.7519 281.751 70.9841 282.431 70.6698C282.656 70.5483 282.902 70.4771 283.11 70.4771C283.146 70.4771 283.196 70.4949 283.232 70.4949C283.51 70.5483 283.739 70.6876 283.893 70.9841C284.05 71.2272 284.119 71.5948 284.119 72.081V72.3418C285.148 71.7667 286.21 71.4021 286.943 71.3487H286.978C287.082 71.3487 287.171 71.4525 287.171 71.5562V71.5918C287.171 71.6956 287.085 71.7845 286.963 71.8023C286.302 71.8379 285.308 72.1847 284.314 72.7421L284.053 72.8992C284.053 72.9525 284.053 73.0029 284.036 73.0563C284 73.2816 283.949 73.4921 283.896 73.7174C283.843 73.9279 283.792 74.1532 283.721 74.3637C283.267 75.7066 282.362 76.6108 281.68 76.9428C281.523 77.011 281.383 77.0644 281.244 77.0822C281.226 77.0999 281.208 77.0999 281.191 77.0999C281.087 77.0999 280.998 77.0999 280.912 77.0822C280.686 77.014 280.529 76.8391 280.529 76.5248V76.4715C280.529 76.0535 280.861 75.3212 281.734 74.2599C282.134 73.7381 282.674 73.2846 283.267 72.8666C283.321 72.5701 283.338 72.2914 283.338 72.0306C283.338 71.7697 283.321 71.5236 283.252 71.3339C283.166 71.073 283.095 70.9515 282.956 70.9515C282.887 70.9515 282.763 71.0048 282.623 71.073C282.012 71.3517 281.351 72.0483 280.915 72.8844C280.722 73.2312 280.583 73.581 280.461 73.8419C280.286 74.2599 280.182 74.5208 279.971 74.5208C279.954 74.5208 279.918 74.5208 279.885 74.503C279.746 74.4496 279.678 74.2243 279.678 73.753C279.678 73.3883 279.678 72.831 279.713 72.0098C279.731 70.9485 279.939 68.734 280.324 66.9049C280.41 66.4691 280.517 66.0689 280.621 65.7013L280.618 65.7101ZM281.926 76.0416C282.413 75.4487 282.834 74.5593 283.077 73.6729C283.095 73.6196 283.113 73.587 283.131 73.5336C282.73 73.8478 282.38 74.1799 282.084 74.5445C281.283 75.5198 280.986 76.1483 280.968 76.4952C280.968 76.5811 281.004 76.6345 281.036 76.6523H281.09C281.351 76.6523 281.805 76.1987 281.926 76.0416Z" fill="white"/>
<path d="M287.711 82.4716C286.803 82.4716 286.177 81.8965 286.088 80.9716L286.07 80.7463C286.07 80.2927 286.192 79.7709 286.471 79.1602C287.132 77.6602 288.755 75.7095 291.79 73.4268L292.19 73.1481C292.172 72.2588 292.086 71.4583 291.894 71.0048C291.825 70.8476 291.736 70.7617 291.615 70.7617C291.404 70.7617 291.075 71.0759 290.621 71.823C289.295 73.9308 288.337 74.8735 287.693 75.1166C287.554 75.1699 287.414 75.2026 287.293 75.2026C287.1 75.2026 286.942 75.1344 286.803 75.0099C286.61 74.835 286.471 74.5385 286.42 74.1916C286.385 74.0167 286.367 73.8092 286.367 73.5987C286.367 73.0592 286.471 72.4129 286.699 71.8734C286.613 71.8378 286.542 71.7518 286.542 71.6658L286.56 71.6125C286.646 71.3872 286.767 71.0729 286.907 70.9158C286.975 70.8476 287.046 70.7765 287.117 70.7587L287.153 70.7409L287.239 70.7231C287.325 70.7231 287.414 70.7587 287.5 70.8447C287.568 70.9306 287.622 71.07 287.657 71.2805V71.3842C287.343 72.3951 287.186 73.2845 287.186 73.91C287.186 74.1709 287.221 74.3636 287.272 74.5207C287.325 74.6245 287.376 74.6778 287.447 74.7134H287.482C287.5 74.7134 287.518 74.7134 287.536 74.6956C288.111 74.4881 288.983 73.6165 290.22 71.6125C290.274 71.5591 290.238 71.5769 290.289 71.5087C290.707 70.8298 291.057 70.4296 291.368 70.2547C291.49 70.1688 291.63 70.1332 291.751 70.1332C291.891 70.1332 292.012 70.1688 292.116 70.2547C292.309 70.3763 292.448 70.6016 292.552 70.9158C292.727 71.3694 292.813 71.9949 292.867 72.6768L293.774 72.1194C294.368 71.7874 294.907 71.5265 295.308 71.4228L295.361 71.405C295.465 71.405 295.554 71.4732 295.587 71.5799V71.6481C295.587 71.734 295.519 71.823 295.43 71.8556C295.065 71.9416 294.557 72.1876 294 72.5167C293.635 72.7242 293.267 72.9525 292.884 73.2133C292.902 73.4564 292.902 73.7025 292.902 73.9456V74.0671C292.884 75.5998 292.57 77.675 291.787 79.3826C290.986 81.1079 289.695 82.4657 287.758 82.4657H287.705L287.711 82.4716ZM288.826 81.6356C289.784 81.182 290.517 80.2957 291.057 79.2492C291.894 77.5949 292.208 75.6769 292.208 74.1442V73.6906L292.069 73.7944C289.087 76.0237 287.518 77.9062 286.871 79.3351C286.628 79.8747 286.524 80.3283 286.524 80.7107L286.542 80.936C286.578 81.3184 286.735 81.6149 286.978 81.7898C287.135 81.9291 287.361 81.9825 287.589 81.9825C288.007 81.9825 288.497 81.7898 288.826 81.6327V81.6356Z" fill="white"/>
</svg>
