<?xml version="1.0" encoding="UTF-8"?>
<svg id="Camada_2" xmlns="http://www.w3.org/2000/svg" viewBox="0 0 999.38 251.7">
  <defs>
    <style>
      .cls-1 {
        fill: #FFFFFF;
      }
    </style>
  </defs>
  <g id="Camada_1-2" data-name="Camada_1">
    <g>
      <path class="cls-1" d="M6.07,130.79c.51.41,52.04,40.59,138.65,60.49,79.51,18.27,205.72,22.74,356.26-59.14,3.39,0,6.78,0,10.16,0,.31,0,.61,0,.9,0,239.67-.21,475.63-.75,480.02-.76l7.31-.02-5.66-4.61c-.43-.35-39.29-31.48-106.37-52.23-.36-.11-.73-.22-1.09-.33-1.37-.42-2.74-.84-4.13-1.25-8.08-2.42-16.52-4.7-25.36-6.75-27.24-6.33-60.07-11-97.61-11-71.28,0-159.53,16.86-258.73,71.24-.26.14-.54.29-.8.44-210.9.17-424.34.11-491.84-.77l-7.77-.1,6.07,4.8ZM921.64,113.08s-184.92,3.77-398.23,13.76c-.54,0-1.08,0-1.62,0,225.37-102.46,399.85-13.76,399.85-13.76ZM328.16,132.22c52.14,0,106.88-.03,161.58-.07-145.11,76.2-266.54,71.68-343.55,54.05-67.72-15.51-113.66-43.54-130.09-54.73,53.91.56,173.93.75,312.06.75Z"/>
      <g>
        <g>
          <polygon class="cls-1" points="921.58 168.97 921.58 192.51 930.93 183.15 930.93 159.61 921.58 168.97"/>
          <polygon class="cls-1" points="905.02 158.61 895.66 167.97 920.58 167.97 929.94 158.61 905.02 158.61"/>
          <g>
            <path class="cls-1" d="M836.62,176.58c-7.24,0-13.69,2.5-18.56,7.17-4.87,4.74-7.5,11.19-7.5,18.36s2.63,13.69,7.5,18.43c4.74,4.74,11.32,7.31,18.56,7.31s13.69-2.57,18.56-7.31c4.87-4.74,7.44-11.19,7.44-18.43s-2.63-13.62-7.5-18.36c-4.74-4.67-11.26-7.17-18.5-7.17ZM848.66,214.43c-3.09,3.16-7.31,4.87-12.05,4.87s-9.02-1.71-12.11-4.87c-3.03-3.09-4.67-7.44-4.67-12.18s1.65-9.15,4.67-12.24c3.09-3.16,7.24-4.87,12.11-4.87s8.95,1.71,12.05,4.87c3.03,3.09,4.67,7.37,4.67,12.24s-1.65,9.02-4.67,12.18Z"/>
            <path class="cls-1" d="M914.27,227l-13.38-18.77c6.94-1.98,11.83-6.87,11.83-15.01v-.14c0-13.06-11.83-15.65-18.41-15.65h-22.79c-1,0-1.54.54-1.54,1.54v47.82h8.92v-41.8h14.7c6.45,0,10.27,3.27,10.27,8.58v.14c0,5.03-3.97,8.2-10.2,8.2h-7.62s17.95,25.09,17.95,25.09h10.27Z"/>
          </g>
        </g>
        <g>
          <path class="cls-1" d="M750.72,195.54c.17-.37.58-2.39,1.28-3.44.41-.82.88-1.58,1.34-2.1.06-.06.17-.12.29-.17.12-.06.18-.06.29-.06.18,0,.29.06.47.18l.06.06c.12.06.17.18.17.29.06.06.06.12.06.23s-.06.23-.12.35c-.06.23-.12.47-.23.64-1.4,3.15-2.45,7.94-3.15,12.84-.88,6.07-1.34,12.2-1.4,15.71.18-.35.41-.76.58-1.17,1.63-3.09,4.14-5.66,6.42-6.71.76-.41,1.58-.64,2.28-.64.12,0,.29.06.41.06.93.18,1.69.64,2.22,1.63.52.82.76,2.04.76,3.68v.88c3.44-1.93,7.01-3.15,9.46-3.33h.12c.35,0,.64.35.64.7v.12c0,.35-.29.64-.7.7-2.22.12-5.55,1.28-8.87,3.15l-.88.52c0,.18,0,.35-.06.53-.12.76-.29,1.46-.47,2.22-.18.7-.35,1.46-.58,2.16-1.52,4.5-4.55,7.53-6.83,8.64-.53.23-.99.41-1.46.47-.06.06-.12.06-.18.06-.35,0-.64,0-.93-.06-.76-.23-1.28-.82-1.28-1.87v-.18c0-1.4,1.11-3.85,4.03-7.41,1.34-1.75,3.15-3.27,5.14-4.67.18-.99.23-1.93.23-2.8s-.06-1.69-.29-2.34c-.29-.88-.53-1.28-.99-1.28-.23,0-.64.17-1.11.41-2.04.93-4.26,3.27-5.72,6.07-.64,1.17-1.11,2.34-1.52,3.21-.58,1.4-.93,2.28-1.63,2.28-.06,0-.18,0-.29-.06-.47-.17-.7-.93-.7-2.51,0-1.23,0-3.09.12-5.84.06-3.56.76-10.98,2.04-17.11.29-1.46.64-2.8.99-4.03ZM755.1,230.16c1.63-1.98,3.04-4.96,3.85-7.94.06-.18.12-.29.17-.47-1.34,1.05-2.51,2.16-3.5,3.39-2.69,3.27-3.68,5.37-3.74,6.54,0,.29.12.47.23.53h.18c.88,0,2.39-1.52,2.8-2.04Z"/>
          <path class="cls-1" d="M774.48,251.7c-3.04,0-5.14-1.93-5.43-5.02l-.06-.76c0-1.52.41-3.27,1.34-5.31,2.22-5.02,7.65-11.56,17.81-19.21l1.34-.93c-.06-2.98-.35-5.66-.99-7.18-.23-.52-.53-.82-.93-.82-.7,0-1.81,1.05-3.33,3.56-4.44,7.07-7.65,10.22-9.81,11.04-.47.17-.93.29-1.34.29-.64,0-1.17-.23-1.63-.64-.64-.58-1.11-1.58-1.28-2.74-.12-.58-.17-1.28-.17-1.98,0-1.81.35-3.97,1.11-5.78-.29-.12-.53-.41-.53-.7l.06-.18c.29-.76.7-1.81,1.17-2.34.23-.23.47-.47.7-.53l.12-.06.29-.06c.29,0,.58.12.88.41.23.29.41.76.53,1.46v.35c-1.05,3.39-1.58,6.36-1.58,8.47,0,.88.12,1.52.29,2.04.18.35.35.53.58.64h.12c.06,0,.12,0,.17-.06,1.93-.7,4.85-3.62,8.99-10.33.18-.18.06-.12.23-.35,1.4-2.28,2.57-3.62,3.62-4.2.41-.29.88-.41,1.28-.41.47,0,.88.12,1.23.41.64.41,1.11,1.17,1.46,2.22.58,1.52.88,3.62,1.05,5.9l3.04-1.87c1.98-1.11,3.79-1.98,5.14-2.34l.18-.06c.35,0,.64.23.76.58v.23c0,.29-.23.58-.53.7-1.23.29-2.92,1.11-4.79,2.22-1.23.7-2.45,1.46-3.74,2.34.06.82.06,1.63.06,2.45v.41c-.06,5.14-1.11,12.09-3.74,17.81-2.69,5.78-7.01,10.33-13.49,10.33h-.17ZM778.22,248.9c3.21-1.52,5.66-4.49,7.47-8,2.8-5.55,3.85-11.97,3.85-17.11v-1.52l-.47.35c-9.98,7.47-15.24,13.78-17.4,18.57-.82,1.81-1.17,3.33-1.17,4.61l.06.76c.12,1.28.64,2.28,1.46,2.86.53.47,1.28.64,2.04.64,1.4,0,3.04-.64,4.15-1.17Z"/>
        </g>
      </g>
      <g>
        <path class="cls-1" d="M54.38,52.33C54.38,22.2,77.31,0,108.33,0c14.99,0,28.52,5,37.63,14.99l-6.91,6.91c-8.38-8.53-18.67-12.2-30.43-12.2-24.84,0-43.51,18.23-43.51,42.63s18.67,42.63,43.51,42.63c11.76,0,22.05-3.68,30.43-12.35l6.91,6.91c-9.11,10-22.64,15.14-37.78,15.14-30.87,0-53.8-22.2-53.8-52.33Z"/>
        <path class="cls-1" d="M250.48,76.29h-57.33l-12.35,27.49h-11.32L216.52.88h10.73l47.04,102.9h-11.47l-12.35-27.49ZM246.51,67.47l-24.7-55.27-24.7,55.27h49.39Z"/>
        <path class="cls-1" d="M311.75.88h10.88v102.9h-10.88V.88Z"/>
        <path class="cls-1" d="M369.7,91.28l4.26-8.38c7.35,7.2,20.43,12.49,33.96,12.49,19.26,0,27.63-8.08,27.63-18.23,0-28.22-63.36-10.88-63.36-48.95,0-15.14,11.76-28.22,37.92-28.22,11.61,0,23.67,3.38,31.9,9.11l-3.68,8.67c-8.82-5.73-19.11-8.53-28.22-8.53-18.82,0-27.19,8.38-27.19,18.67,0,28.22,63.36,11.17,63.36,48.66,0,15.14-12.05,28.08-38.37,28.08-15.44,0-30.58-5.44-38.22-13.38Z"/>
      </g>
      <g>
        <path class="cls-1" d="M600.25,218.61v6.05h-34.98v-4.73l19.82-19.12c5.15-5.01,6.12-8.07,6.12-11.13,0-5.01-3.55-8.07-10.36-8.07-5.21,0-9.46,1.67-12.45,5.28l-4.73-4.1c3.75-4.66,10.22-7.37,17.8-7.37,10.15,0,16.69,5.22,16.69,13.56,0,4.73-1.39,8.97-8,15.3l-14.88,14.32h24.96Z"/>
        <path class="cls-1" d="M647.74,199.7c0,16.62-9.39,25.52-23.02,25.52-4.59,0-8.97-.9-12.1-2.85l2.64-5.42c2.57,1.67,5.84,2.29,9.39,2.29,9.87,0,16.13-6.19,16.13-18.36v-1.74c-2.85,4.24-8,6.4-14.05,6.4-9.66,0-16.62-5.77-16.62-14.74s7.51-15.37,17.17-15.37c13.07,0,20.44,8.76,20.44,24.27ZM639.19,190.45c0-5.01-4.03-9.39-11.61-9.39-6.33,0-10.71,3.69-10.71,9.46s4.24,9.39,11.06,9.39,11.26-4.1,11.26-9.46Z"/>
        <path class="cls-1" d="M693.98,218.61v6.05h-34.98v-4.73l19.82-19.12c5.15-5.01,6.12-8.07,6.12-11.13,0-5.01-3.55-8.07-10.36-8.07-5.21,0-9.46,1.67-12.45,5.28l-4.73-4.1c3.75-4.66,10.22-7.37,17.8-7.37,10.15,0,16.69,5.22,16.69,13.56,0,4.73-1.39,8.97-8,15.3l-14.88,14.32h24.96Z"/>
      </g>
    </g>
  </g>
</svg>
