<svg width="330" height="80" viewBox="0 0 330 80" fill="none" xmlns="http://www.w3.org/2000/svg">
<path d="M41.3181 25.5774C34.8587 25.5774 29.2105 24.7797 24.5226 23.7006C9.7827 20.3096 1.08339 13.458 0.995546 13.3883L0 12.5935H1.28543C2.05844 12.5877 43.5727 12.4949 85.7429 12.4601C111.645 -1.5014 133.362 -0.738493 147.045 2.37695C161.949 5.76797 170.815 12.6196 170.903 12.6892L171.948 13.5073L170.61 13.4899C158.995 13.339 122.268 13.3303 85.9771 13.3593C85.9303 13.3854 85.8834 13.4086 85.8395 13.4347C68.7717 22.7057 53.5838 25.5803 41.3181 25.5803V25.5774ZM2.67626 13.487C5.42572 15.3783 13.2115 20.182 24.7803 22.8362C37.9713 25.8617 58.8778 26.6217 84.0621 13.3593C46.6442 13.3941 10.178 13.4696 2.67919 13.487H2.67626ZM115.48 12.4456C139.251 12.4456 159.902 12.4775 169.178 12.5732C166.35 10.6645 158.447 5.8869 146.793 3.24429C133.541 0.239072 112.646 -0.532536 87.6783 12.4572C97.0921 12.4485 106.509 12.4456 115.483 12.4456H115.48Z" fill="white"/>
<path d="M86.6475 32.7686H88.0851V54.2112H86.6475V32.7686Z" fill="white"/>
<path d="M106.925 32.4521H107.115L122.379 51.0723L123.272 52.2645L123.05 50.5414L122.985 32.7364H124.391V54.2399H123.559L121.931 52.6097L108.998 36.9049L108.134 35.3674L108.263 36.8729V54.208H106.922V32.4521H106.925Z" fill="white"/>
<path d="M143.168 32.7686H156.962V34.0536H144.603V42.5181H154.022V43.7422H144.603V54.2112H143.165V32.7686H143.168Z" fill="white"/>
<path d="M173.635 32.7686H175.072V54.2112H173.635V32.7686Z" fill="white"/>
<path d="M193.912 32.4521H194.102L209.367 51.0723L210.262 52.2645L210.04 50.5414L209.976 32.7364H211.381V54.2399H210.552L208.924 52.6097L195.991 36.9049L195.13 35.3674L195.259 36.8729V54.208H193.918V32.4521H193.912Z" fill="white"/>
<path d="M230.188 32.7686H231.625V54.2112H230.188V32.7686Z" fill="white"/>
<path d="M255.958 34.0536H248.295V32.7686H265.029V34.0536H257.398V54.2083H255.961V34.0536H255.958Z" fill="white"/>
<path d="M294.693 32.7363H293.033L287.109 43.3387L281.186 32.7363H279.525L283.165 39.0571L286.453 44.8355V54.2079H287.765V44.8355L291.05 39.06L294.693 32.7363Z" fill="white"/>
<path d="M327.253 55.4407V62.2866L329.999 59.5656V52.7198L327.253 55.4407Z" fill="white"/>
<path d="M322.393 52.4297L319.643 55.1506H326.96L329.707 52.4297H322.393Z" fill="white"/>
<path d="M302.312 57.654C300.186 57.654 298.291 58.3821 296.863 59.7397C295.434 61.1175 294.661 62.9944 294.661 65.08C294.661 67.1657 295.434 69.0628 296.863 70.4407C298.253 71.8185 300.186 72.564 302.312 72.564C304.437 72.564 306.332 71.8185 307.761 70.4407C309.19 69.0628 309.945 67.186 309.945 65.08C309.945 62.974 309.172 61.1175 307.743 59.7397C306.352 58.3792 304.44 57.654 302.315 57.654H302.312ZM305.849 68.6596C304.941 69.5791 303.705 70.0752 302.312 70.0752C300.918 70.0752 299.665 69.5762 298.757 68.6596C297.867 67.7603 297.384 66.4956 297.384 65.1177C297.384 63.7399 297.867 62.4577 298.757 61.5585C299.665 60.6389 300.883 60.1429 302.312 60.1429C303.741 60.1429 304.938 60.6418 305.849 61.5585C306.739 62.4577 307.219 63.7021 307.219 65.1177C307.219 66.5333 306.736 67.74 305.849 68.6596Z" fill="white"/>
<path d="M325.11 72.3175L321.18 66.8611C323.218 66.2838 324.653 64.8625 324.653 62.4954V62.4548C324.653 58.6548 321.18 57.9035 319.248 57.9035H312.557C312.261 57.9035 312.103 58.0601 312.103 58.3531V72.2595H314.724V60.1052H319.04C320.934 60.1052 322.053 61.0537 322.053 62.5998V62.6405C322.053 64.1025 320.887 65.0249 319.06 65.0249H316.826L322.097 72.3204H325.11V72.3175Z" fill="white"/>
<path d="M277.098 63.1655C277.148 63.0582 277.268 62.4693 277.476 62.1647C277.596 61.9269 277.734 61.7064 277.871 61.5527C277.889 61.5353 277.921 61.5179 277.956 61.5034C277.991 61.4859 278.009 61.4859 278.041 61.4859C278.094 61.4859 278.126 61.5033 278.179 61.5382L278.196 61.5556C278.231 61.573 278.246 61.6078 278.246 61.6397C278.264 61.6571 278.264 61.6745 278.264 61.7064C278.264 61.7383 278.246 61.7731 278.228 61.8079C278.211 61.8776 278.193 61.9443 278.161 61.9936C277.748 62.9102 277.441 64.3026 277.236 65.7298C276.978 67.4964 276.84 69.2775 276.823 70.2985C276.876 70.197 276.943 70.0781 276.996 69.9591C277.476 69.0599 278.211 68.3115 278.881 68.0069C279.104 67.888 279.344 67.8213 279.549 67.8213C279.584 67.8213 279.634 67.8387 279.669 67.8387C279.944 67.8909 280.167 68.0243 280.322 68.3144C280.477 68.5523 280.544 68.9091 280.544 69.3848V69.6401C281.555 69.0802 282.6 68.7234 283.32 68.6712H283.355C283.458 68.6712 283.543 68.7727 283.543 68.8742V68.9091C283.543 69.0106 283.458 69.0947 283.338 69.1121C282.688 69.1469 281.71 69.4863 280.732 70.0288L280.474 70.1825C280.474 70.2347 280.474 70.284 280.457 70.3362C280.421 70.5567 280.372 70.7598 280.319 70.9802C280.266 71.1833 280.217 71.4037 280.146 71.6097C279.701 72.9179 278.808 73.7998 278.141 74.1218C277.985 74.1885 277.848 74.2407 277.713 74.2581C277.695 74.2755 277.678 74.2755 277.66 74.2755C277.558 74.2755 277.473 74.2755 277.385 74.2581C277.163 74.1914 277.007 74.0202 277.007 73.7157V73.6634C277.007 73.2544 277.332 72.5437 278.19 71.5082C278.586 70.9976 279.116 70.5567 279.698 70.1506C279.751 69.8605 279.769 69.5907 279.769 69.3355C279.769 69.0802 279.751 68.8423 279.684 68.6567C279.599 68.4014 279.528 68.2825 279.391 68.2825C279.323 68.2825 279.203 68.3318 279.066 68.4014C278.466 68.6741 277.816 69.3529 277.385 70.168C277.198 70.5074 277.06 70.8468 276.94 71.102C276.77 71.5111 276.665 71.7634 276.46 71.7634C276.442 71.7634 276.407 71.7634 276.375 71.746C276.237 71.6967 276.17 71.4733 276.17 71.015C276.17 70.6582 276.17 70.1158 276.205 69.3181C276.223 68.2825 276.428 66.1272 276.805 64.3432C276.89 63.9197 276.993 63.5281 277.098 63.1713V63.1655ZM278.384 73.2341C278.864 72.6569 279.274 71.7895 279.514 70.9251C279.531 70.8729 279.549 70.841 279.564 70.7888C279.168 71.0933 278.826 71.4182 278.536 71.775C277.748 72.7265 277.455 73.3386 277.438 73.6779C277.438 73.7621 277.473 73.8143 277.505 73.8317H277.558C277.815 73.8317 278.261 73.3908 278.381 73.237L278.384 73.2341Z" fill="white"/>
<path d="M284.073 79.4998C283.183 79.4998 282.565 78.94 282.48 78.0407L282.462 77.8203C282.462 77.3793 282.582 76.8688 282.858 76.2742C283.508 74.8151 285.104 72.9121 288.084 70.6872L288.48 70.4146C288.462 69.5472 288.377 68.7669 288.187 68.326C288.119 68.1723 288.032 68.0881 287.912 68.0881C287.707 68.0881 287.379 68.3927 286.934 69.1237C285.631 71.1775 284.688 72.0941 284.055 72.332C283.918 72.3813 283.78 72.4161 283.66 72.4161C283.473 72.4161 283.317 72.3494 283.18 72.2305C282.992 72.0593 282.855 71.7721 282.802 71.4327C282.767 71.2616 282.752 71.0585 282.752 70.8555C282.752 70.3275 282.855 69.701 283.077 69.173C282.992 69.1382 282.922 69.0541 282.922 68.97L282.94 68.9178C283.025 68.6973 283.145 68.3927 283.282 68.239C283.35 68.1723 283.42 68.1026 283.487 68.0852L283.522 68.0678L283.607 68.0504C283.692 68.0504 283.78 68.0852 283.865 68.1694C283.932 68.2535 283.985 68.3898 284.02 68.5929V68.6944C283.713 69.6807 283.557 70.5451 283.557 71.1572C283.557 71.4124 283.593 71.5981 283.642 71.7518C283.695 71.8534 283.745 71.9056 283.815 71.9375H283.85C283.868 71.9375 283.885 71.9375 283.9 71.9201C284.465 71.717 285.323 70.8671 286.538 68.9149C286.591 68.8626 286.556 68.88 286.606 68.8133C287.018 68.1519 287.361 67.7603 287.669 67.5921C287.789 67.508 287.926 67.4732 288.046 67.4732C288.184 67.4732 288.304 67.508 288.406 67.5921C288.594 67.711 288.731 67.9315 288.834 68.2361C289.007 68.677 289.092 69.2891 289.141 69.9504L290.031 69.408C290.614 69.086 291.144 68.8307 291.539 68.7292L291.592 68.7118C291.695 68.7118 291.78 68.7785 291.815 68.88V68.9468C291.815 69.0309 291.747 69.115 291.659 69.1498C291.299 69.2339 290.802 69.4718 290.254 69.7967C289.894 69.9998 289.534 70.2202 289.156 70.4755C289.174 70.7133 289.174 70.9512 289.174 71.1891V71.308C289.156 72.8019 288.849 74.8238 288.076 76.4859C287.288 78.1684 286.02 79.4911 284.117 79.4911H284.067L284.073 79.4998ZM285.171 78.6847C286.114 78.2438 286.834 77.3765 287.364 76.3583C288.187 74.7454 288.494 72.8773 288.494 71.3834V70.9425L288.357 71.044C285.426 73.2167 283.883 75.0529 283.25 76.4424C283.01 76.9703 282.907 77.4113 282.907 77.7826L282.925 78.003C282.96 78.3772 283.112 78.6644 283.353 78.8355C283.508 78.9719 283.73 79.0212 283.953 79.0212C284.366 79.0212 284.843 78.8355 285.171 78.6818V78.6847Z" fill="white"/>
</svg>
