<?xml version="1.0" encoding="UTF-8"?>
<svg id="Camada_2" xmlns="http://www.w3.org/2000/svg" viewBox="0 0 996.54 256.03">
  <defs>
    <style>
      .cls-1 {
        fill: #FFFFFF;
      }
    </style>
  </defs>
  <g id="Camada_1-2" data-name="Camada_1">
    <g>
      <g>
        <path class="cls-1" d="M239.47,190.99c-37.43,0-70.17-4.66-97.34-10.97C56.7,160.17,6.28,120.08,5.78,119.68l-5.78-4.66,7.45-.02c4.48-.01,245.08-.56,489.47-.77,150.12-81.66,275.99-77.2,355.28-58.98,86.38,19.84,137.77,59.92,138.27,60.32l6.06,4.79-7.75-.1c-67.32-.87-280.18-.94-490.5-.77-.26.15-.54.3-.8.44-98.92,54.24-186.94,71.05-258.02,71.05ZM15.51,120.25c15.94,11.07,61.06,39.17,128.1,54.7,76.44,17.7,197.61,22.15,343.57-55.44-216.85.2-428.21.65-471.67.74ZM669.27,114.16c137.75,0,257.44.19,311.21.75-16.39-11.16-62.2-39.11-129.74-54.58-76.8-17.59-197.89-22.09-342.61,53.9,54.55-.04,109.14-.07,161.14-.07Z"/>
        <path class="cls-1" d="M239.47,192.69c-37.43,0-70.17-4.66-97.34-10.97C56.7,161.87,6.28,121.78,5.78,121.38l-5.78-4.66,7.45-.02c4.48-.01,245.08-.56,489.47-.77,150.12-81.66,275.99-77.2,355.28-58.98,86.38,19.84,137.77,59.92,138.27,60.32l6.06,4.79-7.75-.1c-67.32-.87-280.18-.94-490.5-.77-.26.15-.54.3-.8.44-98.92,54.24-186.94,71.05-258.02,71.05ZM15.51,121.95c15.94,11.07,61.06,39.17,128.1,54.7,76.44,17.7,197.61,22.15,343.57-55.44-216.85.2-428.21.65-471.67.74ZM669.27,115.86c137.75,0,257.44.19,311.21.75-16.39-11.16-62.2-39.11-129.74-54.58-76.8-17.59-197.89-22.09-342.61,53.9,54.55-.04,109.14-.07,161.14-.07Z"/>
      </g>
      <g>
        <g>
          <polygon class="cls-1" points="849.05 153.87 849.05 182.94 860.61 171.39 860.61 142.31 849.05 153.87"/>
          <polygon class="cls-1" points="828.6 141.08 817.05 152.64 847.82 152.64 859.38 141.08 828.6 141.08"/>
          <g>
            <path class="cls-1" d="M744.14,163.27c-8.94,0-16.91,3.09-22.92,8.86-6.01,5.85-9.27,13.82-9.27,22.68s3.25,16.91,9.27,22.76c5.85,5.85,13.98,9.02,22.92,9.02s16.91-3.17,22.92-9.02c6.01-5.85,9.18-13.82,9.18-22.76s-3.25-16.82-9.27-22.68c-5.85-5.77-13.9-8.86-22.84-8.86ZM759.02,210c-3.82,3.9-9.02,6.01-14.87,6.01s-11.13-2.11-14.96-6.01c-3.74-3.82-5.77-9.18-5.77-15.04s2.03-11.3,5.77-15.12c3.82-3.9,8.94-6.01,14.96-6.01s11.05,2.11,14.87,6.01c3.74,3.82,5.77,9.1,5.77,15.12s-2.03,11.13-5.77,15.04Z"/>
            <path class="cls-1" d="M840.03,225.53l-16.53-23.17c8.57-2.45,14.6-8.48,14.6-18.54v-.17c0-16.13-14.61-19.33-22.74-19.33h-28.14c-1.24,0-1.91.67-1.91,1.91v59.05h11.02v-51.61h18.16c7.97,0,12.68,4.03,12.68,10.59v.18c0,6.21-4.9,10.12-12.59,10.12h-9.4s22.17,30.98,22.17,30.98h12.68Z"/>
          </g>
        </g>
        <g>
          <path class="cls-1" d="M638.07,186.67c.21-.46.72-2.96,1.58-4.25.51-1.01,1.08-1.95,1.66-2.6.07-.07.22-.14.36-.22.14-.07.22-.07.36-.07.22,0,.36.07.58.22l.07.07c.14.07.22.22.22.36.07.07.07.14.07.29s-.07.29-.14.43c-.07.29-.14.58-.29.79-1.73,3.89-3.03,9.81-3.89,15.86-1.08,7.5-1.66,15.07-1.73,19.39.22-.43.51-.94.72-1.44,2.02-3.82,5.12-6.99,7.93-8.29.94-.5,1.95-.79,2.81-.79.14,0,.36.07.5.07,1.15.22,2.09.79,2.74,2.02.65,1.01.94,2.52.94,4.54v1.08c4.25-2.38,8.65-3.89,11.68-4.11h.14c.43,0,.79.43.79.86v.14c0,.43-.36.79-.86.87-2.74.14-6.85,1.59-10.96,3.89l-1.08.65c0,.22,0,.43-.07.65-.14.94-.36,1.8-.58,2.74-.22.87-.43,1.8-.72,2.67-1.87,5.55-5.62,9.3-8.43,10.67-.65.29-1.23.5-1.8.58-.07.07-.14.07-.22.07-.43,0-.79,0-1.15-.07-.94-.29-1.59-1.01-1.59-2.31v-.22c0-1.73,1.37-4.76,4.98-9.16,1.66-2.16,3.89-4.04,6.34-5.77.22-1.23.29-2.38.29-3.46s-.07-2.09-.36-2.88c-.36-1.08-.65-1.59-1.23-1.59-.29,0-.79.22-1.37.51-2.52,1.15-5.26,4.04-7.07,7.5-.79,1.44-1.37,2.88-1.87,3.96-.72,1.73-1.15,2.81-2.02,2.81-.07,0-.22,0-.36-.07-.58-.22-.86-1.15-.86-3.1,0-1.51,0-3.82.14-7.21.07-4.4.94-13.55,2.52-21.12.36-1.8.79-3.46,1.23-4.98ZM643.48,229.43c2.02-2.45,3.75-6.13,4.76-9.8.07-.22.14-.36.22-.58-1.66,1.3-3.1,2.67-4.33,4.18-3.32,4.04-4.54,6.63-4.61,8.08,0,.36.14.58.29.65h.22c1.08,0,2.96-1.87,3.46-2.52Z"/>
          <path class="cls-1" d="M667.41,256.03c-3.75,0-6.34-2.38-6.71-6.2l-.07-.94c0-1.87.5-4.04,1.66-6.56,2.74-6.2,9.45-14.27,21.99-23.72l1.66-1.15c-.07-3.68-.43-6.99-1.23-8.87-.29-.65-.65-1.01-1.15-1.01-.87,0-2.24,1.3-4.11,4.4-5.48,8.72-9.44,12.62-12.11,13.63-.58.22-1.15.36-1.66.36-.79,0-1.44-.29-2.02-.79-.79-.72-1.37-1.95-1.59-3.39-.14-.72-.22-1.59-.22-2.45,0-2.24.43-4.9,1.37-7.14-.36-.14-.65-.51-.65-.86l.07-.22c.36-.94.86-2.23,1.44-2.88.29-.29.58-.58.87-.65l.14-.07.36-.07c.36,0,.72.14,1.08.51.29.36.51.94.65,1.8v.43c-1.3,4.18-1.95,7.86-1.95,10.45,0,1.08.14,1.87.36,2.52.22.43.43.65.72.79h.14c.07,0,.14,0,.22-.07,2.38-.86,5.98-4.47,11.1-12.76.22-.22.07-.14.29-.43,1.73-2.81,3.17-4.47,4.47-5.19.51-.36,1.08-.51,1.59-.51.58,0,1.08.14,1.51.51.79.5,1.37,1.44,1.8,2.74.72,1.87,1.08,4.47,1.3,7.28l3.75-2.31c2.45-1.37,4.69-2.45,6.34-2.88l.22-.07c.43,0,.79.29.94.72v.29c0,.36-.29.72-.65.86-1.51.36-3.61,1.37-5.91,2.74-1.51.86-3.03,1.8-4.61,2.88.07,1.01.07,2.02.07,3.03v.51c-.07,6.34-1.37,14.92-4.61,21.99-3.32,7.14-8.65,12.76-16.65,12.76h-.22ZM672.03,252.57c3.96-1.87,6.99-5.55,9.23-9.88,3.46-6.85,4.76-14.78,4.76-21.12v-1.87l-.58.43c-12.33,9.23-18.82,17.02-21.49,22.93-1.01,2.24-1.44,4.11-1.44,5.7l.07.94c.14,1.59.79,2.81,1.8,3.53.65.58,1.59.79,2.52.79,1.73,0,3.75-.79,5.12-1.44Z"/>
        </g>
      </g>
      <g>
        <path class="cls-1" d="M58.73,47.69C58.73,20.23,79.63,0,107.9,0c13.66,0,25.99,4.55,34.3,13.66l-6.3,6.3c-7.64-7.77-17.01-11.12-27.73-11.12-22.64,0-39.65,16.61-39.65,38.85s17.01,38.85,39.65,38.85c10.72,0,20.1-3.35,27.73-11.25l6.3,6.3c-8.31,9.11-20.63,13.8-34.43,13.8-28.13,0-49.03-20.23-49.03-47.69Z"/>
        <path class="cls-1" d="M246.57,69.53h-52.25l-11.25,25.05h-10.32L215.62.8h9.78l42.87,93.78h-10.45l-11.25-25.05ZM242.95,61.49l-22.51-50.37-22.51,50.37h45.01Z"/>
        <path class="cls-1" d="M310.61.8h9.91v93.78h-9.91V.8Z"/>
        <path class="cls-1" d="M368.89,83.19l3.89-7.64c6.7,6.56,18.62,11.39,30.95,11.39,17.55,0,25.19-7.37,25.19-16.61,0-25.72-57.74-9.91-57.74-44.61,0-13.8,10.72-25.72,34.56-25.72,10.58,0,21.57,3.08,29.07,8.31l-3.35,7.9c-8.04-5.23-17.42-7.77-25.72-7.77-17.15,0-24.78,7.64-24.78,17.01,0,25.72,57.74,10.18,57.74,44.34,0,13.8-10.99,25.59-34.97,25.59-14.07,0-27.87-4.96-34.83-12.19Z"/>
      </g>
    </g>
  </g>
</svg>