<svg width="333" height="82" viewBox="0 0 333 82" fill="none" xmlns="http://www.w3.org/2000/svg">
<path d="M86.1475 32.6116H87.6075V54.773H86.1475V32.6116Z" fill="white"/>
<path d="M106.736 32.2896H106.931L122.431 51.5357L123.338 52.7674L123.11 50.9864L123.045 32.582H124.473V54.8084H123.631L121.978 53.1248L108.847 36.8914L107.972 35.3023L108.102 36.856V54.773H106.739V32.2866L106.736 32.2896Z" fill="white"/>
<path d="M143.534 32.6116H157.54V33.9407H144.994V42.6895H154.558V43.9537H144.994V54.776H143.534V32.6145V32.6116Z" fill="white"/>
<path d="M174.464 32.6116H175.924V54.773H174.464V32.6116Z" fill="white"/>
<path d="M195.053 32.2896H195.248L210.747 51.5357L211.655 52.7674L211.427 50.9864L211.362 32.582H212.79V54.8084H211.947L210.295 53.1248L197.163 36.8914L196.288 35.3023L196.418 36.856V54.773H195.056V32.2866L195.053 32.2896Z" fill="white"/>
<path d="M231.886 32.6116H233.346V54.773H231.886V32.6116Z" fill="white"/>
<path d="M258.049 33.9407H250.267V32.6116H267.256V33.9407H259.506V54.773H258.046V33.9407H258.049Z" fill="white"/>
<path d="M297.376 32.579H295.691L289.677 43.5401L283.662 32.579H281.977L285.672 39.1155L289.012 45.0878V54.7759H290.342V45.0878L293.679 39.1243L297.376 32.579Z" fill="white"/>
<path d="M41.0415 25.2835C34.6456 25.2835 29.0506 24.4801 24.4073 23.3931C9.81252 19.9698 1.19691 13.0611 1.1112 12.9932L0.124023 12.1898H1.39789C2.1634 12.1839 43.276 12.0894 85.0358 12.0539C110.688 -2.01738 132.193 -1.24943 145.744 1.89033C160.504 5.31069 169.286 12.2164 169.371 12.2873L170.406 13.1114L169.082 13.0936C157.578 12.943 121.207 12.9312 85.2693 12.9607C85.225 12.9843 85.1777 13.0109 85.1333 13.0375C68.2302 22.3859 53.192 25.2805 41.0445 25.2805L41.0415 25.2835ZM2.77521 13.0907C5.49733 14.9988 13.2085 19.8428 24.6645 22.5159C37.7253 25.567 58.4294 26.332 83.3718 12.9607C46.3173 12.9932 10.2027 13.073 2.77816 13.0877L2.77521 13.0907ZM114.486 12.0392C138.024 12.0392 158.474 12.0717 167.663 12.1691C164.861 10.2463 157.035 5.42884 145.496 2.76167C132.373 -0.268805 111.681 -1.04562 86.954 12.051C96.276 12.0451 105.604 12.0392 114.488 12.0392H114.486Z" fill="white"/>
<path d="M86.8359 11.8709C86.8359 11.8709 85.6596 11.8709 84.9088 11.8621C43.149 11.8975 2.03642 11.992 1.27091 11.995H0L0.987175 12.8013C1.07289 12.8693 9.6885 19.7779 24.2863 23.1983C28.9295 24.2852 34.5216 25.0886 40.9205 25.0886C53.0651 25.0886 68.1062 22.1911 85.0093 12.8456C85.0537 12.822 86.8389 11.8709 86.8389 11.8709H86.8359ZM13.5426 15.1849C13.5426 15.1849 45.945 14.5233 83.2448 12.7718C43.9618 30.6475 13.5426 15.1849 13.5426 15.1849Z" fill="white"/>
<path d="M93.6282 70.584C93.9238 71.0477 94.0716 71.5676 94.0716 72.1465C94.0716 72.7993 93.8883 73.3841 93.5277 73.898C93.1642 74.4149 92.6411 74.7812 91.9554 75.0027C91.5032 75.1504 90.8854 75.2242 90.1051 75.2242C88.9879 75.2242 88.1988 75.1977 87.7347 75.1445L86.9131 75.05V64.0889H90.3889C90.8736 64.0889 91.3051 64.1568 91.6834 64.2956C92.2834 64.5053 92.7504 64.8421 93.0814 65.3058C93.4125 65.7695 93.578 66.3159 93.578 66.948C93.578 67.4324 93.4805 67.8578 93.2854 68.227C93.0903 68.5962 92.7888 68.8797 92.378 69.0806C92.2716 69.1338 92.115 69.1899 91.9051 69.2549C92.1682 69.3169 92.3366 69.37 92.4105 69.4143C92.9278 69.7304 93.3327 70.1203 93.6282 70.584ZM87.8589 64.9779V68.9093H90.3712C91.045 68.9093 91.5918 68.735 92.0056 68.3894C92.4224 68.0409 92.6292 67.5417 92.6292 66.889C92.6292 66.31 92.4519 65.8611 92.1002 65.5391C91.7485 65.2172 91.249 65.0311 90.6076 64.9779H87.8589ZM92.3632 73.7887C92.8686 73.4107 93.1228 72.8613 93.1228 72.1465C93.1228 71.4317 92.8923 70.8823 92.4283 70.4422C91.9642 69.9992 91.317 69.7806 90.4835 69.7806H87.8589V74.282L89.2007 74.3293L90.2588 74.3618C91.1544 74.3618 91.8549 74.1727 92.3603 73.7917L92.3632 73.7887Z" fill="white"/>
<path d="M99.6961 64.2661H100.645V74.1846H106.128V75.0677H99.6961V64.2661Z" fill="white"/>
<path d="M113.082 74.6571C112.47 74.2791 111.997 73.7563 111.66 73.0947C111.323 72.4301 111.155 71.6828 111.155 70.8528V64.2661H112.104V70.8528C112.104 71.5587 112.237 72.1731 112.506 72.7018C112.775 73.2276 113.147 73.6352 113.629 73.9246C114.108 74.2141 114.643 74.3588 115.234 74.3588C115.825 74.3588 116.372 74.2141 116.845 73.9246C117.317 73.6352 117.687 73.2246 117.95 72.693C118.213 72.1613 118.346 71.5469 118.346 70.8528V64.2661H119.295V70.8528C119.295 71.7271 119.117 72.4951 118.766 73.1567C118.411 73.8213 117.926 74.3322 117.303 74.6896C116.682 75.047 115.982 75.2272 115.201 75.2272C114.421 75.2272 113.694 75.0382 113.085 74.6571H113.082Z" fill="white"/>
<path d="M125.36 64.266H132.297V65.1492H126.305V68.9063H130.715V69.7894H126.305V74.1786H132.61V75.0617H125.357V64.2601L125.36 64.266Z" fill="white"/>
<path d="M330.216 57.4136V64.4138L333 61.6314V54.6312L330.216 57.4136Z" fill="white"/>
<path d="M325.274 54.321L322.49 57.1034H329.906L332.69 54.321H325.274Z" fill="white"/>
<path d="M304.936 59.6643C302.782 59.6643 300.864 60.4086 299.412 61.7969C297.964 63.2058 297.181 65.1227 297.181 67.2582C297.181 69.3937 297.964 71.3284 299.412 72.7373C300.822 74.1462 302.782 74.9112 304.936 74.9112C307.091 74.9112 309.009 74.1491 310.461 72.7373C311.909 71.3284 312.674 69.4114 312.674 67.2582C312.674 65.105 311.891 63.2058 310.443 61.7969C309.033 60.4086 307.094 59.6643 304.939 59.6643H304.936ZM308.522 70.9178C307.602 71.8571 306.346 72.3651 304.936 72.3651C303.527 72.3651 302.253 71.8571 301.334 70.9178C300.432 69.9992 299.944 68.7055 299.944 67.2966C299.944 65.8877 300.435 64.5763 301.334 63.6577C302.253 62.7184 303.488 62.2104 304.936 62.2104C306.385 62.2104 307.6 62.7184 308.522 63.6577C309.423 64.5763 309.911 65.8493 309.911 67.2966C309.911 68.7439 309.42 69.9785 308.522 70.9178Z" fill="white"/>
<path d="M328.041 74.6572L324.059 69.0777C326.125 68.487 327.579 67.0337 327.579 64.6147V64.5733C327.579 60.6892 324.059 59.9183 322.1 59.9183H315.32C315.021 59.9183 314.861 60.0778 314.861 60.3762V74.5952H317.516V62.1661H321.89C323.811 62.1661 324.946 63.1378 324.946 64.7151V64.7565C324.946 66.251 323.767 67.1932 321.911 67.1932H319.644L324.984 74.6513H328.041V74.6572Z" fill="white"/>
<path d="M279.379 65.2999C279.43 65.1906 279.554 64.588 279.761 64.2749C279.882 64.0327 280.021 63.8053 280.16 63.6488C280.177 63.631 280.213 63.6133 280.245 63.5956C280.281 63.5779 280.299 63.5779 280.331 63.5779C280.384 63.5779 280.417 63.5956 280.47 63.631L280.488 63.6488C280.523 63.6665 280.541 63.7019 280.541 63.7344C280.559 63.7521 280.559 63.7699 280.559 63.8024C280.559 63.8348 280.541 63.8703 280.523 63.9057C280.505 63.9766 280.488 64.0446 280.455 64.0977C280.038 65.034 279.725 66.4577 279.518 67.9168C279.258 69.7215 279.119 71.5439 279.101 72.5866C279.155 72.4832 279.223 72.3621 279.276 72.2381C279.761 71.3195 280.508 70.5545 281.185 70.2414C281.41 70.1203 281.655 70.0494 281.862 70.0494C281.898 70.0494 281.948 70.0671 281.983 70.0671C282.261 70.1203 282.489 70.2591 282.642 70.5545C282.799 70.7967 282.867 71.1629 282.867 71.6473V71.9073C283.893 71.3342 284.951 70.9709 285.681 70.9178H285.716C285.82 70.9178 285.908 71.0211 285.908 71.1245V71.16C285.908 71.2634 285.823 71.352 285.701 71.3697C285.042 71.4051 284.052 71.7507 283.062 72.306L282.802 72.4625C282.802 72.5157 282.802 72.5659 282.784 72.6191C282.749 72.8436 282.698 73.0533 282.645 73.2778C282.592 73.4875 282.542 73.712 282.471 73.9217C282.019 75.2597 281.117 76.1605 280.437 76.4914C280.281 76.5593 280.142 76.6125 280.003 76.6302C279.985 76.6479 279.967 76.6479 279.95 76.6479C279.846 76.6479 279.758 76.6479 279.672 76.6302C279.447 76.5622 279.291 76.388 279.291 76.0749V76.0217C279.291 75.6053 279.622 74.8757 280.491 73.8183C280.89 73.2984 281.428 72.8465 282.019 72.4301C282.072 72.1347 282.09 71.857 282.09 71.5971C282.09 71.3372 282.072 71.092 282.004 70.903C281.918 70.6431 281.847 70.522 281.708 70.522C281.64 70.522 281.516 70.5751 281.377 70.6431C280.768 70.9207 280.109 71.6148 279.675 72.4478C279.483 72.7934 279.344 73.1419 279.223 73.4018C279.048 73.8183 278.945 74.0782 278.735 74.0782C278.717 74.0782 278.682 74.0782 278.649 74.0605C278.51 74.0073 278.442 73.7828 278.442 73.3132C278.442 72.9499 278.442 72.3946 278.478 71.5764C278.496 70.519 278.702 68.3126 279.087 66.4902C279.172 66.056 279.279 65.6573 279.382 65.291L279.379 65.2999ZM280.683 75.5934C281.167 75.0027 281.587 74.1166 281.83 73.2335C281.847 73.1803 281.865 73.1478 281.883 73.0946C281.484 73.4077 281.135 73.7385 280.839 74.1018C280.041 75.0736 279.746 75.6998 279.728 76.0454C279.728 76.131 279.764 76.1842 279.796 76.2019H279.849C280.109 76.2019 280.562 75.75 280.683 75.5934Z" fill="white"/>
<path d="M286.446 82C285.542 82 284.918 81.427 284.829 80.5054L284.812 80.2809C284.812 79.829 284.933 79.3092 285.211 78.7007C285.87 77.2062 287.487 75.2627 290.51 72.9883L290.909 72.7107C290.891 71.8246 290.806 71.0271 290.614 70.5752C290.546 70.4186 290.457 70.333 290.336 70.333C290.126 70.333 289.798 70.6461 289.346 71.3904C288.024 73.4904 287.07 74.4297 286.428 74.6719C286.29 74.7251 286.151 74.7576 286.029 74.7576C285.837 74.7576 285.681 74.6896 285.542 74.5656C285.35 74.3913 285.211 74.096 285.16 73.7504C285.125 73.5761 285.107 73.3693 285.107 73.1596C285.107 72.6221 285.211 71.9782 285.438 71.4406C285.353 71.4052 285.282 71.3195 285.282 71.2338L285.299 71.1807C285.385 70.9562 285.506 70.6431 285.645 70.4866C285.713 70.4186 285.784 70.3477 285.855 70.33L285.891 70.3123L285.976 70.2946C286.062 70.2946 286.151 70.33 286.236 70.4157C286.304 70.5013 286.358 70.6401 286.393 70.8499V70.9532C286.08 71.9604 285.923 72.8465 285.923 73.4698C285.923 73.7297 285.959 73.9217 286.009 74.0782C286.062 74.1816 286.112 74.2348 286.183 74.2702H286.219C286.236 74.2702 286.254 74.2702 286.272 74.2525C286.845 74.0457 287.714 73.1774 288.947 71.1807C289 71.1275 288.964 71.1452 289.015 71.0773C289.431 70.4009 289.78 70.0022 290.09 69.8279C290.212 69.7422 290.351 69.7068 290.472 69.7068C290.611 69.7068 290.732 69.7422 290.835 69.8279C291.027 69.949 291.166 70.1735 291.27 70.4866C291.444 70.9385 291.53 71.5617 291.583 72.241L292.487 71.6858C293.079 71.3549 293.617 71.095 294.016 70.9916L294.069 70.9739C294.172 70.9739 294.261 71.0419 294.293 71.1482V71.2161C294.293 71.3018 294.225 71.3904 294.137 71.4229C293.773 71.5085 293.268 71.7537 292.712 72.0815C292.349 72.2883 291.982 72.5157 291.601 72.7757C291.619 73.0179 291.619 73.263 291.619 73.5052V73.6263C291.601 75.1534 291.287 77.2209 290.507 78.9223C289.709 80.6413 288.423 81.9941 286.493 81.9941H286.44L286.446 82ZM287.557 81.1671C288.512 80.7151 289.242 79.832 289.78 78.7893C290.614 77.1412 290.927 75.2302 290.927 73.7031V73.2512L290.788 73.3546C287.818 75.5757 286.254 77.4513 285.61 78.875C285.367 79.4126 285.264 79.8645 285.264 80.2455L285.282 80.47C285.317 80.851 285.474 81.1464 285.716 81.3206C285.873 81.4595 286.097 81.5126 286.325 81.5126C286.742 81.5126 287.229 81.3206 287.557 81.1641V81.1671Z" fill="white"/>
</svg>
