<svg viewBox="0 0 334 83" fill="none" xmlns="http://www.w3.org/2000/svg">
<path d="M87.0977 13.1313C87.0977 13.1313 88.2643 13.1313 89.0075 13.1401C130.409 13.1047 171.17 13.0131 171.928 13.0102H173.19L172.213 12.2215C172.127 12.1536 163.587 5.38046 149.114 2.02492C144.512 0.958591 138.966 0.169922 132.624 0.169922C120.581 0.169922 105.672 3.01149 88.9128 12.1772C88.8684 12.2008 87.0977 13.1342 87.0977 13.1342V13.1313ZM159.764 9.88207C159.764 9.88207 127.64 10.529 90.6598 12.2481C129.606 -5.28282 159.764 9.88207 159.764 9.88207Z" fill="white"/>
<path d="M42.4332 26.04C35.9071 26.04 30.1982 25.2306 25.4606 24.1318C10.5636 20.6788 1.77527 13.7078 1.68644 13.6369L0.679688 12.8275H1.97958C2.76129 12.8216 44.7102 12.7271 87.3224 12.6917C113.495 -1.51324 135.442 -0.73639 149.267 2.43306C164.327 5.88311 173.287 12.8541 173.376 12.925L174.433 13.758L173.083 13.7403C161.345 13.5896 124.232 13.5778 87.5623 13.6073C87.5149 13.6339 87.4675 13.6576 87.4231 13.6841C70.1751 23.1186 54.8281 26.0429 42.4361 26.0429L42.4332 26.04ZM3.38311 13.7373C6.16056 15.6632 14.031 20.5518 25.7182 23.2516C39.0458 26.3294 60.1727 27.1033 85.6228 13.6073C47.8134 13.6428 10.9633 13.7196 3.38311 13.7373ZM117.371 12.6769C141.391 12.6769 162.257 12.7094 171.632 12.8069C168.774 10.8662 160.789 6.00422 149.013 3.31329C135.623 0.253138 114.508 -0.529623 89.2767 12.6887C98.7875 12.6798 108.307 12.6769 117.374 12.6769H117.371Z" fill="white"/>
<path d="M88.2378 33.356H89.6887V55.1728H88.2378V33.356Z" fill="white"/>
<path d="M108.728 33.0371H108.92L124.344 51.9829L125.247 53.194L125.022 51.4394L124.957 33.3207H126.378V55.2026H125.54L123.894 53.5455L110.824 37.5653L109.953 36.0027L110.084 37.5328V55.173H108.728V33.0371Z" fill="white"/>
<path d="M145.353 33.356H159.293V34.6645H146.803V43.2778H156.323V44.5214H146.803V55.1728H145.353V33.356Z" fill="white"/>
<path d="M176.135 33.356H177.586V55.1728H176.135V33.356Z" fill="white"/>
<path d="M196.626 33.0371H196.818L212.242 51.9829L213.146 53.194L212.921 51.4394L212.855 33.3207H214.274V55.2026H213.436L211.789 53.5455L198.719 37.5653L197.849 36.0027L197.979 37.5328V55.173H196.623V33.0371H196.626Z" fill="white"/>
<path d="M233.283 33.356H234.734V55.1728H233.283V33.356Z" fill="white"/>
<path d="M259.326 34.6611H251.583V33.3525H268.49V34.6611H260.779V55.1694H259.329V34.6611H259.326Z" fill="white"/>
<path d="M298.468 33.3237H296.789L290.802 44.114L284.818 33.3237H283.139L286.816 39.7571L290.142 45.6352V55.1702H291.465V45.6352L294.79 39.7542L298.468 33.3237Z" fill="white"/>
<path d="M89.3979 74.647C88.856 74.4196 88.3793 74.1065 87.9677 73.7077C87.5561 73.306 87.2837 72.8541 87.1445 72.349L87.9588 72.0329C88.1602 72.6739 88.5569 73.182 89.1491 73.5571C89.7414 73.9322 90.3602 74.1183 91.0116 74.1183C91.5032 74.1183 91.9503 74.0149 92.353 73.8111C92.7586 73.6044 93.0784 73.3149 93.3124 72.9427C93.5463 72.5676 93.6647 72.1452 93.6647 71.6726C93.6647 71.1675 93.5226 70.751 93.2413 70.4231C92.96 70.0982 92.4833 69.7703 91.8111 69.4424C90.905 69.0112 90.2181 68.6567 89.7502 68.385C89.2824 68.1132 88.8975 67.7883 88.5984 67.4132C88.2993 67.041 88.1513 66.5949 88.1513 66.078C88.1513 65.5611 88.2904 65.1239 88.5658 64.737C88.8412 64.35 89.2143 64.0488 89.6762 63.8361C90.1381 63.6264 90.6385 63.52 91.1686 63.52C91.6157 63.52 92.0332 63.6027 92.424 63.7652C92.8119 63.9276 93.1169 64.1551 93.3331 64.4446C93.5522 64.734 93.6499 65.059 93.6292 65.4164L92.735 65.3691C92.735 65.0649 92.5662 64.8227 92.2316 64.6513C91.897 64.4771 91.5298 64.3914 91.136 64.3914C90.5823 64.3914 90.1056 64.5509 89.7058 64.864C89.3061 65.1801 89.1077 65.57 89.1077 66.0337C89.1077 66.3911 89.2291 66.7131 89.4749 66.9967C89.7206 67.2802 90.0108 67.5195 90.3454 67.7144C90.68 67.9094 91.1034 68.1221 91.6157 68.3554C91.7223 68.4086 91.8348 68.4618 91.9503 68.512C92.0687 68.5651 92.1783 68.6213 92.2849 68.6862C93.1258 69.1293 93.7239 69.5783 94.0822 70.0361C94.4375 70.494 94.6182 71.0434 94.6182 71.6873C94.6182 72.3313 94.4494 72.9013 94.1148 73.4005C93.7802 73.8997 93.3331 74.2896 92.7823 74.5702C92.2286 74.8479 91.6364 74.9897 91.0087 74.9897C90.4757 74.9897 89.9368 74.8745 89.3949 74.65L89.3979 74.647Z" fill="white"/>
<path d="M100.135 63.8213H107.149V64.7045H101.094V68.4647H105.553V69.3479H101.094V73.7402H107.469V74.6234H100.135V63.8184V63.8213Z" fill="white"/>
<path d="M116.515 63.52H116.82L121.516 74.6234H120.495L118.946 71.0375H114.392L112.873 74.6234H111.852L116.518 63.52H116.515ZM117.057 66.4591C116.885 66.0367 116.752 65.6261 116.657 65.2273C116.53 65.7236 116.403 66.1341 116.275 66.4591L114.774 70.1543H118.561L117.06 66.4591H117.057Z" fill="white"/>
<path d="M331.089 57.9787V64.9467L333.866 62.1761V55.208L331.089 57.9787Z" fill="white"/>
<path d="M326.188 54.9248L323.411 57.6955H330.804L333.579 54.9248H326.188Z" fill="white"/>
<path d="M305.888 60.2417C303.741 60.2417 301.825 60.9831 300.38 62.3655C298.935 63.7686 298.153 65.6767 298.153 67.8005C298.153 69.9243 298.935 71.8532 300.38 73.2533C301.787 74.6563 303.738 75.4155 305.888 75.4155C308.037 75.4155 309.95 74.6563 311.395 73.2533C312.84 71.8502 313.601 69.942 313.601 67.8005C313.601 65.659 312.819 63.7686 311.374 62.3655C309.968 60.9831 308.034 60.2417 305.888 60.2417ZM309.461 71.4426C308.544 72.3789 307.294 72.884 305.888 72.884C304.481 72.884 303.214 72.3789 302.296 71.4426C301.399 70.5269 300.91 69.242 300.91 67.8389C300.91 66.4359 301.399 65.1303 302.296 64.2175C303.214 63.2812 304.443 62.7761 305.888 62.7761C307.333 62.7761 308.544 63.2812 309.461 64.2175C310.359 65.1332 310.847 66.4004 310.847 67.8389C310.847 69.2774 310.359 70.5062 309.461 71.4426Z" fill="white"/>
<path d="M328.921 75.1643L324.951 69.6111C327.009 69.0233 328.459 67.5789 328.459 65.1685V65.1272C328.459 61.2606 324.951 60.4956 322.996 60.4956H316.236C315.937 60.4956 315.777 60.6551 315.777 60.9534V75.1052H318.424V62.7376H322.786C324.702 62.7376 325.833 63.7034 325.833 65.2749V65.3162C325.833 66.805 324.657 67.7413 322.807 67.7413H320.548L325.874 75.1643H328.921Z" fill="white"/>
<path d="M280.405 65.8509C280.455 65.7416 280.577 65.142 280.787 64.8318C280.908 64.5896 281.047 64.3651 281.187 64.2086C281.204 64.1908 281.237 64.1731 281.272 64.1583C281.308 64.1406 281.326 64.1406 281.358 64.1406C281.412 64.1406 281.444 64.1583 281.497 64.1938L281.515 64.2115C281.551 64.2292 281.566 64.2647 281.566 64.2972C281.583 64.3149 281.583 64.3326 281.583 64.3651C281.583 64.3976 281.566 64.4331 281.548 64.4685C281.53 64.5394 281.512 64.6073 281.48 64.6575C281.065 65.5909 280.751 67.0088 280.544 68.4591C280.283 70.255 280.147 72.0687 280.129 73.1055C280.183 73.0021 280.251 72.881 280.304 72.7599C280.79 71.8442 281.533 71.085 282.208 70.7719C282.433 70.6508 282.676 70.5829 282.883 70.5829C282.919 70.5829 282.969 70.6006 283.005 70.6006C283.283 70.6538 283.508 70.7897 283.662 71.085C283.819 71.3273 283.887 71.6906 283.887 72.1721V72.432C284.909 71.8619 285.966 71.4986 286.694 71.4484H286.73C286.833 71.4484 286.919 71.5518 286.919 71.6551V71.6906C286.919 71.794 286.833 71.8796 286.712 71.8973C286.055 71.9328 285.066 72.2784 284.079 72.8308L283.819 72.9873C283.819 73.0405 283.819 73.0907 283.801 73.1439C283.766 73.3683 283.715 73.5751 283.662 73.7996C283.609 74.0064 283.558 74.2309 283.487 74.4376C283.037 75.7668 282.137 76.6678 281.462 76.9956C281.305 77.0636 281.169 77.1167 281.03 77.1345C281.012 77.1522 280.994 77.1522 280.976 77.1522C280.873 77.1522 280.787 77.1522 280.698 77.1345C280.473 77.0665 280.316 76.8923 280.316 76.5821V76.5289C280.316 76.1154 280.645 75.3888 281.512 74.3342C281.909 73.8173 282.448 73.3654 283.037 72.9519C283.091 72.6594 283.108 72.3818 283.108 72.1218C283.108 71.8619 283.091 71.6197 283.022 71.4306C282.937 71.1707 282.865 71.0496 282.729 71.0496C282.661 71.0496 282.54 71.0998 282.401 71.1707C281.794 71.4484 281.136 72.1366 280.704 72.9666C280.514 73.3122 280.375 73.6578 280.254 73.9178C280.082 74.3313 279.976 74.5912 279.768 74.5912C279.75 74.5912 279.715 74.5912 279.682 74.5735C279.543 74.5233 279.475 74.2958 279.475 73.8291C279.475 73.4658 279.475 72.9135 279.511 72.1012C279.528 71.0466 279.736 68.852 280.118 67.0383C280.204 66.6071 280.307 66.2083 280.411 65.845L280.405 65.8509ZM281.705 76.0947C282.19 75.5069 282.605 74.6267 282.848 73.7464C282.865 73.6933 282.883 73.6608 282.898 73.6076C282.501 73.9178 282.152 74.2456 281.859 74.609C281.062 75.5778 280.769 76.1981 280.751 76.5437C280.751 76.6294 280.787 76.6825 280.819 76.7003H280.873C281.133 76.7003 281.583 76.2513 281.705 76.0947Z" fill="white"/>
<path d="M287.456 82.4725C286.556 82.4725 285.931 81.9024 285.845 80.9867L285.827 80.7622C285.827 80.3133 285.949 79.7963 286.224 79.1908C286.881 77.705 288.492 75.7703 291.506 73.5077L291.903 73.23C291.885 72.3498 291.8 71.5552 291.61 71.1033C291.542 70.9467 291.453 70.861 291.332 70.861C291.124 70.861 290.796 71.1712 290.346 71.9156C289.031 74.0069 288.078 74.9403 287.435 75.1825C287.296 75.2327 287.157 75.2681 287.038 75.2681C286.849 75.2681 286.692 75.2002 286.553 75.0791C286.363 74.9048 286.224 74.6124 286.171 74.2668C286.135 74.0925 286.12 73.8858 286.12 73.679C286.12 73.1443 286.224 72.5034 286.449 71.9687C286.363 71.9333 286.292 71.8476 286.292 71.762L286.31 71.7088C286.396 71.4843 286.517 71.1742 286.656 71.0176C286.724 70.9497 286.795 70.8788 286.864 70.861L286.899 70.8433L286.985 70.8256C287.071 70.8256 287.16 70.861 287.245 70.9467C287.314 71.0324 287.367 71.1712 287.402 71.378V71.4813C287.092 72.4827 286.935 73.3659 286.935 73.9862C286.935 74.2461 286.97 74.4352 287.02 74.5917C287.074 74.6951 287.124 74.7483 287.195 74.7808H287.231C287.248 74.7808 287.266 74.7808 287.281 74.763C287.852 74.5563 288.717 73.6908 289.949 71.7058C290.002 71.6527 289.967 71.6704 290.017 71.6025C290.432 70.929 290.778 70.5302 291.092 70.3589C291.213 70.2732 291.352 70.2378 291.474 70.2378C291.613 70.2378 291.734 70.2732 291.838 70.3589C292.028 70.48 292.167 70.7045 292.27 71.0146C292.445 71.4636 292.531 72.0869 292.581 72.7604L293.481 72.208C294.071 71.8801 294.607 71.6202 295.006 71.5168L295.06 71.4991C295.163 71.4991 295.249 71.567 295.285 71.6704V71.7383C295.285 71.824 295.217 71.9097 295.128 71.9451C294.764 72.0308 294.26 72.273 293.706 72.6008C293.342 72.8076 292.978 73.0321 292.599 73.292C292.617 73.5343 292.617 73.7765 292.617 74.0187V74.1398C292.599 75.661 292.288 77.7169 291.509 79.4094C290.713 81.1197 289.431 82.4666 287.509 82.4666H287.459L287.456 82.4725ZM288.563 81.6425C289.517 81.1935 290.242 80.3133 290.781 79.2765C291.613 77.6342 291.924 75.7348 291.924 74.2136V73.7647L291.785 73.868C288.824 76.0804 287.263 77.9443 286.624 79.3621C286.381 79.8968 286.277 80.3458 286.277 80.7268L286.295 80.9513C286.331 81.3323 286.484 81.6248 286.727 81.799C286.884 81.9379 287.109 81.9881 287.334 81.9881C287.749 81.9881 288.234 81.799 288.563 81.6425Z" fill="white"/>
</svg>
