<?xml version="1.0" encoding="UTF-8" standalone="no"?>
<svg
   width="208.39999"
   height="56.684978"
   viewBox="0 0 208.39999 56.684978"
   fill="none"
   version="1.1"
   id="svg32"
   sodipodi:docname="logo-infinity-white - Copia.svg"
   inkscape:version="1.2.2 (732a01da63, 2022-12-09)"
   xmlns:inkscape="http://www.inkscape.org/namespaces/inkscape"
   xmlns:sodipodi="http://sodipodi.sourceforge.net/DTD/sodipodi-0.dtd"
   xmlns="http://www.w3.org/2000/svg"
   xmlns:svg="http://www.w3.org/2000/svg">
  <defs
     id="defs36" />
  <sodipodi:namedview
     id="namedview34"
     pagecolor="#ffffff"
     bordercolor="#000000"
     borderopacity="0.25"
     inkscape:showpageshadow="2"
     inkscape:pageopacity="0.0"
     inkscape:pagecheckerboard="0"
     inkscape:deskcolor="#d1d1d1"
     showgrid="false"
     inkscape:zoom="1.2963624"
     inkscape:cx="96.423652"
     inkscape:cy="-27.770012"
     inkscape:window-width="1366"
     inkscape:window-height="705"
     inkscape:window-x="-8"
     inkscape:window-y="-8"
     inkscape:window-maximized="1"
     inkscape:current-layer="svg32" />
  <path
     d="m 26.093085,17.993613 c -4.079222,0 -7.646157,-0.57238 -10.606645,-1.34668 C 6.1779422,14.213773 0.6841793,9.2974826 0.6287043,9.2474726 L 0,8.6771726 h 0.811771 c 0.488169,-0.004 26.705132,-0.0707 53.336332,-0.0957 16.357617,-10.0179003 30.072271,-9.47049034 38.71332,-7.2350403 9.412137,2.4331803 15.011167,7.3494803 15.066737,7.3994303 l 0.65994,0.58702 -0.84497,-0.0125 c -7.33507,-0.10827 -30.528804,-0.11451 -53.447126,-0.0937 -0.02956,0.0187 -0.05918,0.0354 -0.0869,0.0541 C 43.430497,15.933083 33.839079,17.995713 26.093081,17.995713 Z M 1.6901038,9.3182926 c 1.7363309,1.3570804 6.6531834,4.8039204 13.9590782,6.7084004 8.330341,2.17092 21.533153,2.71624 37.437468,-6.8000304 -23.630043,0.025 -46.6590698,0.0791 -51.3946958,0.0916 z m 71.2374882,-0.74725 c 15.011789,0 28.053248,0.0229 33.911208,0.0916 -1.78594,-1.36956 -6.77681,-4.79767 -14.136515,-6.6938403 -8.368865,-2.15636004 -21.564412,-2.71002004 -37.331944,6.6106103 5.944976,-0.006 11.891908,-0.008 17.559143,-0.008 z"
     fill="#ffffff"
     id="path2"
     style="stroke-width:0.673155" />
  <path
     d="m 54.719374,23.153573 h 0.907869 V 38.53945 h -0.907869 z"
     fill="#ffffff"
     id="path4"
     style="stroke-width:0.673155" />
  <path
     d="m 67.524959,22.926473 h 0.119992 l 9.639476,13.360698 0.563944,0.855448 -0.140197,-1.236389 -0.04109,-12.775767 H 78.555 v 15.429581 h -0.525426 l -1.028106,-1.16973 -8.167413,-11.268791 -0.54563,-1.10321 0.08147,1.08025 V 38.537154 H 67.52303 V 22.926473 Z"
     fill="#ffffff"
     id="path6"
     style="stroke-width:0.673155" />
  <path
     d="m 90.413035,23.153573 h 8.711142 v 0.92203 h -7.80492 v 6.073605 h 5.94827 v 0.878338 h -5.94827 V 38.53945 H 90.411136 V 23.153573 Z"
     fill="#ffffff"
     id="path8"
     style="stroke-width:0.673155" />
  <path
     d="m 109.65347,23.153573 h 0.90749 V 38.53945 h -0.90749 z"
     fill="#ffffff"
     id="path10"
     style="stroke-width:0.673155" />
  <path
     d="m 122.45874,22.926473 h 0.11999 l 9.64011,13.360698 0.5652,0.855448 -0.14019,-1.236389 -0.0404,-12.775767 h 0.88728 v 15.429581 h -0.52353 l -1.02811,-1.16973 -8.16741,-11.268791 -0.54374,-1.10321 0.0815,1.08025 v 12.438591 h -0.84686 V 22.926473 Z"
     fill="#ffffff"
     id="path12"
     style="stroke-width:0.673155" />
  <path
     d="m 145.36766,23.153573 h 0.90748 V 38.53945 h -0.90748 z"
     fill="#ffffff"
     id="path14"
     style="stroke-width:0.673155" />
  <path
     d="m 161.64184,24.075603 h -4.83931 v -0.92203 h 10.56781 v 0.92203 h -4.81911 V 38.53737 h -0.90749 V 24.075603 Z"
     fill="#ffffff"
     id="path16"
     style="stroke-width:0.673155" />
  <path
     d="m 186.10366,23.130393 h -1.04832 l -3.7411,7.607626 -3.74048,-7.607626 h -1.04895 l 2.29872,4.53542 2.07643,4.146218 v 6.725052 h 0.82855 v -6.725052 l 2.07453,-4.144138 z"
     fill="#ffffff"
     id="path18"
     style="stroke-width:0.673155" />
  <path
     d="m 206.66586,39.421664 v 4.912193 L 208.4,42.381436 v -4.912121 z"
     fill="#ffffff"
     id="path20"
     style="stroke-width:0.673155" />
  <path
     d="m 203.59668,37.261157 -1.73667,1.952349 h 4.62081 l 1.73478,-1.952349 z"
     fill="#ffffff"
     id="path22"
     style="stroke-width:0.673155" />
  <path
     d="m 190.91519,41.00979 c -1.34261,0 -2.53933,0.52244 -3.44114,1.496569 -0.90244,0.988624 -1.3906,2.335371 -1.3906,3.831868 0,1.496569 0.48816,2.85781 1.3906,3.846505 0.87781,0.988624 2.09853,1.523548 3.44114,1.523548 1.34197,0 2.53869,-0.534924 3.44113,-1.523548 0.90244,-0.988695 1.37924,-2.33537 1.37924,-3.846505 0,-1.511135 -0.48817,-2.843244 -1.3906,-3.831868 -0.87844,-0.97621 -2.0859,-1.496569 -3.42788,-1.496569 z m 2.23368,7.896936 c -0.57342,0.659776 -1.35397,1.015746 -2.23368,1.015746 -0.88033,0 -1.67163,-0.358051 -2.24504,-1.015746 -0.56205,-0.645282 -0.86708,-1.552753 -0.86708,-2.541448 0,-0.988624 0.30503,-1.908651 0.86708,-2.553861 0.57341,-0.659848 1.3426,-1.015747 2.24504,-1.015747 0.90244,0 1.65836,0.35798 2.23368,1.015747 0.56205,0.64521 0.86517,1.538115 0.86517,2.553861 0,1.015747 -0.30502,1.8816 -0.86517,2.541448 z"
     fill="#ffffff"
     id="path24"
     style="stroke-width:0.673155" />
  <path
     d="m 205.31252,51.531407 -2.48187,-3.915174 c 1.28703,-0.414234 2.19326,-1.434071 2.19326,-3.132555 v -0.02913 c 0,-2.726644 -2.19326,-3.26573 -3.41335,-3.26573 h -4.22548 c -0.18693,0 -0.28671,0.112366 -0.28671,0.322605 v 9.978369 h 1.65521 v -8.721171 h 2.72563 c 1.19609,0 1.90276,0.680585 1.90276,1.78997 v 0.02921 c 0,1.049039 -0.73635,1.710897 -1.89013,1.710897 h -1.41081 l 3.32872,5.234797 h 1.90277 z"
     fill="#ffffff"
     id="path26"
     style="stroke-width:0.673155" />
  <path
     d="m 174.99212,44.9645 c 0.0316,-0.07699 0.10735,-0.499549 0.23871,-0.718112 0.0758,-0.17063 0.16293,-0.328847 0.24945,-0.439133 0.0114,-0.01248 0.0316,-0.02497 0.0537,-0.03538 0.0221,-0.01256 0.0334,-0.01256 0.0537,-0.01256 0.0334,0 0.0537,0.01248 0.0871,0.03753 l 0.0108,0.01248 c 0.0221,0.01248 0.0316,0.03746 0.0316,0.06035 0.0114,0.01248 0.0114,0.02497 0.0114,0.04786 0,0.02288 -0.0114,0.04786 -0.0227,0.07283 -0.0107,0.05001 -0.0221,0.09787 -0.0423,0.133248 -0.26082,0.657694 -0.4547,1.656794 -0.58416,2.680864 -0.16292,1.267603 -0.25008,2.54561 -0.26081,3.278216 0.0334,-0.07283 0.0758,-0.158145 0.10925,-0.243532 0.30313,-0.64521 0.76729,-1.182216 1.19041,-1.400778 0.14083,-0.08532 0.29239,-0.133175 0.42185,-0.133175 0.0221,0 0.0537,0.01249 0.0758,0.01249 0.17366,0.03745 0.31449,0.133175 0.41238,0.341333 0.0979,0.170702 0.1402,0.42672 0.1402,0.768052 v 0.183188 c 0.63845,-0.40175 1.29839,-0.657767 1.75308,-0.695223 h 0.0221 c 0.0651,0 0.11873,0.07283 0.11873,0.145661 v 0.02504 c 0,0.07283 -0.0537,0.133175 -0.12947,0.14566 -0.41048,0.02497 -1.02811,0.268503 -1.64573,0.657767 l -0.16293,0.110286 c 0,0.03746 0,0.07283 -0.0107,0.110285 -0.0227,0.158217 -0.0537,0.30395 -0.0872,0.462094 -0.0334,0.145733 -0.0644,0.303878 -0.10926,0.451691 -0.28102,0.938683 -0.84496,1.571479 -1.26618,1.802527 -0.0985,0.04786 -0.18504,0.08531 -0.2703,0.0978 -0.0113,0.01248 -0.0221,0.01248 -0.0334,0.01248 -0.0644,0 -0.1181,0 -0.17367,-0.01248 -0.1402,-0.04786 -0.23872,-0.170702 -0.23872,-0.389192 v -0.03753 c 0,-0.293473 0.20525,-0.803427 0.74709,-1.546438 0.25008,-0.366374 0.58478,-0.682737 0.95233,-0.974129 0.0334,-0.208158 0.0448,-0.401749 0.0448,-0.584866 0,-0.183187 -0.0114,-0.353889 -0.0537,-0.487064 -0.0537,-0.183187 -0.0985,-0.268502 -0.18503,-0.268502 -0.043,0 -0.11872,0.03537 -0.20524,0.08531 -0.37891,0.195672 -0.78939,0.682737 -1.06158,1.267602 -0.11809,0.243532 -0.20524,0.487065 -0.28103,0.67018 -0.10735,0.293546 -0.17366,0.47458 -0.30312,0.47458 -0.0114,0 -0.0334,0 -0.0537,-0.01248 -0.0871,-0.03538 -0.12946,-0.195672 -0.12946,-0.52452 0,-0.256017 0,-0.64521 0.0221,-1.21759 0.0113,-0.743082 0.14083,-2.289591 0.37891,-3.569679 0.0537,-0.303878 0.11872,-0.584865 0.18503,-0.840883 z m 0.81213,7.224603 c 0.30312,-0.414163 0.56205,-1.036556 0.71361,-1.656795 0.0108,-0.03745 0.0221,-0.06035 0.0316,-0.0978 -0.25008,0.21849 -0.46606,0.451619 -0.6492,0.707636 -0.49763,0.682737 -0.68267,1.121943 -0.6934,1.365403 0,0.06041 0.0221,0.09787 0.0423,0.110358 h 0.0334 c 0.1623,0 0.44395,-0.316363 0.51974,-0.42672 z"
     fill="#ffffff"
     id="path28"
     style="stroke-width:0.673155" />
  <path
     d="m 179.39695,56.68498 c -0.56205,0 -0.95233,-0.401677 -1.00601,-1.046959 l -0.0113,-0.158146 c 0,-0.316434 0.0758,-0.682737 0.25008,-1.109385 0.41049,-1.046959 1.41839,-2.412435 3.30031,-4.008885 l 0.25008,-0.1956 c -0.0114,-0.622393 -0.0651,-1.182287 -0.18504,-1.49865 -0.043,-0.110285 -0.0979,-0.170702 -0.17366,-0.170702 -0.12946,0 -0.33661,0.218561 -0.61763,0.743082 -0.82287,1.473679 -1.41839,2.131374 -1.81813,2.302077 -0.0865,0.03538 -0.17367,0.06035 -0.24945,0.06035 -0.1181,0 -0.21661,-0.04786 -0.30313,-0.133175 -0.11873,-0.122842 -0.20524,-0.328919 -0.23871,-0.572452 -0.0221,-0.122771 -0.0316,-0.268502 -0.0316,-0.414163 0,-0.37886 0.0651,-0.828397 0.20524,-1.207257 -0.0537,-0.02497 -0.0979,-0.08532 -0.0979,-0.145661 l 0.0113,-0.03745 c 0.0537,-0.158217 0.12946,-0.37678 0.21598,-0.487065 0.0429,-0.04786 0.0872,-0.09787 0.12946,-0.110357 l 0.0221,-0.01248 0.0537,-0.01248 c 0.0536,0 0.10925,0.02497 0.16293,0.08539 0.0423,0.06035 0.0758,0.158145 0.0979,0.303877 v 0.07283 c -0.19388,0.707707 -0.2924,1.327948 -0.2924,1.767152 0,0.183116 0.0227,0.316363 0.0537,0.426649 0.0334,0.0729 0.0651,0.110357 0.10924,0.133247 h 0.0221 c 0.0113,0 0.0221,0 0.0316,-0.01249 0.35681,-0.145732 0.89865,-0.755567 1.66594,-2.156345 0.0335,-0.03753 0.0114,-0.02504 0.0429,-0.0729 0.26018,-0.47458 0.47679,-0.755568 0.6713,-0.876258 0.0758,-0.06035 0.1623,-0.08532 0.23809,-0.08532 0.0872,0 0.16293,0.02497 0.22734,0.08532 0.11873,0.08531 0.20524,0.243533 0.27029,0.462095 0.10925,0.316362 0.16293,0.755567 0.19388,1.230075 l 0.56205,-0.389193 c 0.36817,-0.231047 0.70287,-0.414234 0.95233,-0.487065 l 0.0334,-0.01248 c 0.0651,0 0.11872,0.04786 0.14082,0.12069 v 0.04793 c 0,0.06035 -0.0429,0.12069 -0.0985,0.145659 -0.22734,0.06035 -0.54121,0.231048 -0.88728,0.464176 -0.22734,0.145732 -0.45469,0.303878 -0.6934,0.487065 0.0113,0.17063 0.0113,0.341332 0.0113,0.512035 v 0.08532 c -0.0113,1.07193 -0.20524,2.52272 -0.6934,3.715339 -0.49764,1.207258 -1.2984,2.156345 -2.50018,2.156345 h -0.0316 z m 0.6934,-0.584865 c 0.59553,-0.316362 1.05022,-0.938683 1.38492,-1.66928 0.51974,-1.157317 0.71362,-2.497749 0.71362,-3.56968 v -0.316362 l -0.0865,0.07283 c -1.85098,1.558994 -2.82541,2.876537 -3.22516,3.873556 -0.15156,0.378788 -0.21661,0.695223 -0.21661,0.961644 l 0.0114,0.158146 c 0.0221,0.268502 0.11809,0.474579 0.27029,0.59735 0.0979,0.09787 0.23808,0.133247 0.37891,0.133247 0.26081,0 0.56205,-0.133247 0.76918,-0.243533 z"
     fill="#ffffff"
     id="path30"
     style="stroke-width:0.673155" />
</svg>
