<?xml version="1.0" encoding="UTF-8"?>
<svg id="Camada_2" xmlns="http://www.w3.org/2000/svg" viewBox="0 0 996.31 246.79">
  <defs>
    <style>
      .cls-1 {
        fill: #FFFFFF;
      }
    </style>
  </defs>
  <g id="Camada_1-2" data-name="Camada_1">
    <g>
      <path class="cls-1" d="M990.26,122.14c-.51-.4-51.88-40.47-138.23-60.3-79.27-18.22-205.09-22.67-355.17,58.96-3.38,0-6.76,0-10.13,0-.31,0-.61,0-.89,0-238.94.21-474.18.75-478.55.76l-7.28.02,5.65,4.59c.43.35,39.17,31.38,106.04,52.07.36.11.73.22,1.09.33,1.37.42,2.73.84,4.12,1.25,8.05,2.41,16.47,4.69,25.29,6.73,27.16,6.31,59.89,10.97,97.31,10.97,71.06,0,159.04-16.8,257.93-71.03.26-.14.54-.29.8-.44,210.25-.17,423.04-.11,490.34.77l7.75.1-6.06-4.79ZM77.5,139.81s184.36-3.76,397.01-13.72c.54,0,1.08,0,1.61,0-224.68,102.14-398.63,13.72-398.63,13.72ZM669.16,120.72c-51.98,0-106.55.03-161.09.07,144.67-75.96,265.72-71.46,342.5-53.88,67.52,15.47,113.31,43.41,129.69,54.56-53.75-.56-173.39-.75-311.1-.75Z"/>
      <g>
        <g>
          <polygon class="cls-1" points="918.75 164.31 918.75 187.79 928.08 178.46 928.08 154.98 918.75 164.31"/>
          <polygon class="cls-1" points="902.24 153.99 892.91 163.32 917.76 163.32 927.09 153.99 902.24 153.99"/>
          <g>
            <path class="cls-1" d="M834.05,171.9c-7.22,0-13.65,2.49-18.5,7.15-4.86,4.72-7.48,11.16-7.48,18.31s2.62,13.65,7.48,18.37c4.72,4.72,11.29,7.28,18.5,7.28s13.65-2.56,18.5-7.28c4.86-4.72,7.41-11.16,7.41-18.37s-2.62-13.58-7.48-18.31c-4.72-4.66-11.22-7.15-18.44-7.15ZM846.06,209.63c-3.08,3.15-7.28,4.86-12.01,4.86s-8.99-1.71-12.07-4.86c-3.02-3.08-4.66-7.41-4.66-12.14s1.64-9.12,4.66-12.21c3.08-3.15,7.22-4.86,12.07-4.86s8.92,1.71,12.01,4.86c3.02,3.08,4.66,7.35,4.66,12.21s-1.64,8.99-4.66,12.14Z"/>
            <path class="cls-1" d="M911.47,222.17l-13.34-18.71c6.92-1.98,11.79-6.85,11.79-14.97v-.14c0-13.02-11.8-15.6-18.36-15.6h-22.72c-1,0-1.54.54-1.54,1.54v47.67h8.9v-41.67h14.66c6.43,0,10.24,3.26,10.24,8.55v.14c0,5.01-3.95,8.17-10.17,8.17h-7.59s17.9,25.01,17.9,25.01h10.24Z"/>
          </g>
        </g>
        <g>
          <path class="cls-1" d="M748.42,190.8c.17-.37.58-2.39,1.28-3.43.41-.82.87-1.57,1.34-2.1.06-.06.17-.12.29-.17.12-.06.18-.06.29-.06.18,0,.29.06.47.18l.06.06c.12.06.17.18.17.29.06.06.06.12.06.23s-.06.23-.12.35c-.06.23-.12.47-.23.64-1.4,3.14-2.45,7.92-3.14,12.81-.87,6.05-1.34,12.16-1.4,15.66.18-.35.41-.76.58-1.16,1.63-3.08,4.13-5.65,6.4-6.69.76-.41,1.57-.64,2.27-.64.12,0,.29.06.41.06.93.18,1.69.64,2.21,1.63.52.81.76,2.04.76,3.67v.87c3.43-1.92,6.98-3.14,9.43-3.32h.12c.35,0,.64.35.64.7v.12c0,.35-.29.64-.7.7-2.21.12-5.53,1.28-8.85,3.14l-.87.52c0,.18,0,.35-.06.52-.12.76-.29,1.45-.47,2.21-.18.7-.35,1.46-.58,2.15-1.51,4.48-4.54,7.51-6.81,8.61-.52.23-.99.41-1.45.47-.06.06-.12.06-.18.06-.35,0-.64,0-.93-.06-.76-.23-1.28-.82-1.28-1.86v-.18c0-1.4,1.11-3.84,4.02-7.39,1.34-1.75,3.14-3.26,5.12-4.66.18-.99.23-1.92.23-2.79s-.06-1.69-.29-2.33c-.29-.87-.52-1.28-.99-1.28-.23,0-.64.17-1.11.41-2.04.93-4.25,3.26-5.7,6.05-.64,1.16-1.11,2.33-1.51,3.2-.58,1.4-.93,2.27-1.63,2.27-.06,0-.18,0-.29-.06-.47-.17-.7-.93-.7-2.5,0-1.22,0-3.08.12-5.82.06-3.55.76-10.94,2.04-17.05.29-1.46.64-2.79.99-4.02ZM752.78,225.31c1.63-1.98,3.03-4.95,3.84-7.92.06-.18.12-.29.17-.47-1.34,1.05-2.5,2.15-3.49,3.38-2.68,3.26-3.67,5.36-3.73,6.52,0,.29.12.47.23.52h.18c.87,0,2.39-1.51,2.79-2.04Z"/>
          <path class="cls-1" d="M772.11,246.79c-3.03,0-5.12-1.92-5.41-5.01l-.06-.76c0-1.51.41-3.26,1.34-5.3,2.21-5.01,7.63-11.52,17.75-19.15l1.34-.93c-.06-2.97-.35-5.65-.99-7.16-.23-.52-.52-.81-.93-.81-.7,0-1.81,1.05-3.32,3.55-4.42,7.04-7.62,10.19-9.78,11-.47.17-.93.29-1.34.29-.64,0-1.16-.23-1.63-.64-.64-.58-1.11-1.57-1.28-2.74-.12-.58-.17-1.28-.17-1.98,0-1.81.35-3.96,1.11-5.76-.29-.12-.52-.41-.52-.7l.06-.18c.29-.76.7-1.8,1.16-2.33.23-.23.47-.47.7-.52l.12-.06.29-.06c.29,0,.58.12.87.41.23.29.41.76.52,1.45v.35c-1.05,3.38-1.57,6.34-1.57,8.44,0,.87.12,1.51.29,2.04.18.35.35.52.58.64h.12c.06,0,.12,0,.17-.06,1.92-.7,4.83-3.61,8.96-10.3.18-.18.06-.12.23-.35,1.4-2.27,2.56-3.61,3.61-4.19.41-.29.87-.41,1.28-.41.47,0,.87.12,1.22.41.64.41,1.11,1.16,1.45,2.21.58,1.51.87,3.61,1.05,5.88l3.03-1.86c1.98-1.11,3.78-1.98,5.12-2.33l.18-.06c.35,0,.64.23.76.58v.23c0,.29-.23.58-.52.7-1.22.29-2.91,1.11-4.77,2.21-1.22.7-2.44,1.45-3.73,2.33.06.81.06,1.63.06,2.44v.41c-.06,5.12-1.11,12.05-3.73,17.75-2.68,5.76-6.98,10.3-13.45,10.3h-.17ZM775.83,244c3.2-1.51,5.65-4.48,7.45-7.97,2.79-5.53,3.84-11.93,3.84-17.05v-1.51l-.47.35c-9.95,7.45-15.19,13.74-17.35,18.51-.81,1.81-1.16,3.32-1.16,4.6l.06.76c.12,1.28.64,2.27,1.45,2.85.52.47,1.28.64,2.04.64,1.4,0,3.03-.64,4.13-1.16Z"/>
        </g>
      </g>
      <g>
        <path class="cls-1" d="M54.26,50.14C54.26,21.27,76.23,0,105.95,0c14.37,0,27.32,4.79,36.05,14.37l-6.62,6.62c-8.03-8.17-17.89-11.69-29.15-11.69-23.8,0-41.69,17.46-41.69,40.84s17.89,40.84,41.69,40.84c11.27,0,21.13-3.52,29.15-11.83l6.62,6.62c-8.73,9.58-21.69,14.51-36.19,14.51-29.58,0-51.55-21.27-51.55-50.14Z"/>
        <path class="cls-1" d="M247.72,73.09h-54.93l-11.83,26.34h-10.84L215.19.84h10.28l45.07,98.58h-10.98l-11.83-26.34ZM243.92,64.64l-23.66-52.95-23.66,52.95h47.32Z"/>
        <path class="cls-1" d="M309.05.84h10.42v98.58h-10.42V.84Z"/>
        <path class="cls-1" d="M366.31,87.46l4.08-8.03c7.04,6.9,19.58,11.97,32.53,11.97,18.45,0,26.48-7.75,26.48-17.46,0-27.04-60.7-10.42-60.7-46.9,0-14.51,11.27-27.04,36.34-27.04,11.13,0,22.67,3.24,30.56,8.73l-3.52,8.31c-8.45-5.49-18.31-8.17-27.04-8.17-18.03,0-26.05,8.03-26.05,17.89,0,27.04,60.7,10.7,60.7,46.62,0,14.51-11.55,26.9-36.76,26.9-14.79,0-29.29-5.21-36.62-12.82Z"/>
      </g>
      <g>
        <path class="cls-1" d="M598.49,213.9v6.04h-34.94v-4.72l19.8-19.1c5.14-5,6.11-8.06,6.11-11.11,0-5-3.54-8.06-10.35-8.06-5.21,0-9.45,1.67-12.43,5.28l-4.72-4.1c3.75-4.65,10.21-7.36,17.78-7.36,10.14,0,16.67,5.21,16.67,13.55,0,4.72-1.39,8.96-7.99,15.28l-14.87,14.31h24.94Z"/>
        <path class="cls-1" d="M624.81,171.31v48.63h-6.88v-42.58h-10.98v-6.04h17.85Z"/>
        <path class="cls-1" d="M679.34,206.18c0,8.82-7.5,14.31-19.38,14.31s-19.24-5.49-19.24-14.31c0-5.56,3.06-9.66,8.54-11.74-4.45-2.08-6.81-5.7-6.81-10.49,0-8.13,7.02-13.2,17.51-13.2s17.65,5.07,17.65,13.2c0,4.79-2.43,8.41-6.88,10.49,5.56,2.15,8.61,6.18,8.61,11.74ZM672.4,205.98c0-5.35-4.72-8.68-12.44-8.68s-12.3,3.33-12.3,8.68,4.59,8.89,12.3,8.89,12.44-3.4,12.44-8.89ZM649.33,184.23c0,4.79,3.96,7.78,10.63,7.78s10.84-2.99,10.84-7.78-4.31-7.85-10.84-7.85-10.63,2.99-10.63,7.85Z"/>
      </g>
    </g>
  </g>
</svg>