<svg width="57" height="57" viewBox="0 0 57 57" fill="none" xmlns="http://www.w3.org/2000/svg">
<g filter="url(#filter0_d_731_9448)">
<circle cx="40.2617" cy="12.252" r="12.252" fill="white"/>
<circle cx="16.2529" cy="36.2612" r="12.252" transform="rotate(-180 16.2529 36.2612)" fill="white"/>
<path d="M46.1368 7.66104C46.1518 7.10896 45.7163 6.64931 45.1642 6.6344L36.1675 6.39131C35.6154 6.37639 35.1558 6.81185 35.1409 7.36394C35.1259 7.91602 35.5614 8.37567 36.1135 8.39058L44.1106 8.60666L43.8945 16.6037C43.8796 17.1558 44.315 17.6155 44.8671 17.6304C45.4192 17.6453 45.8788 17.2098 45.8938 16.6578L46.1368 7.66104ZM36.0764 17.5956L45.825 8.35998L44.4495 6.90809L34.7009 16.1437L36.0764 17.5956Z" fill="#0F1F39"/>
<path d="M10.3788 40.8521C10.3639 41.4042 10.7993 41.8639 11.3514 41.8788L20.3481 42.1219C20.9002 42.1368 21.3599 41.7013 21.3748 41.1492C21.3897 40.5972 20.9542 40.1375 20.4021 40.1226L12.4051 39.9065L12.6211 31.9094C12.6361 31.3574 12.2006 30.8977 11.6485 30.8828C11.0964 30.8679 10.6368 31.3033 10.6219 31.8554L10.3788 40.8521ZM20.4392 30.9176L10.6907 40.1532L12.0662 41.6051L21.8147 32.3695L20.4392 30.9176Z" fill="#0F1F39"/>
</g>
<defs>
<filter id="filter0_d_731_9448" x="0.000976562" y="0" width="56.5127" height="56.5132" filterUnits="userSpaceOnUse" color-interpolation-filters="sRGB">
<feFlood flood-opacity="0" result="BackgroundImageFix"/>
<feColorMatrix in="SourceAlpha" type="matrix" values="0 0 0 0 0 0 0 0 0 0 0 0 0 0 0 0 0 0 127 0" result="hardAlpha"/>
<feOffset dy="4"/>
<feGaussianBlur stdDeviation="2"/>
<feComposite in2="hardAlpha" operator="out"/>
<feColorMatrix type="matrix" values="0 0 0 0 0 0 0 0 0 0 0 0 0 0 0 0 0 0 0.25 0"/>
<feBlend mode="normal" in2="BackgroundImageFix" result="effect1_dropShadow_731_9448"/>
<feBlend mode="normal" in="SourceGraphic" in2="effect1_dropShadow_731_9448" result="shape"/>
</filter>
</defs>
</svg>
