<?xml version="1.0" encoding="UTF-8" standalone="no"?>
<!-- Uploaded to: SVG Repo, www.svgrepo.com, Generator: SVG Repo Mixer Tools -->

<svg
   fill="#000000"
   height="800px"
   width="800px"
   version="1.1"
   id="Layer_1"
   viewBox="0 0 503.607 503.607"
   xml:space="preserve"
   sodipodi:docname="medidor-geral.svg"
   inkscape:version="1.3 (1:1.3+202307231459+0e150ed6c4)"
   xmlns:inkscape="http://www.inkscape.org/namespaces/inkscape"
   xmlns:sodipodi="http://sodipodi.sourceforge.net/DTD/sodipodi-0.dtd"
   xmlns="http://www.w3.org/2000/svg"
   xmlns:svg="http://www.w3.org/2000/svg"><defs
   id="defs10"><inkscape:path-effect
     effect="fillet_chamfer"
     id="path-effect13"
     is_visible="true"
     lpeversion="1"
     nodesatellites_param="F,0,0,1,0,30.944954,0,1 @ F,0,0,1,0,30.997066,0,1 @ F,0,0,1,0,29.647016,0,1 @ F,0,0,1,0,30.405044,0,1 | F,0,0,1,0,19.924024,0,1 @ F,0,0,1,0,20.716175,0,1 @ F,0,0,1,0,16.7869,0,1 @ F,0,0,1,0,15.793945,0,1"
     radius="0"
     unit="px"
     method="auto"
     mode="F"
     chamfer_steps="1"
     flexible="false"
     use_knot_distance="true"
     apply_no_radius="true"
     apply_with_radius="true"
     only_selected="false"
     hide_knots="false" /><style
     id="style1">.cls-1{fill:none;}</style></defs><sodipodi:namedview
   id="namedview10"
   pagecolor="#ffffff"
   bordercolor="#000000"
   borderopacity="0.25"
   inkscape:showpageshadow="2"
   inkscape:pageopacity="0.0"
   inkscape:pagecheckerboard="0"
   inkscape:deskcolor="#d1d1d1"
   inkscape:zoom="0.44547727"
   inkscape:cx="149.2781"
   inkscape:cy="480.38365"
   inkscape:window-width="1366"
   inkscape:window-height="704"
   inkscape:window-x="0"
   inkscape:window-y="27"
   inkscape:window-maximized="1"
   inkscape:current-layer="g9" />&#10;<g
   id="g10">&#10;	<g
   id="g9">&#10;		<g
   id="g8">&#10;			<path
   d="M503.607,201.443h-16.785v-8.393c0-4.636-3.758-8.393-8.393-8.393c-4.636,0-8.393,3.758-8.393,8.393v8.393h-25.18v-8.393     c0-4.636-3.758-8.393-8.393-8.393s-8.393,3.758-8.393,8.393v8.393h-16.084c-21.391-68.105-85.012-117.508-160.179-117.508     c-75.167,0-138.787,49.403-160.179,117.508H75.543v-8.393c0-4.636-3.758-8.393-8.393-8.393s-8.393,3.758-8.393,8.393v8.393     h-25.18v-8.393c0-4.636-3.758-8.393-8.393-8.393s-8.393,3.758-8.393,8.393v8.393H0v100.721h16.789v8.393     c0,4.636,3.758,8.393,8.393,8.393s8.393-3.758,8.393-8.393v-8.393h25.18v8.393c0,4.636,3.758,8.393,8.393,8.393     s8.393-3.758,8.393-8.393v-8.393h16.084c21.391,68.105,85.012,117.508,160.179,117.508c75.167,0,138.787-49.403,160.179-117.508     h16.084v8.393c0,4.636,3.758,8.393,8.393,8.393s8.393-3.758,8.393-8.393v-8.393h25.18v8.393c0,4.636,3.758,8.393,8.393,8.393     c4.636,0,8.393-3.758,8.393-8.393v-8.393h16.785V201.443z M83.934,285.377H16.787v-67.148h67.148V285.377z M251.805,402.885     c-83.442,0-151.082-67.642-151.082-151.082s67.64-151.082,151.082-151.082c83.399,0,151.01,67.572,151.08,150.952v0.261     C402.815,335.313,335.204,402.885,251.805,402.885z M419.672,251.938c0-0.045,0.002-0.09,0.002-0.135s-0.002-0.09-0.002-0.135     v-33.439h67.148v67.148h-67.148V251.938z"
   id="path1" />&#10;			<path
   d="m 185.42001,309.26623 c -18.543,0 -33.574,15.03 -33.574,33.574 0,18.543 15.03,33.574 33.574,33.574 18.544,0 33.574,-15.03 33.574,-33.574 0,-18.543 -15.03,-33.574 -33.574,-33.574 z m 0,50.361 c -9.272,0 -16.787,-7.515 -16.787,-16.787 0,-9.272 7.515,-16.787 16.787,-16.787 9.272,0 16.787,7.515 16.787,16.787 0,9.273 -7.514,16.787 -16.787,16.787 z"
   id="path2" />&#10;			<path
   d="m 322.12068,309.26632 c -18.544,0 -33.574,15.03 -33.574,33.574 0,18.543 15.03,33.574 33.574,33.574 18.544,0 33.574,-15.03 33.574,-33.574 -0.001,-18.543 -15.031,-33.574 -33.574,-33.574 z m 0,50.361 c -9.272,0 -16.787,-7.515 -16.787,-16.787 0,-9.272 7.515,-16.787 16.787,-16.787 9.272,0 16.787,7.515 16.787,16.787 0,9.273 -7.515,16.787 -16.787,16.787 z"
   id="path3"
   inkscape:label="path3" />&#10;			<path
   d="m 180.1682,237.16575 139.50098,0 a 30.997066,30.997066 135 0 0 30.99707,-30.99707 V 174.48477 A 29.647016,29.647016 45 0 0 321.01923,144.83775 H 179.62829 a 30.405044,30.405044 135 0 0 -30.40504,30.40504 l 0,30.97801 a 30.944954,30.944954 45 0 0 30.94495,30.94495 z m 5.76607,-75.541 h 127.22881 a 20.716175,20.716175 45 0 1 20.71617,20.71618 v 21.25092 a 16.7869,16.7869 135 0 1 -16.7869,16.7869 H 181.8042 a 15.793945,15.793945 45 0 1 -15.79395,-15.79394 l 0,-23.03604 a 19.924024,19.924024 135 0 1 19.92402,-19.92402 z"
   id="path4"
   inkscape:label="path4"
   sodipodi:nodetypes="cccccccccc"
   inkscape:path-effect="#path-effect13"
   inkscape:original-d="m 149.22325,237.16575 c 67.14767,0 134.29533,0 201.443,0 0,-30.776 0,-61.552 0,-92.328 -67.14767,0 -134.29533,0 -201.443,0 0,30.776 0,61.552 0,92.328 z m 16.787,-75.541 h 167.869 v 58.754 h -167.869 z" />&#10;			<path
   d="m 199.58525,178.41175 c -4.636,0 -8.393,3.758 -8.393,8.393 v 8.393 c 0,4.636 3.758,8.393 8.393,8.393 4.636,0 8.393,-3.758 8.393,-8.393 v -8.393 c 0.001,-4.636 -3.757,-8.393 -8.393,-8.393 z"
   id="path5" />&#10;			<path
   d="m 266.73325,178.41175 c -4.636,0 -8.393,3.758 -8.393,8.393 v 8.393 c 0,4.636 3.758,8.393 8.393,8.393 4.635,0 8.393,-3.758 8.393,-8.393 v -8.393 c 0,-4.636 -3.758,-8.393 -8.393,-8.393 z"
   id="path6" />&#10;			<path
   d="m 300.30725,178.41175 c -4.636,0 -8.393,3.758 -8.393,8.393 v 8.393 c 0,4.636 3.758,8.393 8.393,8.393 4.635,0 8.393,-3.758 8.393,-8.393 v -8.393 c 0,-4.636 -3.758,-8.393 -8.393,-8.393 z"
   id="path7" />&#10;			<path
   d="m 233.15925,178.41175 c -4.636,0 -8.393,3.758 -8.393,8.393 v 8.393 c 0,4.636 3.758,8.393 8.393,8.393 4.635,0 8.393,-3.758 8.393,-8.393 v -8.393 c 0,-4.636 -3.757,-8.393 -8.393,-8.393 z"
   id="path8" />&#10;		</g>&#10;	<g
   style="fill:#000000"
   id="g11"
   transform="matrix(0.15708885,0,0,0.15257977,320.07264,231.75066)"><g
     id="g2">&#10;	<g
   id="g1">&#10;		<path
   d="M 413.602,225.145 256,0 98.398,225.145 C 66.773,270.325 57.358,326.664 72.565,379.719 87.582,432.109 140.105,512 256,512 c 115.895,0 168.417,-79.891 183.435,-132.281 15.208,-53.055 5.792,-109.394 -25.833,-154.574 z m -15.05,142.856 c -11.466,40.001 -55.719,101.469 -142.551,101.469 -86.832,0 -131.084,-61.469 -142.551,-101.469 -11.657,-40.667 -4.443,-83.846 19.791,-118.466 l 122.76,-175.372 122.76,175.372 c 24.234,34.619 31.447,77.798 19.791,118.466 z"
   id="path1-6" />&#10;	</g>&#10;</g></g><g
   style="fill:none"
   id="g12"
   transform="matrix(5.1368424,0,0,5.0539836,87.978141,221.629)"><path
     fill-rule="evenodd"
     clip-rule="evenodd"
     d="M 10.759,5 7.5,11.222 h 3.259 L 8.315,19 18.5,11.222 H 14.019 L 16.463,5 Z"
     stroke="#000000"
     stroke-width="1.5"
     stroke-linecap="round"
     stroke-linejoin="round"
     id="path1-7" /></g><g
   style="fill:#000000"
   id="g13"
   transform="matrix(2.6146114,0,0,2.2851037,213.05822,260.65674)"><path
     d="m 27.001,28 a 0.998,0.998 0 0 1 -0.8008,-0.4 l -0.8145,-1.086 a 8.9976,8.9976 0 0 1 -1.6005,-7.2856 l 1.4736,-6.8762 A 6.9956,6.9956 0 0 0 24.0142,6.6854 L 23.2,5.6 a 1,1 0 1 1 1.6,-1.2 l 0.8145,1.0857 a 8.9976,8.9976 0 0 1 1.6005,7.2856 l -1.4736,6.8762 a 6.9956,6.9956 0 0 0 1.2446,5.6668 L 27.8,26.4 A 1,1 0 0 1 27.001,28 Z"
     id="path1-5" /><path
     d="m 22.001,28 a 0.998,0.998 0 0 1 -0.8008,-0.4 l -0.8145,-1.086 a 8.9976,8.9976 0 0 1 -1.6005,-7.2856 l 1.4736,-6.8762 A 6.9956,6.9956 0 0 0 19.0142,6.6854 L 18.2,5.6 a 1,1 0 1 1 1.6,-1.2 l 0.8145,1.0857 a 8.9976,8.9976 0 0 1 1.6005,7.2856 l -1.4736,6.8762 a 6.9956,6.9956 0 0 0 1.2446,5.6668 L 22.8,26.4 A 1,1 0 0 1 22.001,28 Z"
     id="path2-3" /><path
     d="m 17.001,28 a 0.998,0.998 0 0 1 -0.8008,-0.4 l -0.8145,-1.086 a 8.9976,8.9976 0 0 1 -1.6005,-7.2856 l 1.4736,-6.8762 A 6.9956,6.9956 0 0 0 14.0142,6.6854 L 13.2,5.6 a 1,1 0 1 1 1.6,-1.2 l 0.8145,1.0857 a 8.9976,8.9976 0 0 1 1.6005,7.2856 l -1.4736,6.8762 a 6.9956,6.9956 0 0 0 1.2446,5.6668 L 17.8,26.4 A 1,1 0 0 1 17.001,28 Z"
     id="path3-5" /><path
     d="M 12.001,28 A 0.998,0.998 0 0 1 11.2002,27.6 L 10.3857,26.514 A 8.9976,8.9976 0 0 1 8.7852,19.2284 l 1.4736,-6.8762 A 6.9956,6.9956 0 0 0 9.0142,6.6855 L 8.2,5.6 A 1,1 0 1 1 9.8,4.4 l 0.8145,1.0857 a 8.9976,8.9976 0 0 1 1.6005,7.2856 l -1.4736,6.8762 a 6.9956,6.9956 0 0 0 1.2446,5.6668 L 12.8,26.4 A 1,1 0 0 1 12.001,28 Z"
     id="path4-6" /><path
     d="M 7.001,28 A 0.998,0.998 0 0 1 6.2,27.6 L 5.3855,26.514 a 8.9976,8.9976 0 0 1 -1.6,-7.2856 L 5.2591,12.3522 A 6.9956,6.9956 0 0 0 4.0142,6.6855 L 3.2,5.6 A 1,1 0 1 1 4.8,4.4 l 0.8145,1.0857 a 8.9976,8.9976 0 0 1 1.6005,7.2856 l -1.4738,6.8761 a 6.9956,6.9956 0 0 0 1.2446,5.6668 L 7.8,26.4 A 1,1 0 0 1 7.001,28 Z"
     id="path5-2" /><rect
     id="_Transparent_Rectangle_"
     data-name="&lt;Transparent Rectangle&gt;"
     class="cls-1"
     width="32"
     height="32"
     x="0"
     y="0" /></g></g>&#10;</g>&#10;</svg>
