<?xml version="1.0" encoding="UTF-8" standalone="no"?>
<svg
   width="34"
   height="34"
   viewBox="0 0 34 34"
   fill="none"
   version="1.1"
   id="svg1043"
   sodipodi:docname="mini-menu-item03.svg"
   xml:space="preserve"
   inkscape:version="1.2.2 (b0a84865, 2022-12-01)"
   xmlns:inkscape="http://www.inkscape.org/namespaces/inkscape"
   xmlns:sodipodi="http://sodipodi.sourceforge.net/DTD/sodipodi-0.dtd"
   xmlns="http://www.w3.org/2000/svg"
   xmlns:svg="http://www.w3.org/2000/svg"><sodipodi:namedview
     id="namedview1045"
     pagecolor="#ffffff"
     bordercolor="#000000"
     borderopacity="0.25"
     inkscape:showpageshadow="2"
     inkscape:pageopacity="0.0"
     inkscape:pagecheckerboard="0"
     inkscape:deskcolor="#d1d1d1"
     showgrid="false"
     inkscape:zoom="11.233442"
     inkscape:cx="35.118354"
     inkscape:cy="12.195727"
     inkscape:window-width="1920"
     inkscape:window-height="1068"
     inkscape:window-x="0"
     inkscape:window-y="25"
     inkscape:window-maximized="1"
     inkscape:current-layer="svg1043" /><defs
     id="defs1041"><clipPath
       id="clip0_4156_15473"><rect
         width="29"
         height="33"
         fill="#ffffff"
         transform="translate(0.118164,0.237305)"
         id="rect1038"
         x="0"
         y="0" /></clipPath></defs><g
     id="g14302"
     transform="translate(-35.162864,-0.44509959)"><path
       id="rect6976"
       style="color:#000000;fill:#f9f9f9;stroke-linecap:square;stroke-width:1;stroke-dasharray:none;stroke:#f9f9f9;stroke-opacity:1"
       d="M 38.71875,0.99609375 V 33.84375 h 0.548828 24.972656 V 19.884766 a 3.4185944,3.4185944 0 0 1 -0.507812,0.03906 3.4185944,3.4185944 0 0 1 -0.59375,-0.05859 V 30.025391 L 39.947266,29.904297 H 39.818359 V 16.882812 l 0.302735,0.002 6.18164,0.0332 V 18.625 h 0.154297 c 0.05409,1.308158 0.978726,2.414062 2.212891,2.414062 h 5.617187 c 1.234163,0 2.158804,-1.105904 2.212891,-2.414062 h 0.15625 v -1.650391 l 3.691406,0.01953 a 3.4185944,3.4185944 0 0 1 -0.03516,-0.488282 3.4185944,3.4185944 0 0 1 0.06055,-0.607421 l -3.716797,-0.01953 v -0.0059 H 55.58789 l -15.460938,-0.08399 -0.308594,-0.002 V 2.0957031 h 6.484375 v 1.6523438 h 0.154297 c 0.05321,1.3090315 0.978108,2.4160156 2.212891,2.4160156 h 5.617187 c 1.234782,0 2.159685,-1.1069839 2.212891,-2.4160156 h 0.15625 V 2.0957031 h 6.482422 V 13.144531 a 3.4185944,3.4185944 0 0 1 0.59375,-0.05664 3.4185944,3.4185944 0 0 1 0.507812,0.03906 V 0.99609375 Z m 8.390625,1.09960935 h 8.738281 v 0.8457031 h -0.193359 l 0.05664,0.453125 c 0.01126,0.089963 0.01953,0.173763 0.01953,0.2539063 0,0.9801057 -0.668778,1.7070313 -1.44336,1.7070313 H 48.66992 c -0.774582,0 -1.441406,-0.7269254 -1.441406,-1.7070313 0,-0.080195 0.0063,-0.1640492 0.01758,-0.2539063 l 0.05664,-0.453125 h -0.193359 z m 0,14.8261719 8.738281,0.04883 v 0.845703 h -0.193359 l 0.05664,0.455078 c 0.01126,0.08996 0.01953,0.17181 0.01953,0.251954 0,0.980106 -0.668778,1.708984 -1.44336,1.708984 H 48.66992 c -0.774582,0 -1.441406,-0.728878 -1.441406,-1.708984 0,-0.0802 0.0063,-0.162103 0.01758,-0.251954 l 0.05664,-0.455078 h -0.193359 z m -7.291016,14.080078 h 0.123047 l 23.197266,0.121094 v 1.621094 H 39.818359 Z" /><path
       style="color:#000000;fill:#f9f9f9;stroke-linecap:square;stroke-width:1.9;stroke-dasharray:none;stroke:#f9f9f9;stroke-opacity:0"
       d="m 63.732422,13.722656 c -1.479313,0 -2.691406,1.210141 -2.691406,2.689453 0,1.479313 1.212093,2.689454 2.691406,2.689453 1.479313,0 2.689453,-1.21014 2.689453,-2.689453 0,-1.479312 -1.21014,-2.689453 -2.689453,-2.689453 z m 0,1.09961 c 0.884829,0 1.589844,0.705014 1.589844,1.589843 0,0.884829 -0.705015,1.589844 -1.589844,1.589844 -0.884829,0 -1.591797,-0.705015 -1.591797,-1.589844 0,-0.884829 0.706968,-1.589843 1.591797,-1.589843 z"
       id="path14298" /></g><circle
     style="fill:none;stroke:#f9f9f9;stroke-width:1;stroke-linecap:square;stroke-dasharray:none;stroke-opacity:1"
     id="path15877"
     cx="28.53088"
     cy="15.979074"
     r="0.48960951" /></svg>
