<svg width="47" height="55" viewBox="0 0 47 55" fill="none" xmlns="http://www.w3.org/2000/svg">
<mask id="path-1-outside-1_1_7" maskUnits="userSpaceOnUse" x="-1" y="-0.0396118" width="48" height="56" fill="black">
<rect fill="white" x="-1" y="-0.0396118" width="48" height="56"/>
<path d="M41 30.9604C38.2431 30.9604 36 28.7173 36 25.9604C36 23.2035 38.2431 20.9604 41 20.9604C43.7569 20.9604 46 23.2035 46 25.9604C46 28.7173 43.7569 30.9604 41 30.9604ZM41 22.0092C38.8212 22.0092 37.0478 23.7815 37.0478 25.9614C37.0478 28.1412 38.8202 29.9136 41 29.9136C43.1798 29.9136 44.9522 28.1412 44.9522 25.9614C44.9522 23.7815 43.1798 22.0092 41 22.0092Z"/>
<path d="M40.7195 33.0695C40.3513 33.0695 39.9894 33.0402 39.6364 32.9841V48.6104H2.12083V26.9299H12.5333C12.5333 28.0655 12.5333 29.1846 12.5333 30.305C12.5321 31.7478 13.9935 33.2352 15.4157 33.2352C18.998 33.2352 22.5802 33.2225 26.1624 33.2403C27.4599 33.2467 29.1142 31.8905 29.1305 30.4503C29.1444 29.2853 29.2264 28.1203 29.2793 26.9248H33.8236C33.787 26.6342 33.7669 26.3398 33.7669 26.0402C33.7669 25.612 33.8072 25.1926 33.8791 24.7861H2.12714V3.1004H12.5333C12.5333 4.21311 12.5207 5.33219 12.5371 6.44999C12.5586 7.96801 13.9481 9.38917 15.4485 9.39426C19.0484 9.40828 22.6483 9.40574 26.2469 9.39426C27.5179 9.39044 29.099 8.06998 29.1255 6.63226C29.1368 6.0434 29.2049 5.45455 29.2226 4.86569C29.2402 4.28831 29.2264 3.70965 29.2264 3.10168H39.63V19.0976C39.9844 19.0415 40.3488 19.0109 40.7195 19.0109C41.07 19.0109 41.4142 19.0377 41.7496 19.0887C41.7496 13.6756 41.7509 8.26244 41.7547 2.84804C41.7547 2.09859 41.7004 1.41541 41.017 0.960388H0.636754C0.0819584 1.33894 0 1.87808 0 2.5192C0.0138699 19.4774 0.0113481 36.4344 0.0113481 53.3927C0.0113481 53.5864 0.0113481 53.7789 0.0163917 53.9726C0.0290007 54.5309 0.457706 54.9591 1.02007 54.9591C14.2141 54.9617 27.4094 54.9629 40.6035 54.9591C40.7623 54.9591 40.9338 54.9107 41.0801 54.8419C41.6664 54.5665 41.7471 54.0325 41.7471 53.4589C41.7471 46.6374 41.7471 39.8146 41.7471 32.9931C41.4117 33.0428 41.0687 33.0695 40.7195 33.0695ZM14.6226 26.9184H27.1862C27.1358 28.0541 27.1333 29.1821 27.0185 30.2973C26.9605 30.862 26.5394 31.1233 25.9619 31.1233C22.4894 31.1283 19.0169 31.1271 15.5444 31.122C15.127 31.122 14.634 30.6708 14.6289 30.2616C14.6138 29.1604 14.6239 28.0579 14.6239 26.9184H14.6226ZM14.6226 3.08256H27.0387C27.0387 4.20164 27.0955 5.32709 27.016 6.44234C26.9744 7.02482 26.5558 7.28484 25.9783 7.28484C22.5058 7.29121 19.0333 7.28866 15.5608 7.28484C15.1005 7.28484 14.6327 6.84129 14.6277 6.39009C14.6151 5.30415 14.6239 4.21821 14.6239 3.08256H14.6226ZM39.6477 52.8242H2.12714V50.7734H39.6477V52.8242Z"/>
<path d="M40.9017 28.4604C40.4695 28.4604 40.0373 28.4604 39.6042 28.4586C39.4378 28.4586 39.2835 28.3861 39.158 28.2497C39.0493 28.1317 38.9991 27.9918 39 27.81C39.0019 27.4987 39.0019 27.1867 39.0009 26.8754C39.0009 26.5459 39.0009 26.2154 39.0028 25.8858C39.0028 25.7293 39.0772 25.5886 39.2212 25.4671C39.3086 25.3936 39.4053 25.356 39.4963 25.3359V25.2747C39.4963 25.1357 39.4973 24.9959 39.4963 24.8569C39.4936 24.6095 39.5661 24.3673 39.7111 24.1383C39.8598 23.9048 40.0642 23.7265 40.3208 23.6076C40.4937 23.5272 40.6786 23.4791 40.871 23.4651C41.162 23.4441 41.4352 23.4931 41.6834 23.6128C42.0756 23.8017 42.3359 24.1059 42.4567 24.515C42.4809 24.5972 42.4929 24.689 42.4957 24.8027C42.4985 24.9661 42.4985 25.1296 42.4976 25.2957V25.3377C42.6073 25.3604 42.7262 25.4102 42.8276 25.5143C42.9354 25.6253 42.9902 25.7486 42.9911 25.8797L42.9939 26.3238C42.9976 26.8195 43.0014 27.3318 42.9995 27.8362C42.9986 28.1273 42.8341 28.3389 42.5376 28.4315C42.4827 28.449 42.4251 28.4578 42.3712 28.4578H42.2606C41.807 28.4578 41.3534 28.4586 40.8998 28.4586L40.9017 28.4604ZM41.7206 27.7995C41.9139 27.7995 42.1072 27.7995 42.3015 27.8021C42.3015 27.1945 42.3015 26.5869 42.3015 25.9794C41.5858 25.9794 40.8701 25.9794 40.1544 25.9794H39.7055V27.8012H41.3609C41.4808 27.8012 41.6016 27.8012 41.7215 27.8012L41.7206 27.7995ZM40.199 25.3167H41.8079C41.8079 25.273 41.8079 25.2293 41.8061 25.1856L41.8033 25.0798C41.8005 24.9565 41.7977 24.8403 41.7847 24.7257C41.7689 24.5955 41.7029 24.474 41.583 24.3533C41.4715 24.2405 41.3302 24.168 41.1638 24.1348C41.0467 24.112 40.9287 24.1129 40.8134 24.1383C40.6173 24.1811 40.4649 24.2773 40.3468 24.4311C40.2567 24.5491 40.2074 24.6707 40.2009 24.793C40.1953 24.9058 40.1962 25.0195 40.1981 25.1384C40.1981 25.1917 40.199 25.2441 40.199 25.2975V25.3167Z"/>
</mask>
<path d="M41 30.9604C38.2431 30.9604 36 28.7173 36 25.9604C36 23.2035 38.2431 20.9604 41 20.9604C43.7569 20.9604 46 23.2035 46 25.9604C46 28.7173 43.7569 30.9604 41 30.9604ZM41 22.0092C38.8212 22.0092 37.0478 23.7815 37.0478 25.9614C37.0478 28.1412 38.8202 29.9136 41 29.9136C43.1798 29.9136 44.9522 28.1412 44.9522 25.9614C44.9522 23.7815 43.1798 22.0092 41 22.0092Z" fill="white"/>
<path d="M40.7195 33.0695C40.3513 33.0695 39.9894 33.0402 39.6364 32.9841V48.6104H2.12083V26.9299H12.5333C12.5333 28.0655 12.5333 29.1846 12.5333 30.305C12.5321 31.7478 13.9935 33.2352 15.4157 33.2352C18.998 33.2352 22.5802 33.2225 26.1624 33.2403C27.4599 33.2467 29.1142 31.8905 29.1305 30.4503C29.1444 29.2853 29.2264 28.1203 29.2793 26.9248H33.8236C33.787 26.6342 33.7669 26.3398 33.7669 26.0402C33.7669 25.612 33.8072 25.1926 33.8791 24.7861H2.12714V3.1004H12.5333C12.5333 4.21311 12.5207 5.33219 12.5371 6.44999C12.5586 7.96801 13.9481 9.38917 15.4485 9.39426C19.0484 9.40828 22.6483 9.40574 26.2469 9.39426C27.5179 9.39044 29.099 8.06998 29.1255 6.63226C29.1368 6.0434 29.2049 5.45455 29.2226 4.86569C29.2402 4.28831 29.2264 3.70965 29.2264 3.10168H39.63V19.0976C39.9844 19.0415 40.3488 19.0109 40.7195 19.0109C41.07 19.0109 41.4142 19.0377 41.7496 19.0887C41.7496 13.6756 41.7509 8.26244 41.7547 2.84804C41.7547 2.09859 41.7004 1.41541 41.017 0.960388H0.636754C0.0819584 1.33894 0 1.87808 0 2.5192C0.0138699 19.4774 0.0113481 36.4344 0.0113481 53.3927C0.0113481 53.5864 0.0113481 53.7789 0.0163917 53.9726C0.0290007 54.5309 0.457706 54.9591 1.02007 54.9591C14.2141 54.9617 27.4094 54.9629 40.6035 54.9591C40.7623 54.9591 40.9338 54.9107 41.0801 54.8419C41.6664 54.5665 41.7471 54.0325 41.7471 53.4589C41.7471 46.6374 41.7471 39.8146 41.7471 32.9931C41.4117 33.0428 41.0687 33.0695 40.7195 33.0695ZM14.6226 26.9184H27.1862C27.1358 28.0541 27.1333 29.1821 27.0185 30.2973C26.9605 30.862 26.5394 31.1233 25.9619 31.1233C22.4894 31.1283 19.0169 31.1271 15.5444 31.122C15.127 31.122 14.634 30.6708 14.6289 30.2616C14.6138 29.1604 14.6239 28.0579 14.6239 26.9184H14.6226ZM14.6226 3.08256H27.0387C27.0387 4.20164 27.0955 5.32709 27.016 6.44234C26.9744 7.02482 26.5558 7.28484 25.9783 7.28484C22.5058 7.29121 19.0333 7.28866 15.5608 7.28484C15.1005 7.28484 14.6327 6.84129 14.6277 6.39009C14.6151 5.30415 14.6239 4.21821 14.6239 3.08256H14.6226ZM39.6477 52.8242H2.12714V50.7734H39.6477V52.8242Z" fill="white"/>
<path d="M40.9017 28.4604C40.4695 28.4604 40.0373 28.4604 39.6042 28.4586C39.4378 28.4586 39.2835 28.3861 39.158 28.2497C39.0493 28.1317 38.9991 27.9918 39 27.81C39.0019 27.4987 39.0019 27.1867 39.0009 26.8754C39.0009 26.5459 39.0009 26.2154 39.0028 25.8858C39.0028 25.7293 39.0772 25.5886 39.2212 25.4671C39.3086 25.3936 39.4053 25.356 39.4963 25.3359V25.2747C39.4963 25.1357 39.4973 24.9959 39.4963 24.8569C39.4936 24.6095 39.5661 24.3673 39.7111 24.1383C39.8598 23.9048 40.0642 23.7265 40.3208 23.6076C40.4937 23.5272 40.6786 23.4791 40.871 23.4651C41.162 23.4441 41.4352 23.4931 41.6834 23.6128C42.0756 23.8017 42.3359 24.1059 42.4567 24.515C42.4809 24.5972 42.4929 24.689 42.4957 24.8027C42.4985 24.9661 42.4985 25.1296 42.4976 25.2957V25.3377C42.6073 25.3604 42.7262 25.4102 42.8276 25.5143C42.9354 25.6253 42.9902 25.7486 42.9911 25.8797L42.9939 26.3238C42.9976 26.8195 43.0014 27.3318 42.9995 27.8362C42.9986 28.1273 42.8341 28.3389 42.5376 28.4315C42.4827 28.449 42.4251 28.4578 42.3712 28.4578H42.2606C41.807 28.4578 41.3534 28.4586 40.8998 28.4586L40.9017 28.4604ZM41.7206 27.7995C41.9139 27.7995 42.1072 27.7995 42.3015 27.8021C42.3015 27.1945 42.3015 26.5869 42.3015 25.9794C41.5858 25.9794 40.8701 25.9794 40.1544 25.9794H39.7055V27.8012H41.3609C41.4808 27.8012 41.6016 27.8012 41.7215 27.8012L41.7206 27.7995ZM40.199 25.3167H41.8079C41.8079 25.273 41.8079 25.2293 41.8061 25.1856L41.8033 25.0798C41.8005 24.9565 41.7977 24.8403 41.7847 24.7257C41.7689 24.5955 41.7029 24.474 41.583 24.3533C41.4715 24.2405 41.3302 24.168 41.1638 24.1348C41.0467 24.112 40.9287 24.1129 40.8134 24.1383C40.6173 24.1811 40.4649 24.2773 40.3468 24.4311C40.2567 24.5491 40.2074 24.6707 40.2009 24.793C40.1953 24.9058 40.1962 25.0195 40.1981 25.1384C40.1981 25.1917 40.199 25.2441 40.199 25.2975V25.3167Z" fill="white"/>
<path d="M41 30.9604C38.2431 30.9604 36 28.7173 36 25.9604C36 23.2035 38.2431 20.9604 41 20.9604C43.7569 20.9604 46 23.2035 46 25.9604C46 28.7173 43.7569 30.9604 41 30.9604ZM41 22.0092C38.8212 22.0092 37.0478 23.7815 37.0478 25.9614C37.0478 28.1412 38.8202 29.9136 41 29.9136C43.1798 29.9136 44.9522 28.1412 44.9522 25.9614C44.9522 23.7815 43.1798 22.0092 41 22.0092Z" stroke="white" stroke-width="0.2" mask="url(#path-1-outside-1_1_7)"/>
<path d="M40.7195 33.0695C40.3513 33.0695 39.9894 33.0402 39.6364 32.9841V48.6104H2.12083V26.9299H12.5333C12.5333 28.0655 12.5333 29.1846 12.5333 30.305C12.5321 31.7478 13.9935 33.2352 15.4157 33.2352C18.998 33.2352 22.5802 33.2225 26.1624 33.2403C27.4599 33.2467 29.1142 31.8905 29.1305 30.4503C29.1444 29.2853 29.2264 28.1203 29.2793 26.9248H33.8236C33.787 26.6342 33.7669 26.3398 33.7669 26.0402C33.7669 25.612 33.8072 25.1926 33.8791 24.7861H2.12714V3.1004H12.5333C12.5333 4.21311 12.5207 5.33219 12.5371 6.44999C12.5586 7.96801 13.9481 9.38917 15.4485 9.39426C19.0484 9.40828 22.6483 9.40574 26.2469 9.39426C27.5179 9.39044 29.099 8.06998 29.1255 6.63226C29.1368 6.0434 29.2049 5.45455 29.2226 4.86569C29.2402 4.28831 29.2264 3.70965 29.2264 3.10168H39.63V19.0976C39.9844 19.0415 40.3488 19.0109 40.7195 19.0109C41.07 19.0109 41.4142 19.0377 41.7496 19.0887C41.7496 13.6756 41.7509 8.26244 41.7547 2.84804C41.7547 2.09859 41.7004 1.41541 41.017 0.960388H0.636754C0.0819584 1.33894 0 1.87808 0 2.5192C0.0138699 19.4774 0.0113481 36.4344 0.0113481 53.3927C0.0113481 53.5864 0.0113481 53.7789 0.0163917 53.9726C0.0290007 54.5309 0.457706 54.9591 1.02007 54.9591C14.2141 54.9617 27.4094 54.9629 40.6035 54.9591C40.7623 54.9591 40.9338 54.9107 41.0801 54.8419C41.6664 54.5665 41.7471 54.0325 41.7471 53.4589C41.7471 46.6374 41.7471 39.8146 41.7471 32.9931C41.4117 33.0428 41.0687 33.0695 40.7195 33.0695ZM14.6226 26.9184H27.1862C27.1358 28.0541 27.1333 29.1821 27.0185 30.2973C26.9605 30.862 26.5394 31.1233 25.9619 31.1233C22.4894 31.1283 19.0169 31.1271 15.5444 31.122C15.127 31.122 14.634 30.6708 14.6289 30.2616C14.6138 29.1604 14.6239 28.0579 14.6239 26.9184H14.6226ZM14.6226 3.08256H27.0387C27.0387 4.20164 27.0955 5.32709 27.016 6.44234C26.9744 7.02482 26.5558 7.28484 25.9783 7.28484C22.5058 7.29121 19.0333 7.28866 15.5608 7.28484C15.1005 7.28484 14.6327 6.84129 14.6277 6.39009C14.6151 5.30415 14.6239 4.21821 14.6239 3.08256H14.6226ZM39.6477 52.8242H2.12714V50.7734H39.6477V52.8242Z" stroke="white" stroke-width="0.2" mask="url(#path-1-outside-1_1_7)"/>
<path d="M40.9017 28.4604C40.4695 28.4604 40.0373 28.4604 39.6042 28.4586C39.4378 28.4586 39.2835 28.3861 39.158 28.2497C39.0493 28.1317 38.9991 27.9918 39 27.81C39.0019 27.4987 39.0019 27.1867 39.0009 26.8754C39.0009 26.5459 39.0009 26.2154 39.0028 25.8858C39.0028 25.7293 39.0772 25.5886 39.2212 25.4671C39.3086 25.3936 39.4053 25.356 39.4963 25.3359V25.2747C39.4963 25.1357 39.4973 24.9959 39.4963 24.8569C39.4936 24.6095 39.5661 24.3673 39.7111 24.1383C39.8598 23.9048 40.0642 23.7265 40.3208 23.6076C40.4937 23.5272 40.6786 23.4791 40.871 23.4651C41.162 23.4441 41.4352 23.4931 41.6834 23.6128C42.0756 23.8017 42.3359 24.1059 42.4567 24.515C42.4809 24.5972 42.4929 24.689 42.4957 24.8027C42.4985 24.9661 42.4985 25.1296 42.4976 25.2957V25.3377C42.6073 25.3604 42.7262 25.4102 42.8276 25.5143C42.9354 25.6253 42.9902 25.7486 42.9911 25.8797L42.9939 26.3238C42.9976 26.8195 43.0014 27.3318 42.9995 27.8362C42.9986 28.1273 42.8341 28.3389 42.5376 28.4315C42.4827 28.449 42.4251 28.4578 42.3712 28.4578H42.2606C41.807 28.4578 41.3534 28.4586 40.8998 28.4586L40.9017 28.4604ZM41.7206 27.7995C41.9139 27.7995 42.1072 27.7995 42.3015 27.8021C42.3015 27.1945 42.3015 26.5869 42.3015 25.9794C41.5858 25.9794 40.8701 25.9794 40.1544 25.9794H39.7055V27.8012H41.3609C41.4808 27.8012 41.6016 27.8012 41.7215 27.8012L41.7206 27.7995ZM40.199 25.3167H41.8079C41.8079 25.273 41.8079 25.2293 41.8061 25.1856L41.8033 25.0798C41.8005 24.9565 41.7977 24.8403 41.7847 24.7257C41.7689 24.5955 41.7029 24.474 41.583 24.3533C41.4715 24.2405 41.3302 24.168 41.1638 24.1348C41.0467 24.112 40.9287 24.1129 40.8134 24.1383C40.6173 24.1811 40.4649 24.2773 40.3468 24.4311C40.2567 24.5491 40.2074 24.6707 40.2009 24.793C40.1953 24.9058 40.1962 25.0195 40.1981 25.1384C40.1981 25.1917 40.199 25.2441 40.199 25.2975V25.3167Z" stroke="white" stroke-width="0.2" mask="url(#path-1-outside-1_1_7)"/>
</svg>
