<svg viewBox="0 0 47 55" fill="none" xmlns="http://www.w3.org/2000/svg">
<path d="M35.9 25.9604C35.9 28.7725 38.1878 31.0604 41 31.0604C43.8122 31.0604 46.1 28.7725 46.1 25.9604C46.1 23.1482 43.8122 20.8604 41 20.8604C38.1878 20.8604 35.9 23.1482 35.9 25.9604ZM37.1478 25.9614C37.1478 23.8368 38.8764 22.1092 41 22.1092C43.1246 22.1092 44.8522 23.8368 44.8522 25.9614C44.8522 28.086 43.1246 29.8136 41 29.8136C38.8754 29.8136 37.1478 28.086 37.1478 25.9614Z" fill="white" stroke="white" stroke-width="0.2"/>
<path d="M39.3864 32.6913L39.6756 32.7372C40.0158 32.7913 40.3646 32.8195 40.7195 32.8195C41.0559 32.8195 41.3866 32.7937 41.7104 32.7458L41.9971 32.7033V32.9931V33.033V33.073V33.113V33.1529V33.1929V33.2329V33.2728V33.3128V33.3528V33.3928V33.4327V33.4727V33.5127V33.5526V33.5926V33.6326V33.6725V33.7125V33.7525V33.7925V33.8324V33.8724V33.9124V33.9523V33.9923V34.0323V34.0723V34.1122V34.1522V34.1922V34.2321V34.2721V34.3121V34.352V34.392V34.432V34.472V34.5119V34.5519V34.5919V34.6318V34.6718V34.7118V34.7518V34.7917V34.8317V34.8717V34.9116V34.9516V34.9916V35.0316V35.0715V35.1115V35.1515V35.1914V35.2314V35.2714V35.3114V35.3513V35.3913V35.4313V35.4712V35.5112V35.5512V35.5912V35.6311V35.6711V35.7111V35.751V35.791V35.831V35.871V35.9109V35.9509V35.9909V36.0308V36.0708V36.1108V36.1508V36.1907V36.2307V36.2707V36.3106V36.3506V36.3906V36.4306V36.4705V36.5105V36.5505V36.5905V36.6304V36.6704V36.7104V36.7503V36.7903V36.8303V36.8703V36.9102V36.9502V36.9902V37.0301V37.0701V37.1101V37.1501V37.19V37.23V37.27V37.31V37.3499V37.3899V37.4299V37.4698V37.5098V37.5498V37.5898V37.6297V37.6697V37.7097V37.7497V37.7896V37.8296V37.8696V37.9095V37.9495V37.9895V38.0295V38.0694V38.1094V38.1494V38.1894V38.2293V38.2693V38.3093V38.3492V38.3892V38.4292V38.4692V38.5091V38.5491V38.5891V38.6291V38.669V38.709V38.749V38.7889V38.8289V38.8689V38.9089V38.9488V38.9888V39.0288V39.0688V39.1087V39.1487V39.1887V39.2286V39.2686V39.3086V39.3486V39.3885V39.4285V39.4685V39.5085V39.5484V39.5884V39.6284V39.6684V39.7083V39.7483V39.7883V39.8282V39.8682V39.9082V39.9482V39.9881V40.0281V40.0681V40.1081V40.148V40.188V40.228V40.268V40.3079V40.3479V40.3879V40.4278V40.4678V40.5078V40.5478V40.5877V40.6277V40.6677V40.7077V40.7476V40.7876V40.8276V40.8676V40.9075V40.9475V40.9875V41.0274V41.0674V41.1074V41.1474V41.1873V41.2273V41.2673V41.3073V41.3472V41.3872V41.4272V41.4672V41.5071V41.5471V41.5871V41.6271V41.667V41.707V41.747V41.7869V41.8269V41.8669V41.9069V41.9468V41.9868V42.0268V42.0668V42.1067V42.1467V42.1867V42.2267V42.2666V42.3066V42.3466V42.3866V42.4265V42.4665V42.5065V42.5464V42.5864V42.6264V42.6664V42.7063V42.7463V42.7863V42.8263V42.8662V42.9062V42.9462V42.9862V43.0261V43.0661V43.1061V43.146V43.186V43.226V43.266V43.3059V43.3459V43.3859V43.4259V43.4658V43.5058V43.5458V43.5858V43.6257V43.6657V43.7057V43.7457V43.7856V43.8256V43.8656V43.9055V43.9455V43.9855V44.0255V44.0654V44.1054V44.1454V44.1854V44.2253V44.2653V44.3053V44.3453V44.3852V44.4252V44.4652V44.5052V44.5451V44.5851V44.6251V44.6651V44.705V44.745V44.785V44.8249V44.8649V44.9049V44.9449V44.9848V45.0248V45.0648V45.1048V45.1447V45.1847V45.2247V45.2647V45.3046V45.3446V45.3846V45.4245V45.4645V45.5045V45.5445V45.5844V45.6244V45.6644V45.7044V45.7443V45.7843V45.8243V45.8643V45.9042V45.9442V45.9842V46.0241V46.0641V46.1041V46.1441V46.184V46.224V46.264V46.304V46.3439V46.3839V46.4239V46.4639V46.5038V46.5438V46.5838V46.6237V46.6637V46.7037V46.7437V46.7836V46.8236V46.8636V46.9036V46.9435V46.9835V47.0235V47.0635V47.1034V47.1434V47.1834V47.2233V47.2633V47.3033V47.3433V47.3832V47.4232V47.4632V47.5032V47.5431V47.5831V47.6231V47.6631V47.703V47.743V47.783V47.8229V47.8629V47.9029V47.9429V47.9828V48.0228V48.0628V48.1028V48.1427V48.1827V48.2227V48.2626V48.3026V48.3426V48.3826V48.4225V48.4625V48.5025V48.5425V48.5824V48.6224V48.6624V48.7023V48.7423V48.7823V48.8223V48.8622V48.9022V48.9422V48.9822V49.0221V49.0621V49.1021V49.142V49.182V49.222V49.262V49.3019V49.3419V49.3819V49.4218V49.4618V49.5018V49.5418V49.5817V49.6217V49.6617V49.7017V49.7416V49.7816V49.8216V49.8615V49.9015V49.9415V49.9815V50.0214V50.0614V50.1014V50.1413V50.1813V50.2213V50.2613V50.3012V50.3412V50.3812V50.4211V50.4611V50.5011V50.5411V50.581V50.621V50.661V50.701V50.7409V50.7809V50.8209V50.8608V50.9008V50.9408V50.9808V51.0207V51.0607V51.1007V51.1406V51.1806V51.2206V51.2606V51.3005V51.3405V51.3805V51.4204V51.4604V51.5004V51.5404V51.5803V51.6203V51.6603V51.7002V51.7402V51.7802V51.8201V51.8601V51.9001V51.9401V51.98V52.02V52.06V52.0999V52.1399V52.1799V52.2199V52.2598V52.2998V52.3398V52.3797V52.4197V52.4597V52.4997V52.5396V52.5796V52.6196V52.6595V52.6995V52.7395V52.7794V52.8194V52.8594V52.8994V52.9393V52.9793V53.0193V53.0592V53.0992V53.1392V53.1791V53.2191V53.2591V53.2991V53.339V53.379V53.419V53.4589C41.9971 53.752 41.9776 54.068 41.8664 54.3531C41.7506 54.6499 41.54 54.9021 41.1863 55.0682M39.3864 32.6913L26.2476 9.64426C26.2476 9.64426 26.2477 9.64426 26.2477 9.64426C26.9619 9.6421 27.7322 9.27502 28.3217 8.73538C28.9122 8.19484 29.3605 7.44493 29.3755 6.63707C29.381 6.34982 29.4004 6.0613 29.4211 5.76646L29.4248 5.71312C29.4442 5.43724 29.464 5.15554 29.4725 4.87333C29.4848 4.46941 29.4819 4.06197 29.479 3.65004C29.4783 3.55085 29.4776 3.4514 29.4771 3.35168H39.38V19.0976V19.3903L39.6691 19.3445C40.0112 19.2904 40.3625 19.2609 40.7195 19.2609C41.0573 19.2609 41.3889 19.2867 41.712 19.3359L41.9996 19.3796V19.0887C41.9996 13.6756 42.0009 8.26254 42.0047 2.84821V2.84804C42.0047 2.10053 41.958 1.28659 41.1556 0.752294L41.0926 0.710388H41.017H0.636754H0.559589L0.495849 0.75388C-0.168424 1.20713 -0.25 1.86267 -0.25 2.5192L-0.25 2.5194C-0.237979 17.2164 -0.238271 31.9125 -0.238562 46.6093C-0.238607 48.8704 -0.238652 51.1315 -0.238652 53.3927V53.3942C-0.238652 53.5868 -0.238652 53.7818 -0.233535 53.9787C-0.217698 54.6702 0.319605 55.2091 1.02007 55.2091C14.2141 55.2117 27.4094 55.2129 40.6035 55.2091M39.3864 32.6913V32.9841V48.3604M39.3864 32.6913V48.3604M41.1863 55.0682L41.0801 54.8419L41.1865 55.0681C41.1865 55.0681 41.1864 55.0681 41.1863 55.0682ZM41.1863 55.0682C41.0168 55.1479 40.8087 55.2091 40.6035 55.2091M40.6035 55.2091V54.9591V55.2091ZM39.3864 48.3604H2.37083V27.1799H12.2833V27.1825V27.1891V27.1958V27.2024V27.209V27.2157V27.2223V27.229V27.2356V27.2422V27.2489V27.2555V27.2621V27.2688V27.2754V27.2821V27.2887V27.2953V27.302V27.3086V27.3152V27.3219V27.3285V27.3351V27.3418V27.3484V27.355V27.3617V27.3683V27.3749V27.3815V27.3882V27.3948V27.4014V27.4081V27.4147V27.4213V27.4279V27.4346V27.4412V27.4478V27.4545V27.4611V27.4677V27.4743V27.481V27.4876V27.4942V27.5008V27.5075V27.5141V27.5207V27.5273V27.534V27.5406V27.5472V27.5538V27.5604V27.5671V27.5737V27.5803V27.5869V27.5935V27.6002V27.6068V27.6134V27.62V27.6266V27.6333V27.6399V27.6465V27.6531V27.6597V27.6664V27.673V27.6796V27.6862V27.6928V27.6994V27.7061V27.7127V27.7193V27.7259V27.7325V27.7391V27.7457V27.7523V27.759V27.7656V27.7722V27.7788V27.7854V27.792V27.7986V27.8052V27.8119V27.8185V27.8251V27.8317V27.8383V27.8449V27.8515V27.8581V27.8647V27.8713V27.878V27.8846V27.8912V27.8978V27.9044V27.911V27.9176V27.9242V27.9308V27.9374V27.944V27.9506V27.9572V27.9638V27.9704V27.977V27.9837V27.9903V27.9969V28.0035V28.0101V28.0167V28.0233V28.0299V28.0365V28.0431V28.0497V28.0563V28.0629V28.0695V28.0761V28.0827V28.0893V28.0959V28.1025V28.1091V28.1157V28.1223V28.1289V28.1355V28.1421V28.1487V28.1553V28.1619V28.1685V28.1751V28.1817V28.1883V28.1949V28.2014V28.208V28.2146V28.2212V28.2278V28.2344V28.241V28.2476V28.2542V28.2608V28.2674V28.274V28.2806V28.2872V28.2938V28.3004V28.307V28.3135V28.3201V28.3267V28.3333V28.3399V28.3465V28.3531V28.3597V28.3663V28.3729V28.3795V28.3861V28.3926V28.3992V28.4058V28.4124V28.419V28.4256V28.4322V28.4388V28.4454V28.4519V28.4585V28.4651V28.4717V28.4783V28.4849V28.4915V28.4981V28.5046V28.5112V28.5178V28.5244V28.531V28.5376V28.5442V28.5507V28.5573V28.5639V28.5705V28.5771V28.5837V28.5903V28.5968V28.6034V28.61V28.6166V28.6232V28.6298V28.6363V28.6429V28.6495V28.6561V28.6627V28.6692V28.6758V28.6824V28.689V28.6956V28.7022V28.7087V28.7153V28.7219V28.7285V28.7351V28.7416V28.7482V28.7548V28.7614V28.768V28.7745V28.7811V28.7877V28.7943V28.8009V28.8074V28.814V28.8206V28.8272V28.8337V28.8403V28.8469V28.8535V28.8601V28.8666V28.8732V28.8798V28.8864V28.8929V28.8995V28.9061V28.9127V28.9192V28.9258V28.9324V28.939V28.9456V28.9521V28.9587V28.9653V28.9719V28.9784V28.985V28.9916V28.9982V29.0047V29.0113V29.0179V29.0245V29.031V29.0376V29.0442V29.0507V29.0573V29.0639V29.0705V29.077V29.0836V29.0902V29.0968V29.1033V29.1099V29.1165V29.123V29.1296V29.1362V29.1428V29.1493V29.1559V29.1625V29.1691V29.1756V29.1822V29.1888V29.1953V29.2019V29.2085V29.215V29.2216V29.2282V29.2348V29.2413V29.2479V29.2545V29.261V29.2676V29.2742V29.2808V29.2873V29.2939V29.3005V29.307V29.3136V29.3202V29.3267V29.3333V29.3399V29.3464V29.353V29.3596V29.3661V29.3727V29.3793V29.3859V29.3924V29.399V29.4056V29.4121V29.4187V29.4253V29.4318V29.4384V29.445V29.4515V29.4581V29.4647V29.4712V29.4778V29.4844V29.4909V29.4975V29.5041V29.5106V29.5172V29.5238V29.5303V29.5369V29.5435V29.55V29.5566V29.5632V29.5697V29.5763V29.5829V29.5894V29.596V29.6026V29.6091V29.6157V29.6223V29.6288V29.6354V29.642V29.6485V29.6551V29.6617V29.6682V29.6748V29.6814V29.6879V29.6945V29.7011V29.7076V29.7142V29.7207V29.7273V29.7339V29.7404V29.747V29.7536V29.7601V29.7667V29.7733V29.7798V29.7864V29.793V29.7995V29.8061V29.8127V29.8192V29.8258V29.8323V29.8389V29.8455V29.852V29.8586V29.8652V29.8717V29.8783V29.8849V29.8914V29.898V29.9046V29.9111V29.9177V29.9242V29.9308V29.9374V29.9439V29.9505V29.9571V29.9636V29.9702V29.9768V29.9833V29.9899V29.9965V30.003V30.0096V30.0161V30.0227V30.0293V30.0358V30.0424V30.049V30.0555V30.0621V30.0687V30.0752V30.0818V30.0884V30.0949V30.1015V30.108V30.1146V30.1212V30.1277V30.1343V30.1409V30.1474V30.154V30.1606V30.1671V30.1737V30.1803V30.1868V30.1934V30.1999V30.2065V30.2131V30.2196V30.2262V30.2328V30.2393V30.2459V30.2525V30.259V30.2656V30.2722V30.2787V30.2853V30.2918V30.2984V30.3048V30.305H12.5333M39.3864 48.3604L15.4476 9.64426C14.6188 9.64141 13.8354 9.24888 13.2601 8.66493C12.6847 8.08091 12.2989 7.2869 12.2871 6.45366C12.2757 5.67187 12.2784 4.8881 12.281 4.10895C12.2819 3.85554 12.2828 3.60261 12.2831 3.3504H2.37714V24.5361H33.8791H34.1772L34.1253 24.8296C34.0557 25.2229 34.0169 25.6277 34.0169 26.0402C34.0169 26.3285 34.0363 26.6125 34.0717 26.8936L34.107 27.1748H33.8236H29.5181C29.5042 27.4684 29.4891 27.7592 29.474 28.0479C29.4316 28.8591 29.39 29.6545 29.3805 30.4531C29.3805 30.4532 29.3805 30.4532 29.3805 30.4532L29.1305 30.4503M39.3864 48.3604V48.6104H2.37083L39.3864 48.3604ZM12.5333 30.305C12.5321 31.7478 13.9935 33.2352 15.4157 33.2352C16.4694 33.2352 17.5231 33.2341 18.5767 33.233C21.1053 33.2304 23.6338 33.2277 26.1624 33.2403C27.4599 33.2467 29.1142 31.8905 29.1305 30.4503M12.5333 30.305V27.1799V30.305ZM29.1305 30.4503C29.1401 29.6465 29.1821 28.8428 29.2246 28.029C29.2437 27.6632 29.2629 27.2955 29.2793 26.9248M29.1305 30.4503L29.2793 26.9248M29.2793 26.9248H33.5717C33.573 26.9352 33.5743 26.9456 33.5756 26.956L33.8236 26.9248V26.6748H33.7964C33.7772 26.4656 33.7669 26.2542 33.7669 26.0402C33.7669 25.6992 33.7925 25.3638 33.8392 25.0361H33.8791V24.7861L33.6329 24.7425C33.6303 24.757 33.6278 24.7715 33.6253 24.7861H2.37714L29.2793 26.9248ZM14.6238 3.33256C14.6235 3.58168 14.6229 3.82856 14.6224 4.07373C14.6206 4.85749 14.6188 5.62379 14.6277 6.39009C14.6327 6.84129 15.1005 7.28484 15.5608 7.28484L14.6238 3.33256ZM14.6238 3.33256H14.6239H14.8738M14.6238 3.33256L27.0387 3.08256C27.0387 3.41157 27.0436 3.74113 27.0485 4.07082C27.0603 4.86252 27.0721 5.65497 27.016 6.44234L26.7666 6.42453C26.7666 6.42455 26.7666 6.42456 26.7666 6.42458C26.7503 6.65372 26.6644 6.79398 26.5472 6.8827C26.4226 6.97704 26.2332 7.03484 25.9783 7.03484L25.9778 7.03484C22.5057 7.04121 19.0335 7.03866 15.561 7.03484H15.5608C15.4085 7.03484 15.2356 6.95905 15.0962 6.8259C14.9565 6.6924 14.8793 6.52918 14.8777 6.38729L14.8777 6.38718C14.8688 5.62272 14.8706 4.85918 14.8724 4.0762C14.8729 3.83044 14.8735 3.58277 14.8738 3.33256M14.8738 3.33256H26.7896H14.8738ZM2.37083 26.9299H12.2833H2.37083ZM2.12083 48.3604V27.1799V48.3604ZM14.8738 27.1684H26.9256C26.9157 27.4245 26.9076 27.6786 26.8995 27.9312C26.8743 28.7216 26.8495 29.4973 26.7698 30.2717L26.7698 30.2718C26.7473 30.4914 26.659 30.6308 26.5369 30.7207C26.4081 30.8154 26.2161 30.8733 25.9619 30.8733H25.9615C22.4893 30.8783 19.0171 30.8771 15.5447 30.872H15.5444C15.4186 30.872 15.2489 30.7987 15.1024 30.6623C14.9548 30.5248 14.8803 30.3701 14.8789 30.2586L14.8789 30.2582C14.8682 29.4759 14.8702 28.694 14.8722 27.8962C14.8729 27.6552 14.8735 27.4128 14.8738 27.1684ZM39.3977 52.5742H2.37714V51.0234H39.3977V52.5742Z" fill="white" stroke="white" stroke-width="0.5"/>
<path d="M41.0278 28.5104H40.9017C40.4695 28.5104 40.0372 28.5104 39.604 28.5086C39.4219 28.5086 39.2549 28.4288 39.1212 28.2836C39.0028 28.155 38.949 28.0023 38.95 27.8097L38.95 27.8097C38.9519 27.4986 38.9519 27.1867 38.9509 26.8756L38.9509 26.8754L38.9509 26.8748L41.0278 28.5104ZM41.0278 28.5104L41.0259 28.5086M41.0278 28.5104L42.8276 25.5143M42.8276 25.5143C42.9354 25.6253 42.9902 25.7486 42.9911 25.8797L42.9939 26.3238M42.8276 25.5143C42.7262 25.4102 42.6073 25.3604 42.4976 25.3377L42.8276 25.5143ZM42.9939 26.3238C42.9976 26.8195 43.0014 27.3318 42.9995 27.8362M42.9939 26.3238L43.0439 26.3234C43.0439 26.3234 43.0439 26.3235 43.0439 26.3235C43.0476 26.8191 43.0514 27.3316 43.0495 27.8364M42.9939 26.3238L41.0259 28.5086M42.9995 27.8362C42.9986 28.1273 42.8341 28.3389 42.5376 28.4315C42.4827 28.449 42.4251 28.4578 42.3712 28.4578H42.2606C42.0338 28.4578 41.807 28.458 41.5802 28.4582C41.3777 28.4584 41.1753 28.4586 40.9728 28.4586L41.0259 28.5086M42.9995 27.8362L43.0495 27.8364C43.0495 27.8364 43.0495 27.8364 43.0495 27.8364M42.9995 27.8362L43.0495 27.8364M41.0259 28.5086C41.2102 28.5086 41.3946 28.5084 41.5789 28.5082L41.5803 28.5082H41.5803C41.8071 28.508 42.0338 28.5078 42.2606 28.5078H42.3712C42.4302 28.5078 42.4928 28.4982 42.5525 28.4793C42.7086 28.4305 42.8332 28.3493 42.9189 28.2389C43.0047 28.1284 43.049 27.9917 43.0495 27.8364M41.7578 25.2667H41.8078C41.8077 25.2397 41.8072 25.2126 41.8061 25.1856L41.8033 25.0798L41.7578 25.2667ZM41.7578 25.2667C41.7577 25.2401 41.7572 25.2139 41.7561 25.1877L41.7561 25.1869L41.7561 25.1869L41.7533 25.0811L41.7533 25.0809C41.7505 24.9574 41.7477 24.8434 41.735 24.7316C41.7209 24.6154 41.6619 24.5037 41.5475 24.3886L41.5474 24.3885C41.4437 24.2835 41.3117 24.2153 41.1541 24.1838C41.0436 24.1624 40.9325 24.1633 40.8241 24.1871L40.8241 24.1871C40.6392 24.2275 40.4971 24.3173 40.3865 24.4616L40.3468 24.4311M41.7578 25.2667H40.2489C40.2488 25.2502 40.2487 25.2338 40.2486 25.2175L40.2486 25.2175C40.2483 25.191 40.2481 25.1648 40.2481 25.1384L40.2481 25.1376C40.2462 25.0187 40.2453 24.9065 40.2508 24.7955L40.2009 24.793M40.3468 24.4311L40.3865 24.4615C40.3011 24.5733 40.2567 24.6854 40.2508 24.7957L40.2009 24.793M40.3468 24.4311C40.2567 24.5491 40.2074 24.6707 40.2009 24.793M40.3468 24.4311C40.4649 24.2773 40.6173 24.1811 40.8134 24.1383L40.2009 24.793M39.189 25.4288C39.0365 25.5575 38.9529 25.7111 38.9528 25.8855L39.4466 25.1352C39.4465 25.1817 39.4463 25.2282 39.4463 25.2747V25.2968C39.361 25.32 39.2714 25.3595 39.1891 25.4288L39.189 25.4288ZM39.6688 24.1115C39.5192 24.3478 39.4435 24.5993 39.4463 24.8573L40.3208 23.6076L40.2998 23.5622C40.2997 23.5622 40.2997 23.5622 40.2997 23.5623C40.0347 23.6851 39.8228 23.8698 39.6689 24.1114L39.6688 24.1115ZM42.5476 25.2959C42.5485 25.1297 42.5485 24.9658 42.5457 24.8018L42.5457 24.8014C42.5429 24.685 42.5304 24.5886 42.5047 24.5009L42.5047 24.5009C42.3797 24.078 42.1098 23.7627 41.7051 23.5678L42.5476 25.2959ZM41.7206 27.7495H41.6373L41.6383 27.7512H41.6378H41.6371H41.6364H41.6356H41.6349H41.6342H41.6335H41.6328H41.6321H41.6314H41.6307H41.63H41.6293H41.6286H41.6279H41.6272H41.6265H41.6258H41.6251H41.6244H41.6237H41.623H41.6223H41.6216H41.6208H41.6201H41.6194H41.6187H41.618H41.6173H41.6166H41.6159H41.6152H41.6145H41.6138H41.6131H41.6124H41.6117H41.611H41.6103H41.6096H41.6089H41.6082H41.6075H41.6068H41.606H41.6053H41.6046H41.6039H41.6032H41.6025H41.6018H41.6011H41.6004H41.5997H41.599H41.5983H41.5976H41.5969H41.5962H41.5955H41.5948H41.5941H41.5934H41.5927H41.5919H41.5912H41.5905H41.5898H41.5891H41.5884H41.5877H41.587H41.5863H41.5856H41.5849H41.5842H41.5835H41.5828H41.5821H41.5814H41.5807H41.58H41.5793H41.5786H41.5778H41.5771H41.5764H41.5757H41.575H41.5743H41.5736H41.5729H41.5722H41.5715H41.5708H41.5701H41.5694H41.5687H41.568H41.5673H41.5666H41.5659H41.5652H41.5644H41.5637H41.563H41.5623H41.5616H41.5609H41.5602H41.5595H41.5588H41.5581H41.5574H41.5567H41.556H41.5553H41.5546H41.5539H41.5532H41.5525H41.5518H41.551H41.5503H41.5496H41.5489H41.5482H41.5475H41.5468H41.5461H41.5454H41.5447H41.544H41.5433H41.5426H41.5419H41.5412H41.5405H41.5398H41.5391H41.5384H41.5376H41.5369H41.5362H41.5355H41.5348H41.5341H41.5334H41.5327H41.532H41.5313H41.5306H41.5299H41.5292H41.5285H41.5278H41.5271H41.5264H41.5257H41.525H41.5242H41.5235H41.5228H41.5221H41.5214H41.5207H41.52H41.5193H41.5186H41.5179H41.5172H41.5165H41.5158H41.5151H41.5144H41.5137H41.513H41.5123H41.5116H41.5108H41.5101H41.5094H41.5087H41.508H41.5073H41.5066H41.5059H41.5052H41.5045H41.5038H41.5031H41.5024H41.5017H41.501H41.5003H41.4996H41.4989H41.4982H41.4974H41.4967H41.496H41.4953H41.4946H41.4939H41.4932H41.4925H41.4918H41.4911H41.4904H41.4897H41.489H41.4883H41.4876H41.4869H41.4862H41.4855H41.4848H41.4841H41.4833H41.4826H41.4819H41.4812H41.4805H41.4798H41.4791H41.4784H41.4777H41.477H41.4763H41.4756H41.4749H41.4742H41.4735H41.4728H41.4721H41.4714H41.4707H41.47H41.4692H41.4685H41.4678H41.4671H41.4664H41.4657H41.465H41.4643H41.4636H41.4629H41.4622H41.4615H41.4608H41.4601H41.4594H41.4587H41.458H41.4573H41.4566H41.4559H41.4552H41.4545H41.4537H41.453H41.4523H41.4516H41.4509H41.4502H41.4495H41.4488H41.4481H41.4474H41.4467H41.446H41.4453H41.4446H41.4439H41.4432H41.4425H41.4418H41.4411H41.4404H41.4397H41.439H41.4382H41.4375H41.4368H41.4361H41.4354H41.4347H41.434H41.4333H41.4326H41.4319H41.4312H41.4305H41.4298H41.4291H41.4284H41.4277H41.427H41.4263H41.4256H41.4249H41.4242H41.4235H41.4228H41.422H41.4213H41.4206H41.4199H41.4192H41.4185H41.4178H41.4171H41.4164H41.4157H41.415H41.4143H41.4136H41.4129H41.4122H41.4115H41.4108H41.4101H41.4094H41.4087H41.408H41.4073H41.4066H41.4059H41.4052H41.4045H41.4037H41.403H41.4023H41.4016H41.4009H41.4002H41.3995H41.3988H41.3981H41.3974H41.3967H41.396H41.3953H41.3946H41.3939H41.3932H41.3925H41.3918H41.3911H41.3904H41.3897H41.389H41.3883H41.3876H41.3869H41.3862H41.3855H41.3848H41.3841H41.3833H41.3826H41.3819H41.3812H41.3805H41.3798H41.3791H41.3784H41.3777H41.377H41.3763H41.3756H41.3749H41.3742H41.3735H41.3728H41.3721H41.3714H41.3707H41.37H41.3693H41.3686H41.3679H41.3672H41.3665H41.3658H41.3651H41.3644H41.3637H41.363H41.3623H41.3616H41.3609H39.7555V26.0294H40.1544H40.1586H40.1628H40.167H40.1712H40.1754H40.1796H40.1838H40.188H40.1922H40.1963H40.2005H40.2047H40.2089H40.2131H40.2173H40.2215H40.2257H40.2299H40.2341H40.2383H40.2425H40.2467H40.2509H40.2551H40.2592H40.2634H40.2676H40.2718H40.276H40.2802H40.2844H40.2886H40.2928H40.297H40.3012H40.3054H40.3096H40.3138H40.318H40.3222H40.3263H40.3305H40.3347H40.3389H40.3431H40.3473H40.3515H40.3557H40.3599H40.3641H40.3683H40.3725H40.3767H40.3809H40.3851H40.3892H40.3934H40.3976H40.4018H40.406H40.4102H40.4144H40.4186H40.4228H40.427H40.4312H40.4354H40.4396H40.4438H40.448H40.4521H40.4563H40.4605H40.4647H40.4689H40.4731H40.4773H40.4815H40.4857H40.4899H40.4941H40.4983H40.5025H40.5067H40.5109H40.5151H40.5192H40.5234H40.5276H40.5318H40.536H40.5402H40.5444H40.5486H40.5528H40.557H40.5612H40.5654H40.5696H40.5738H40.578H40.5821H40.5863H40.5905H40.5947H40.5989H40.6031H40.6073H40.6115H40.6157H40.6199H40.6241H40.6283H40.6325H40.6367H40.6409H40.645H40.6492H40.6534H40.6576H40.6618H40.666H40.6702H40.6744H40.6786H40.6828H40.687H40.6912H40.6954H40.6996H40.7038H40.708H40.7121H40.7163H40.7205H40.7247H40.7289H40.7331H40.7373H40.7415H40.7457H40.7499H40.7541H40.7583H40.7625H40.7667H40.7709H40.775H40.7792H40.7834H40.7876H40.7918H40.796H40.8002H40.8044H40.8086H40.8128H40.817H40.8212H40.8254H40.8296H40.8338H40.8379H40.8421H40.8463H40.8505H40.8547H40.8589H40.8631H40.8673H40.8715H40.8757H40.8799H40.8841H40.8883H40.8925H40.8967H40.9009H40.905H40.9092H40.9134H40.9176H40.9218H40.926H40.9302H40.9344H40.9386H40.9428H40.947H40.9512H40.9554H40.9596H40.9638H40.9679H40.9721H40.9763H40.9805H40.9847H40.9889H40.9931H40.9973H41.0015H41.0057H41.0099H41.0141H41.0183H41.0225H41.0267H41.0308H41.035H41.0392H41.0434H41.0476H41.0518H41.056H41.0602H41.0644H41.0686H41.0728H41.077H41.0812H41.0854H41.0896H41.0938H41.0979H41.1021H41.1063H41.1105H41.1147H41.1189H41.1231H41.1273H41.1315H41.1357H41.1399H41.1441H41.1483H41.1525H41.1567H41.1608H41.165H41.1692H41.1734H41.1776H41.1818H41.186H41.1902H41.1944H41.1986H41.2028H41.207H41.2112H41.2154H41.2196H41.2237H41.2279H41.2321H41.2363H41.2405H41.2447H41.2489H41.2531H41.2573H41.2615H41.2657H41.2699H41.2741H41.2783H41.2825H41.2867H41.2908H41.295H41.2992H41.3034H41.3076H41.3118H41.316H41.3202H41.3244H41.3286H41.3328H41.337H41.3412H41.3454H41.3496H41.3537H41.3579H41.3621H41.3663H41.3705H41.3747H41.3789H41.3831H41.3873H41.3915H41.3957H41.3999H41.4041H41.4083H41.4125H41.4167H41.4208H41.425H41.4292H41.4334H41.4376H41.4418H41.446H41.4502H41.4544H41.4586H41.4628H41.467H41.4712H41.4754H41.4796H41.4837H41.4879H41.4921H41.4963H41.5005H41.5047H41.5089H41.5131H41.5173H41.5215H41.5257H41.5299H41.5341H41.5383H41.5425H41.5466H41.5508H41.555H41.5592H41.5634H41.5676H41.5718H41.576H41.5802H41.5844H41.5886H41.5928H41.597H41.6012H41.6054H41.6096H41.6137H41.6179H41.6221H41.6263H41.6305H41.6347H41.6389H41.6431H41.6473H41.6515H41.6557H41.6599H41.6641H41.6683H41.6725H41.6766H41.6808H41.685H41.6892H41.6934H41.6976H41.7018H41.706H41.7102H41.7144H41.7186H41.7228H41.727H41.7312H41.7354H41.7395H41.7437H41.7479H41.7521H41.7563H41.7605H41.7647H41.7689H41.7731H41.7773H41.7815H41.7857H41.7899H41.7941H41.7983H41.8025H41.8066H41.8108H41.815H41.8192H41.8234H41.8276H41.8318H41.836H41.8402H41.8444H41.8486H41.8528H41.857H41.8612H41.8654H41.8695H41.8737H41.8779H41.8821H41.8863H41.8905H41.8947H41.8989H41.9031H41.9073H41.9115H41.9157H41.9199H41.9241H41.9283H41.9324H41.9366H41.9408H41.945H41.9492H41.9534H41.9576H41.9618H41.966H41.9702H41.9744H41.9786H41.9828H41.987H41.9912H41.9954H41.9995H42.0037H42.0079H42.0121H42.0163H42.0205H42.0247H42.0289H42.0331H42.0373H42.0415H42.0457H42.0499H42.0541H42.0583H42.0624H42.0666H42.0708H42.075H42.0792H42.0834H42.0876H42.0918H42.096H42.1002H42.1044H42.1086H42.1128H42.117H42.1212H42.1253H42.1295H42.1337H42.1379H42.1421H42.1463H42.1505H42.1547H42.1589H42.1631H42.1673H42.1715H42.1757H42.1799H42.1841H42.1883H42.1924H42.1966H42.2008H42.205H42.2092H42.2134H42.2176H42.2218H42.226H42.2302H42.2344H42.2386H42.2428H42.247H42.2512H42.2515V26.0328V26.0363V26.0399V26.0434V26.047V26.0506V26.0541V26.0577V26.0612V26.0648V26.0684V26.0719V26.0755V26.079V26.0826V26.0862V26.0897V26.0933V26.0968V26.1004V26.104V26.1075V26.1111V26.1146V26.1182V26.1218V26.1253V26.1289V26.1324V26.136V26.1396V26.1431V26.1467V26.1502V26.1538V26.1574V26.1609V26.1645V26.168V26.1716V26.1752V26.1787V26.1823V26.1858V26.1894V26.193V26.1965V26.2001V26.2036V26.2072V26.2108V26.2143V26.2179V26.2214V26.225V26.2286V26.2321V26.2357V26.2392V26.2428V26.2464V26.2499V26.2535V26.257V26.2606V26.2642V26.2677V26.2713V26.2748V26.2784V26.282V26.2855V26.2891V26.2926V26.2962V26.2998V26.3033V26.3069V26.3104V26.314V26.3176V26.3211V26.3247V26.3282V26.3318V26.3354V26.3389V26.3425V26.346V26.3496V26.3532V26.3567V26.3603V26.3638V26.3674V26.371V26.3745V26.3781V26.3816V26.3852V26.3888V26.3923V26.3959V26.3994V26.403V26.4066V26.4101V26.4137V26.4172V26.4208V26.4244V26.4279V26.4315V26.435V26.4386V26.4422V26.4457V26.4493V26.4528V26.4564V26.46V26.4635V26.4671V26.4706V26.4742V26.4778V26.4813V26.4849V26.4884V26.492V26.4956V26.4991V26.5027V26.5062V26.5098V26.5134V26.5169V26.5205V26.524V26.5276V26.5312V26.5347V26.5383V26.5418V26.5454V26.549V26.5525V26.5561V26.5596V26.5632V26.5668V26.5703V26.5739V26.5774V26.581V26.5846V26.5881V26.5917V26.5952V26.5988V26.6024V26.6059V26.6095V26.613V26.6166V26.6202V26.6237V26.6273V26.6308V26.6344V26.638V26.6415V26.6451V26.6486V26.6522V26.6558V26.6593V26.6629V26.6664V26.67V26.6736V26.6771V26.6807V26.6842V26.6878V26.6914V26.6949V26.6985V26.702V26.7056V26.7092V26.7127V26.7163V26.7198V26.7234V26.727V26.7305V26.7341V26.7376V26.7412V26.7448V26.7483V26.7519V26.7554V26.759V26.7626V26.7661V26.7697V26.7732V26.7768V26.7804V26.7839V26.7875V26.791V26.7946V26.7982V26.8017V26.8053V26.8088V26.8124V26.816V26.8195V26.8231V26.8266V26.8302V26.8338V26.8373V26.8409V26.8444V26.848V26.8516V26.8551V26.8587V26.8622V26.8658V26.8694V26.8729V26.8765V26.88V26.8836V26.8872V26.8907V26.8943V26.8978V26.9014V26.905V26.9085V26.9121V26.9156V26.9192V26.9228V26.9263V26.9299V26.9335V26.937V26.9406V26.9441V26.9477V26.9513V26.9548V26.9584V26.9619V26.9655V26.9691V26.9726V26.9762V26.9797V26.9833V26.9869V26.9904V26.994V26.9975V27.0011V27.0047V27.0082V27.0118V27.0153V27.0189V27.0225V27.026V27.0296V27.0331V27.0367V27.0403V27.0438V27.0474V27.0509V27.0545V27.0581V27.0616V27.0652V27.0687V27.0723V27.0759V27.0794V27.083V27.0865V27.0901V27.0937V27.0972V27.1008V27.1043V27.1079V27.1115V27.115V27.1186V27.1221V27.1257V27.1293V27.1328V27.1364V27.1399V27.1435V27.1471V27.1506V27.1542V27.1577V27.1613V27.1649V27.1684V27.172V27.1755V27.1791V27.1827V27.1862V27.1898V27.1933V27.1969V27.2005V27.204V27.2076V27.2111V27.2147V27.2183V27.2218V27.2254V27.2289V27.2325V27.2361V27.2396V27.2432V27.2467V27.2503V27.2539V27.2574V27.261V27.2645V27.2681V27.2717V27.2752V27.2788V27.2823V27.2859V27.2895V27.293V27.2966V27.3001V27.3037V27.3073V27.3108V27.3144V27.3179V27.3215V27.3251V27.3286V27.3322V27.3357V27.3393V27.3429V27.3464V27.35V27.3535V27.3571V27.3607V27.3642V27.3678V27.3713V27.3749V27.3785V27.382V27.3856V27.3891V27.3927V27.3963V27.3998V27.4034V27.4069V27.4105V27.4141V27.4176V27.4212V27.4247V27.4283V27.4319V27.4354V27.439V27.4425V27.4461V27.4497V27.4532V27.4568V27.4603V27.4639V27.4675V27.471V27.4746V27.4781V27.4817V27.4853V27.4888V27.4924V27.4959V27.4995V27.5031V27.5066V27.5102V27.5137V27.5173V27.5209V27.5244V27.528V27.5315V27.5351V27.5387V27.5422V27.5458V27.5493V27.5529V27.5565V27.56V27.5636V27.5671V27.5707V27.5743V27.5778V27.5814V27.5849V27.5885V27.5921V27.5956V27.5992V27.6027V27.6063V27.6099V27.6134V27.617V27.6205V27.6241V27.6277V27.6312V27.6348V27.6383V27.6419V27.6455V27.649V27.6526V27.6561V27.6597V27.6633V27.6668V27.6704V27.6739V27.6775V27.6811V27.6846V27.6882V27.6917V27.6953V27.6989V27.7024V27.706V27.7095V27.7131V27.7167V27.7202V27.7238V27.7273V27.7309V27.7345V27.738V27.7416V27.7451V27.7487V27.7515C42.0739 27.7495 41.8971 27.7495 41.7207 27.7495H41.7206Z" fill="white" stroke="white" stroke-width="0.1"/>
</svg>
