<svg width="30" height="34" viewBox="0 0 30 34" fill="none" xmlns="http://www.w3.org/2000/svg">
<g clip-path="url(#clip0_3569_15473)">
<path d="M22.2311 15.5151C22.2311 17.256 23.6608 18.6706 25.4162 18.6706C27.1716 18.6706 28.6013 17.256 28.6013 15.5151C28.6013 13.7742 27.1716 12.3595 25.4162 12.3595C23.6608 12.3595 22.2311 13.7742 22.2311 15.5151ZM23.0776 15.5157C23.0776 14.2397 24.1261 13.2005 25.4162 13.2005C26.7069 13.2005 27.7548 14.2397 27.7548 15.5157C27.7548 16.7917 26.7069 17.831 25.4162 17.831C24.1255 17.831 23.0776 16.7917 23.0776 15.5157Z" fill="white" stroke="white" stroke-width="0.2"/>
<path d="M0.118164 1.18991H0.388164C0.388164 0.852434 0.4293 0.653793 0.601084 0.507305H25.3393C25.5762 0.697674 25.6117 0.965645 25.6117 1.39068C25.6094 4.5986 25.6086 7.80578 25.6086 11.0129C25.488 11.0032 25.3661 10.9982 25.2429 10.9982C25.1073 10.9982 24.9731 11.0044 24.8407 11.0161V1.54587V1.27587H24.5707H18.1515H17.8815V1.54587C17.8815 1.66507 17.8823 1.78048 17.8831 1.89345C17.8849 2.14103 17.8866 2.37692 17.8793 2.61555L17.8792 2.61571C17.8743 2.7794 17.8626 2.94365 17.8505 3.11435L17.8484 3.14459C17.8357 3.32407 17.8229 3.51045 17.8193 3.69819L17.8193 3.69843C17.8129 4.04056 17.616 4.39647 17.3077 4.67597C16.9986 4.95625 16.6202 5.12042 16.3122 5.12134L16.3122 5.12134C14.0922 5.12835 11.8717 5.12991 9.65128 5.12134L9.65115 5.12134C9.27214 5.12007 8.89195 4.94025 8.60123 4.648C8.3105 4.35574 8.12926 3.97097 8.1238 3.58821L8.1238 3.58806C8.11679 3.11429 8.11842 2.64162 8.12006 2.16728C8.12078 1.96028 8.1215 1.75296 8.1215 1.54509V1.27509H7.8515H1.43065H1.16065V1.54509V14.7974V15.0674H1.43065H20.7106C20.6927 15.2301 20.683 15.3958 20.683 15.5639C20.683 15.6549 20.6859 15.7451 20.6914 15.8344H18.1841H17.9259L17.9144 16.0924C17.9045 16.3141 17.8928 16.5363 17.8811 16.7584C17.8547 17.2585 17.8283 17.7588 17.8223 18.2557V18.2558C17.8185 18.5943 17.6157 18.955 17.2937 19.2411C16.9714 19.5274 16.5778 19.6955 16.2622 19.6939C14.7012 19.6862 13.1397 19.6879 11.5791 19.6895C10.9292 19.6901 10.2795 19.6908 9.63001 19.6908C9.28142 19.6908 8.90182 19.5069 8.60298 19.2059C8.30424 18.905 8.12119 18.5222 8.1215 18.1703V18.1701V18.1661V18.1621V18.1581V18.1541V18.15V18.146V18.142V18.138V18.134V18.13V18.126V18.122V18.118V18.1139V18.1099V18.1059V18.1019V18.0979V18.0939V18.0899V18.0859V18.0819V18.0778V18.0738V18.0698V18.0658V18.0618V18.0578V18.0538V18.0498V18.0457V18.0417V18.0377V18.0337V18.0297V18.0257V18.0217V18.0177V18.0137V18.0096V18.0056V18.0016V17.9976V17.9936V17.9896V17.9856V17.9816V17.9776V17.9735V17.9695V17.9655V17.9615V17.9575V17.9535V17.9495V17.9455V17.9415V17.9374V17.9334V17.9294V17.9254V17.9214V17.9174V17.9134V17.9094V17.9053V17.9013V17.8973V17.8933V17.8893V17.8853V17.8813V17.8773V17.8733V17.8692V17.8652V17.8612V17.8572V17.8532V17.8492V17.8452V17.8412V17.8372V17.8331V17.8291V17.8251V17.8211V17.8171V17.8131V17.8091V17.8051V17.801V17.797V17.793V17.789V17.785V17.781V17.777V17.773V17.7689V17.7649V17.7609V17.7569V17.7529V17.7489V17.7449V17.7409V17.7368V17.7328V17.7288V17.7248V17.7208V17.7168V17.7128V17.7088V17.7047V17.7007V17.6967V17.6927V17.6887V17.6847V17.6807V17.6767V17.6726V17.6686V17.6646V17.6606V17.6566V17.6526V17.6486V17.6445V17.6405V17.6365V17.6325V17.6285V17.6245V17.6205V17.6164V17.6124V17.6084V17.6044V17.6004V17.5964V17.5924V17.5884V17.5843V17.5803V17.5763V17.5723V17.5683V17.5643V17.5602V17.5562V17.5522V17.5482V17.5442V17.5402V17.5362V17.5321V17.5281V17.5241V17.5201V17.5161V17.5121V17.5081V17.504V17.5V17.496V17.492V17.488V17.484V17.4799V17.4759V17.4719V17.4679V17.4639V17.4599V17.4559V17.4518V17.4478V17.4438V17.4398V17.4358V17.4318V17.4277V17.4237V17.4197V17.4157V17.4117V17.4076V17.4036V17.3996V17.3956V17.3916V17.3876V17.3835V17.3795V17.3755V17.3715V17.3675V17.3635V17.3594V17.3554V17.3514V17.3474V17.3434V17.3393V17.3353V17.3313V17.3273V17.3233V17.3193V17.3152V17.3112V17.3072V17.3032V17.2992V17.2951V17.2911V17.2871V17.2831V17.2791V17.275V17.271V17.267V17.263V17.259V17.2549V17.2509V17.2469V17.2429V17.2389V17.2348V17.2308V17.2268V17.2228V17.2188V17.2147V17.2107V17.2067V17.2027V17.1986V17.1946V17.1906V17.1866V17.1826V17.1785V17.1745V17.1705V17.1665V17.1625V17.1584V17.1544V17.1504V17.1464V17.1423V17.1383V17.1343V17.1303V17.1262V17.1222V17.1182V17.1142V17.1101V17.1061V17.1021V17.0981V17.0941V17.09V17.086V17.082V17.078V17.0739V17.0699V17.0659V17.0619V17.0578V17.0538V17.0498V17.0457V17.0417V17.0377V17.0337V17.0296V17.0256V17.0216V17.0176V17.0135V17.0095V17.0055V17.0015V16.9974V16.9934V16.9894V16.9853V16.9813V16.9773V16.9733V16.9692V16.9652V16.9612V16.9572V16.9531V16.9491V16.9451V16.941V16.937V16.933V16.9289V16.9249V16.9209V16.9169V16.9128V16.9088V16.9048V16.9007V16.8967V16.8927V16.8886V16.8846V16.8806V16.8766V16.8725V16.8685V16.8645V16.8604V16.8564V16.8524V16.8483V16.8443V16.8403V16.8362V16.8322V16.8282V16.8241V16.8201V16.8161V16.812V16.808V16.804V16.7999V16.7959V16.7919V16.7878V16.7838V16.7798V16.7757V16.7717V16.7677V16.7636V16.7596V16.7556V16.7515V16.7475V16.7434V16.7394V16.7354V16.7313V16.7273V16.7233V16.7192V16.7152V16.7112V16.7071V16.7031V16.699V16.695V16.691V16.6869V16.6829V16.6789V16.6748V16.6708V16.6667V16.6627V16.6587V16.6546V16.6506V16.6465V16.6425V16.6385V16.6344V16.6304V16.6263V16.6223V16.6183V16.6142V16.6102V16.6061V16.6021V16.598V16.594V16.59V16.5859V16.5819V16.5778V16.5738V16.5697V16.5657V16.5617V16.5576V16.5536V16.5495V16.5455V16.5414V16.5374V16.5333V16.5293V16.5253V16.5212V16.5172V16.5131V16.5091V16.505V16.501V16.4969V16.4929V16.4888V16.4848V16.4808V16.4767V16.4727V16.4686V16.4646V16.4605V16.4565V16.4524V16.4484V16.4443V16.4403V16.4362V16.4322V16.4281V16.4241V16.42V16.416V16.4119V16.4079V16.4038V16.3998V16.3957V16.3917V16.3876V16.3836V16.3795V16.3755V16.3714V16.3674V16.3633V16.3592V16.3552V16.3511V16.3471V16.343V16.339V16.3349V16.3309V16.3268V16.3228V16.3187V16.3147V16.3106V16.3065V16.3025V16.2984V16.2944V16.2903V16.2863V16.2822V16.2781V16.2741V16.27V16.266V16.2619V16.2579V16.2538V16.2497V16.2457V16.2416V16.2376V16.2335V16.2294V16.2254V16.2213V16.2173V16.2132V16.2091V16.2051V16.201V16.197V16.1929V16.1888V16.1848V16.1807V16.1767V16.1726V16.1685V16.1645V16.1604V16.1563V16.1523V16.1482V16.1441V16.1401V16.136V16.132V16.1279V16.1238V16.1198V16.1157V16.1116V16.1076V15.8376H7.8515H1.42676H1.15676V16.1076V29.3568V29.6268H1.42676H24.5746H24.8446V29.3568V20.1122C24.976 20.1237 25.1088 20.1296 25.2429 20.1296C25.3656 20.1296 25.487 20.1246 25.607 20.115V20.1304V20.1548V20.1792V20.2036V20.2281V20.2525V20.2769V20.3013V20.3258V20.3502V20.3746V20.3991V20.4235V20.4479V20.4723V20.4968V20.5212V20.5456V20.57V20.5945V20.6189V20.6433V20.6677V20.6922V20.7166V20.741V20.7655V20.7899V20.8143V20.8387V20.8632V20.8876V20.912V20.9364V20.9609V20.9853V21.0097V21.0341V21.0586V21.083V21.1074V21.1319V21.1563V21.1807V21.2051V21.2296V21.254V21.2784V21.3028V21.3273V21.3517V21.3761V21.4006V21.425V21.4494V21.4738V21.4983V21.5227V21.5471V21.5715V21.596V21.6204V21.6448V21.6693V21.6937V21.7181V21.7425V21.767V21.7914V21.8158V21.8402V21.8647V21.8891V21.9135V21.938V21.9624V21.9868V22.0112V22.0357V22.0601V22.0845V22.1089V22.1334V22.1578V22.1822V22.2067V22.2311V22.2555V22.2799V22.3044V22.3288V22.3532V22.3776V22.4021V22.4265V22.4509V22.4754V22.4998V22.5242V22.5486V22.5731V22.5975V22.6219V22.6463V22.6708V22.6952V22.7196V22.7441V22.7685V22.7929V22.8173V22.8418V22.8662V22.8906V22.9151V22.9395V22.9639V22.9883V23.0128V23.0372V23.0616V23.086V23.1105V23.1349V23.1593V23.1838V23.2082V23.2326V23.257V23.2815V23.3059V23.3303V23.3548V23.3792V23.4036V23.428V23.4525V23.4769V23.5013V23.5257V23.5502V23.5746V23.599V23.6235V23.6479V23.6723V23.6967V23.7212V23.7456V23.77V23.7945V23.8189V23.8433V23.8677V23.8922V23.9166V23.941V23.9655V23.9899V24.0143V24.0387V24.0632V24.0876V24.112V24.1365V24.1609V24.1853V24.2097V24.2342V24.2586V24.283V24.3074V24.3319V24.3563V24.3807V24.4052V24.4296V24.454V24.4784V24.5029V24.5273V24.5517V24.5762V24.6006V24.625V24.6494V24.6739V24.6983V24.7227V24.7472V24.7716V24.796V24.8204V24.8449V24.8693V24.8937V24.9182V24.9426V24.967V24.9914V25.0159V25.0403V25.0647V25.0892V25.1136V25.138V25.1624V25.1869V25.2113V25.2357V25.2602V25.2846V25.309V25.3334V25.3579V25.3823V25.4067V25.4311V25.4556V25.48V25.5044V25.5289V25.5533V25.5777V25.6021V25.6266V25.651V25.6754V25.6999V25.7243V25.7487V25.7731V25.7976V25.822V25.8464V25.8709V25.8953V25.9197V25.9441V25.9686V25.993V26.0174V26.0419V26.0663V26.0907V26.1151V26.1396V26.164V26.1884V26.2129V26.2373V26.2617V26.2861V26.3106V26.335V26.3594V26.3839V26.4083V26.4327V26.4571V26.4816V26.506V26.5304V26.5549V26.5793V26.6037V26.6281V26.6526V26.677V26.7014V26.7259V26.7503V26.7747V26.7991V26.8236V26.848V26.8724V26.8968V26.9213V26.9457V26.9701V26.9946V27.019V27.0434V27.0678V27.0923V27.1167V27.1411V27.1656V27.19V27.2144V27.2388V27.2633V27.2877V27.3121V27.3366V27.361V27.3854V27.4098V27.4343V27.4587V27.4831V27.5076V27.532V27.5564V27.5808V27.6053V27.6297V27.6541V27.6786V27.703V27.7274V27.7518V27.7763V27.8007V27.8251V27.8496V27.874V27.8984V27.9228V27.9473V27.9717V27.9961V28.0205V28.045V28.0694V28.0938V28.1183V28.1427V28.1671V28.1915V28.216V28.2404V28.2648V28.2893V28.3137V28.3381V28.3625V28.387V28.4114V28.4358V28.4603V28.4847V28.5091V28.5335V28.558V28.5824V28.6068V28.6313V28.6557V28.6801V28.7045V28.729V28.7534V28.7778V28.8022V28.8267V28.8511V28.8755V28.9V28.9244V28.9488V28.9732V28.9977V29.0221V29.0465V29.071V29.0954V29.1198V29.1442V29.1687V29.1931V29.2175V29.2419V29.2664V29.2908V29.3152V29.3397V29.3641V29.3885V29.4129V29.4374V29.4618V29.4862V29.5107V29.5351V29.5595V29.5839V29.6084V29.6328V29.6572V29.6816V29.7061V29.7305V29.7549V29.7794V29.8038V29.8282V29.8526V29.8771V29.9015V29.9259V29.9503V29.9748V29.9992V30.0236V30.0481V30.0725V30.0969V30.1213V30.1458V30.1702V30.1946V30.219V30.2435V30.2679V30.2923V30.3168V30.3412V30.3656V30.39V30.4145V30.4389V30.4633V30.4878V30.5122V30.5366V30.561V30.5855V30.6099V30.6343V30.6587V30.6832V30.7076V30.732V30.7564V30.7809V30.8053V30.8297V30.8542V30.8786V30.903V30.9274V30.9519V30.9763V31.0007V31.0251V31.0496V31.074V31.0984V31.1229V31.1473V31.1717V31.1961V31.2206V31.245V31.2694V31.2938V31.3183V31.3427V31.3671V31.3915V31.416V31.4404V31.4648V31.4893V31.5137V31.5381V31.5625V31.587V31.6114V31.6358V31.6602V31.6847V31.7091V31.7335V31.7579V31.7824V31.8068V31.8312V31.8557V31.8801V31.9045V31.9289V31.9534V31.9778V32.0022V32.0266V32.0511V32.0755V32.0999V32.1243V32.1488V32.1732V32.1976V32.222V32.2465V32.2709V32.2953V32.3198C25.607 32.4881 25.5939 32.6147 25.5557 32.7117C25.5225 32.796 25.4675 32.8661 25.3516 32.92L25.3514 32.9201C25.2862 32.9505 25.2197 32.9665 25.1714 32.9665H25.1713C17.0303 32.9689 8.88861 32.9681 0.747619 32.9665C0.547501 32.9665 0.402648 32.8222 0.39821 32.6275L0.398185 32.6266C0.395182 32.5123 0.395166 32.3982 0.395166 32.2792C0.395166 30.8975 0.395194 29.5157 0.395221 28.134C0.395401 19.1525 0.395581 10.1714 0.388164 1.18969L0.118164 1.18991ZM0.118164 1.18991C0.125581 10.1715 0.125401 19.1525 0.125221 28.1339C0.125194 29.5157 0.125166 30.8974 0.125166 32.2792C0.125166 32.3976 0.125166 32.5153 0.128278 32.6336M0.118164 1.18991C0.118164 0.798119 0.168734 0.46864 0.511055 0.237305L0.128278 32.6336M0.128278 32.6336C0.136058 32.9748 0.400579 33.2365 0.747567 33.2365C8.88857 33.2381 17.0304 33.2389 25.1714 33.2365C25.2694 33.2365 25.3752 33.2069 25.4654 33.1649L0.128278 32.6336ZM17.175 15.8305L17.1624 16.1126C17.1535 16.3116 17.147 16.5133 17.1404 16.7165C17.1246 17.2061 17.1085 17.7044 17.0577 18.1933C17.0327 18.4344 16.9241 18.633 16.7424 18.7654C16.5683 18.8923 16.3525 18.9401 16.1376 18.9402C13.9947 18.9433 11.8518 18.9425 9.70897 18.9394C9.49175 18.9393 9.28918 18.8285 9.1485 18.6987C9.00926 18.5703 8.87738 18.3735 8.87456 18.147M17.175 15.8305L8.87456 18.147M17.175 15.8305H16.8927H9.41142H9.14142H9.14065V16.1005M17.175 15.8305L9.14065 16.1005M8.87456 18.147C8.86788 17.6654 8.86913 17.1822 8.8704 16.6934C8.87091 16.4968 8.87142 16.2993 8.87142 16.1005H9.14065M8.87456 18.147L9.14065 16.1005M17.0716 1.26419V1.53419C17.0716 1.72644 17.0746 1.92272 17.0775 2.1214C17.0849 2.61007 17.0924 3.11325 17.0569 3.60676L17.0569 3.60681C17.0392 3.8527 16.936 4.05747 16.7534 4.19432C16.5793 4.32491 16.3617 4.37221 16.1476 4.37225M17.0716 1.26419L8.87378 3.5585M17.0716 1.26419H16.8016H9.41142H9.14142H9.14065V1.53419M17.0716 1.26419L9.14065 1.53419M16.1476 4.37225C16.1475 4.37225 16.1474 4.37225 16.1473 4.37225V4.10225M16.1476 4.37225C16.1477 4.37225 16.1477 4.37225 16.1478 4.37225L16.1473 4.10225M16.1476 4.37225C14.0046 4.37614 11.8617 4.37458 9.71918 4.37225C9.49413 4.37215 9.28752 4.26727 9.14073 4.12837C8.99443 3.98995 8.87636 3.78772 8.87378 3.5585M16.1473 4.10225C16.5037 4.10225 16.7619 3.94335 16.7876 3.58739L9.71948 4.10225C11.8621 4.10458 14.0047 4.10614 16.1473 4.10225ZM8.87378 3.5585C8.86826 3.08824 8.86937 2.61698 8.87049 2.1372C8.87095 1.93785 8.87142 1.73702 8.87142 1.53419H9.14065M8.87378 3.5585L9.14065 1.53419M24.5816 32.2019H24.8516V31.9319V30.6786V30.4086H24.5816H1.43065H1.16065V30.6786V31.9319V32.2019H1.43065H24.5816Z" stroke="white" stroke-width="0.54"/>
<path d="M25.482 17.0929H25.355C25.0884 17.0929 24.8216 17.0929 24.5542 17.0918C24.4361 17.0917 24.3281 17.0403 24.2425 16.9481M25.482 17.0929L24.1322 16.0739L24.1322 16.0743L24.1322 16.0744C24.1328 16.2645 24.1328 16.4551 24.1316 16.6451L24.1316 16.6451C24.131 16.7672 24.1656 16.8655 24.2425 16.9481M25.482 17.0929L25.4808 17.0917L25.7737 17.0915L26.1935 17.0913H26.2617C26.3 17.0913 26.3406 17.0852 26.3792 17.073C26.4784 17.0423 26.5589 16.9907 26.6146 16.9196C26.6706 16.8483 26.6991 16.7604 26.6994 16.6616M25.482 17.0929L26.6994 16.6616M24.2425 16.9481L24.2791 16.9141L24.2425 16.9482C24.2425 16.9482 24.2425 16.9481 24.2425 16.9481ZM24.4879 14.8407C24.4883 14.8974 24.4882 14.9542 24.488 15.011C24.488 15.0394 24.4879 15.0678 24.4879 15.0961V15.1335C24.4317 15.1458 24.3721 15.1687 24.3181 15.2136L25.3361 13.9902C25.2174 13.9987 25.1033 14.0281 24.9966 14.0773M24.4879 14.8407C24.4862 14.6895 24.5309 14.5415 24.6204 14.4016C24.7121 14.2589 24.8383 14.1499 24.9966 14.0773M24.4879 14.8407L24.4379 14.8413C24.4361 14.6794 24.4841 14.5219 24.5782 14.3746L24.5783 14.3745C24.6754 14.2237 24.809 14.1084 24.9757 14.0318L24.9966 14.0773M24.4879 14.8407L24.4379 14.841C24.4383 14.8975 24.4382 14.954 24.438 15.0106C24.438 15.0386 24.4379 15.0667 24.4379 15.0948C24.3875 15.11 24.3349 15.1346 24.2862 15.1752L24.2861 15.1752C24.1888 15.2565 24.1335 15.3555 24.1334 15.4692C24.1334 15.4693 24.1334 15.4694 24.1334 15.4695L24.9966 14.0773M26.696 15.7368L26.696 15.7368L26.6943 15.4655L26.6943 15.4654C26.6936 15.3701 26.6529 15.2828 26.579 15.2075L26.579 15.2074C26.5203 15.1478 26.4535 15.1141 26.3898 15.0955L26.646 15.7372L26.696 15.7368ZM26.696 15.7368C26.6983 16.0397 26.7006 16.353 26.6994 16.6616M26.696 15.7368L26.6994 16.6616M25.8639 15.0717H25.9139C25.9137 15.0617 25.9135 15.0516 25.913 15.0416L25.9113 14.9769L25.8639 15.0717ZM25.8639 15.0717C25.8637 15.0623 25.8635 15.053 25.8631 15.0437L25.8631 15.0429L25.8631 15.0429L25.8613 14.9783L25.8613 14.9781C25.8596 14.9025 25.8579 14.8337 25.8502 14.7665C25.8421 14.701 25.8086 14.6366 25.7401 14.5684L25.74 14.5683C25.679 14.5072 25.6011 14.4671 25.5072 14.4485C25.4414 14.4359 25.3755 14.4364 25.3112 14.4504L25.3111 14.4504C25.2012 14.4742 25.1176 14.5267 25.0522 14.6111L25.0126 14.5805M25.8639 15.0717H24.9712L24.9712 15.0609L24.9709 15.0127H24.9709L24.9709 15.0119C24.9697 14.9393 24.9692 14.8713 24.9725 14.8042L24.9226 14.8017L24.9725 14.8044C24.9759 14.7418 25.0014 14.677 25.0522 14.6111L25.0126 14.5805M25.0126 14.5805C25.0855 14.4865 25.1795 14.4277 25.3005 14.4016L25.0126 14.5805ZM25.8603 16.589H25.7767L25.7772 16.59H25.777H25.7766H25.7761H25.7757H25.7753H25.7748H25.7744H25.774H25.7735H25.7731H25.7727H25.7722H25.7718H25.7714H25.7709H25.7705H25.7701H25.7696H25.7692H25.7687H25.7683H25.7679H25.7674H25.767H25.7666H25.7661H25.7657H25.7653H25.7648H25.7644H25.764H25.7635H25.7631H25.7627H25.7622H25.7618H25.7613H25.7609H25.7605H25.76H25.7596H25.7592H25.7587H25.7583H25.7579H25.7574H25.757H25.7566H25.7561H25.7557H25.7553H25.7548H25.7544H25.7539H25.7535H25.7531H25.7526H25.7522H25.7518H25.7513H25.7509H25.7505H25.75H25.7496H25.7492H25.7487H25.7483H25.7479H25.7474H25.747H25.7466H25.7461H25.7457H25.7452H25.7448H25.7444H25.7439H25.7435H25.7431H25.7426H25.7422H25.7418H25.7413H25.7409H25.7405H25.74H25.7396H25.7392H25.7387H25.7383H25.7378H25.7374H25.737H25.7365H25.7361H25.7357H25.7352H25.7348H25.7344H25.7339H25.7335H25.7331H25.7326H25.7322H25.7318H25.7313H25.7309H25.7305H25.73H25.7296H25.7291H25.7287H25.7283H25.7278H25.7274H25.727H25.7265H25.7261H25.7257H25.7252H25.7248H25.7244H25.7239H25.7235H25.7231H25.7226H25.7222H25.7217H25.7213H25.7209H25.7204H25.72H25.7196H25.7191H25.7187H25.7183H25.7178H25.7174H25.717H25.7165H25.7161H25.7157H25.7152H25.7148H25.7144H25.7139H25.7135H25.713H25.7126H25.7122H25.7117H25.7113H25.7109H25.7104H25.71H25.7096H25.7091H25.7087H25.7083H25.7078H25.7074H25.707H25.7065H25.7061H25.7057H25.7052H25.7048H25.7044H25.7039H25.7035H25.703H25.7026H25.7022H25.7017H25.7013H25.7009H25.7004H25.7H25.6996H25.6991H25.6987H25.6983H25.6978H25.6974H25.697H25.6965H25.6961H25.6957H25.6952H25.6948H25.6943H25.6939H25.6935H25.693H25.6926H25.6922H25.6917H25.6913H25.6909H25.6904H25.69H25.6896H25.6891H25.6887H25.6883H25.6878H25.6874H25.687H25.6865H25.6861H25.6857H25.6852H25.6848H25.6844H25.6839H25.6835H25.683H25.6826H25.6822H25.6817H25.6813H25.6809H25.6804H25.68H25.6796H25.6791H25.6787H25.6783H25.6778H25.6774H25.677H25.6765H25.6761H25.6757H25.6752H25.6748H25.6744H25.6739H25.6735H25.6731H25.6726H25.6722H25.6718H25.6713H25.6709H25.6704H25.67H25.6696H25.6691H25.6687H25.6683H25.6678H25.6674H25.667H25.6665H25.6661H25.6657H25.6652H25.6648H25.6644H25.6639H25.6635H25.6631H25.6626H25.6622H25.6618H25.6613H25.6609H25.6605H25.66H25.6596H25.6592H25.6587H25.6583H25.6579H25.6574H25.657H25.6566H25.6561H25.6557H25.6553H25.6548H25.6544H25.654H25.6535H25.6531H25.6527H25.6522H25.6518H25.6513H25.6509H25.6505H25.65H25.6496H25.6492H25.6487H25.6483H25.6479H25.6474H25.647H25.6466H25.6461H25.6457H25.6453H25.6448H25.6444H25.644H25.6435H25.6431H25.6427H25.6422H25.6418H25.6414H25.6409H25.6405H25.6401H25.6396H25.6392H25.6388H25.6383H24.6669V15.5767H24.8939H24.8965H24.8991H24.9017H24.9043H24.9069H24.9095H24.912H24.9146H24.9172H24.9198H24.9224H24.925H24.9276H24.9302H24.9327H24.9353H24.9379H24.9405H24.9431H24.9457H24.9483H24.9509H24.9534H24.956H24.9586H24.9612H24.9638H24.9664H24.969H24.9716H24.9741H24.9767H24.9793H24.9819H24.9845H24.9871H24.9897H24.9923H24.9948H24.9974H25H25.0026H25.0052H25.0078H25.0104H25.013H25.0155H25.0181H25.0207H25.0233H25.0259H25.0285H25.0311H25.0337H25.0362H25.0388H25.0414H25.044H25.0466H25.0492H25.0518H25.0544H25.0569H25.0595H25.0621H25.0647H25.0673H25.0699H25.0725H25.0751H25.0776H25.0802H25.0828H25.0854H25.088H25.0906H25.0932H25.0958H25.0983H25.1009H25.1035H25.1061H25.1087H25.1113H25.1139H25.1165H25.119H25.1216H25.1242H25.1268H25.1294H25.132H25.1346H25.1372H25.1397H25.1423H25.1449H25.1475H25.1501H25.1527H25.1553H25.1579H25.1604H25.163H25.1656H25.1682H25.1708H25.1734H25.176H25.1786H25.1811H25.1837H25.1863H25.1889H25.1915H25.1941H25.1967H25.1993H25.2018H25.2044H25.207H25.2096H25.2122H25.2148H25.2174H25.22H25.2225H25.2251H25.2277H25.2303H25.2329H25.2355H25.2381H25.2407H25.2432H25.2458H25.2484H25.251H25.2536H25.2562H25.2588H25.2614H25.2639H25.2665H25.2691H25.2717H25.2743H25.2769H25.2795H25.2821H25.2846H25.2872H25.2898H25.2924H25.295H25.2976H25.3002H25.3028H25.3053H25.3079H25.3105H25.3131H25.3157H25.3183H25.3209H25.3235H25.326H25.3286H25.3312H25.3338H25.3364H25.339H25.3416H25.3442H25.3467H25.3493H25.3519H25.3545H25.3571H25.3597H25.3623H25.3649H25.3674H25.37H25.3726H25.3752H25.3778H25.3804H25.383H25.3856H25.3881H25.3907H25.3933H25.3959H25.3985H25.4011H25.4037H25.4063H25.4088H25.4114H25.414H25.4166H25.4192H25.4218H25.4244H25.427H25.4295H25.4321H25.4347H25.4373H25.4399H25.4425H25.4451H25.4477H25.4502H25.4528H25.4554H25.458H25.4606H25.4632H25.4658H25.4684H25.4709H25.4735H25.4761H25.4787H25.4813H25.4839H25.4865H25.4891H25.4916H25.4942H25.4968H25.4994H25.502H25.5046H25.5072H25.5098H25.5123H25.5149H25.5175H25.5201H25.5227H25.5253H25.5279H25.5305H25.533H25.5356H25.5382H25.5408H25.5434H25.546H25.5486H25.5512H25.5537H25.5563H25.5589H25.5615H25.5641H25.5667H25.5693H25.5719H25.5744H25.577H25.5796H25.5822H25.5848H25.5874H25.59H25.5926H25.5951H25.5977H25.6003H25.6029H25.6055H25.6081H25.6107H25.6133H25.6158H25.6184H25.621H25.6236H25.6262H25.6288H25.6314H25.634H25.6365H25.6391H25.6417H25.6443H25.6469H25.6495H25.6521H25.6547H25.6572H25.6598H25.6624H25.665H25.6676H25.6702H25.6728H25.6754H25.6779H25.6805H25.6831H25.6857H25.6883H25.6909H25.6935H25.6961H25.6986H25.7012H25.7038H25.7064H25.709H25.7116H25.7142H25.7168H25.7193H25.7219H25.7245H25.7271H25.7297H25.7323H25.7349H25.7375H25.74H25.7426H25.7452H25.7478H25.7504H25.753H25.7556H25.7582H25.7607H25.7633H25.7659H25.7685H25.7711H25.7737H25.7763H25.7789H25.7814H25.784H25.7866H25.7892H25.7918H25.7944H25.797H25.7996H25.8021H25.8047H25.8073H25.8099H25.8125H25.8151H25.8177H25.8203H25.8228H25.8254H25.828H25.8306H25.8332H25.8358H25.8384H25.841H25.8435H25.8461H25.8487H25.8513H25.8539H25.8565H25.8591H25.8617H25.8642H25.8668H25.8694H25.872H25.8746H25.8772H25.8798H25.8824H25.8849H25.8875H25.8901H25.8927H25.8953H25.8979H25.9005H25.903H25.9056H25.9082H25.9108H25.9134H25.916H25.9186H25.9212H25.9237H25.9263H25.9289H25.9315H25.9341H25.9367H25.9393H25.9419H25.9444H25.947H25.9496H25.9522H25.9548H25.9574H25.96H25.9626H25.9651H25.9677H25.9703H25.9729H25.9755H25.9781H25.9807H25.9833H25.9858H25.9884H25.991H25.9936H25.9962H25.9988H26.0014H26.004H26.0065H26.0091H26.0117H26.0143H26.0169H26.0195H26.0221H26.0247H26.0272H26.0298H26.0324H26.035H26.0376H26.0402H26.0428H26.0454H26.0479H26.0505H26.0531H26.0557H26.0583H26.0609H26.0635H26.0661H26.0686H26.0712H26.0738H26.0764H26.079H26.0816H26.0842H26.0868H26.0893H26.0919H26.0945H26.0971H26.0997H26.1023H26.1049H26.1075H26.11H26.1126H26.1152H26.1178H26.1204H26.123H26.1256H26.1282H26.1307H26.1333H26.1359H26.1385H26.1411H26.1437H26.1463H26.1489H26.1514H26.154H26.1566H26.1592H26.1618H26.1644H26.167H26.1687V15.5767V15.5789V15.5811V15.5832V15.5854V15.5876V15.5898V15.5919V15.5941V15.5963V15.5985V15.6006V15.6028V15.605V15.6072V15.6093V15.6115V15.6137V15.6159V15.618V15.6202V15.6224V15.6246V15.6268V15.6289V15.6311V15.6333V15.6355V15.6376V15.6398V15.642V15.6442V15.6463V15.6485V15.6507V15.6529V15.655V15.6572V15.6594V15.6616V15.6637V15.6659V15.6681V15.6703V15.6724V15.6746V15.6768V15.679V15.6811V15.6833V15.6855V15.6877V15.6898V15.692V15.6942V15.6964V15.6985V15.7007V15.7029V15.7051V15.7072V15.7094V15.7116V15.7138V15.716V15.7181V15.7203V15.7225V15.7247V15.7268V15.729V15.7312V15.7334V15.7355V15.7377V15.7399V15.7421V15.7442V15.7464V15.7486V15.7508V15.7529V15.7551V15.7573V15.7595V15.7616V15.7638V15.766V15.7682V15.7703V15.7725V15.7747V15.7769V15.779V15.7812V15.7834V15.7856V15.7877V15.7899V15.7921V15.7943V15.7964V15.7986V15.8008V15.803V15.8051V15.8073V15.8095V15.8117V15.8139V15.816V15.8182V15.8204V15.8226V15.8247V15.8269V15.8291V15.8313V15.8334V15.8356V15.8378V15.84V15.8421V15.8443V15.8465V15.8487V15.8508V15.853V15.8552V15.8574V15.8595V15.8617V15.8639V15.8661V15.8682V15.8704V15.8726V15.8748V15.8769V15.8791V15.8813V15.8835V15.8856V15.8878V15.89V15.8922V15.8943V15.8965V15.8987V15.9009V15.9031V15.9052V15.9074V15.9096V15.9118V15.9139V15.9161V15.9183V15.9205V15.9226V15.9248V15.927V15.9292V15.9313V15.9335V15.9357V15.9379V15.94V15.9422V15.9444V15.9466V15.9487V15.9509V15.9531V15.9553V15.9574V15.9596V15.9618V15.964V15.9661V15.9683V15.9705V15.9727V15.9748V15.977V15.9792V15.9814V15.9835V15.9857V15.9879V15.9901V15.9922V15.9944V15.9966V15.9988V16.001V16.0031V16.0053V16.0075V16.0097V16.0118V16.014V16.0162V16.0184V16.0205V16.0227V16.0249V16.0271V16.0292V16.0314V16.0336V16.0358V16.0379V16.0401V16.0423V16.0445V16.0466V16.0488V16.051V16.0532V16.0553V16.0575V16.0597V16.0619V16.064V16.0662V16.0684V16.0706V16.0727V16.0749V16.0771V16.0793V16.0814V16.0836V16.0858V16.088V16.0902V16.0923V16.0945V16.0967V16.0989V16.101V16.1032V16.1054V16.1076V16.1097V16.1119V16.1141V16.1163V16.1184V16.1206V16.1228V16.125V16.1271V16.1293V16.1315V16.1337V16.1358V16.138V16.1402V16.1424V16.1445V16.1467V16.1489V16.1511V16.1532V16.1554V16.1576V16.1598V16.1619V16.1641V16.1663V16.1685V16.1706V16.1728V16.175V16.1772V16.1794V16.1815V16.1837V16.1859V16.1881V16.1902V16.1924V16.1946V16.1968V16.1989V16.2011V16.2033V16.2055V16.2076V16.2098V16.212V16.2142V16.2163V16.2185V16.2207V16.2229V16.225V16.2272V16.2294V16.2316V16.2337V16.2359V16.2381V16.2403V16.2424V16.2446V16.2468V16.249V16.2511V16.2533V16.2555V16.2577V16.2598V16.262V16.2642V16.2664V16.2685V16.2707V16.2729V16.2751V16.2773V16.2794V16.2816V16.2838V16.286V16.2881V16.2903V16.2925V16.2947V16.2968V16.299V16.3012V16.3034V16.3055V16.3077V16.3099V16.3121V16.3142V16.3164V16.3186V16.3208V16.3229V16.3251V16.3273V16.3295V16.3316V16.3338V16.336V16.3382V16.3403V16.3425V16.3447V16.3469V16.349V16.3512V16.3534V16.3556V16.3577V16.3599V16.3621V16.3643V16.3665V16.3686V16.3708V16.373V16.3752V16.3773V16.3795V16.3817V16.3839V16.386V16.3882V16.3904V16.3926V16.3947V16.3969V16.3991V16.4013V16.4034V16.4056V16.4078V16.41V16.4121V16.4143V16.4165V16.4187V16.4208V16.423V16.4252V16.4274V16.4295V16.4317V16.4339V16.4361V16.4382V16.4404V16.4426V16.4448V16.4469V16.4491V16.4513V16.4535V16.4556V16.4578V16.46V16.4622V16.4644V16.4665V16.4687V16.4709V16.4731V16.4752V16.4774V16.4796V16.4818V16.4839V16.4861V16.4883V16.4905V16.4926V16.4948V16.497V16.4992V16.5013V16.5035V16.5057V16.5079V16.51V16.5122V16.5144V16.5166V16.5187V16.5209V16.5231V16.5253V16.5274V16.5296V16.5318V16.534V16.5361V16.5383V16.5405V16.5427V16.5448V16.547V16.5492V16.5514V16.5536V16.5557V16.5579V16.5601V16.5623V16.5644V16.5666V16.5688V16.571V16.5731V16.5753V16.5775V16.5797V16.5818V16.584V16.5862V16.5884V16.59C26.0656 16.589 25.9629 16.589 25.8604 16.589H25.8603Z" fill="white" stroke="white" stroke-width="0.1"/>
</g>
<defs>
<clipPath id="clip0_3569_15473">
<rect width="29" height="33" fill="white" transform="translate(0.118164 0.237305)"/>
</clipPath>
</defs>
</svg>
