<svg  viewBox="0 0 46 50" fill="none" xmlns="http://www.w3.org/2000/svg">
<path d="M45.7231 49.9235H42.7535C42.6038 49.9235 42.4821 49.7937 42.4821 49.6341V49.414C42.4821 39.5647 42.4803 29.7163 42.4902 19.867C42.4902 19.4757 42.382 19.244 42.0745 19.0268C39.7027 17.3521 37.3454 15.6543 34.9791 13.9719C31.4125 11.4348 27.8422 8.9054 24.2738 6.37121C23.9582 6.14625 23.6344 5.92994 23.3413 5.67421C23.0834 5.44829 22.9103 5.49636 22.6415 5.68959C18.8044 8.43144 14.9546 11.1521 11.112 13.8844C8.74477 15.5677 6.38836 17.2665 4.01933 18.946C3.70731 19.1671 3.59278 19.4075 3.59278 19.8209C3.6063 29.6702 3.6036 39.5185 3.6036 49.3678V49.6245C3.6036 49.7841 3.48186 49.9139 3.33216 49.9139H0.27505C0.12535 49.9139 0.00360721 49.7841 0.00360721 49.6245V49.4553C0.00360721 38.8706 0.00360721 28.2868 0 17.702C0 17.3809 0.0622243 17.1752 0.349899 16.9742C2.49799 15.4735 4.62805 13.9421 6.76171 12.4163C10.276 9.90427 13.7876 7.38738 17.3038 4.87723C19.083 3.60725 20.8668 2.34304 22.6569 1.09036C22.7687 1.01153 22.9121 0.956733 23.0582 0.960579C23.1754 0.963463 23.3215 1.06441 23.3296 1.07018C24.9898 2.26228 26.65 3.45439 28.3148 4.63881C31.7849 7.10762 35.2586 9.56875 38.7279 12.0385C40.4864 13.2893 42.235 14.5554 43.9944 15.8042C44.5941 16.2292 45.7051 16.8743 45.8169 17.0415C45.9288 17.2088 46 17.8789 46 18.0077C45.9955 28.5511 45.9955 39.0936 45.9955 49.637C45.9955 49.7966 45.8737 49.9264 45.724 49.9264L45.7231 49.9235Z" fill="white"/>
<path d="M31.6762 46.3645C31.6635 46.2155 31.5472 46.101 31.4065 46.101H31.2568C25.782 46.101 20.3071 46.1059 14.8314 46.0905C14.4103 46.0895 14.3354 46.2212 14.2966 46.6529C14.1947 47.7767 13.6482 48.6583 12.7536 49.2659C11.4388 50.16 10.1014 50.2196 8.78572 49.2765C7.83161 48.592 7.22741 47.6248 7.21568 46.3875C7.18232 42.6939 7.19494 39.0003 7.20757 35.3057C7.21388 33.4801 8.0733 32.1024 9.32139 30.9517C9.42059 30.8603 9.51888 30.7382 9.63612 30.7046C10.418 30.4854 10.5334 29.798 10.7309 29.1039C11.235 27.3311 11.7977 25.5776 12.3478 23.8202C12.7816 22.4377 13.6176 21.4398 14.9198 20.9505C15.3247 20.7976 15.7684 20.6899 16.1949 20.688C20.6498 20.6669 25.1047 20.6496 29.5596 20.6803C31.1919 20.6919 32.5401 21.4263 33.3264 22.9915C33.7332 23.8009 33.9316 24.7306 34.2066 25.6122C34.6638 27.0792 35.1012 28.553 35.5611 30.0191C35.6098 30.1739 35.7243 30.3575 35.8551 30.4248C37.5108 31.2757 38.3982 32.7418 38.786 34.5924C38.8788 35.0337 38.877 35.5028 38.8788 35.9595C38.8861 39.2061 38.8906 42.4517 38.8788 45.6982C38.8743 46.8298 38.6336 47.9123 37.8652 48.74C36.7894 49.8985 35.0525 50.4023 33.5411 49.4678C32.4147 48.7708 31.7925 47.7431 31.6771 46.3654L31.6762 46.3645ZM22.9539 42.2632C26.3736 42.2632 29.7932 42.2421 33.2128 42.2748C34.3906 42.2863 35.2635 41.4961 35.2789 40.0876C35.2942 38.6648 35.3167 37.24 35.2725 35.8191C35.2265 34.3453 34.5971 33.6483 33.2236 33.6426C26.3393 33.6137 19.4549 33.6262 12.5706 33.6349C11.5173 33.6358 10.7994 34.4895 10.803 35.5413C10.8085 37.1564 10.8121 38.7715 10.8021 40.3857C10.7958 41.399 11.6048 42.268 12.5598 42.2652C16.0245 42.2555 19.4892 42.2613 22.9539 42.2632ZM31.3163 29.7817C31.5003 29.7817 31.6311 29.5904 31.5742 29.4039C31.1261 27.908 30.6878 26.4447 30.2468 24.9815C30.1422 24.6345 29.8996 24.5066 29.5695 24.5066C25.1895 24.5085 20.8094 24.5095 16.4294 24.5066C16.0714 24.5066 15.8576 24.6614 15.753 25.0325C15.5664 25.6949 15.3608 26.3515 15.1615 27.01C14.9207 27.8041 14.679 28.5973 14.4337 29.4039C14.3769 29.5904 14.5077 29.7836 14.6916 29.7836H31.3163V29.7817Z" fill="white"/>
<path d="M26.8935 36.0469H19.2832C19.1332 36.0469 19.0117 36.1765 19.0117 36.3363V39.556C19.0117 39.7158 19.1332 39.8453 19.2832 39.8453H26.8935C27.0434 39.8453 27.1649 39.7158 27.1649 39.556V36.3363C27.1649 36.1765 27.0434 36.0469 26.8935 36.0469Z" fill="white"/>
<path d="M14.8605 36.122C16.123 36.1259 16.6542 36.7431 16.6542 38.2082C16.6542 39.0869 15.7948 39.8695 14.837 39.8637C13.9416 39.8579 13.0966 38.985 13.1371 37.8746C13.175 36.8373 13.8496 36.1191 14.8605 36.122Z" fill="white"/>
<path d="M32.9459 37.9813C32.9459 39.0532 32.1803 39.856 31.1666 39.8656C30.2216 39.8743 29.4099 38.9658 29.4316 37.9621C29.4541 36.9536 30.0917 36.122 30.8916 36.1201C32.3309 36.1162 32.9459 36.6729 32.9468 37.9813H32.9459Z" fill="white"/>
</svg>
