<svg width="60" height="98" viewBox="0 0 60 98" fill="none" xmlns="http://www.w3.org/2000/svg">
<g clip-path="url(#clip0_4854_36786)">
<path d="M10.3557 40.7327C10.3874 28.4367 10.3134 25.0203 10.3451 11.2964L48.8567 11.1853V36.6181H47.0109V39.4687L10.361 40.7274L10.3557 40.7327Z" stroke="white" stroke-width="0.5" stroke-miterlimit="8"/>
<path d="M19.7535 14.6863H40.855V35.2853H19.7535V14.6863Z" stroke="white" stroke-width="0.5" stroke-miterlimit="8"/>
<path d="M8.28259 91.4821C8.57875 84.1839 8.24028 82.079 8.53644 74.2783L36.7828 74.2995L40.3262 91.6672L8.28259 91.4821Z" fill="white"/>
<path d="M30.5952 24.7346H40.8445" stroke="white" stroke-width="0.25" stroke-miterlimit="8"/>
<path d="M20.7161 24.7346H19.7535" stroke="white" stroke-width="0.25" stroke-miterlimit="8"/>
<path d="M19.7535 14.5542H40.855V35.1533H19.7535V14.5542Z" stroke="white" stroke-width="0.5" stroke-miterlimit="8"/>
<path d="M22.1863 25.914L20.6526 25.9775C20.6685 25.2212 20.679 24.4702 20.6949 23.7139L22.1334 23.6716C22.1493 23.2856 22.1598 22.9048 22.1757 22.5187L30.6004 22.4976V27.2467L22.1493 27.289C22.1651 26.3635 22.1757 26.7972 22.1916 25.914H22.1863Z" stroke="white" stroke-width="0.5" stroke-miterlimit="8"/>
<path d="M0.540078 -5.23047L0.68287 -5.15114C0.741044 -4.90786 2.06319 -4.19919 1.84107 0.67689L2.36464 61.464L2.62907 70.6661C1.97329 80.3337 1.35452 85.7386 0.566521 94.9884C0.391997 97.6856 0.513635 94.9143 0.339111 97.6115" stroke="white" stroke-width="0.5" stroke-miterlimit="8"/>
<path d="M5.47434 -5.75391C5.66473 -5.71689 5.79166 -5.38899 5.65944 -5.68515C5.71762 -5.56352 6.91813 -5.10341 7.12438 -2.00429L7.65324 58.7775L7.91767 67.9797C7.2566 77.6472 6.32581 86.4739 5.53252 95.7236C5.35799 98.4208 5.54309 95.1101 5.36328 97.8073" stroke="white" stroke-width="0.5" stroke-miterlimit="8"/>
<path d="M48.9624 36.4702V39.1674" stroke="white" stroke-width="0.5" stroke-miterlimit="8"/>
<path d="M48.9624 36.4595V-5.46851" stroke="white" stroke-width="0.5" stroke-miterlimit="8"/>
<path d="M51.2101 39.8918L48.9624 42.9381" stroke="white" stroke-width="0.5" stroke-miterlimit="8"/>
<path d="M51.1149 40.024V-5.46851" stroke="white" stroke-width="0.5" stroke-miterlimit="8"/>
<path d="M51.1149 40.0347L58.0799 30.7373" stroke="white" stroke-width="0.5" stroke-miterlimit="8"/>
<path d="M58.0747 30.7373L56.0386 17.0293" stroke="white" stroke-width="0.5" stroke-miterlimit="8"/>
<path d="M56.0598 17.0133L51.2207 11.3704" stroke="white" stroke-width="0.5" stroke-miterlimit="8"/>
<path d="M36.201 60.0203L44.0705 97.3683" stroke="white" stroke-width="0.5" stroke-miterlimit="8"/>
<path d="M48.9571 42.9434L36.201 60.0149" stroke="white" stroke-width="0.5" stroke-miterlimit="8"/>
<path d="M33.8053 59.6235L41.5954 97.3629" stroke="white" stroke-width="0.5" stroke-miterlimit="8"/>
<path d="M48.9677 39.0244L33.7524 59.7081" stroke="white" stroke-width="0.5" stroke-miterlimit="8"/>
</g>
<defs>
<clipPath id="clip0_4854_36786">
<rect width="60" height="98" fill="white"/>
</clipPath>
</defs>
</svg>
