<svg width="34" height="28" viewBox="0 0 34 28" fill="none" xmlns="http://www.w3.org/2000/svg">
<g clip-path="url(#clip0_3569_15478)">
<path d="M17.013 0.23747C21.4868 0.23747 25.9597 0.234299 30.4335 0.238527C32.1511 0.24064 33.4654 1.19398 33.873 2.73919C33.956 3.05415 33.9922 3.3892 33.9933 3.71473C33.9997 10.3987 34.0018 17.0826 33.9965 23.7666C33.9954 25.7715 32.5204 27.2311 30.4953 27.2311C21.5081 27.2354 12.522 27.2343 3.53491 27.2311C1.48846 27.2311 0.0241286 25.7863 0.00710148 23.7486C-0.00673307 22.0607 0.00390889 20.3739 0.00390889 18.686C0.00390889 13.729 0.0017805 8.77207 0.00390889 3.81513C0.00603728 2.00463 1.07343 0.638041 2.76124 0.301942C3.06986 0.239583 3.39444 0.24064 3.71157 0.24064C8.14607 0.23747 12.5795 0.23747 17.013 0.23747ZM32.2884 19.0316C32.298 18.8403 32.3044 18.7652 32.3044 18.6902C32.3044 13.7068 32.3076 8.72451 32.3023 3.74115C32.3012 2.60074 31.585 1.91902 30.4154 1.91902C21.4826 1.91902 12.5497 1.91902 3.61685 1.91902C2.39197 1.91902 1.7162 2.58171 1.71514 3.794C1.71301 9.92411 1.71514 16.0532 1.71514 22.1833C1.71514 22.3059 1.73004 22.4274 1.74174 22.6156C1.90137 22.4644 2.00673 22.3683 2.10676 22.2678C3.05496 21.3272 4.00316 20.3855 4.95136 19.4438C6.06876 18.3351 7.18617 17.2264 8.30145 16.1155C8.99211 15.4275 9.81367 15.1717 10.7736 15.3662C11.2972 15.4719 11.7292 15.7361 12.1028 16.1134C12.853 16.8712 13.6118 17.6206 14.3833 18.389C14.511 18.2452 14.6089 18.1406 14.7015 18.0307C16.749 15.5902 18.7976 13.1509 20.843 10.7094C22.0785 9.23395 23.8078 9.21175 25.0657 10.665C26.562 12.3941 28.0529 14.1285 29.5471 15.8598C30.4346 16.8892 31.3243 17.9165 32.2884 19.0316ZM1.99715 24.7875C2.38877 25.3456 2.91661 25.5549 3.54981 25.5549C12.5231 25.5549 21.4964 25.557 30.4697 25.5527C31.5988 25.5527 32.2948 24.8425 32.3055 23.7127C32.3108 23.1588 32.3321 22.6039 32.2948 22.0522C32.2788 21.8123 32.1884 21.5322 32.0351 21.3515C29.2927 18.148 26.5354 14.9572 23.7802 11.7653C23.2151 11.11 22.7085 11.1248 22.1434 11.8001C19.8512 14.5354 17.5578 17.2697 15.2624 20.0029C14.7366 20.6286 14.2695 20.6476 13.6937 20.0779C12.7828 19.1743 11.874 18.2685 10.9619 17.3659C10.432 16.8416 9.985 16.8406 9.45823 17.3638C7.05421 19.7492 4.65232 22.1357 2.24936 24.5223C2.17487 24.5962 2.10463 24.6755 1.99821 24.7875H1.99715Z" fill="white"/>
<path d="M8.52293 5.30417C10.3938 5.31157 11.9145 6.82613 11.9092 8.67574C11.9039 10.5401 10.3533 12.0589 8.47185 12.0441C6.61589 12.0293 5.08239 10.481 5.10473 8.64509C5.12815 6.78386 6.64888 5.29572 8.52187 5.30417H8.52293ZM6.81809 8.61127C6.79361 9.56778 7.53536 10.3457 8.48675 10.3615C9.39876 10.3763 10.1714 9.63859 10.1948 8.72964C10.2193 7.78899 9.49561 7.01321 8.5655 6.98467C7.62581 6.95508 6.8415 7.68541 6.81702 8.61127H6.81809Z" fill="white"/>
</g>
<defs>
<clipPath id="clip0_3569_15478">
<rect width="34" height="27" fill="white" transform="translate(0 0.237305)"/>
</clipPath>
</defs>
</svg>
