<svg viewBox="0 0 49 50" fill="none" xmlns="http://www.w3.org/2000/svg">
<path d="M2 8.52009V42.4808C2.05479 42.5764 2.13698 42.6656 2.15889 42.7703C2.30793 43.4915 2.61257 44.1197 3.0542 44.6277C3.83881 45.5299 4.78123 45.95 5.89899 45.9487C17.3932 45.9332 28.8874 45.9383 40.3817 45.9383C40.5581 45.9383 40.7422 45.9862 40.9088 45.9409C41.8337 45.694 42.649 45.2132 43.2341 44.2968C43.6473 43.6492 43.9892 42.9383 43.9903 42.115C44.0023 31.0106 44.0045 19.9036 43.9892 8.7967C43.9881 7.72646 43.4982 6.83847 42.8714 6.11723C42.0726 5.19822 41.0479 4.96039 39.9576 4.96039C28.6825 4.96685 17.4064 4.96297 6.1313 4.97202C5.67763 4.97202 5.21189 5.01597 4.77356 5.14522C3.41582 5.54979 2.52162 6.54506 2.15999 8.16852C2.1326 8.29389 2.05479 8.40247 2 8.52009ZM4.42508 16.375C4.42508 16.2263 4.42508 16.1022 4.42508 15.9781C4.42508 13.8183 4.42289 11.6571 4.42508 9.49727C4.42618 8.39988 4.91602 7.83504 5.85515 7.83504C17.2814 7.83504 28.7077 7.83504 40.134 7.83504C41.1838 7.83504 41.5685 8.28614 41.5696 9.5257C41.5718 11.6701 41.5707 13.8144 41.5696 15.9588C41.5696 16.0971 41.5553 16.2354 41.5477 16.375H4.42289H4.42508ZM41.5542 19.2729V25.26H33.9305V19.2729H41.5542ZM31.4692 25.2458H23.8378V19.2884H31.4692V25.2458ZM13.7342 19.2806H21.3536V25.2523H13.7342V19.2806ZM33.9206 28.1838H41.552V34.1541H33.9195V28.1838H33.9206ZM23.8291 28.1747H31.4495V34.1476H23.8291V28.1747ZM13.7419 34.1554V28.1825H21.3623V34.1554H13.7419ZM31.4681 43.0469H23.8389V37.0817H31.4681V43.0469ZM13.7342 37.0727H21.3492V43.0469H13.7342V37.0727ZM41.5729 37.0675C41.5729 38.6121 41.586 40.1102 41.5685 41.6083C41.5564 42.5958 41.1247 43.0663 40.2732 43.0676C38.2788 43.0715 36.2843 43.0676 34.2899 43.0676C34.1716 43.0676 34.0532 43.0676 33.9327 43.0676V37.0662H41.5718L41.5729 37.0675ZM11.2631 19.2716V25.26H4.45248V19.2716H11.2631ZM4.4481 34.158V28.1786H11.2511V34.158H4.4481ZM4.42618 37.0869H11.2554V43.0676C9.40018 43.0676 7.57013 43.0469 5.74009 43.0779C5.07163 43.0895 4.44262 42.5105 4.43056 41.5695C4.41193 40.0869 4.42508 38.6044 4.42508 37.0856L4.42618 37.0869Z" fill="white"/>
</svg>
