<?xml version="1.0" encoding="UTF-8" standalone="no"?>
<!-- Uploaded to: SVG Repo, www.svgrepo.com, Generator: SVG Repo Mixer Tools -->

<svg
   fill="#000000"
   version="1.1"
   id="Capa_1"
   width="800px"
   height="800px"
   viewBox="0 0 364.329 364.329"
   xml:space="preserve"
   sodipodi:docname="painel-sol.svg"
   inkscape:version="1.3 (1:1.3+202307231459+0e150ed6c4)"
   xmlns:inkscape="http://www.inkscape.org/namespaces/inkscape"
   xmlns:sodipodi="http://sodipodi.sourceforge.net/DTD/sodipodi-0.dtd"
   xmlns="http://www.w3.org/2000/svg"
   xmlns:svg="http://www.w3.org/2000/svg"><defs
   id="defs6" /><sodipodi:namedview
   id="namedview6"
   pagecolor="#ffffff"
   bordercolor="#000000"
   borderopacity="0.25"
   inkscape:showpageshadow="2"
   inkscape:pageopacity="0.0"
   inkscape:pagecheckerboard="0"
   inkscape:deskcolor="#d1d1d1"
   inkscape:zoom="0.63"
   inkscape:cx="399.20635"
   inkscape:cy="400"
   inkscape:window-width="1366"
   inkscape:window-height="704"
   inkscape:window-x="0"
   inkscape:window-y="27"
   inkscape:window-maximized="1"
   inkscape:current-layer="g7" />&#10;<g
   id="g6"
   transform="matrix(0.84489187,0,0,0.86584009,33.090415,88.783202)">&#10;	<g
   id="g5">&#10;		<g
   id="g1">&#10;			<path
   d="M 321.905,126.014 H 45.331 l -5.375,41.571 -0.093,0.793 h 288.882 z m -220.994,36.131 -9.034,-0.075 3.125,-29.144 9.037,0.114 z m 83.815,-1.694 h -9.064 v -28.535 h 9.064 z m 71.685,2.333 -3.141,-29.09 9.037,-0.105 3.135,29.138 z"
   id="path1" />&#10;		</g>&#10;		<g
   id="g2">&#10;			<path
   d="M 314.363,79.23 H 51.362 l -4.771,36.908 -0.093,0.793 H 320.44 Z m -208.528,33.213 -9.038,-0.075 3.123,-29.126 9.04,0.096 z m 78.891,-0.018 h -9.064 V 83.893 h 9.064 z m 66.754,0.67 -3.122,-29.097 9.043,-0.111 3.123,29.144 z"
   id="path2" />&#10;		</g>&#10;		<g
   id="g3">&#10;			<path
   d="m 38.683,177.448 -4.66,36.074 -0.093,0.805 H 336.148 L 330.21,177.455 H 38.683 Z m 56.545,33.072 -9.031,-0.061 3.116,-29.144 9.046,0.099 z m 89.498,1.375 h -9.064 v -28.55 h 9.064 z m 77.366,-0.709 -3.129,-29.102 9.037,-0.105 3.129,29.129 z"
   id="path3" />&#10;		</g>&#10;		<g
   id="g4">&#10;			<path
   d="M 185.834,237.854 H 364.329 L 337.193,54.599 H 27.142 L 0,237.854 h 173.079 v 59.135 l -66.242,0.018 v 12.58 l 144.278,0.145 V 296.99 H 185.834 Z M 9.752,229.435 9.863,228.69 34.417,63.005 h 295.5 l 24.68,166.429 H 9.752 Z"
   id="path4" />&#10;		</g>&#10;	</g>&#10;</g>&#10;<g
   style="fill:none"
   id="g7"
   transform="matrix(5.3562772,0,0,5.6426199,112.0898,-0.58229956)"><path
     d="m 14.409067,3 v 1 m 0,16 v 1 M 6.4090673,12 h -1 M 8.7231873,6.31412 7.9090673,5.5 M 20.094967,6.31412 20.909067,5.5 M 8.7231873,17.69 7.9090673,18.5001 M 20.094967,17.69 l 0.8141,0.8101 m 2.5,-6.5001 h -1 m -4,0 c 0,2.2091 -1.7909,4 -4,4 -2.20914,0 -4,-1.7909 -4,-4 0,-2.20914 1.79086,-4 4,-4 2.2091,0 4,1.79086 4,4 z"
     stroke="#000000"
     stroke-width="2"
     stroke-linecap="round"
     stroke-linejoin="round"
     id="path1-3" /></g></svg>
