<svg width="35" height="45" viewBox="0 0 35 45" fill="none" xmlns="http://www.w3.org/2000/svg">
<g clip-path="url(#clip0_3378_1479634)">
<path d="M17.5002 45C17.306 45 17.1223 44.916 16.9996 44.772C16.9047 44.6604 7.47416 33.5515 4.34506 29.1217C2.78773 26.917 1.63111 24.667 0.908501 22.4341C0.20032 20.2506 -0.0960499 18.074 0.0271602 15.9654C0.268585 11.8174 2.14671 7.94843 5.4584 4.77682C8.67518 1.69663 12.9515 0 17.5002 0C22.049 0 26.3253 1.69663 29.5421 4.77682C32.8538 7.94843 34.7319 11.8174 34.9733 15.9654C35.096 18.074 34.7996 20.2506 34.0925 22.4346C33.3694 24.6676 32.2133 26.9175 30.656 29.1223C27.5269 33.552 18.0963 44.6609 18.0014 44.7725C17.8787 44.9165 17.695 45.0005 17.5008 45.0005L17.5002 45ZM17.5002 1.23633C13.2967 1.23633 9.34395 2.80433 6.37137 5.65118C4.82958 7.12776 3.6169 8.76166 2.76664 10.5072C1.91583 12.2533 1.42798 14.1131 1.31643 16.0345C1.2021 17.9953 1.4796 20.0257 2.14116 22.0684C2.82658 24.1849 3.9277 26.3254 5.414 28.4292C8.09687 32.2269 15.5033 41.0369 17.5002 43.4001C19.4971 41.0364 26.9036 32.2264 29.5865 28.4292C31.0728 26.3254 32.1739 24.1849 32.8593 22.0684C33.5209 20.0257 33.7984 17.9953 33.6841 16.0345C33.5719 14.1131 33.0841 12.2538 32.2338 10.5072C31.3836 8.76166 30.1709 7.12776 28.6291 5.65118C25.6565 2.80433 21.7038 1.23633 17.5002 1.23633Z" fill="white"/>
<path d="M17.5002 26.8206C11.7076 26.8206 6.99512 22.3075 6.99512 16.7599C6.99512 11.2124 11.7076 6.69922 17.5002 6.69922C23.2927 6.69922 28.0052 11.2124 28.0052 16.7599C28.0052 22.3075 23.2927 26.8206 17.5002 26.8206ZM17.5002 7.93555C12.4197 7.93555 8.28605 11.8943 8.28605 16.7599C8.28605 21.6255 12.4197 25.5843 17.5002 25.5843C22.5806 25.5843 26.7143 21.6255 26.7143 16.7599C26.7143 11.8943 22.5806 7.93555 17.5002 7.93555Z" fill="white"/>
</g>
<defs>
<clipPath id="clip0_3378_1479634">
<rect width="35" height="45" fill="white"/>
</clipPath>
</defs>
</svg>
