<?xml version="1.0" encoding="UTF-8" standalone="no"?>
<!-- Uploaded to: SVG Repo, www.svgrepo.com, Generator: SVG Repo Mixer Tools -->

<svg
   width="800px"
   height="800px"
   viewBox="0 0 24 24"
   fill="none"
   version="1.1"
   id="svg7"
   sodipodi:docname="predio_palmeira.svg"
   xml:space="preserve"
   inkscape:version="1.3 (1:1.3+202307231459+0e150ed6c4)"
   xmlns:inkscape="http://www.inkscape.org/namespaces/inkscape"
   xmlns:sodipodi="http://sodipodi.sourceforge.net/DTD/sodipodi-0.dtd"
   xmlns="http://www.w3.org/2000/svg"
   xmlns:svg="http://www.w3.org/2000/svg"><defs
     id="defs7" /><sodipodi:namedview
     id="namedview7"
     pagecolor="#ffffff"
     bordercolor="#000000"
     borderopacity="0.25"
     inkscape:showpageshadow="2"
     inkscape:pageopacity="0.0"
     inkscape:pagecheckerboard="0"
     inkscape:deskcolor="#d1d1d1"
     inkscape:zoom="0.44547727"
     inkscape:cx="598.23478"
     inkscape:cy="509.56584"
     inkscape:window-width="1366"
     inkscape:window-height="704"
     inkscape:window-x="0"
     inkscape:window-y="27"
     inkscape:window-maximized="1"
     inkscape:current-layer="svg7" /><path
     d="m 6.5632121,7.7699265 h -1 c -0.27614,0 -0.5,0.22386 -0.5,0.5 v 1 c 0,0.27614 0.22386,0.5 0.5,0.5 h 1 c 0.2761,0 0.5,-0.22386 0.5,-0.5 v -1 c 0,-0.27614 -0.2239,-0.5 -0.5,-0.5 z"
     fill="#000000"
     id="path1" /><path
     d="M 10.563212,7.7699265 H 9.5632121 c -0.2761,0 -0.5,0.22386 -0.5,0.5 v 1 c 0,0.27614 0.2239,0.5 0.5,0.5 h 0.9999999 c 0.2761,0 0.5,-0.22386 0.5,-0.5 v -1 c 0,-0.27614 -0.2239,-0.5 -0.5,-0.5 z"
     fill="#000000"
     id="path2" /><path
     d="m 6.5632121,11.269927 h -1 c -0.27614,0 -0.5,0.22386 -0.5,0.5 v 1 c 0,0.2761 0.22386,0.5 0.5,0.5 h 1 c 0.2761,0 0.5,-0.2239 0.5,-0.5 v -1 c 0,-0.27614 -0.2239,-0.5 -0.5,-0.5 z"
     fill="#000000"
     id="path3" /><path
     d="M 10.563212,11.269927 H 9.5632121 c -0.2761,0 -0.5,0.22386 -0.5,0.5 v 1 c 0,0.2761 0.2239,0.5 0.5,0.5 h 0.9999999 c 0.2761,0 0.5,-0.2239 0.5,-0.5 v -1 c 0,-0.27614 -0.2239,-0.5 -0.5,-0.5 z"
     fill="#000000"
     id="path4" /><path
     d="m 6.5632121,14.769927 h -1 c -0.27614,0 -0.5,0.2239 -0.5,0.5 v 1 c 0,0.2761 0.22386,0.5 0.5,0.5 h 1 c 0.2761,0 0.5,-0.2239 0.5,-0.5 v -1 c 0,-0.2761 -0.2239,-0.5 -0.5,-0.5 z"
     fill="#000000"
     id="path5" /><path
     d="M 10.563212,14.769927 H 9.5632121 c -0.2761,0 -0.5,0.2239 -0.5,0.5 v 1 c 0,0.2761 0.2239,0.5 0.5,0.5 h 0.9999999 c 0.2761,0 0.5,-0.2239 0.5,-0.5 v -1 c 0,-0.2761 -0.2239,-0.5 -0.5,-0.5 z"
     fill="#000000"
     id="path6" /><path
     d="M 24.441475,21.046796 13.813212,21.019927 V 5.7699265 c -0.0026,-0.19811 -0.0824,-0.38737 -0.2225,-0.52747 -0.1401,-0.14009 -0.3294,-0.21994 -0.5275,-0.22253 H 3.0632121 c -0.19811,0.00259 -0.38737,0.08244 -0.52747,0.22253 -0.14009,0.1401 -0.21994,0.32936 -0.22253,0.52747 V 21.019927 h -0.5 c -0.19891,0 -0.38968,0.079 -0.53033,0.2197 -0.14065,0.1406 -0.21967,0.3314 -0.21967,0.5303 0,0.1989 0.6290999,0.3897 0.7697499,0.5303 0.14065,0.1407 0.3314201,0.219458 0.53033,0.2197 l 22.078183,0.02687 c 0.1989,2.42e-4 0.3897,-0.079 0.5303,-0.2197 0.1407,-0.1406 0.2197,-0.3314 0.2197,-0.5303 0,-0.1989 -0.079,-0.3897 -0.2197,-0.5303 -0.1406,-0.1407 -0.331401,-0.219198 -0.5303,-0.2197 z M 12.313212,21.019927 H 7.0632121 v -2.25 c 0,-0.1326 -0.0527,-0.2598 -0.1464,-0.3536 -0.0938,-0.0937 -0.221,-0.1464 -0.3536,-0.1464 h -1 c -0.13261,0 -0.25979,0.0527 -0.35355,0.1464 -0.09377,0.0938 -0.14645,0.221 -0.14645,0.3536 v 2.25 h -1.25 V 6.5199265 h 8.4999999 z"
     fill="#000000"
     id="path7"
     sodipodi:nodetypes="sccccccccscscsscscsccscsscsccccc" /><style
     type="text/css"
     id="style1">&#10;	.st0{fill:#000000;}&#10;</style><g
     id="g1"
     transform="matrix(-0.02020367,0,0,0.0201148,24.104369,11.516624)">&#10;	<path
   class="st0"
   d="M 493.656,124.29 C 478.282,69.956 433.257,46.843 381.644,55.628 c -47.529,8.09 -72.358,67.34 -83.923,103.27 3.44,-47.59 -5.354,-113.771 -62.132,-144.674 -86.755,-47.221 -141.663,37.338 -147.154,48.319 -5.491,10.982 -5.5,13.084 9.883,12.08 4.582,-0.3 44.51,-11.538 83.692,-4.452 l 18.437,-17.004 8.545,23.962 c 32.464,11.376 58.511,40.529 63.204,84.241 -26.338,-32.379 -66.962,-53.226 -112.707,-53.226 -79.539,0 -144.014,62.723 -144.014,140.093 0,6.228 0.129,1.759 0.129,1.759 0.223,2.933 2.144,5.464 4.907,6.468 2.762,0.996 5.86,0.283 7.91,-1.827 0,0 1.604,-2.497 8.811,-9.086 12.697,-11.617 26.664,-21.852 41.627,-30.577 l 13.684,-25.541 18.463,9.806 c 27.703,-11.041 57.919,-17.133 89.569,-17.133 20.873,0 41.138,2.651 60.467,7.618 -44.57,-2.951 -111.746,20.282 -138.334,77 -32.945,70.282 -0.524,126.066 4.161,130.432 3.844,3.578 8.494,0.79 9.755,-5.448 2.753,-13.632 10.321,-39.113 24.219,-67.692 l -5.611,-22.666 15.452,3.955 c 19.364,-34.147 47.719,-70 87.827,-94.15 -30.997,68.291 -56.512,168.095 -17.63,300.844 h 95.488 c 0,0 -96.939,-93.893 -46.56,-286.431 10.948,14.147 24.88,34.678 36.506,59.686 l 14.696,1.854 -6.564,17.587 c 8.048,21.534 13.839,45.591 14.645,71.337 0.206,6.572 4.17,11.437 6.194,7.13 31.024,-66.113 21.268,-133.779 -22.22,-173.261 27.42,9.042 49.829,31.091 67.288,56.314 l 20.822,4.47 -3.878,23.473 c 14.611,27.78 23.576,55.286 26.777,71.055 1.26,6.211 4.555,10.261 8.528,3.192 23.67,-42.124 26.725,-122.96 -16.052,-167.212 -33.168,-34.3 -91.688,-36.558 -127.729,-27.051 23.661,-39.783 86.969,-42.743 86.969,-42.743 0,0 10.012,-23.059 12.209,-26.354 2.196,-3.294 14.276,22.462 14.276,22.462 l 63.745,26.038 c 0,0 8.184,5.595 9.78,-3.912 0.961,-5.74 1.544,-14.585 -2.145,-25.343 z"
   id="path1-4" />&#10;</g></svg>
