<svg width="56" height="43" viewBox="0 0 56 43" fill="none" xmlns="http://www.w3.org/2000/svg">
<g clip-path="url(#clip0_4854_36776)">
<path d="M44.4782 18.3219C44.1288 16.61 43.5 14.9331 42.5567 13.361C38.0151 5.4306 27.8837 2.77548 19.9882 7.31713C12.0578 11.8937 9.4027 22.0251 13.9793 29.9206C16.5645 34.3574 20.8966 37.1872 25.578 37.9558" stroke="white" stroke-width="0.174678" stroke-miterlimit="10"/>
<path d="M22.783 42.253L33.7877 1.06372" stroke="white" stroke-width="0.174678" stroke-miterlimit="10"/>
<path d="M8.31982 17.1345L28.0935 22.4098" stroke="white" stroke-width="1.53777" stroke-miterlimit="10"/>
<path d="M27.8486 23.2834L55.6575 30.4802" stroke="white" stroke-width="0.174678" stroke-miterlimit="10"/>
<path d="M2.29825 16.2021V11.545H2.58433L5.90421 15.783H5.75119V11.545H6.0905V16.2021H5.81107L2.48453 11.9641H2.63755V16.2021H2.29825Z" fill="white"/>
</g>
<defs>
<clipPath id="clip0_4854_36776">
<rect width="55.36" height="41.52" fill="white" transform="translate(0.44043 0.918701)"/>
</clipPath>
</defs>
</svg>
