<?xml version="1.0" encoding="UTF-8" standalone="no"?>
<svg
   width="362.14813"
   height="616.50714"
   viewBox="0 0 362.14813 616.50714"
   fill="none"
   version="1.1"
   id="svg5234"
   sodipodi:docname="sea-circle.svg"
   inkscape:version="1.2.2 (b0a84865, 2022-12-01)"
   xmlns:inkscape="http://www.inkscape.org/namespaces/inkscape"
   xmlns:sodipodi="http://sodipodi.sourceforge.net/DTD/sodipodi-0.dtd"
   xmlns="http://www.w3.org/2000/svg"
   xmlns:svg="http://www.w3.org/2000/svg">
  <defs
     id="defs5238" />
  <sodipodi:namedview
     id="namedview5236"
     pagecolor="#ffffff"
     bordercolor="#000000"
     borderopacity="0.25"
     inkscape:showpageshadow="2"
     inkscape:pageopacity="0.0"
     inkscape:pagecheckerboard="0"
     inkscape:deskcolor="#d1d1d1"
     showgrid="false"
     inkscape:zoom="0.74345586"
     inkscape:cx="335.59491"
     inkscape:cy="422.35191"
     inkscape:window-width="1680"
     inkscape:window-height="918"
     inkscape:window-x="1741"
     inkscape:window-y="112"
     inkscape:window-maximized="1"
     inkscape:current-layer="svg5234" />
  <g
     id="g6347"
     transform="rotate(11.56162,817.79331,-1642.1789)">
    <g
       id="g6214">
      <path
         d="m 298.961,189.688 -8.512,-20.514 8.85,-3.673 c 2.286,-0.948 4.244,-1.223 5.876,-0.823 1.651,0.391 2.825,1.427 3.522,3.107 0.462,1.113 0.588,2.161 0.376,3.142 -0.191,0.972 -0.656,1.841 -1.392,2.604 -0.717,0.756 -1.603,1.352 -2.658,1.79 l 0.206,-0.91 c 1.309,-0.543 2.518,-0.804 3.626,-0.783 1.119,-0.006 2.109,0.281 2.969,0.864 0.851,0.562 1.521,1.43 2.007,2.602 0.722,1.739 0.636,3.354 -0.256,4.847 -0.873,1.484 -2.599,2.761 -5.177,3.831 z m 1.427,-2.688 7.238,-3.003 c 1.798,-0.746 3.05,-1.62 3.756,-2.623 0.698,-1.023 0.767,-2.208 0.207,-3.556 -0.551,-1.329 -1.431,-2.097 -2.64,-2.306 -1.216,-0.228 -2.723,0.031 -4.521,0.777 l -7.473,3.101 -0.742,-1.787 6.77,-2.81 c 1.641,-0.681 2.781,-1.52 3.421,-2.518 0.658,-1.006 0.733,-2.125 0.222,-3.356 -0.519,-1.25 -1.363,-1.988 -2.533,-2.212 -1.158,-0.253 -2.558,-0.038 -4.199,0.643 l -6.535,2.712 z"
         fill="#ffffff"
         fill-opacity="0.3"
         id="path5140" />
      <path
         d="m 319.851,167.415 11.17,-3.614 0.615,1.902 -11.169,3.614 z m 3.396,9.672 12.71,-4.112 0.625,1.932 -14.943,4.835 -6.837,-21.132 14.49,-4.688 0.625,1.932 -12.256,3.966 z"
         fill="#ffffff"
         fill-opacity="0.3"
         id="path5142" />
      <path
         d="m 339.124,173.307 4.929,-23.918 2.257,-0.518 14.864,19.376 -2.412,0.554 -13.755,-18.231 0.928,-0.213 -4.43,22.404 z m 2.57,-6.677 0.254,-2.011 12.587,-2.889 1.106,1.7 z"
         fill="#ffffff"
         fill-opacity="0.3"
         id="path5144" />
      <path
         d="m 375.045,165.326 c -1.655,0.23 -3.222,0.171 -4.702,-0.179 -1.482,-0.37 -2.806,-0.986 -3.973,-1.849 -1.167,-0.863 -2.138,-1.934 -2.914,-3.214 -0.756,-1.283 -1.246,-2.731 -1.47,-4.344 -0.225,-1.614 -0.149,-3.14 0.227,-4.581 0.397,-1.443 1.039,-2.739 1.925,-3.888 0.908,-1.152 2.025,-2.097 3.353,-2.838 1.325,-0.761 2.815,-1.256 4.47,-1.487 1.592,-0.222 3.128,-0.158 4.608,0.191 1.476,0.329 2.771,0.96 3.883,1.894 l -1.271,1.683 c -1.029,-0.796 -2.116,-1.318 -3.261,-1.564 -1.148,-0.267 -2.35,-0.314 -3.607,-0.139 -1.32,0.184 -2.514,0.585 -3.581,1.204 -1.07,0.597 -1.965,1.373 -2.687,2.328 -0.724,0.934 -1.25,1.989 -1.577,3.167 -0.309,1.154 -0.372,2.39 -0.188,3.71 0.184,1.32 0.583,2.503 1.199,3.549 0.633,1.023 1.428,1.894 2.382,2.616 0.952,0.7 2.026,1.202 3.221,1.505 1.193,0.283 2.449,0.332 3.769,0.148 1.257,-0.175 2.401,-0.548 3.432,-1.118 1.031,-0.571 1.933,-1.38 2.705,-2.427 l 1.683,1.271 c -0.815,1.203 -1.886,2.174 -3.214,2.914 -1.328,0.741 -2.798,1.223 -4.412,1.448 z"
         fill="#ffffff"
         fill-opacity="0.3"
         id="path5146" />
      <path
         d="m 404.181,139.52 2.314,-0.093 0.89,22.193 -2.315,0.092 z m -12.997,22.749 -2.346,0.094 -0.889,-22.193 2.346,-0.094 z m 13.698,-10.806 -14.362,0.576 -0.082,-2.061 14.361,-0.575 z"
         fill="#ffffff"
         fill-opacity="0.3"
         id="path5148" />
      <path
         d="m 433.424,161.558 c -1.666,-0.129 -3.185,-0.522 -4.555,-1.18 -1.369,-0.679 -2.531,-1.565 -3.486,-2.657 -0.955,-1.092 -1.675,-2.347 -2.159,-3.763 -0.464,-1.415 -0.632,-2.934 -0.507,-4.558 0.126,-1.624 0.527,-3.099 1.202,-4.426 0.697,-1.325 1.601,-2.454 2.713,-3.386 1.133,-0.931 2.427,-1.616 3.882,-2.055 1.457,-0.46 3.019,-0.625 4.685,-0.496 1.603,0.124 3.089,0.515 4.46,1.172 1.372,0.637 2.502,1.531 3.389,2.681 l -1.602,1.372 c -0.835,-0.998 -1.786,-1.74 -2.851,-2.226 -1.064,-0.506 -2.229,-0.809 -3.494,-0.907 -1.329,-0.102 -2.581,0.034 -3.755,0.41 -1.174,0.355 -2.215,0.921 -3.123,1.699 -0.908,0.758 -1.647,1.676 -2.219,2.756 -0.549,1.061 -0.874,2.256 -0.977,3.585 -0.103,1.328 0.034,2.569 0.412,3.723 0.4,1.134 0.989,2.156 1.767,3.065 0.78,0.887 1.722,1.607 2.824,2.16 1.105,0.531 2.322,0.848 3.65,0.95 1.266,0.098 2.463,-0.021 3.592,-0.358 1.13,-0.337 2.184,-0.934 3.162,-1.792 l 1.372,1.602 c -1.053,1 -2.308,1.72 -3.763,2.159 -1.456,0.439 -2.995,0.596 -4.619,0.47 z"
         fill="#ffffff"
         fill-opacity="0.3"
         id="path5150" />
      <path
         d="m 447.174,162.087 3.264,-21.969 2.323,0.345 -2.966,19.961 12.302,1.828 -0.298,2.009 z"
         fill="#ffffff"
         fill-opacity="0.3"
         id="path5152" />
      <path
         d="m 475.408,166.588 c -2.75,-0.687 -4.718,-2.017 -5.903,-3.992 -1.186,-1.975 -1.393,-4.512 -0.619,-7.611 l 3.081,-12.344 2.278,0.568 -3.058,12.253 c -0.635,2.544 -0.529,4.566 0.318,6.063 0.847,1.498 2.317,2.508 4.411,3.031 2.113,0.527 3.896,0.329 5.348,-0.595 1.451,-0.924 2.494,-2.658 3.13,-5.203 l 3.058,-12.253 2.216,0.554 -3.081,12.344 c -0.773,3.099 -2.147,5.242 -4.122,6.428 -1.954,1.191 -4.306,1.443 -7.057,0.757 z"
         fill="#ffffff"
         fill-opacity="0.3"
         id="path5154" />
      <path
         d="m 492.296,169.881 7.385,-20.946 9.037,3.186 c 2.334,0.823 3.974,1.928 4.92,3.316 0.966,1.395 1.147,2.95 0.542,4.665 -0.401,1.138 -1.008,2 -1.821,2.588 -0.793,0.595 -1.718,0.931 -2.777,1.006 -1.038,0.083 -2.096,-0.066 -3.173,-0.446 l 0.762,-0.539 c 1.336,0.472 2.41,1.086 3.219,1.842 0.837,0.744 1.381,1.619 1.631,2.627 0.257,0.988 0.175,2.08 -0.247,3.277 -0.626,1.776 -1.77,2.92 -3.431,3.434 -1.641,0.52 -3.778,0.316 -6.412,-0.613 z m 2.858,-1.044 7.391,2.606 c 1.835,0.647 3.351,0.833 4.546,0.559 1.203,-0.293 2.047,-1.128 2.532,-2.505 0.478,-1.356 0.338,-2.516 -0.422,-3.479 -0.752,-0.983 -2.046,-1.798 -3.881,-2.445 l -7.631,-2.691 0.644,-1.825 6.912,2.437 c 1.676,0.591 3.085,0.729 4.228,0.414 1.162,-0.308 1.965,-1.09 2.408,-2.347 0.45,-1.277 0.316,-2.389 -0.404,-3.338 -0.693,-0.962 -1.877,-1.739 -3.552,-2.329 l -6.673,-2.353 z"
         fill="#ffffff"
         fill-opacity="0.3"
         id="path5156" />
    </g>
    <g
       id="g6231">
      <path
         d="m 230.491,615.652 -17.887,13.166 -4.928,-6.694 c -1.116,-1.517 -1.829,-3.002 -2.137,-4.455 -0.326,-1.442 -0.242,-2.791 0.252,-4.047 0.464,-1.261 1.343,-2.368 2.638,-3.321 1.26,-0.928 2.57,-1.432 3.929,-1.513 1.329,-0.085 2.642,0.235 3.939,0.962 1.296,0.726 2.502,1.848 3.618,3.364 l 4.157,5.647 -1.515,-0.185 6.542,-4.815 z m -7.78,2.811 -0.3,1.52 -4.119,-5.596 c -1.317,-1.788 -2.697,-2.86 -4.14,-3.216 -1.474,-0.36 -2.917,-0.02 -4.331,1.021 -1.431,1.053 -2.194,2.337 -2.288,3.851 -0.106,1.496 0.499,3.139 1.816,4.928 l 4.119,5.596 -1.515,-0.185 z"
         fill="#ffffff"
         fill-opacity="0.3"
         id="path5158" />
      <path
         d="m 217.844,600.03 -24.254,2.843 -1.202,-1.98 13.72,-20.203 1.284,2.116 -12.982,18.79 -0.494,-0.814 22.661,-2.841 z m -7.146,-0.339 -1.99,0.391 -6.699,-11.04 1.265,-1.585 z"
         fill="#ffffff"
         fill-opacity="0.3"
         id="path5160" />
      <path
         d="m 200.499,571.527 -15.519,18.687 -1.129,-2.273 14.637,-17.54 0.62,1.25 -22.848,1 -1.058,-2.131 24.267,-1.067 z"
         fill="#ffffff"
         fill-opacity="0.3"
         id="path5162" />
      <path
         d="m 193.233,556.943 -20.241,9.143 -0.967,-2.14 20.242,-9.142 z"
         fill="#ffffff"
         fill-opacity="0.3"
         id="path5164" />
      <path
         d="m 187.678,547.7 -21.167,6.726 -0.587,-1.845 13.437,-14.923 0.307,0.968 -19.556,-4.34 -0.586,-1.844 21.167,-6.726 0.682,2.147 -17.811,5.659 -0.163,-0.514 17.925,4.026 0.336,1.058 -12.295,13.695 -0.182,-0.575 17.811,-5.659 z"
         fill="#ffffff"
         fill-opacity="0.3"
         id="path5166" />
      <path
         d="m 165.362,519.083 -2.65,-11.436 1.948,-0.451 2.65,11.436 z m 9.927,-2.56 -3.015,-13.013 1.978,-0.459 3.545,15.301 -21.637,5.013 -3.438,-14.836 1.978,-0.459 2.908,12.55 z"
         fill="#ffffff"
         fill-opacity="0.3"
         id="path5168" />
      <path
         d="m 171.962,497.022 -22.024,2.867 -0.25,-1.919 17.152,-17.688 0.131,1.007 -19.13,2.491 -0.299,-2.297 22.024,-2.867 0.25,1.919 -17.155,17.656 -0.132,-1.007 19.13,-2.491 z"
         fill="#ffffff"
         fill-opacity="0.3"
         id="path5170" />
      <path
         d="m 167.924,466.446 -20.143,1.211 0.468,7.791 -2.027,0.122 -1.077,-17.926 2.027,-0.122 0.468,7.791 20.143,-1.21 z"
         fill="#ffffff"
         fill-opacity="0.3"
         id="path5172" />
      <path
         d="m 166.711,442.309 c -0.066,1.67 -0.402,3.212 -1.008,4.628 -0.626,1.394 -1.467,2.599 -2.523,3.616 -1.077,0.995 -2.303,1.762 -3.679,2.3 -1.396,0.517 -2.908,0.743 -4.536,0.679 -1.627,-0.064 -3.106,-0.408 -4.436,-1.032 -1.351,-0.645 -2.513,-1.506 -3.487,-2.582 -0.994,-1.097 -1.738,-2.365 -2.232,-3.803 -0.515,-1.438 -0.739,-3.003 -0.673,-4.694 0.066,-1.67 0.412,-3.201 1.038,-4.595 0.606,-1.395 1.436,-2.59 2.491,-3.586 1.056,-1.016 2.283,-1.783 3.679,-2.3 1.397,-0.538 2.909,-0.775 4.537,-0.71 1.627,0.064 3.116,0.418 4.467,1.064 1.351,0.625 2.514,1.486 3.487,2.582 0.973,1.076 1.718,2.333 2.233,3.772 0.494,1.437 0.708,2.991 0.642,4.661 z m -2.093,-0.082 c 0.053,-1.332 -0.121,-2.567 -0.521,-3.704 -0.42,-1.16 -1.026,-2.168 -1.818,-3.025 -0.812,-0.879 -1.758,-1.572 -2.839,-2.08 -1.102,-0.509 -2.319,-0.79 -3.65,-0.842 -1.332,-0.053 -2.557,0.132 -3.674,0.554 -1.138,0.421 -2.136,1.038 -2.994,1.851 -0.878,0.791 -1.561,1.748 -2.05,2.872 -0.509,1.102 -0.79,2.319 -0.842,3.65 -0.053,1.332 0.131,2.578 0.551,3.737 0.399,1.159 1.005,2.178 1.817,3.057 0.792,0.856 1.739,1.55 2.84,2.08 1.08,0.508 2.287,0.788 3.618,0.841 1.311,0.051 2.535,-0.133 3.674,-0.554 1.139,-0.442 2.148,-1.059 3.026,-1.85 0.857,-0.813 1.541,-1.781 2.051,-2.904 0.488,-1.124 0.759,-2.352 0.811,-3.683 z"
         fill="#ffffff"
         fill-opacity="0.3"
         id="path5174" />
      <path
         d="m 168.049,412.351 -19.983,-2.81 -1.087,7.73 -2.011,-0.283 2.501,-17.784 2.011,0.283 -1.087,7.729 19.983,2.81 z"
         fill="#ffffff"
         fill-opacity="0.3"
         id="path5176" />
      <path
         d="m 158.077,392.854 2.589,-11.451 1.95,0.441 -2.589,11.451 z m 10.052,2.012 2.946,-13.029 1.981,0.448 -3.464,15.319 -21.664,-4.898 3.359,-14.855 1.981,0.448 -2.841,12.565 z m -20.733,-8.005 -2.879,-5.108 0.665,-2.94 2.704,5.881 z"
         fill="#ffffff"
         fill-opacity="0.3"
         id="path5178" />
      <path
         d="m 173.755,376.239 -21.154,-6.768 2.533,-7.917 c 0.573,-1.793 1.358,-3.241 2.355,-4.344 0.977,-1.108 2.119,-1.831 3.426,-2.168 1.293,-0.364 2.705,-0.301 4.236,0.189 1.491,0.477 2.668,1.242 3.53,2.295 0.849,1.027 1.359,2.278 1.531,3.755 0.151,1.469 -0.06,3.101 -0.633,4.894 l -2.137,6.679 -0.708,-1.326 7.736,2.475 z m 4.621,-14.445 -9.416,2.984 0.773,-2.418 9.426,-3.014 z m -11.461,9.792 -1.377,0.659 2.118,-6.619 c 0.676,-2.115 0.725,-3.865 0.147,-5.249 -0.573,-1.405 -1.695,-2.375 -3.367,-2.91 -1.692,-0.541 -3.179,-0.406 -4.46,0.406 -1.275,0.791 -2.251,2.245 -2.928,4.36 l -2.117,6.618 -0.739,-1.335 z"
         fill="#ffffff"
         fill-opacity="0.3"
         id="path5180" />
      <path
         d="m 180.36,353.458 -20.477,-8.601 3.219,-7.664 c 0.729,-1.736 1.638,-3.109 2.728,-4.12 1.07,-1.019 2.271,-1.638 3.603,-1.859 1.32,-0.249 2.721,-0.061 4.204,0.561 1.443,0.606 2.548,1.472 3.314,2.597 0.755,1.097 1.153,2.388 1.195,3.874 0.022,1.477 -0.332,3.084 -1.061,4.82 l -2.715,6.465 -0.59,-1.383 7.489,3.145 z m 5.873,-13.983 -9.642,2.144 0.983,-2.34 9.654,-2.174 z m -12.277,8.746 -1.429,0.536 2.69,-6.407 c 0.86,-2.048 1.063,-3.786 0.608,-5.216 -0.446,-1.45 -1.479,-2.514 -3.098,-3.194 -1.638,-0.688 -3.131,-0.684 -4.478,0.011 -1.34,0.677 -2.439,2.039 -3.3,4.087 l -2.69,6.406 -0.619,-1.395 z"
         fill="#ffffff"
         fill-opacity="0.3"
         id="path5182" />
      <path
         d="m 179.112,323.885 5.406,-10.421 1.774,0.92 -5.405,10.422 z m 9.215,4.494 6.15,-11.858 1.803,0.935 -7.232,13.942 -19.716,-10.226 7.012,-13.52 1.803,0.935 -5.931,11.435 z"
         fill="#ffffff"
         fill-opacity="0.3"
         id="path5184" />
      <path
         d="m 204.445,302.339 c -0.92,1.396 -2.005,2.542 -3.255,3.441 -1.257,0.869 -2.6,1.466 -4.03,1.79 -1.436,0.295 -2.882,0.318 -4.338,0.067 -1.463,-0.279 -2.874,-0.867 -4.234,-1.763 -1.36,-0.896 -2.448,-1.955 -3.264,-3.177 -0.822,-1.251 -1.372,-2.589 -1.649,-4.013 -0.284,-1.454 -0.265,-2.923 0.055,-4.409 0.303,-1.498 0.92,-2.953 1.851,-4.366 0.92,-1.396 2.008,-2.528 3.264,-3.397 1.24,-0.881 2.568,-1.475 3.986,-1.781 1.43,-0.325 2.876,-0.347 4.338,-0.068 1.474,0.262 2.891,0.842 4.251,1.738 1.36,0.896 2.451,1.97 3.274,3.221 0.833,1.233 1.383,2.571 1.649,4.013 0.278,1.424 0.265,2.885 -0.038,4.382 -0.321,1.486 -0.941,2.927 -1.86,4.322 z m -1.749,-1.152 c 0.734,-1.113 1.223,-2.259 1.469,-3.44 0.24,-1.21 0.243,-2.386 0.008,-3.529 -0.241,-1.172 -0.693,-2.255 -1.355,-3.249 -0.68,-1.005 -1.577,-1.874 -2.69,-2.608 -1.112,-0.733 -2.256,-1.208 -3.431,-1.425 -1.192,-0.228 -2.365,-0.216 -3.519,0.037 -1.161,0.223 -2.241,0.689 -3.24,1.399 -1.006,0.68 -1.875,1.576 -2.608,2.689 -0.733,1.113 -1.22,2.274 -1.46,3.484 -0.258,1.198 -0.266,2.383 -0.025,3.555 0.235,1.143 0.687,2.226 1.355,3.249 0.662,0.994 1.55,1.857 2.663,2.591 1.095,0.721 2.238,1.196 3.431,1.425 1.203,0.21 2.386,0.204 3.546,-0.019 1.154,-0.253 2.24,-0.728 3.257,-1.426 1,-0.709 1.866,-1.62 2.599,-2.733 z"
         fill="#ffffff"
         fill-opacity="0.3"
         id="path5186" />
    </g>
    <g
       id="g6203">
      <path
         d="m 610.232,259.326 19.254,-10.056 3.764,7.207 c 0.852,1.632 1.319,3.173 1.4,4.625 0.1,1.441 -0.183,2.733 -0.847,3.873 -0.637,1.15 -1.652,2.088 -3.046,2.816 -1.357,0.709 -2.698,1.001 -4.024,0.876 -1.297,-0.116 -2.518,-0.622 -3.663,-1.518 -1.145,-0.895 -2.143,-2.159 -2.996,-3.791 l -3.174,-6.079 1.437,0.405 -7.042,3.677 z m 7.94,-1.556 0.516,-1.425 3.146,6.024 c 1.005,1.925 2.179,3.168 3.522,3.727 1.37,0.568 2.816,0.455 4.338,-0.34 1.54,-0.805 2.469,-1.932 2.786,-3.381 0.326,-1.43 -0.014,-3.109 -1.019,-5.034 l -3.146,-6.024 1.437,0.405 z"
         fill="#ffffff"
         id="path5188" />
      <path
         d="m 619.725,281.267 19.89,-8.733 0.923,2.102 -18.071,7.935 4.89,11.138 -1.818,0.798 z"
         fill="#ffffff"
         id="path5190" />
      <path
         d="m 627.995,301.911 23.803,1.971 0.769,2.131 -17.065,16.711 -0.821,-2.277 16.083,-15.499 0.316,0.875 -22.274,-1.664 z m 6.786,1.709 1.983,0.011 4.285,11.88 -1.52,1.274 z"
         fill="#ffffff"
         id="path5192" />
      <path
         d="m 638.919,331.095 20.884,-5.974 0.521,1.82 -14.018,19.599 -0.273,-0.955 18.14,-5.189 0.622,2.178 -20.884,5.974 -0.521,-1.82 14.027,-19.569 0.273,0.955 -18.14,5.188 z"
         fill="#ffffff"
         id="path5194" />
      <path
         d="m 647.236,365.158 19.298,-4.134 -1.599,-7.465 1.942,-0.416 3.68,17.175 -1.942,0.416 -1.6,-7.465 -19.298,4.135 z"
         fill="#ffffff"
         id="path5196" />
      <path
         d="m 649.559,379.393 22.919,6.722 0.324,2.242 -20.079,12.934 -0.346,-2.395 18.874,-11.945 0.133,0.921 -21.483,-6.114 z m 6.303,3.04 1.94,0.409 1.806,12.501 -1.745,0.941 z"
         fill="#ffffff"
         id="path5198" />
      <path
         d="m 655.45,430.521 21.722,-0.181 0.068,8.13 c 0.015,1.841 -0.272,3.426 -0.861,4.755 -0.568,1.329 -1.407,2.349 -2.519,3.062 -1.09,0.733 -2.421,1.106 -3.993,1.12 -1.531,0.012 -2.858,-0.339 -3.981,-1.053 -1.103,-0.695 -1.959,-1.701 -2.57,-3.02 -0.611,-1.319 -0.925,-2.899 -0.94,-4.74 l -0.057,-6.858 1.094,1.015 -7.943,0.066 z m 7.777,2.232 1.109,-1.034 0.057,6.796 c 0.018,2.172 0.497,3.813 1.437,4.922 0.961,1.13 2.3,1.688 4.017,1.673 1.738,-0.014 3.078,-0.594 4.02,-1.74 0.942,-1.125 1.404,-2.774 1.386,-4.946 l -0.057,-6.796 1.095,1.015 z"
         fill="#ffffff"
         id="path5200" />
      <path
         d="m 655.854,450.757 21.096,11.198 -0.134,2.261 -22.271,8.628 0.143,-2.417 20.892,-7.901 -0.055,0.93 -19.813,-10.314 z m 5.561,4.246 1.818,0.792 -0.747,12.608 -1.899,0.571 z"
         fill="#ffffff"
         id="path5202" />
      <path
         d="m 653.875,481.222 21.548,2.747 -1.118,8.773 c -0.293,2.298 -1.011,4.25 -2.155,5.856 -1.125,1.63 -2.56,2.823 -4.304,3.581 -1.744,0.758 -3.673,1.002 -5.786,0.733 -2.114,-0.269 -3.92,-0.99 -5.419,-2.161 -1.498,-1.171 -2.598,-2.688 -3.299,-4.55 -0.683,-1.839 -0.878,-3.907 -0.585,-6.206 z m 1.68,2.529 -0.812,6.372 c -0.244,1.909 -0.085,3.608 0.476,5.097 0.579,1.513 1.475,2.743 2.689,3.69 1.235,0.95 2.714,1.535 4.438,1.755 1.744,0.222 3.323,0.027 4.736,-0.585 1.412,-0.613 2.578,-1.58 3.498,-2.902 0.937,-1.299 1.527,-2.902 1.77,-4.811 l 0.812,-6.372 z"
         fill="#ffffff"
         id="path5204" />
      <path
         d="m 649.849,510.085 21.313,4.195 -1.57,7.977 c -0.355,1.807 -0.955,3.302 -1.799,4.485 -0.824,1.187 -1.852,2.018 -3.084,2.492 -1.216,0.499 -2.595,0.597 -4.138,0.293 -1.502,-0.296 -2.731,-0.906 -3.687,-1.833 -0.94,-0.901 -1.577,-2.06 -1.91,-3.475 -0.313,-1.411 -0.291,-3.02 0.064,-4.826 l 1.325,-6.729 0.837,1.209 -7.794,-1.535 z m -2.864,14.554 8.812,-3.958 -0.479,2.436 -8.819,3.988 z m 10.033,-10.802 1.263,-0.795 -1.312,6.668 c -0.42,2.131 -0.271,3.836 0.447,5.116 0.714,1.301 1.914,2.116 3.599,2.448 1.705,0.336 3.134,0.037 4.287,-0.896 1.15,-0.912 1.934,-2.434 2.354,-4.565 l 1.312,-6.668 0.868,1.214 z"
         fill="#ffffff"
         id="path5206" />
      <path
         d="m 644.756,535.561 18.41,15.216 -0.586,2.188 -23.553,3.967 0.627,-2.338 22.055,-3.533 -0.241,0.899 -17.331,-14.091 z m 4.592,5.279 1.622,1.142 -3.27,12.199 -1.975,0.177 z m 14.863,13.59 c 0.123,-0.459 0.333,-0.842 0.629,-1.148 0.296,-0.307 0.615,-0.575 0.955,-0.805 0.354,-0.205 0.669,-0.42 0.944,-0.646 0.295,-0.221 0.482,-0.481 0.563,-0.781 0.123,-0.46 0.052,-0.875 -0.213,-1.246 -0.27,-0.35 -0.699,-0.626 -1.288,-0.827 l 0.346,-1.289 c 0.988,0.308 1.718,0.782 2.189,1.422 0.465,0.661 0.594,1.38 0.385,2.16 -0.124,0.459 -0.343,0.839 -0.659,1.14 -0.302,0.326 -0.63,0.592 -0.985,0.796 -0.34,0.231 -0.645,0.449 -0.914,0.655 -0.275,0.226 -0.453,0.489 -0.533,0.789 -0.123,0.459 -0.062,0.872 0.182,1.237 0.265,0.371 0.684,0.644 1.259,0.82 l -0.346,1.288 c -0.954,-0.277 -1.663,-0.745 -2.129,-1.406 -0.466,-0.66 -0.594,-1.38 -0.385,-2.159 z"
         fill="#ffffff"
         id="path5208" />
      <path
         d="m 628.684,574.611 c 0.528,-1.546 1.275,-2.898 2.239,-4.055 0.977,-1.131 2.102,-2.025 3.377,-2.683 1.287,-0.631 2.651,-1.006 4.091,-1.126 1.453,-0.094 2.933,0.117 4.44,0.633 1.508,0.515 2.797,1.251 3.869,2.208 1.085,0.983 1.934,2.115 2.545,3.395 0.625,1.307 0.967,2.703 1.028,4.189 0.08,1.492 -0.148,3.021 -0.683,4.587 -0.529,1.547 -1.282,2.885 -2.259,4.016 -0.957,1.137 -2.069,2.025 -3.337,2.663 -1.274,0.658 -2.638,1.033 -4.091,1.127 -1.46,0.113 -2.943,-0.088 -4.451,-0.604 -1.507,-0.515 -2.803,-1.264 -3.888,-2.248 -1.092,-0.963 -1.94,-2.095 -2.545,-3.395 -0.612,-1.28 -0.958,-2.667 -1.038,-4.159 -0.06,-1.486 0.174,-3.002 0.703,-4.548 z m 1.938,0.663 c -0.422,1.233 -0.605,2.438 -0.548,3.617 0.069,1.204 0.355,2.318 0.857,3.343 0.515,1.05 1.208,1.965 2.079,2.744 0.89,0.785 1.952,1.389 3.185,1.81 1.234,0.422 2.433,0.592 3.598,0.509 1.185,-0.076 2.293,-0.375 3.324,-0.897 1.044,-0.496 1.952,-1.202 2.724,-2.118 0.786,-0.891 1.389,-1.952 1.811,-3.186 0.422,-1.233 0.598,-2.452 0.529,-3.656 -0.05,-1.197 -0.332,-2.322 -0.848,-3.372 -0.502,-1.025 -1.195,-1.939 -2.079,-2.744 -0.87,-0.779 -1.922,-1.379 -3.156,-1.801 -1.213,-0.415 -2.412,-0.584 -3.597,-0.509 -1.192,0.096 -2.309,0.392 -3.353,0.887 -1.031,0.522 -1.943,1.238 -2.735,2.148 -0.773,0.917 -1.37,1.991 -1.791,3.225 z"
         fill="#ffffff"
         id="path5210" />
    </g>
    <path
       d="m 281.438,664.079 c -4.215,0.464 -7.255,4.257 -6.791,8.471 0.464,4.215 4.257,7.255 8.472,6.791 4.214,-0.464 7.254,-4.257 6.79,-8.472 -0.464,-4.214 -4.257,-7.254 -8.471,-6.79 z"
       fill="#5f8db1"
       id="path5212" />
    <path
       d="m 605.976,645.465 c -4.214,0.464 -7.255,4.256 -6.791,8.471 0.465,4.215 4.257,7.255 8.472,6.791 4.214,-0.465 7.255,-4.257 6.79,-8.472 -0.464,-4.214 -4.256,-7.255 -8.471,-6.79 z"
       fill="#5f8db1"
       id="path5214" />
    <path
       d="m 246.473,218.02 c -4.214,0.464 -7.255,4.257 -6.791,8.471 0.465,4.215 4.257,7.255 8.472,6.791 4.214,-0.464 7.255,-4.257 6.791,-8.472 -0.465,-4.214 -4.257,-7.254 -8.472,-6.79 z"
       fill="#5f8db1"
       id="path5216" />
    <path
       d="m 579.731,187.854 c -4.215,0.464 -7.255,4.257 -6.791,8.471 0.464,4.215 4.257,7.255 8.471,6.791 4.215,-0.464 7.255,-4.257 6.791,-8.472 -0.464,-4.214 -4.257,-7.254 -8.471,-6.79 z"
       fill="#5f8db1"
       id="path5218" />
    <g
       id="g6240">
      <path
         d="m 495.503,679.691 -11.185,2.595 -0.448,-1.935 11.184,-2.595 z m -2.774,-10.857 2.237,-0.519 4.91,21.161 -14.51,3.366 -0.449,-1.935 12.273,-2.847 z"
         fill="#ffffff"
         fill-opacity="0.3"
         id="path5220" />
      <path
         d="m 469.087,674.368 3.469,21.443 -2.266,0.367 -3.47,-21.443 z"
         fill="#ffffff"
         fill-opacity="0.3"
         id="path5222" />
      <path
         d="m 449.397,677.53 1.83,19.652 7.6,-0.708 0.185,1.977 -17.489,1.629 -0.184,-1.978 7.601,-0.708 -1.83,-19.651 z"
         fill="#ffffff"
         fill-opacity="0.3"
         id="path5224" />
      <path
         d="m 430.968,679.723 0.549,21.715 -1.892,0.048 -15.461,-18.482 0.993,-0.025 0.477,18.861 -2.265,0.057 -0.549,-21.715 1.892,-0.048 15.43,18.483 -0.993,0.025 -0.477,-18.861 z"
         fill="#ffffff"
         fill-opacity="0.3"
         id="path5226" />
      <path
         d="m 398.8,691.975 -11.471,-0.485 0.082,-1.953 11.472,0.485 z m 0.176,-10.025 -13.053,-0.552 0.084,-1.984 15.347,0.649 -0.918,21.703 -14.882,-0.63 0.084,-1.984 12.588,0.533 z"
         fill="#ffffff"
         fill-opacity="0.3"
         id="path5228" />
      <path
         d="m 368.131,678.08 c 1.604,0.176 3.118,0.604 4.542,1.281 1.401,0.696 2.457,1.499 3.168,2.41 l -1.088,1.659 c -0.679,-0.824 -1.628,-1.563 -2.846,-2.218 -1.241,-0.636 -2.571,-1.033 -3.99,-1.189 -1.357,-0.15 -2.476,-0.107 -3.355,0.129 -0.902,0.255 -1.58,0.648 -2.035,1.181 -0.474,0.53 -0.75,1.145 -0.827,1.844 -0.093,0.843 0.079,1.549 0.515,2.118 0.417,0.566 1,1.036 1.749,1.41 0.748,0.395 1.582,0.757 2.503,1.088 0.921,0.33 1.841,0.671 2.759,1.022 0.917,0.372 1.752,0.818 2.506,1.338 0.734,0.518 1.309,1.154 1.726,1.907 0.393,0.772 0.527,1.734 0.4,2.885 -0.118,1.07 -0.504,2.016 -1.156,2.839 -0.676,0.841 -1.629,1.464 -2.86,1.87 -1.234,0.426 -2.765,0.538 -4.595,0.336 -1.214,-0.134 -2.397,-0.441 -3.551,-0.922 -1.157,-0.461 -2.134,-1.037 -2.932,-1.729 l 0.972,-1.734 c 0.857,0.719 1.795,1.28 2.811,1.683 0.997,0.402 1.978,0.656 2.945,0.762 1.295,0.143 2.384,0.086 3.265,-0.17 0.882,-0.257 1.561,-0.661 2.038,-1.212 0.455,-0.533 0.723,-1.169 0.804,-1.909 0.093,-0.843 -0.068,-1.548 -0.485,-2.114 -0.437,-0.569 -1.03,-1.04 -1.779,-1.414 -0.771,-0.376 -1.616,-0.73 -2.537,-1.06 -0.921,-0.331 -1.83,-0.681 -2.725,-1.05 -0.917,-0.372 -1.742,-0.817 -2.476,-1.335 -0.756,-0.499 -1.333,-1.125 -1.728,-1.876 -0.417,-0.754 -0.563,-1.696 -0.438,-2.827 0.116,-1.049 0.511,-1.994 1.187,-2.835 0.673,-0.821 1.637,-1.443 2.891,-1.866 1.231,-0.406 2.771,-0.506 4.622,-0.302 z"
         fill="#ffffff"
         fill-opacity="0.3"
         id="path5230" />
      <path
         d="m 342.637,674.415 c 1.602,0.196 3.111,0.642 4.526,1.337 1.393,0.712 2.439,1.529 3.139,2.448 l -1.109,1.646 c -0.669,-0.832 -1.608,-1.583 -2.819,-2.253 -1.233,-0.651 -2.558,-1.064 -3.975,-1.238 -1.355,-0.166 -2.474,-0.136 -3.356,0.089 -0.905,0.243 -1.588,0.628 -2.049,1.156 -0.481,0.524 -0.764,1.136 -0.85,1.834 -0.103,0.842 0.06,1.549 0.49,2.123 0.409,0.571 0.987,1.049 1.732,1.432 0.742,0.404 1.572,0.776 2.489,1.118 0.916,0.342 1.832,0.694 2.746,1.056 0.912,0.383 1.742,0.839 2.49,1.368 0.727,0.527 1.295,1.17 1.702,1.929 0.384,0.776 0.506,1.74 0.364,2.889 -0.13,1.068 -0.527,2.01 -1.19,2.824 -0.686,0.833 -1.647,1.445 -2.883,1.835 -1.238,0.411 -2.771,0.505 -4.598,0.28 -1.212,-0.148 -2.392,-0.47 -3.54,-0.965 -1.151,-0.475 -2.121,-1.063 -2.91,-1.764 l 0.993,-1.723 c 0.848,0.73 1.779,1.302 2.791,1.718 0.991,0.414 1.969,0.679 2.934,0.798 1.294,0.158 2.383,0.115 3.268,-0.131 0.885,-0.246 1.569,-0.641 2.052,-1.186 0.461,-0.527 0.737,-1.161 0.827,-1.9 0.104,-0.842 -0.049,-1.548 -0.459,-2.12 -0.429,-0.573 -1.017,-1.052 -1.762,-1.435 -0.765,-0.386 -1.607,-0.749 -2.524,-1.091 -0.916,-0.342 -1.82,-0.703 -2.712,-1.083 -0.912,-0.383 -1.731,-0.838 -2.459,-1.365 -0.75,-0.509 -1.319,-1.141 -1.705,-1.897 -0.407,-0.759 -0.542,-1.703 -0.403,-2.832 0.128,-1.047 0.535,-1.987 1.221,-2.82 0.683,-0.813 1.655,-1.423 2.913,-1.832 1.236,-0.39 2.778,-0.472 4.626,-0.245 z"
         fill="#ffffff"
         fill-opacity="0.3"
         id="path5232" />
    </g>
  </g>
</svg>
